{
	"asset":{
		"generator":"Khronos glTF Blender I/O v4.5.49",
		"version":"2.0"
	},
	"extensionsUsed":[
		"KHR_materials_emissive_strength",
		"KHR_materials_specular",
		"KHR_materials_sheen"
	],
	"scene":0,
	"scenes":[
		{
			"name":"Scene",
			"nodes":[
				1,
				2,
				3,
				4,
				5
			]
		}
	],
	"nodes":[
		{
			"name":"Crt tv 02-Freepoly.org",
			"rotation":[
				-0.70710688829422,
				0,
				0,
				0.7071066498756409
			],
			"scale":[
				0.014186916872859001,
				0.0141869205981493,
				0.014186921529471874
			],
			"translation":[
				-0.02067791484296322,
				0.06606285274028778,
				0.01182006299495697
			]
		},
		{
			"children":[
				0
			],
			"name":"Crt tv-Freepoly.org",
			"rotation":[
				0,
				-0.7270514369010925,
				0,
				0.6865830421447754
			],
			"scale":[
				7.37852668762207,
				7.37852668762207,
				7.37852668762207
			],
			"translation":[
				0.28749752044677734,
				1.4916367530822754,
				2.0568370819091797
			]
		},
		{
			"name":"Old TV",
			"scale":[
				3.718799591064453,
				3.718799591064453,
				3.718799591064453
			],
			"translation":[
				-3.0595126152038574,
				0,
				5.750096321105957
			]
		},
		{
			"name":"Object",
			"rotation":[
				0.0018211833667010069,
				0.7071045637130737,
				-0.0031091722194105387,
				0.7070998549461365
			],
			"scale":[
				0.12430623918771744,
				0.12430623918771744,
				0.12430626899003983
			],
			"translation":[
				0.7808858156204224,
				2.0203335285186768,
				0.3029608130455017
			]
		},
		{
			"name":"et",
			"rotation":[
				0.0018211833667010069,
				0.7071045637130737,
				-0.0031091722194105387,
				0.7070998549461365
			],
			"scale":[
				0.12430623918771744,
				0.12430623918771744,
				0.12430626899003983
			],
			"translation":[
				0.7808858156204224,
				2.0203335285186768,
				0.3029608130455017
			]
		},
		{
			"mesh":0,
			"name":"Curve.003",
			"scale":[
				25,
				25,
				25
			]
		}
	],
	"materials":[
		{
			"doubleSided":true,
			"name":"SVGMat",
			"pbrMetallicRoughness":{
				"baseColorFactor":[
					0,
					0,
					0,
					1
				],
				"metallicFactor":0
			}
		},
		{
			"doubleSided":true,
			"extensions":{
				"KHR_materials_sheen":{
					"sheenColorFactor":[
						0.0012101411120966077,
						0.00412343442440033,
						0.058363113552331924
					],
					"sheenRoughnessFactor":0.5
				}
			},
			"name":"Silver fabric procedural",
			"pbrMetallicRoughness":{
				"baseColorFactor":[
					0.6810579299926758,
					0.6810579299926758,
					0.6810579299926758,
					1
				],
				"metallicFactor":0,
				"roughnessFactor":0.3672727346420288
			}
		},
		{
			"doubleSided":true,
			"extensions":{
				"KHR_materials_specular":{
					"specularFactor":0.800000011920929
				}
			},
			"name":"Pink Porcelain",
			"normalTexture":{
				"index":0
			},
			"pbrMetallicRoughness":{
				"baseColorFactor":[
					1,
					0.21586057543754578,
					0.4620770215988159,
					1
				],
				"metallicFactor":0,
				"metallicRoughnessTexture":{
					"index":1
				}
			}
		},
		{
			"doubleSided":true,
			"emissiveFactor":[
				1,
				1,
				1
			],
			"extensions":{
				"KHR_materials_emissive_strength":{
					"emissiveStrength":19.899999618530273
				}
			},
			"name":"Material",
			"pbrMetallicRoughness":{
				"baseColorFactor":[
					0,
					0,
					0,
					1
				]
			}
		},
		{
			"doubleSided":true,
			"extensions":{
				"KHR_materials_specular":{
					"specularFactor":0.800000011920929
				}
			},
			"name":"Material.001",
			"normalTexture":{
				"index":2
			},
			"pbrMetallicRoughness":{
				"baseColorFactor":[
					1,
					0.21586057543754578,
					0.4620770215988159,
					1
				],
				"metallicFactor":0,
				"metallicRoughnessTexture":{
					"index":3
				}
			}
		}
	],
	"meshes":[
		{
			"name":"Curve.003",
			"primitives":[
				{
					"attributes":{
						"POSITION":0,
						"NORMAL":1,
						"TEXCOORD_0":2,
						"TEXCOORD_1":3,
						"TEXCOORD_2":4
					},
					"indices":5,
					"material":0
				},
				{
					"attributes":{
						"POSITION":6,
						"NORMAL":7,
						"TEXCOORD_0":8,
						"TEXCOORD_1":9,
						"TEXCOORD_2":10
					},
					"indices":11,
					"material":1
				},
				{
					"attributes":{
						"POSITION":12,
						"NORMAL":13,
						"TEXCOORD_0":14,
						"TEXCOORD_1":15,
						"TEXCOORD_2":16
					},
					"indices":17,
					"material":2
				},
				{
					"attributes":{
						"POSITION":18,
						"NORMAL":19,
						"TEXCOORD_0":20,
						"TEXCOORD_1":21,
						"TEXCOORD_2":22
					},
					"indices":23,
					"material":3
				},
				{
					"attributes":{
						"POSITION":24,
						"NORMAL":25,
						"TEXCOORD_0":26,
						"TEXCOORD_1":27,
						"TEXCOORD_2":28
					},
					"indices":29,
					"material":4
				}
			]
		}
	],
	"textures":[
		{
			"sampler":0,
			"source":0
		},
		{
			"sampler":0,
			"source":1
		},
		{
			"sampler":0,
			"source":0
		},
		{
			"sampler":0,
			"source":1
		}
	],
	"images":[
		{
			"mimeType":"image/jpeg",
			"name":"porcelain_03_normal",
			"uri":"porcelain_03_normal.jpg"
		},
		{
			"mimeType":"image/png",
			"name":"porcelain_03_roughness",
			"uri":"porcelain_03_roughness.png"
		}
	],
	"accessors":[
		{
			"bufferView":0,
			"componentType":5126,
			"count":890,
			"max":[
				0.4393240213394165,
				0.4168734848499298,
				0.07378166913986206
			],
			"min":[
				-0.21666082739830017,
				0.18351367115974426,
				0.011857867240905762
			],
			"type":"VEC3"
		},
		{
			"bufferView":1,
			"componentType":5126,
			"count":890,
			"type":"VEC3"
		},
		{
			"bufferView":2,
			"componentType":5126,
			"count":890,
			"type":"VEC2"
		},
		{
			"bufferView":3,
			"componentType":5126,
			"count":890,
			"type":"VEC2"
		},
		{
			"bufferView":4,
			"componentType":5126,
			"count":890,
			"type":"VEC2"
		},
		{
			"bufferView":5,
			"componentType":5123,
			"count":1416,
			"type":"SCALAR"
		},
		{
			"bufferView":6,
			"componentType":5126,
			"count":7070,
			"max":[
				0.5904783606529236,
				-0.2521474063396454,
				0.07427161931991577
			],
			"min":[
				-0.394450306892395,
				-0.3227996528148651,
				-0.07753926515579224
			],
			"type":"VEC3"
		},
		{
			"bufferView":7,
			"componentType":5126,
			"count":7070,
			"type":"VEC3"
		},
		{
			"bufferView":8,
			"componentType":5126,
			"count":7070,
			"type":"VEC2"
		},
		{
			"bufferView":9,
			"componentType":5126,
			"count":7070,
			"type":"VEC2"
		},
		{
			"bufferView":10,
			"componentType":5126,
			"count":7070,
			"type":"VEC2"
		},
		{
			"bufferView":11,
			"componentType":5123,
			"count":31362,
			"type":"SCALAR"
		},
		{
			"bufferView":12,
			"componentType":5126,
			"count":17048,
			"max":[
				0.7376042008399963,
				0.782996654510498,
				0.08138084411621094
			],
			"min":[
				-0.5521170496940613,
				-0.41565296053886414,
				-0.07477319240570068
			],
			"type":"VEC3"
		},
		{
			"bufferView":13,
			"componentType":5126,
			"count":17048,
			"type":"VEC3"
		},
		{
			"bufferView":14,
			"componentType":5126,
			"count":17048,
			"type":"VEC2"
		},
		{
			"bufferView":15,
			"componentType":5126,
			"count":17048,
			"type":"VEC2"
		},
		{
			"bufferView":16,
			"componentType":5126,
			"count":17048,
			"type":"VEC2"
		},
		{
			"bufferView":17,
			"componentType":5123,
			"count":67710,
			"type":"SCALAR"
		},
		{
			"bufferView":18,
			"componentType":5126,
			"count":1992,
			"max":[
				0.603603720664978,
				0.6685078144073486,
				0.0630083680152893
			],
			"min":[
				-0.4245460629463196,
				-0.05406185984611511,
				-0.03622281551361084
			],
			"type":"VEC3"
		},
		{
			"bufferView":19,
			"componentType":5126,
			"count":1992,
			"type":"VEC3"
		},
		{
			"bufferView":20,
			"componentType":5126,
			"count":1992,
			"type":"VEC2"
		},
		{
			"bufferView":21,
			"componentType":5126,
			"count":1992,
			"type":"VEC2"
		},
		{
			"bufferView":22,
			"componentType":5126,
			"count":1992,
			"type":"VEC2"
		},
		{
			"bufferView":23,
			"componentType":5123,
			"count":10608,
			"type":"SCALAR"
		},
		{
			"bufferView":24,
			"componentType":5126,
			"count":654,
			"max":[
				0.7378509640693665,
				0.7828936576843262,
				-0.054053544998168945
			],
			"min":[
				-0.5522868037223816,
				-0.41251036524772644,
				-1.0351251363754272
			],
			"type":"VEC3"
		},
		{
			"bufferView":25,
			"componentType":5126,
			"count":654,
			"type":"VEC3"
		},
		{
			"bufferView":26,
			"componentType":5126,
			"count":654,
			"type":"VEC2"
		},
		{
			"bufferView":27,
			"componentType":5126,
			"count":654,
			"type":"VEC2"
		},
		{
			"bufferView":28,
			"componentType":5126,
			"count":654,
			"type":"VEC2"
		},
		{
			"bufferView":29,
			"componentType":5123,
			"count":2709,
			"type":"SCALAR"
		}
	],
	"bufferViews":[
		{
			"buffer":0,
			"byteLength":10680,
			"byteOffset":0,
			"target":34962
		},
		{
			"buffer":0,
			"byteLength":10680,
			"byteOffset":10680,
			"target":34962
		},
		{
			"buffer":0,
			"byteLength":7120,
			"byteOffset":21360,
			"target":34962
		},
		{
			"buffer":0,
			"byteLength":7120,
			"byteOffset":28480,
			"target":34962
		},
		{
			"buffer":0,
			"byteLength":7120,
			"byteOffset":35600,
			"target":34962
		},
		{
			"buffer":0,
			"byteLength":2832,
			"byteOffset":42720,
			"target":34963
		},
		{
			"buffer":0,
			"byteLength":84840,
			"byteOffset":45552,
			"target":34962
		},
		{
			"buffer":0,
			"byteLength":84840,
			"byteOffset":130392,
			"target":34962
		},
		{
			"buffer":0,
			"byteLength":56560,
			"byteOffset":215232,
			"target":34962
		},
		{
			"buffer":0,
			"byteLength":56560,
			"byteOffset":271792,
			"target":34962
		},
		{
			"buffer":0,
			"byteLength":56560,
			"byteOffset":328352,
			"target":34962
		},
		{
			"buffer":0,
			"byteLength":62724,
			"byteOffset":384912,
			"target":34963
		},
		{
			"buffer":0,
			"byteLength":204576,
			"byteOffset":447636,
			"target":34962
		},
		{
			"buffer":0,
			"byteLength":204576,
			"byteOffset":652212,
			"target":34962
		},
		{
			"buffer":0,
			"byteLength":136384,
			"byteOffset":856788,
			"target":34962
		},
		{
			"buffer":0,
			"byteLength":136384,
			"byteOffset":993172,
			"target":34962
		},
		{
			"buffer":0,
			"byteLength":136384,
			"byteOffset":1129556,
			"target":34962
		},
		{
			"buffer":0,
			"byteLength":135420,
			"byteOffset":1265940,
			"target":34963
		},
		{
			"buffer":0,
			"byteLength":23904,
			"byteOffset":1401360,
			"target":34962
		},
		{
			"buffer":0,
			"byteLength":23904,
			"byteOffset":1425264,
			"target":34962
		},
		{
			"buffer":0,
			"byteLength":15936,
			"byteOffset":1449168,
			"target":34962
		},
		{
			"buffer":0,
			"byteLength":15936,
			"byteOffset":1465104,
			"target":34962
		},
		{
			"buffer":0,
			"byteLength":15936,
			"byteOffset":1481040,
			"target":34962
		},
		{
			"buffer":0,
			"byteLength":21216,
			"byteOffset":1496976,
			"target":34963
		},
		{
			"buffer":0,
			"byteLength":7848,
			"byteOffset":1518192,
			"target":34962
		},
		{
			"buffer":0,
			"byteLength":7848,
			"byteOffset":1526040,
			"target":34962
		},
		{
			"buffer":0,
			"byteLength":5232,
			"byteOffset":1533888,
			"target":34962
		},
		{
			"buffer":0,
			"byteLength":5232,
			"byteOffset":1539120,
			"target":34962
		},
		{
			"buffer":0,
			"byteLength":5232,
			"byteOffset":1544352,
			"target":34962
		},
		{
			"buffer":0,
			"byteLength":5418,
			"byteOffset":1549584,
			"target":34963
		}
	],
	"samplers":[
		{
			"magFilter":9729,
			"minFilter":9987
		}
	],
	"buffers":[
		{
			"byteLength":1555004,
			"uri":"tv.bin"
		}
	]
}
