{
	"asset":{
		"generator":"Khronos glTF Blender I/O v4.5.49",
		"version":"2.0"
	},
	"extensionsUsed":[
		"KHR_materials_emissive_strength",
		"KHR_materials_specular",
		"KHR_materials_sheen"
	],
	"scene":0,
	"scenes":[
		{
			"name":"Scene",
			"nodes":[
				0
			]
		}
	],
	"nodes":[
		{
			"mesh":0,
			"name":"Curve.003"
		}
	],
	"materials":[
		{
			"doubleSided":true,
			"name":"SVGMat",
			"pbrMetallicRoughness":{
				"baseColorFactor":[
					0,
					0,
					0,
					1
				],
				"metallicFactor":0
			}
		},
		{
			"doubleSided":true,
			"extensions":{
				"KHR_materials_sheen":{
					"sheenColorFactor":[
						0.0012101411120966077,
						0.00412343442440033,
						0.058363113552331924
					],
					"sheenRoughnessFactor":0.5
				}
			},
			"name":"Silver fabric procedural",
			"pbrMetallicRoughness":{
				"baseColorFactor":[
					0.6810579299926758,
					0.6810579299926758,
					0.6810579299926758,
					1
				],
				"metallicFactor":0,
				"roughnessFactor":0.3672727346420288
			}
		},
		{
			"doubleSided":true,
			"extensions":{
				"KHR_materials_specular":{
					"specularFactor":0.800000011920929
				}
			},
			"name":"Pink Porcelain",
			"normalTexture":{
				"index":0
			},
			"pbrMetallicRoughness":{
				"baseColorFactor":[
					1,
					0.21586057543754578,
					0.4620770215988159,
					1
				],
				"metallicFactor":0,
				"metallicRoughnessTexture":{
					"index":1
				}
			}
		},
		{
			"doubleSided":true,
			"emissiveFactor":[
				1,
				1,
				1
			],
			"extensions":{
				"KHR_materials_emissive_strength":{
					"emissiveStrength":19.899999618530273
				}
			},
			"name":"Material",
			"pbrMetallicRoughness":{
				"baseColorFactor":[
					0,
					0,
					0,
					1
				]
			}
		},
		{
			"doubleSided":true,
			"extensions":{
				"KHR_materials_specular":{
					"specularFactor":0.800000011920929
				}
			},
			"name":"Material.001",
			"normalTexture":{
				"index":2
			},
			"pbrMetallicRoughness":{
				"baseColorFactor":[
					1,
					0.21586057543754578,
					0.4620770215988159,
					1
				],
				"metallicFactor":0,
				"metallicRoughnessTexture":{
					"index":3
				}
			}
		}
	],
	"meshes":[
		{
			"name":"Curve.003",
			"primitives":[
				{
					"attributes":{
						"POSITION":0,
						"NORMAL":1,
						"TEXCOORD_0":2,
						"TEXCOORD_1":3,
						"TEXCOORD_2":4
					},
					"indices":5,
					"material":0
				},
				{
					"attributes":{
						"POSITION":6,
						"NORMAL":7,
						"TEXCOORD_0":8,
						"TEXCOORD_1":9,
						"TEXCOORD_2":10
					},
					"indices":11,
					"material":1
				},
				{
					"attributes":{
						"POSITION":12,
						"NORMAL":13,
						"TEXCOORD_0":14,
						"TEXCOORD_1":15,
						"TEXCOORD_2":16
					},
					"indices":17,
					"material":2
				},
				{
					"attributes":{
						"POSITION":18,
						"NORMAL":19,
						"TEXCOORD_0":20,
						"TEXCOORD_1":21,
						"TEXCOORD_2":22
					},
					"indices":23,
					"material":3
				},
				{
					"attributes":{
						"POSITION":24,
						"NORMAL":25,
						"TEXCOORD_0":26,
						"TEXCOORD_1":27,
						"TEXCOORD_2":28
					},
					"indices":29,
					"material":4
				}
			]
		}
	],
	"textures":[
		{
			"sampler":0,
			"source":0
		},
		{
			"sampler":0,
			"source":1
		},
		{
			"sampler":0,
			"source":0
		},
		{
			"sampler":0,
			"source":1
		}
	],
	"images":[
		{
			"mimeType":"image/jpeg",
			"name":"porcelain_03_normal",
			"uri":"porcelain_03_normal.jpg"
		},
		{
			"mimeType":"image/png",
			"name":"porcelain_03_roughness",
			"uri":"porcelain_03_roughness.png"
		}
	],
	"accessors":[
		{
			"bufferView":0,
			"componentType":5126,
			"count":890,
			"max":[
				0.34814417362213135,
				0.9102489948272705,
				0.7877436280250549
			],
			"min":[
				-0.3078406751155853,
				0.676889181137085,
				0.7258198261260986
			],
			"type":"VEC3"
		},
		{
			"bufferView":1,
			"componentType":5126,
			"count":890,
			"type":"VEC3"
		},
		{
			"bufferView":2,
			"componentType":5126,
			"count":890,
			"type":"VEC2"
		},
		{
			"bufferView":3,
			"componentType":5126,
			"count":890,
			"type":"VEC2"
		},
		{
			"bufferView":4,
			"componentType":5126,
			"count":890,
			"type":"VEC2"
		},
		{
			"bufferView":5,
			"componentType":5123,
			"count":1416,
			"type":"SCALAR"
		},
		{
			"bufferView":6,
			"componentType":5126,
			"count":7070,
			"max":[
				0.4992985129356384,
				0.2412281036376953,
				0.7882335782051086
			],
			"min":[
				-0.4856301546096802,
				0.17057585716247559,
				0.6364226937294006
			],
			"type":"VEC3"
		},
		{
			"bufferView":7,
			"componentType":5126,
			"count":7070,
			"type":"VEC3"
		},
		{
			"bufferView":8,
			"componentType":5126,
			"count":7070,
			"type":"VEC2"
		},
		{
			"bufferView":9,
			"componentType":5126,
			"count":7070,
			"type":"VEC2"
		},
		{
			"bufferView":10,
			"componentType":5126,
			"count":7070,
			"type":"VEC2"
		},
		{
			"bufferView":11,
			"componentType":5123,
			"count":31362,
			"type":"SCALAR"
		},
		{
			"bufferView":12,
			"componentType":5126,
			"count":17048,
			"max":[
				0.6464243531227112,
				1.2763721942901611,
				0.7953428030014038
			],
			"min":[
				-0.6432968974113464,
				0.07772254943847656,
				0.6391887664794922
			],
			"type":"VEC3"
		},
		{
			"bufferView":13,
			"componentType":5126,
			"count":17048,
			"type":"VEC3"
		},
		{
			"bufferView":14,
			"componentType":5126,
			"count":17048,
			"type":"VEC2"
		},
		{
			"bufferView":15,
			"componentType":5126,
			"count":17048,
			"type":"VEC2"
		},
		{
			"bufferView":16,
			"componentType":5126,
			"count":17048,
			"type":"VEC2"
		},
		{
			"bufferView":17,
			"componentType":5123,
			"count":67710,
			"type":"SCALAR"
		},
		{
			"bufferView":18,
			"componentType":5126,
			"count":1992,
			"max":[
				0.5124238729476929,
				1.1618833541870117,
				0.7769703269004822
			],
			"min":[
				-0.5157259106636047,
				0.4393136501312256,
				0.677739143371582
			],
			"type":"VEC3"
		},
		{
			"bufferView":19,
			"componentType":5126,
			"count":1992,
			"type":"VEC3"
		},
		{
			"bufferView":20,
			"componentType":5126,
			"count":1992,
			"type":"VEC2"
		},
		{
			"bufferView":21,
			"componentType":5126,
			"count":1992,
			"type":"VEC2"
		},
		{
			"bufferView":22,
			"componentType":5126,
			"count":1992,
			"type":"VEC2"
		},
		{
			"bufferView":23,
			"componentType":5123,
			"count":10608,
			"type":"SCALAR"
		},
		{
			"bufferView":24,
			"componentType":5126,
			"count":654,
			"max":[
				0.6466711163520813,
				1.2762691974639893,
				0.6599084138870239
			],
			"min":[
				-0.6434666514396667,
				0.08086514472961426,
				-0.321163147687912
			],
			"type":"VEC3"
		},
		{
			"bufferView":25,
			"componentType":5126,
			"count":654,
			"type":"VEC3"
		},
		{
			"bufferView":26,
			"componentType":5126,
			"count":654,
			"type":"VEC2"
		},
		{
			"bufferView":27,
			"componentType":5126,
			"count":654,
			"type":"VEC2"
		},
		{
			"bufferView":28,
			"componentType":5126,
			"count":654,
			"type":"VEC2"
		},
		{
			"bufferView":29,
			"componentType":5123,
			"count":2709,
			"type":"SCALAR"
		}
	],
	"bufferViews":[
		{
			"buffer":0,
			"byteLength":10680,
			"byteOffset":0,
			"target":34962
		},
		{
			"buffer":0,
			"byteLength":10680,
			"byteOffset":10680,
			"target":34962
		},
		{
			"buffer":0,
			"byteLength":7120,
			"byteOffset":21360,
			"target":34962
		},
		{
			"buffer":0,
			"byteLength":7120,
			"byteOffset":28480,
			"target":34962
		},
		{
			"buffer":0,
			"byteLength":7120,
			"byteOffset":35600,
			"target":34962
		},
		{
			"buffer":0,
			"byteLength":2832,
			"byteOffset":42720,
			"target":34963
		},
		{
			"buffer":0,
			"byteLength":84840,
			"byteOffset":45552,
			"target":34962
		},
		{
			"buffer":0,
			"byteLength":84840,
			"byteOffset":130392,
			"target":34962
		},
		{
			"buffer":0,
			"byteLength":56560,
			"byteOffset":215232,
			"target":34962
		},
		{
			"buffer":0,
			"byteLength":56560,
			"byteOffset":271792,
			"target":34962
		},
		{
			"buffer":0,
			"byteLength":56560,
			"byteOffset":328352,
			"target":34962
		},
		{
			"buffer":0,
			"byteLength":62724,
			"byteOffset":384912,
			"target":34963
		},
		{
			"buffer":0,
			"byteLength":204576,
			"byteOffset":447636,
			"target":34962
		},
		{
			"buffer":0,
			"byteLength":204576,
			"byteOffset":652212,
			"target":34962
		},
		{
			"buffer":0,
			"byteLength":136384,
			"byteOffset":856788,
			"target":34962
		},
		{
			"buffer":0,
			"byteLength":136384,
			"byteOffset":993172,
			"target":34962
		},
		{
			"buffer":0,
			"byteLength":136384,
			"byteOffset":1129556,
			"target":34962
		},
		{
			"buffer":0,
			"byteLength":135420,
			"byteOffset":1265940,
			"target":34963
		},
		{
			"buffer":0,
			"byteLength":23904,
			"byteOffset":1401360,
			"target":34962
		},
		{
			"buffer":0,
			"byteLength":23904,
			"byteOffset":1425264,
			"target":34962
		},
		{
			"buffer":0,
			"byteLength":15936,
			"byteOffset":1449168,
			"target":34962
		},
		{
			"buffer":0,
			"byteLength":15936,
			"byteOffset":1465104,
			"target":34962
		},
		{
			"buffer":0,
			"byteLength":15936,
			"byteOffset":1481040,
			"target":34962
		},
		{
			"buffer":0,
			"byteLength":21216,
			"byteOffset":1496976,
			"target":34963
		},
		{
			"buffer":0,
			"byteLength":7848,
			"byteOffset":1518192,
			"target":34962
		},
		{
			"buffer":0,
			"byteLength":7848,
			"byteOffset":1526040,
			"target":34962
		},
		{
			"buffer":0,
			"byteLength":5232,
			"byteOffset":1533888,
			"target":34962
		},
		{
			"buffer":0,
			"byteLength":5232,
			"byteOffset":1539120,
			"target":34962
		},
		{
			"buffer":0,
			"byteLength":5232,
			"byteOffset":1544352,
			"target":34962
		},
		{
			"buffer":0,
			"byteLength":5418,
			"byteOffset":1549584,
			"target":34963
		}
	],
	"samplers":[
		{
			"magFilter":9729,
			"minFilter":9987
		}
	],
	"buffers":[
		{
			"byteLength":1555004,
			"uri":"tv.bin"
		}
	]
}
