<svg width="651" height="438" viewBox="0 0 651 438" fill="none" xmlns="http://www.w3.org/2000/svg">
<rect x="12.2539" width="626.7" height="7.00224" fill="#9CE58F"/>
<rect x="13" y="424" width="626.7" height="14.0045" fill="#9CE58F"/>
<rect x="12.2539" y="54.2673" width="626.7" height="7.00224" fill="#9CE58F"/>
<rect y="11" width="12" height="413" fill="#9CE58F"/>
<rect x="639" y="12" width="12" height="412" fill="#9CE58F"/>
<rect x="12.75" y="54.75" width="625.5" height="368.5" fill="white" stroke="black" stroke-width="1.5"/>
<rect x="12.2539" y="7.0022" width="626.7" height="47.2651" fill="#9CE58F"/>
<rect x="13.0039" y="13.0039" width="38.7629" height="35.2617" fill="white" stroke="black" stroke-width="1.5"/>
<rect x="48.0151" y="13.0039" width="168.304" height="35.2617" fill="white" stroke="black" stroke-width="1.5"/>
<path d="M94.125 38H90.375V32.375H86.625V38H82.875V24.875H84.75V23H86.625V21.125H90.375V23H92.25V24.875H94.125V38ZM90.375 30.5V24.875H86.625V30.5H90.375ZM109.125 38H105.375V26.75H101.625V36.125H99.75V38H96V36.125H97.875V26.75H99.75V24.875H109.125V38ZM126 36.125H124.125V38H120.375V41.75H118.5V38H114.75V36.125H112.875V26.75H114.75V24.875H118.5V23H120.375V24.875H124.125V26.75H126V36.125ZM118.5 36.125V26.75H116.625V36.125H118.5ZM122.25 36.125V26.75H120.375V36.125H122.25ZM139.125 38H129.75V36.125H127.875V32.375H129.75V30.5H135.375V26.75H129.75V24.875H137.25V26.75H139.125V38ZM135.375 36.125V32.375H131.625V36.125H135.375ZM154.125 36.125H152.25V38H142.875V24.875H152.25V26.75H154.125V30.5H152.25V32.375H154.125V36.125ZM150.375 36.125V32.375H146.625V36.125H150.375ZM150.375 30.5V26.75H146.625V30.5H150.375ZM171 38H167.25V30.5H165.375V32.375H163.5V34.25H161.625V38H157.875V24.875H161.625V30.5H163.5V28.625H165.375V26.75H167.25V24.875H171V38ZM184.125 26.75H180.375V38H176.625V26.75H172.875V24.875H184.125V26.75Z" fill="black"/>
<rect x="18.9377" y="18.9377" width="4.67877" height="4.67877" fill="black"/>
<rect x="23.6167" y="23.6167" width="4.67877" height="4.67877" fill="black"/>
<rect x="28.2953" y="28.2953" width="4.67877" height="4.67877" fill="black"/>
<rect x="32.9742" y="23.6167" width="4.67877" height="4.67877" fill="black"/>
<rect x="37.6528" y="18.9377" width="4.67877" height="4.67877" fill="black"/>
<rect x="23.6167" y="32.9742" width="4.67877" height="4.67877" fill="black"/>
<rect x="18.9377" y="37.6528" width="4.67877" height="4.67877" fill="black"/>
<rect x="37.6528" y="37.6528" width="4.67877" height="4.67877" fill="black"/>
<rect x="32.9742" y="32.9742" width="4.67877" height="4.67877" fill="black"/>
<rect x="218.82" y="14.0045" width="36.7617" height="1.75056" fill="black"/>
<rect x="218.82" y="19.2561" width="36.7617" height="1.75056" fill="black"/>
<rect x="218.82" y="24.5078" width="36.7617" height="1.75056" fill="black"/>
<rect x="218.82" y="29.7595" width="36.7617" height="1.75056" fill="black"/>
<rect x="218.82" y="35.0112" width="36.7617" height="1.75056" fill="black"/>
<rect x="218.82" y="40.2628" width="36.7617" height="1.75056" fill="black"/>
<rect x="218.82" y="45.5145" width="36.7617" height="1.75056" fill="black"/>
<path d="M136.125 96H132.375V90.375H128.625V96H124.875V82.875H126.75V81H128.625V79.125H132.375V81H134.25V82.875H136.125V96ZM132.375 88.5V82.875H128.625V88.5H132.375ZM166.125 88.5H154.875V86.625H166.125V88.5ZM198 96H184.875V94.125H183V81H184.875V79.125H196.125V81H198V92.25H190.5V90.375H188.625V86.625H190.5V84.75H194.25V81H186.75V94.125H198V96ZM194.25 90.375V86.625H192.375V90.375H194.25ZM136.125 124.125H134.25V126H124.875V109.125H136.125V111H128.625V114.75H134.25V116.625H136.125V124.125ZM132.375 124.125V116.625H128.625V124.125H132.375ZM166.125 118.5H154.875V116.625H166.125V118.5ZM194.25 129.75H190.5V127.875H188.625V124.125H186.75V114.75H188.625V111H190.5V109.125H194.25V111H192.375V114.75H190.5V124.125H192.375V127.875H194.25V129.75ZM136.125 154.125H134.25V156H124.875V139.125H134.25V141H136.125V146.625H134.25V148.5H136.125V154.125ZM132.375 154.125V148.5H128.625V154.125H132.375ZM132.375 146.625V141H128.625V146.625H132.375ZM166.125 148.5H154.875V146.625H166.125V148.5ZM196.125 154.125H194.25V156H186.75V154.125H184.875V144.75H186.75V142.875H188.625V139.125H194.25V141H192.375V142.875H190.5V144.75H194.25V146.625H196.125V154.125ZM192.375 154.125V146.625H188.625V154.125H192.375ZM136.125 171H128.625V186H124.875V169.125H136.125V171ZM166.125 178.5H154.875V176.625H166.125V178.5ZM194.25 186H190.5V174.75H184.875V172.875H188.625V171H190.5V169.125H194.25V186ZM123 214.125H124.875V201H126.75V199.125H136.125V214.125H138V217.875H134.25V216H126.75V217.875H123V214.125ZM132.375 214.125V201H128.625V214.125H132.375ZM166.125 208.5H154.875V206.625H166.125V208.5ZM194.25 206.625H188.625V202.875H194.25V206.625ZM194.25 217.875H192.375V219.75H188.625V217.875H190.5V216H188.625V212.25H194.25V217.875ZM136.125 246H124.875V229.125H136.125V231H128.625V236.625H134.25V238.5H128.625V244.125H136.125V246ZM166.125 238.5H154.875V236.625H166.125V238.5ZM198 246H196.125V247.875H190.5V246H188.625V242.25H186.75V244.125H184.875V240.375H186.75V238.5H188.625V236.625H190.5V234.75H184.875V232.875H183V229.125H184.875V227.25H190.5V229.125H192.375V232.875H194.25V231H196.125V234.75H194.25V236.625H192.375V238.5H190.5V240.375H196.125V242.25H198V246ZM192.375 234.75V232.875H190.5V234.75H192.375ZM188.625 232.875V229.125H186.75V232.875H188.625ZM194.25 246V242.25H192.375V246H194.25ZM190.5 242.25V240.375H188.625V242.25H190.5ZM136.125 276H124.875V259.125H136.125V261H128.625V266.625H134.25V268.5H128.625V274.125H136.125V276ZM136.125 257.25H132.375V253.5H136.125V257.25ZM128.625 257.25H124.875V253.5H128.625V257.25ZM166.125 268.5H154.875V266.625H166.125V268.5ZM196.125 276H192.375V274.125H190.5V272.25H188.625V270.375H186.75V268.5H184.875V266.625H186.75V264.75H188.625V262.875H190.5V261H192.375V259.125H196.125V261H194.25V262.875H192.375V264.75H190.5V266.625H188.625V268.5H190.5V270.375H192.375V272.25H194.25V274.125H196.125V276ZM123 289.125H126.75V292.875H128.625V289.125H132.375V292.875H134.25V289.125H138V292.875H136.125V294.75H134.25V298.5H136.125V302.25H138V306H134.25V300.375H132.375V306H128.625V300.375H126.75V306H123V302.25H124.875V298.5H126.75V294.75H124.875V292.875H123V289.125ZM166.125 298.5H154.875V296.625H166.125V298.5ZM194.25 311.625H186.75V289.125H194.25V291H190.5V309.75H194.25V311.625ZM136.125 334.125H134.25V336H126.75V334.125H124.875V330.375H128.625V334.125H132.375V328.5H128.625V326.625H132.375V321H128.625V324.75H124.875V321H126.75V319.125H134.25V321H136.125V326.625H134.25V328.5H136.125V334.125ZM166.125 328.5H154.875V326.625H166.125V328.5ZM199.875 336H196.125V330.375H194.25V328.5H192.375V326.625H190.5V336H186.75V319.125H190.5V322.875H192.375V324.75H194.25V326.625H196.125V319.125H199.875V336ZM211.125 328.5H209.25V330.375H203.625V328.5H201.75V322.875H203.625V321H209.25V322.875H211.125V328.5ZM211.125 334.125H201.75V332.25H211.125V334.125ZM207.375 328.5V322.875H205.5V328.5H207.375ZM138 366H134.25V356.625H132.375V358.5H130.5V360.375H128.625V366H124.875V349.125H128.625V356.625H130.5V354.75H132.375V352.875H134.25V349.125H138V366ZM166.125 358.5H154.875V356.625H166.125V358.5ZM196.125 366H184.875V362.25H186.75V360.375H188.625V358.5H190.5V356.625H192.375V351H188.625V354.75H184.875V351H186.75V349.125H194.25V351H196.125V356.625H194.25V358.5H192.375V360.375H190.5V362.25H188.625V364.125H196.125V366ZM138 396H134.25V386.625H132.375V388.5H130.5V390.375H128.625V396H124.875V379.125H128.625V386.625H130.5V384.75H132.375V382.875H134.25V379.125H138V396ZM136.125 375.375H134.25V377.25H126.75V375.375H124.875V373.5H128.625V375.375H132.375V373.5H136.125V375.375ZM166.125 388.5H154.875V386.625H166.125V388.5ZM194.25 386.625H188.625V381H190.5V379.125H194.25V381H192.375V382.875H194.25V386.625Z" fill="black"/>
<path d="M303 96H299.25V94.125H297.375V90.375H295.5V88.5H293.625V96H289.875V79.125H293.625V86.625H295.5V82.875H297.375V81H299.25V79.125H303V82.875H299.25V86.625H297.375V88.5H299.25V90.375H301.125V94.125H303V96ZM331.125 88.5H319.875V86.625H331.125V88.5ZM361.125 88.5H357.375V92.25H353.625V88.5H349.875V86.625H353.625V82.875H357.375V86.625H361.125V88.5ZM301.125 126H297.375V111H293.625V124.125H291.75V126H288V124.125H289.875V111H291.75V109.125H301.125V126ZM331.125 118.5H319.875V116.625H331.125V118.5ZM359.25 129.75H355.5V127.875H353.625V122.25H351.75V120.375H349.875V118.5H351.75V116.625H353.625V111H355.5V109.125H359.25V111H357.375V116.625H355.5V118.5H353.625V120.375H355.5V122.25H357.375V127.875H359.25V129.75ZM297.375 150.375H295.5V144.75H293.625V156H289.875V139.125H293.625V142.875H295.5V144.75H297.375V150.375ZM303 156H299.25V144.75H297.375V142.875H299.25V139.125H303V156ZM331.125 148.5H319.875V146.625H331.125V148.5ZM359.25 146.625H357.375V150.375H353.625V146.625H351.75V141H353.625V139.125H357.375V141H359.25V146.625ZM357.375 156H353.625V152.25H357.375V156ZM301.125 186H297.375V178.5H293.625V186H289.875V169.125H293.625V176.625H297.375V169.125H301.125V186ZM331.125 178.5H319.875V176.625H331.125V178.5ZM361.125 184.125H359.25V186H357.375V189.75H353.625V186H351.75V184.125H349.875V182.25H353.625V184.125H357.375V180.375H355.5V178.5H353.625V176.625H351.75V174.75H349.875V171H351.75V169.125H353.625V165.375H357.375V169.125H359.25V171H361.125V172.875H357.375V171H353.625V174.75H355.5V176.625H357.375V178.5H359.25V180.375H361.125V184.125ZM301.125 214.125H299.25V216H291.75V214.125H289.875V201H291.75V199.125H299.25V201H301.125V214.125ZM297.375 214.125V201H293.625V214.125H297.375ZM331.125 208.5H319.875V206.625H331.125V208.5ZM363 212.25H361.125V216H357.375V212.25H355.5V216H351.75V212.25H349.875V210.375H351.75V204.75H349.875V202.875H351.75V199.125H355.5V202.875H357.375V199.125H361.125V202.875H363V204.75H361.125V210.375H363V212.25ZM357.375 210.375V204.75H355.5V210.375H357.375ZM301.125 246H297.375V231H293.625V246H289.875V229.125H301.125V246ZM331.125 238.5H319.875V236.625H331.125V238.5ZM363 246H359.25V244.125H357.375V246H351.75V244.125H349.875V236.625H351.75V234.75H349.875V231H351.75V229.125H357.375V231H359.25V234.75H357.375V236.625H353.625V244.125H357.375V240.375H355.5V238.5H363V240.375H361.125V244.125H363V246ZM355.5 234.75V231H353.625V234.75H355.5ZM301.125 266.625H299.25V268.5H293.625V276H289.875V259.125H299.25V261H301.125V266.625ZM297.375 266.625V261H293.625V266.625H297.375ZM331.125 268.5H319.875V266.625H331.125V268.5ZM363 268.5H359.25V270.375H361.125V272.25H357.375V270.375H355.5V272.25H351.75V270.375H353.625V268.5H349.875V266.625H353.625V264.75H351.75V262.875H355.5V264.75H357.375V262.875H361.125V264.75H359.25V266.625H363V268.5ZM301.125 304.125H299.25V306H291.75V304.125H289.875V291H291.75V289.125H299.25V291H301.125V294.75H297.375V291H293.625V304.125H297.375V300.375H301.125V304.125ZM331.125 298.5H319.875V296.625H331.125V298.5ZM363 292.875H361.125V294.75H355.5V292.875H353.625V291H351.75V292.875H349.875V294.75H348V291H349.875V289.125H355.5V291H357.375V292.875H359.25V291H361.125V289.125H363V292.875ZM301.125 321H297.375V336H293.625V321H289.875V319.125H301.125V321ZM331.125 328.5H319.875V326.625H331.125V328.5ZM361.125 328.5H359.25V330.375H357.375V332.25H355.5V334.125H353.625V336H349.875V334.125H351.75V332.25H353.625V330.375H355.5V328.5H357.375V326.625H355.5V324.75H353.625V322.875H351.75V321H349.875V319.125H353.625V321H355.5V322.875H357.375V324.75H359.25V326.625H361.125V328.5ZM301.125 358.5H299.25V362.25H297.375V364.125H295.5V366H289.875V364.125H293.625V362.25H295.5V360.375H291.75V358.5H289.875V349.125H293.625V358.5H297.375V349.125H301.125V358.5ZM331.125 358.5H319.875V356.625H331.125V358.5ZM363 362.25H361.125V366H357.375V362.25H349.875V358.5H351.75V349.125H355.5V358.5H353.625V360.375H357.375V352.875H361.125V360.375H363V362.25ZM303 390.375H301.125V392.25H297.375V396H293.625V392.25H289.875V390.375H288V382.875H289.875V381H293.625V379.125H297.375V381H301.125V382.875H303V390.375ZM293.625 390.375V382.875H291.75V390.375H293.625ZM299.25 390.375V382.875H297.375V390.375H299.25ZM331.125 388.5H319.875V386.625H331.125V388.5ZM361.125 382.875H359.25V386.625H357.375V390.375H355.5V396H351.75V390.375H353.625V386.625H355.5V382.875H357.375V381H349.875V379.125H361.125V382.875Z" fill="black"/>
<path d="M466.125 96H462.375V90.375H460.5V88.5H458.625V84.75H456.75V82.875H454.875V79.125H458.625V82.875H460.5V84.75H462.375V88.5H464.25V90.375H466.125V96ZM458.625 96H454.875V90.375H456.75V88.5H458.625V96ZM462.375 79.125H466.125V82.875H464.25V84.75H462.375V79.125ZM496.125 88.5H484.875V86.625H496.125V88.5ZM526.125 82.875H524.25V86.625H522.375V90.375H520.5V94.125H518.625V97.875H514.875V94.125H516.75V90.375H518.625V86.625H520.5V82.875H522.375V79.125H526.125V82.875ZM468 127.875H464.25V126H454.875V109.125H458.625V124.125H462.375V109.125H466.125V124.125H468V127.875ZM496.125 118.5H484.875V116.625H496.125V118.5ZM526.125 116.625H514.875V114.75H526.125V116.625ZM526.125 120.375H514.875V118.5H526.125V120.375ZM466.125 156H462.375V150.375H456.75V148.5H454.875V139.125H458.625V148.5H462.375V139.125H466.125V156ZM496.125 148.5H484.875V146.625H496.125V148.5ZM526.125 154.125H524.25V156H516.75V154.125H514.875V150.375H518.625V154.125H522.375V148.5H518.625V146.625H522.375V141H518.625V144.75H514.875V141H516.75V139.125H524.25V141H526.125V146.625H524.25V148.5H526.125V154.125ZM468 186H454.875V169.125H458.625V184.125H460.5V169.125H462.375V184.125H464.25V169.125H468V186ZM496.125 178.5H484.875V176.625H496.125V178.5ZM526.125 180.375H524.25V182.25H522.375V186H516.75V184.125H518.625V182.25H520.5V180.375H516.75V178.5H514.875V171H516.75V169.125H524.25V171H526.125V180.375ZM522.375 178.5V171H518.625V178.5H522.375ZM464.25 216H454.875V199.125H458.625V214.125H460.5V199.125H462.375V214.125H464.25V199.125H468V217.875H464.25V216ZM496.125 208.5H484.875V206.625H496.125V208.5ZM526.125 206.625H520.5V201H522.375V199.125H526.125V201H524.25V202.875H526.125V206.625ZM518.625 206.625H513V201H514.875V199.125H518.625V201H516.75V202.875H518.625V206.625ZM466.125 244.125H464.25V246H454.875V232.875H453V229.125H458.625V236.625H464.25V238.5H466.125V244.125ZM462.375 244.125V238.5H458.625V244.125H462.375ZM496.125 238.5H484.875V236.625H496.125V238.5ZM526.125 242.25H524.25V244.125H522.375V246H514.875V244.125H520.5V242.25H522.375V238.5H514.875V229.125H526.125V231H518.625V236.625H524.25V238.5H526.125V242.25ZM464.25 274.125H462.375V276H454.875V259.125H458.625V266.625H462.375V268.5H464.25V259.125H468V276H464.25V274.125ZM460.5 274.125V268.5H458.625V274.125H460.5ZM496.125 268.5H484.875V266.625H496.125V268.5ZM528 274.125H526.125V276H518.625V274.125H516.75V261H518.625V259.125H526.125V261H528V274.125ZM524.25 274.125V266.625H522.375V262.875H524.25V261H520.5V268.5H522.375V272.25H520.5V274.125H524.25ZM466.125 304.125H464.25V306H454.875V289.125H458.625V296.625H464.25V298.5H466.125V304.125ZM462.375 304.125V298.5H458.625V304.125H462.375ZM496.125 298.5H484.875V296.625H496.125V298.5ZM526.125 292.875H524.25V296.625H522.375V300.375H520.5V304.125H518.625V307.875H514.875V304.125H516.75V300.375H518.625V296.625H520.5V292.875H522.375V289.125H526.125V292.875ZM466.125 334.125H464.25V336H456.75V334.125H454.875V330.375H458.625V334.125H462.375V328.5H456.75V326.625H462.375V321H458.625V324.75H454.875V321H456.75V319.125H464.25V321H466.125V334.125ZM496.125 328.5H484.875V326.625H496.125V328.5ZM526.125 324.75H524.25V326.625H522.375V330.375H518.625V326.625H520.5V324.75H522.375V321H518.625V324.75H514.875V321H516.75V319.125H524.25V321H526.125V324.75ZM522.375 336H518.625V332.25H522.375V336ZM466.125 366H460.5V364.125H458.625V358.5H456.75V366H453V349.125H456.75V356.625H458.625V351H460.5V349.125H466.125V351H468V364.125H466.125V366ZM464.25 351H462.375V364.125H464.25V351ZM496.125 358.5H484.875V356.625H496.125V358.5ZM526.125 358.5H514.875V356.625H526.125V358.5ZM466.125 396H462.375V388.5H460.5V390.375H458.625V396H454.875V390.375H456.75V386.625H454.875V381H456.75V379.125H466.125V396ZM462.375 386.625V381H458.625V386.625H462.375ZM496.125 388.5H484.875V386.625H496.125V388.5ZM526.125 394.125H524.25V396H516.75V394.125H514.875V388.5H516.75V386.625H514.875V381H516.75V379.125H524.25V381H526.125V386.625H524.25V388.5H526.125V394.125ZM522.375 386.625V381H518.625V384.75H520.5V386.625H522.375ZM522.375 394.125V390.375H520.5V388.5H518.625V394.125H522.375Z" fill="black"/>
</svg>
