<svg width="264" height="88" viewBox="0 0 264 88" fill="none" xmlns="http://www.w3.org/2000/svg">
<rect x="88" width="88" height="88" fill="#919191"/>
<rect x="176" width="88" height="88" fill="#919191"/>
<rect x="91" y="3" width="82" height="82" fill="white"/>
<rect x="110.247" y="28.4622" width="43.5061" height="37.291" fill="#FF0066"/>
<rect x="116.462" y="16.0317" width="31.0758" height="6.21516" fill="#FF0066"/>
<rect x="116.462" y="64.9512" width="31.0758" height="7.01712" fill="#FF0066"/>
<rect x="153.753" y="59.5378" width="31.0758" height="6.21516" transform="rotate(-90 153.753 59.5378)" fill="#FF0066"/>
<rect x="104.032" y="59.5378" width="31.0758" height="6.21516" transform="rotate(-90 104.032 59.5378)" fill="#FF0066"/>
<rect x="116.462" y="28.4622" width="6.21516" height="6.21516" fill="white"/>
<rect x="110.247" y="16.0317" width="6.21516" height="6.21516" fill="#919191"/>
<rect x="147.538" y="16.0317" width="6.21516" height="6.21516" fill="#919191"/>
<rect x="116.462" y="9.81665" width="31.0758" height="6.21516" fill="#919191"/>
<rect width="6.21516" height="6.21516" transform="matrix(1 0 0 -1 110.247 71.9683)" fill="#919191"/>
<rect width="6.21516" height="6.21516" transform="matrix(1 0 0 -1 147.538 71.9683)" fill="#919191"/>
<rect width="31.0758" height="6.21516" transform="matrix(1 0 0 -1 116.462 78.1833)" fill="#919191"/>
<rect width="6.21516" height="6.21516" transform="matrix(0 -1 -1 0 159.968 65.7532)" fill="#919191"/>
<rect width="6.21516" height="6.21516" transform="matrix(0 -1 -1 0 159.968 28.4622)" fill="#919191"/>
<rect width="31.0758" height="6.21516" transform="matrix(0 -1 -1 0 166.183 59.5378)" fill="#919191"/>
<rect x="104.032" y="65.7532" width="6.21516" height="6.21516" transform="rotate(-90 104.032 65.7532)" fill="#919191"/>
<rect x="104.032" y="28.4622" width="6.21516" height="6.21516" transform="rotate(-90 104.032 28.4622)" fill="#919191"/>
<rect x="97.8167" y="59.5378" width="31.0758" height="6.21516" transform="rotate(-90 97.8167 59.5378)" fill="#919191"/>
<rect x="128.892" y="34.6772" width="6.21516" height="6.21516" fill="#FF0066"/>
<rect x="116.462" y="22.2468" width="6.21516" height="6.21516" fill="#FF0066"/>
<rect x="122.677" y="28.4622" width="18.6455" height="6.21516" fill="#FF0066"/>
<rect x="110.247" y="22.2468" width="6.21516" height="6.21516" fill="#FF0066"/>
<rect x="147.538" y="28.4622" width="6.21516" height="6.21516" fill="#FF0066"/>
<rect x="122.677" y="22.2468" width="31.0758" height="6.21516" fill="#FF0066"/>
<rect x="122.677" y="34.6772" width="6.21516" height="6.21516" fill="white"/>
<rect x="128.892" y="40.8923" width="6.21516" height="6.21516" fill="white"/>
<rect x="135.108" y="34.6772" width="6.21516" height="6.21516" fill="white"/>
<rect x="141.323" y="28.4622" width="6.21516" height="6.21516" fill="white"/>
<rect x="122.677" y="47.1077" width="6.21516" height="6.21516" fill="white"/>
<rect x="116.462" y="53.3228" width="6.21516" height="6.21516" fill="white"/>
<rect x="135.108" y="47.1077" width="6.21516" height="6.21516" fill="white"/>
<rect x="141.323" y="53.3228" width="6.21516" height="6.21516" fill="white"/>
<rect width="88" height="88" fill="#919191"/>
<rect x="3" y="3" width="82" height="82" fill="white"/>
<rect x="179" y="3" width="82" height="82" fill="white"/>
<rect x="198.247" y="28.4622" width="43.5061" height="37.291" fill="#9CE58F"/>
<rect x="204.462" y="16.0317" width="31.0758" height="6.21516" fill="#9CE58F"/>
<rect x="204.462" y="64.9512" width="31.0758" height="7.01712" fill="#9CE58F"/>
<rect x="241.753" y="59.5378" width="31.0758" height="6.21516" transform="rotate(-90 241.753 59.5378)" fill="#9CE58F"/>
<rect x="192.032" y="59.5378" width="31.0758" height="6.21516" transform="rotate(-90 192.032 59.5378)" fill="#9CE58F"/>
<rect x="221.103" y="52.5208" width="6.21516" height="6.21516" fill="white"/>
<rect x="227.318" y="46.3057" width="6.21516" height="6.21516" fill="white"/>
<rect x="227.318" y="40.8923" width="6.21516" height="6.21516" fill="white"/>
<rect x="198.247" y="16.0317" width="6.21516" height="6.21516" fill="#919191"/>
<rect x="235.538" y="16.0317" width="6.21516" height="6.21516" fill="#919191"/>
<rect x="204.462" y="9.81665" width="31.0758" height="6.21516" fill="#919191"/>
<rect width="6.21516" height="6.21516" transform="matrix(1 0 0 -1 198.247 71.9683)" fill="#919191"/>
<rect width="6.21516" height="6.21516" transform="matrix(1 0 0 -1 235.538 71.9683)" fill="#919191"/>
<rect width="31.0758" height="6.21516" transform="matrix(1 0 0 -1 204.462 78.1833)" fill="#919191"/>
<rect width="6.21516" height="6.21516" transform="matrix(0 -1 -1 0 247.968 65.7529)" fill="#919191"/>
<rect width="6.21516" height="6.21516" transform="matrix(0 -1 -1 0 247.968 28.4622)" fill="#919191"/>
<rect width="31.0758" height="6.21516" transform="matrix(0 -1 -1 0 254.183 59.5378)" fill="#919191"/>
<rect x="192.032" y="65.7529" width="6.21516" height="6.21516" transform="rotate(-90 192.032 65.7529)" fill="#919191"/>
<rect x="192.032" y="28.4622" width="6.21516" height="6.21516" transform="rotate(-90 192.032 28.4622)" fill="#919191"/>
<rect x="185.817" y="59.5378" width="31.0758" height="6.21516" transform="rotate(-90 185.817 59.5378)" fill="#919191"/>
<rect x="216.892" y="34.6772" width="6.21516" height="6.21516" fill="#9CE58F"/>
<rect x="204.462" y="22.2471" width="6.21516" height="6.21516" fill="#9CE58F"/>
<rect x="210.677" y="28.4622" width="18.6455" height="6.21516" fill="#9CE58F"/>
<rect x="198.247" y="22.2471" width="6.21516" height="6.21516" fill="#9CE58F"/>
<rect x="210.677" y="22.2471" width="31.0758" height="6.21516" fill="#9CE58F"/>
<rect x="233.533" y="34.6772" width="6.21516" height="6.21516" fill="white"/>
<rect x="208.472" y="52.5208" width="6.21516" height="6.21516" fill="white"/>
<rect x="214.687" y="58.7361" width="6.21516" height="6.21516" fill="white"/>
<rect x="233.533" y="28.4622" width="6.21516" height="6.21516" fill="white"/>
<rect x="202.257" y="46.3057" width="6.21516" height="6.21516" fill="white"/>
</svg>
