<svg width="309" height="49" viewBox="0 0 309 49" fill="none" xmlns="http://www.w3.org/2000/svg">
<rect x="1.5" y="1.5" width="306" height="46" fill="#FF3D85" stroke="white" stroke-width="3"/>
<rect x="285" y="3" width="7" height="7" fill="#FF75A8"/>
<rect x="223" y="3" width="7" height="7" fill="#FF75A8"/>
<rect x="85" y="3" width="7" height="7" fill="#FF75A8"/>
<rect x="36" y="22" width="7" height="7" fill="#FF75A8"/>
<rect x="205" y="3" width="7" height="7" fill="#FF75A8"/>
<rect x="299" y="24" width="7" height="22" fill="#FF75A8"/>
<rect x="259" y="39" width="15" height="7" fill="#FF75A8"/>
<rect x="251" y="3" width="15" height="7" fill="#FF75A8"/>
<rect x="299" y="10" width="7" height="7" fill="#FF75A8"/>
<rect x="292" y="3" width="14" height="7" fill="white"/>
<rect x="274" y="39" width="14" height="7" fill="white"/>
<rect x="245" y="39" width="7" height="7" fill="white"/>
<rect x="292" y="17" width="7" height="7" fill="white"/>
<rect x="159" y="39" width="7" height="7" fill="white"/>
<rect x="173" y="39" width="7" height="7" fill="#FF75A8"/>
<rect x="108" y="3" width="7" height="7" fill="#FF75A8"/>
<rect x="65" y="3" width="7" height="7" fill="#FF75A8"/>
<rect x="266" y="3" width="12" height="7" fill="white"/>
<rect width="309" height="3" fill="white"/>
<rect y="46" width="309" height="3" fill="#FF7CAC"/>
<rect y="48" width="48" height="3" transform="rotate(-90 0 48)" fill="#FF7CAC"/>
<rect x="306" y="49" width="49" height="3" transform="rotate(-90 306 49)" fill="white"/>
<rect x="306" y="46" width="3" height="3" fill="#FFD9E7"/>
<rect x="306" width="3" height="3" fill="#FFD9E7"/>
<rect width="3" height="3" fill="#FFD9E7"/>
<rect y="46" width="3" height="3" fill="#FFD9E7"/>
<rect width="7" height="7" transform="matrix(-1 0 0 1 24 3)" fill="#FF75A8"/>
<rect width="7" height="22" transform="matrix(-1 0 0 1 10 24)" fill="#FF75A8"/>
<rect width="15" height="7" transform="matrix(-1 0 0 1 50 39)" fill="#FF75A8"/>
<rect width="20" height="7" transform="matrix(-1 0 0 1 159 39)" fill="#FF75A8"/>
<rect x="212" y="39" width="7" height="7" fill="white"/>
<rect x="226" y="39" width="7" height="7" fill="white"/>
<rect width="15" height="7" transform="matrix(-1 0 0 1 58 3)" fill="#FF75A8"/>
<rect width="7" height="7" transform="matrix(-1 0 0 1 10 10)" fill="#FF75A8"/>
<rect width="14" height="7" transform="matrix(-1 0 0 1 17 3)" fill="white"/>
<rect width="14" height="7" transform="matrix(-1 0 0 1 35 39)" fill="white"/>
<rect width="7" height="7" transform="matrix(-1 0 0 1 64 39)" fill="white"/>
<rect width="13" height="7" transform="matrix(-1 0 0 1 85 3)" fill="white"/>
<rect width="13" height="7" transform="matrix(-1 0 0 1 243 3)" fill="white"/>
<rect width="61" height="7" transform="matrix(-1 0 0 1 132 39)" fill="white"/>
<rect width="61" height="7" transform="matrix(-1 0 0 1 183 3)" fill="white"/>
<rect width="7" height="7" transform="matrix(-1 0 0 1 17 17)" fill="white"/>
<rect width="12" height="7" transform="matrix(-1 0 0 1 43 3)" fill="white"/>
</svg>
