<svg width="576" height="215" viewBox="0 0 576 215" fill="none" xmlns="http://www.w3.org/2000/svg">
<rect x="15" width="546" height="200" fill="#333333"/>
<rect x="115" y="155" width="198" height="12" fill="#242424"/>
<rect x="144" y="122" width="198" height="33" fill="#242424"/>
<rect x="26" y="60" width="198" height="12" fill="#242424"/>
<rect x="55" y="27" width="198" height="33" fill="#242424"/>
<rect x="314" y="61" width="198" height="12" fill="#242424"/>
<rect x="351" y="28" width="198" height="33" fill="#242424"/>
<rect x="326" y="155" width="198" height="12" fill="#242424"/>
<rect x="355" y="122" width="198" height="33" fill="#242424"/>
<rect x="15" width="546" height="20" fill="white"/>
<rect x="15" y="4" width="11" height="194" fill="white"/>
<rect x="550" y="3" width="11" height="197" fill="white"/>
<rect x="15" y="73" width="546" height="42" fill="white"/>
<rect x="15" y="166" width="544" height="34" fill="white"/>
<rect x="425" y="181" width="10" height="10" fill="#D7D7D7"/>
<rect x="289" y="181" width="10" height="10" fill="#D7D7D7"/>
<rect x="123" y="181" width="90" height="10" fill="#D7D7D7"/>
<rect x="15" y="180" width="90" height="10" fill="#D7D7D7"/>
<rect x="289" y="190" width="61" height="10" fill="#D7D7D7"/>
<rect x="15" y="190" width="263" height="10" fill="#D7D7D7"/>
<rect x="15" y="73" width="263" height="10" fill="#D7D7D7"/>
<rect x="349" y="181" width="61" height="10" fill="#D7D7D7"/>
<rect x="207" y="82" width="61" height="10" fill="#D7D7D7"/>
<rect x="314" y="73" width="61" height="10" fill="#D7D7D7"/>
<rect x="297" y="83" width="35" height="10" fill="#D7D7D7"/>
<rect x="428" y="73" width="35" height="10" fill="#D7D7D7"/>
<rect x="15" y="183" width="77" height="6" transform="rotate(-90 15 183)" fill="#D7D7D7"/>
<rect x="555" y="192" width="77" height="6" transform="rotate(-90 555 192)" fill="#D7D7D7"/>
<rect x="555" y="77" width="77" height="6" transform="rotate(-90 555 77)" fill="#D7D7D7"/>
<rect x="350" y="190" width="211" height="10" fill="#D7D7D7"/>
<rect x="489" y="73" width="61" height="10" fill="#D7D7D7"/>
<rect x="361" y="200" width="200" height="15" fill="#84CC77"/>
<rect x="218" y="200" width="143" height="15" fill="#BFF2B6"/>
<rect x="561" width="15" height="52" fill="#BFF2B6"/>
<rect y="148" width="15" height="52" fill="#BFF2B6"/>
<rect x="206" y="200" width="15" height="15" fill="#7ACA6C"/>
</svg>
