<svg width="1037" height="223" viewBox="0 0 1037 223" fill="none" xmlns="http://www.w3.org/2000/svg">
<rect width="1037" height="222.572" fill="#FFD9E7"/>
<path d="M868 166H843V128.5H830.5V116H818V103.5H805.5V166H780.5V53.5H805.5V78.5H818V91H830.5V103.5H843V53.5H868V166Z" fill="#FF5599"/>
<path d="M755.5 153.5H743V166H693V153.5H680.5V66H693V53.5H743V66H755.5V153.5ZM730.5 153.5V66H705.5V153.5H730.5Z" fill="#FF5599"/>
<path d="M643 166H593V153.5H605.5V66H593V53.5H643V66H630.5V153.5H643V166Z" fill="#FF5599"/>
<path d="M555.5 166H530.5V128.5H518V116H505.5V166H480.5V53.5H543V66H555.5V103.5H543V128.5H555.5V166ZM530.5 103.5V66H505.5V103.5H530.5Z" fill="#FF5599"/>
<path d="M455.5 166H380.5V53.5H405.5V153.5H455.5V166Z" fill="#FF5599"/>
<path d="M355.5 153.5H343V166H293V153.5H280.5V66H293V53.5H343V66H355.5V153.5ZM330.5 153.5V66H305.5V153.5H330.5Z" fill="#FF5599"/>
<path d="M255.5 141H243V153.5H230.5V166H205.5V153.5H193V141H180.5V53.5H205.5V141H230.5V53.5H255.5V141Z" fill="#FF5599"/>
</svg>
