<svg width="908" height="201" viewBox="0 0 908 201" fill="none" xmlns="http://www.w3.org/2000/svg">
<g clip-path="url(#clip0_394_373)">
<rect width="908" height="201" fill="white"/>
<path d="M189.5 131H177V143.5H164.5V156H139.5V143.5H127V131H114.5V43.5H139.5V131H164.5V43.5H189.5V131ZM289.5 143.5H277V156H227V143.5H214.5V56H227V43.5H277V56H289.5V143.5ZM264.5 143.5V56H239.5V143.5H264.5ZM389.5 156H314.5V43.5H339.5V143.5H389.5V156ZM489.5 156H464.5V118.5H452V106H439.5V156H414.5V43.5H477V56H489.5V93.5H477V118.5H489.5V156ZM464.5 93.5V56H439.5V93.5H464.5ZM577 156H527V143.5H539.5V56H527V43.5H577V56H564.5V143.5H577V156ZM689.5 143.5H677V156H627V143.5H614.5V56H627V43.5H677V56H689.5V143.5ZM664.5 143.5V56H639.5V143.5H664.5ZM802 156H777V118.5H764.5V106H752V93.5H739.5V156H714.5V43.5H739.5V68.5H752V81H764.5V93.5H777V43.5H802V156Z" fill="#FF8FB8"/>
</g>
<defs>
<clipPath id="clip0_394_373">
<rect width="908" height="201" fill="white"/>
</clipPath>
</defs>
</svg>
