<svg width="1037" height="223" viewBox="0 0 1037 223" fill="none" xmlns="http://www.w3.org/2000/svg">
<rect width="1037" height="222.572" fill="#FFD9E7"/>
<path d="M874.703 158.341H861.285V171.76H847.866V198.597H821.028V171.76H807.61V158.341H794.191V144.922H821.028V158.341H847.866V131.504H834.447V118.085H821.028V104.666H807.61V91.2475H794.191V64.41H807.61V50.9913H821.028V24.1538H847.866V50.9913H861.285V64.41H874.703V77.8288H847.866V64.41H821.028V91.2475H834.447V104.666H847.866V118.085H861.285V131.504H874.703V158.341Z" fill="#FF5599"/>
<path d="M774.331 144.922H760.913V171.76H734.075V144.922H720.656V171.76H693.819V144.922H680.4V131.504H693.819V91.2474H680.4V77.8287H693.819V50.9912H720.656V77.8287H734.075V50.9912H760.913V77.8287H774.331V91.2474H760.913V131.504H774.331V144.922ZM734.075 131.504V91.2474H720.656V131.504H734.075Z" fill="#FF5599"/>
<path d="M655.888 171.581H575.376V144.743H588.795V131.325H602.213V117.906H615.632V104.487H629.051V64.231H602.213V91.0685H575.376V64.231H588.795V50.8123H642.47V64.231H655.888V104.487H642.47V117.906H629.051V131.325H615.632V144.743H602.213V158.162H655.888V171.581Z" fill="#FF5599"/>
<path d="M556.053 118.085H529.216V131.504H542.634V144.922H515.797V131.504H502.378V144.922H475.541V131.504H488.96V118.085H462.122V104.666H488.96V91.2473H475.541V77.8286H502.378V91.2473H515.797V77.8286H542.634V91.2473H529.216V104.666H556.053V118.085Z" fill="#FF5599"/>
<path d="M439.042 185H412.204V171.581H398.785V131.325H385.367V117.906H371.948V104.487H385.367V91.0685H398.785V50.8123H412.204V37.3936H439.042V50.8123H425.623V91.0685H412.204V104.487H398.785V117.906H412.204V131.325H425.623V171.581H439.042V185Z" fill="#FF5599"/>
<path d="M351.373 144.922H337.954V171.76H311.117V144.922H297.698V171.76H270.86V144.922H257.442V131.504H270.86V91.2474H257.442V77.8287H270.86V50.9912H297.698V77.8287H311.117V50.9912H337.954V77.8287H351.373V91.2474H337.954V131.504H351.373V144.922ZM311.117 131.504V91.2474H297.698V131.504H311.117Z" fill="#FF5599"/>
<path d="M230.604 158.341H217.185V171.76H163.51V158.341H150.092V91.2474H163.51V77.8287H176.929V50.9912H217.185V64.4099H203.766V77.8287H190.348V91.2474H217.185V104.666H230.604V158.341ZM203.766 158.341V104.666H176.929V158.341H203.766Z" fill="#FF5599"/>
</svg>
