<svg width="81" height="103" viewBox="0 0 81 103" fill="none" xmlns="http://www.w3.org/2000/svg">
<rect y="22" width="67.0781" height="67.0781" fill="#9CE58F"/>
<path d="M35.3047 77.6875H30.5996V72.917H35.3047V77.6875ZM43.9121 53.4248H39.8467V57.7314H35.5703V66.9795H30.3574V57.5947H35.1416V52.9609H39.7412V38.8271H43.9121V53.4248ZM26.2207 43.916H21.5156V39.1455H26.2207V43.916ZM39.7412 38.8271H26.1865V34.6562H39.7412V38.8271Z" fill="white"/>
<rect x="37.9688" y="89.0781" width="29.1094" height="13.9219" fill="#E4E4E4"/>
<rect y="11" width="29" height="11" fill="#E4E4E4"/>
<rect x="43" y="11" width="11" height="11" fill="#E4E4E4"/>
<rect x="67.0781" y="35.9219" width="13.9219" height="13.9219" transform="rotate(-90 67.0781 35.9219)" fill="#F5F5F5"/>
<rect x="29" y="22" width="11" height="14" transform="rotate(-90 29 22)" fill="#F5F5F5"/>
<rect x="67.0781" y="89.0781" width="35.4375" height="13.9219" transform="rotate(-90 67.0781 89.0781)" fill="#F5F5F5"/>
<rect x="54" y="11" width="11" height="14" transform="rotate(-90 54 11)" fill="#F5F5F5"/>
</svg>
