<svg width="450" height="450" viewBox="0 0 450 450" fill="none" xmlns="http://www.w3.org/2000/svg">
<path d="M360 450H90V420H30V390H0V120H30V60H60V30H120V0H330V30H390V60H420V120H450V390H420V420H360V450Z" fill="#FF97BE"/>
<path d="M330 60H390V120H420V390H30V120H60V60H120V30H330V60Z" fill="#FFC7DC"/>
<path d="M330 300V330H360V420H90V330H150V300H330Z" fill="#FF7DAF"/>
<path d="M330 60V90H360V240H330V270H120V240H90V90H120V60H330Z" fill="#FF7DAF"/>
<path d="M120 60V90H90V150H60V60H120Z" fill="#FFF7FA"/>
<path d="M390 270H330V240H360V180H390V270Z" fill="#FFF7FA"/>
<path d="M285 234H165V204H195V174H225V204H285V234ZM255 174H225V144H255V174ZM195 144H165V114H195V144ZM285 144H255V114H285V144ZM255 114H195V84H255V114Z" fill="#FFF7FA"/>
</svg>
