<svg width="651" height="438" viewBox="0 0 651 438" fill="none" xmlns="http://www.w3.org/2000/svg">
<g clip-path="url(#clip0_503_679)">
<path d="M638 0H13V14H638V0Z" fill="#FF3D85"/>
<path d="M639.7 424H13V438.004H639.7V424Z" fill="#FF3D85"/>
<path d="M638.954 54.2671H12.2539V61.2693H638.954V54.2671Z" fill="#FF3D85"/>
<path d="M18 13H0V424H18V13Z" fill="#FF3D85"/>
<path d="M651 13H639V424H651V13Z" fill="#FF3D85"/>
<path d="M638 13H13V423H638V13Z" fill="white" stroke="black" stroke-width="1.5"/>
<path d="M163.625 206H154.875V171H146.125V206H137.375V166.625H163.625V206ZM198.625 201.625H194.25V206H176.75V201.625H172.375V179.75H176.75V175.375H194.25V179.75H198.625V201.625ZM189.875 201.625V179.75H181.125V201.625H189.875ZM233.625 201.625H229.25V206H211.75V201.625H207.375V197.25H216.125V201.625H224.875V192.875H216.125V188.5H224.875V179.75H216.125V184.125H207.375V179.75H211.75V175.375H229.25V179.75H233.625V188.5H229.25V192.875H233.625V201.625ZM264.25 206H246.75V210.375H238V201.625H242.375V179.75H246.75V175.375H268.625V201.625H273V210.375H264.25V206ZM251.125 201.625H259.875V179.75H251.125V201.625ZM303.625 201.625H299.25V206H286.125V219.125H277.375V175.375H299.25V179.75H303.625V201.625ZM294.875 201.625V179.75H286.125V201.625H294.875ZM338.625 206H316.75V201.625H312.375V192.875H316.75V188.5H329.875V179.75H316.75V175.375H334.25V179.75H338.625V206ZM329.875 201.625V192.875H321.125V201.625H329.875ZM373.625 201.625H369.25V206H347.375V175.375H369.25V179.75H373.625V188.5H369.25V192.875H373.625V201.625ZM364.875 201.625V192.875H356.125V201.625H364.875ZM364.875 188.5V179.75H356.125V188.5H364.875ZM408.625 206H399.875V179.75H391.125V201.625H386.75V206H378V201.625H382.375V179.75H386.75V175.375H408.625V206ZM443.625 206H434.875V192.875H426.125V206H417.375V192.875H421.75V188.5H417.375V179.75H421.75V175.375H443.625V206ZM434.875 188.5V179.75H426.125V188.5H434.875ZM474.25 179.75H469.875V175.375H478.625V179.75H483V201.625H478.625V206H469.875V201.625H465.5V192.875H461.125V206H452.375V175.375H461.125V188.5H465.5V179.75H469.875V201.625H474.25V179.75ZM509.25 184.125H504.875V192.875H496.125V184.125H491.75V171H496.125V166.625H504.875V171H509.25V184.125ZM504.875 206H496.125V197.25H504.875V206Z" fill="black"/>
<path d="M226.125 228H222.375V243H218.625V228H214.875V226.125H226.125V228ZM239.25 241.125H237.375V243H229.875V229.875H233.625V235.5H237.375V237.375H239.25V229.875H243V243H239.25V241.125ZM235.5 241.125V237.375H233.625V241.125H235.5ZM271.125 243H267.375V231.75H263.625V243H259.875V229.875H271.125V243ZM286.125 241.125H284.25V243H278.625V248.625H274.875V229.875H284.25V231.75H286.125V241.125ZM282.375 241.125V231.75H278.625V241.125H282.375ZM301.125 241.125H299.25V243H291.75V241.125H289.875V231.75H291.75V229.875H299.25V231.75H301.125V241.125ZM297.375 241.125V231.75H293.625V241.125H297.375ZM318 243H304.875V229.875H308.625V241.125H310.5V229.875H312.375V241.125H314.25V229.875H318V243ZM331.125 237.375H323.625V241.125H329.25V243H321.75V241.125H319.875V231.75H321.75V229.875H329.25V231.75H331.125V237.375ZM327.375 235.5V231.75H323.625V235.5H327.375ZM331.125 228H327.375V224.25H331.125V228ZM323.625 228H319.875V224.25H323.625V228ZM346.125 243H342.375V231.75H338.625V241.125H336.75V243H333V241.125H334.875V231.75H336.75V229.875H346.125V243ZM378 243H374.25V235.5H372.375V237.375H370.5V239.25H368.625V243H364.875V229.875H368.625V235.5H370.5V233.625H372.375V231.75H374.25V229.875H378V243ZM391.125 231.75H383.625V243H379.875V229.875H391.125V231.75ZM406.125 241.125H404.25V243H398.625V248.625H394.875V229.875H404.25V231.75H406.125V241.125ZM402.375 241.125V231.75H398.625V241.125H402.375ZM421.125 241.125H419.25V244.875H417.375V246.75H415.5V248.625H408V246.75H413.625V244.875H415.5V243H411.75V241.125H409.875V229.875H413.625V241.125H417.375V229.875H421.125V241.125ZM434.25 233.625H432.375V237.375H428.625V233.625H426.75V228H428.625V226.125H432.375V228H434.25V233.625ZM432.375 243H428.625V239.25H432.375V243Z" fill="black"/>
</g>
<defs>
<clipPath id="clip0_503_679">
<rect width="651" height="438" fill="white"/>
</clipPath>
</defs>
</svg>
