<svg width="516" height="166" viewBox="0 0 516 166" fill="none" xmlns="http://www.w3.org/2000/svg">
<rect x="29" y="11" width="157" height="6" fill="#CCCCCC"/>
<rect x="42" y="23" width="131" height="6" fill="#D9D9D9"/>
<rect x="42" y="52" width="131" height="6" fill="#D9D9D9"/>
<rect x="23" y="149" width="481" height="6" fill="#CCCCCC"/>
<rect x="173" y="52" width="23" height="6" transform="rotate(-90 173 52)" fill="#D9D9D9"/>
<rect x="36" y="52" width="23" height="6" transform="rotate(-90 36 52)" fill="#D9D9D9"/>
<rect x="23" y="53" width="36" height="6" transform="rotate(-90 23 53)" fill="#CCCCCC"/>
<rect x="11" y="143" width="84" height="6" transform="rotate(-90 11 143)" fill="#CCCCCC"/>
<rect x="192" y="53" width="312" height="6" fill="#D9D9D9"/>
<rect x="17" y="53" width="6" height="6" fill="#CCCCCC"/>
<rect x="504" y="59" width="6" height="6" fill="#D9D9D9"/>
<rect x="186" y="53" width="36" height="6" transform="rotate(-90 186 53)" fill="#CCCCCC"/>
<rect x="510" y="143" width="78" height="6" transform="rotate(-90 510 143)" fill="#CCCCCC"/>
<rect x="192" y="53" width="312" height="6" fill="#CCCCCC"/>
<rect x="504" y="59" width="6" height="6" fill="#CCCCCC"/>
<rect x="504" y="143" width="6" height="6" fill="#CCCCCC"/>
<path d="M55.75 43.75H54.5V45H49.5V43.75H48.25V37.5H49.5V36.25H54.5V37.5H55.75V38.75H53.25V37.5H50.75V43.75H53.25V42.5H55.75V43.75ZM65.75 45H63.25V37.5H60.75V43.75H59.5V45H57V43.75H58.25V37.5H59.5V36.25H65.75V45ZM75.75 43.75H74.5V45H69.5V43.75H68.25V37.5H69.5V36.25H74.5V37.5H75.75V43.75ZM73.25 43.75V37.5H70.75V43.75H73.25ZM85.75 43.75H84.5V45H78.25V36.25H84.5V37.5H85.75V40H84.5V41.25H85.75V43.75ZM83.25 43.75V41.25H80.75V43.75H83.25ZM83.25 40V37.5H80.75V40H83.25ZM95.75 43.75H94.5V45H89.5V43.75H88.25V37.5H89.5V36.25H94.5V37.5H95.75V43.75ZM93.25 43.75V37.5H90.75V43.75H93.25Z" fill="#868686"/>
<path d="M165.5 46H163V38.5H159.25V37.25H161.75V36H163V34.75H165.5V46Z" fill="#868686"/>
<rect x="106" y="134" width="59" height="6" transform="rotate(-90 106 134)" fill="#9C9C9C"/>
<rect x="171" y="134" width="59" height="6" transform="rotate(-90 171 134)" fill="#9C9C9C"/>
<rect x="112" y="134" width="59" height="6" fill="#9C9C9C"/>
<rect x="112" y="69" width="59" height="6" fill="#9C9C9C"/>
<rect x="106" y="134" width="59" height="6" transform="rotate(-90 106 134)" fill="#9C9C9C"/>
<rect x="171" y="134" width="59" height="6" transform="rotate(-90 171 134)" fill="#9C9C9C"/>
<rect x="112" y="134" width="59" height="6" fill="#9C9C9C"/>
<rect x="112" y="69" width="59" height="6" fill="#9C9C9C"/>
<rect opacity="0.6" x="112" y="75" width="59" height="59" fill="#C6C6C6"/>
<path opacity="0.6" d="M144.75 85.25H152.25V89H148.5V92.75H137.25V96.5H148.5V100.25H152.25V115.25H148.5V119H133.5V115.25H129.75V92.75H133.5V89H144.75V85.25ZM144.75 115.25V100.25H137.25V115.25H144.75Z" fill="white"/>
<rect x="188" y="134" width="59" height="6" transform="rotate(-90 188 134)" fill="#9C9C9C"/>
<rect x="253" y="134" width="59" height="6" transform="rotate(-90 253 134)" fill="#9C9C9C"/>
<rect x="194" y="134" width="59" height="6" fill="#9C9C9C"/>
<rect x="194" y="69" width="59" height="6" fill="#9C9C9C"/>
<rect x="188" y="134" width="59" height="6" transform="rotate(-90 188 134)" fill="#9C9C9C"/>
<rect x="253" y="134" width="59" height="6" transform="rotate(-90 253 134)" fill="#9C9C9C"/>
<rect x="194" y="134" width="59" height="6" fill="#9C9C9C"/>
<rect x="194" y="69" width="59" height="6" fill="#9C9C9C"/>
<rect opacity="0.6" x="194" y="75" width="59" height="59" fill="#C6C6C6"/>
<path opacity="0.6" d="M234.25 117H226.75V94.5H219.25V113.25H215.5V117H208V113.25H211.75V94.5H215.5V90.75H234.25V117Z" fill="white"/>
<rect x="269" y="134" width="59" height="6" transform="rotate(-90 269 134)" fill="#9C9C9C"/>
<rect x="334" y="134" width="59" height="6" transform="rotate(-90 334 134)" fill="#9C9C9C"/>
<rect x="275" y="134" width="59" height="6" fill="#9C9C9C"/>
<rect x="275" y="69" width="59" height="6" fill="#9C9C9C"/>
<rect x="269" y="134" width="59" height="6" transform="rotate(-90 269 134)" fill="#9C9C9C"/>
<rect x="334" y="134" width="59" height="6" transform="rotate(-90 334 134)" fill="#9C9C9C"/>
<rect x="275" y="134" width="59" height="6" fill="#9C9C9C"/>
<rect x="275" y="69" width="59" height="6" fill="#9C9C9C"/>
<rect opacity="0.6" x="275" y="75" width="59" height="59" fill="#C6C6C6"/>
<path opacity="0.6" d="M315.25 115.25H311.5V119H296.5V115.25H292.75V96.5H296.5V92.75H311.5V96.5H315.25V115.25ZM307.75 115.25V96.5H300.25V115.25H307.75Z" fill="white"/>
<rect x="351" y="134" width="59" height="6" transform="rotate(-90 351 134)" fill="#9C9C9C"/>
<rect x="416" y="134" width="59" height="6" transform="rotate(-90 416 134)" fill="#9C9C9C"/>
<rect x="357" y="134" width="59" height="6" fill="#9C9C9C"/>
<rect x="357" y="69" width="59" height="6" fill="#9C9C9C"/>
<rect x="351" y="134" width="59" height="6" transform="rotate(-90 351 134)" fill="#9C9C9C"/>
<rect x="416" y="134" width="59" height="6" transform="rotate(-90 416 134)" fill="#9C9C9C"/>
<rect x="357" y="134" width="59" height="6" fill="#9C9C9C"/>
<rect x="357" y="69" width="59" height="6" fill="#9C9C9C"/>
<rect opacity="0.6" x="357" y="75" width="59" height="59" fill="#C6C6C6"/>
<path opacity="0.6" d="M401 117H393.5V113.25H389.75V109.5H386V105.75H382.25V117H374.75V90.75H382.25V102H386V98.25H389.75V94.5H393.5V90.75H401V98.25H393.5V102H389.75V105.75H393.5V109.5H397.25V113.25H401V117Z" fill="white"/>
<rect x="432" y="134" width="59" height="6" transform="rotate(-90 432 134)" fill="#9C9C9C"/>
<rect x="497" y="134" width="59" height="6" transform="rotate(-90 497 134)" fill="#9C9C9C"/>
<rect x="438" y="134" width="59" height="6" fill="#9C9C9C"/>
<rect x="438" y="69" width="59" height="6" fill="#9C9C9C"/>
<rect x="432" y="134" width="59" height="6" transform="rotate(-90 432 134)" fill="#9C9C9C"/>
<rect x="497" y="134" width="59" height="6" transform="rotate(-90 497 134)" fill="#9C9C9C"/>
<rect x="438" y="134" width="59" height="6" fill="#9C9C9C"/>
<rect x="438" y="69" width="59" height="6" fill="#9C9C9C"/>
<rect opacity="0.6" x="438" y="75" width="59" height="59" fill="#C6C6C6"/>
<path opacity="0.6" d="M478.25 115.25H474.5V119H459.5V115.25H455.75V96.5H459.5V92.75H474.5V96.5H478.25V115.25ZM470.75 115.25V96.5H463.25V115.25H470.75Z" fill="white"/>
<rect x="29" width="157" height="11" fill="#F5F5F5"/>
<rect x="12" y="17" width="11" height="11" fill="#E9E9E9"/>
<rect x="363" y="31" width="11" height="11" fill="#E9E9E9"/>
<rect x="238" y="31" width="22" height="11" fill="#F5F5F5"/>
<rect x="317" y="31" width="46" height="11" fill="#F5F5F5"/>
<rect x="192" y="31" width="11" height="11" fill="#E9E9E9"/>
<rect x="192" y="42" width="251" height="11" fill="#F5F5F5"/>
<rect x="215" y="31" width="23" height="11" fill="#E4E4E4"/>
<rect x="481" y="42" width="23" height="11" fill="#E4E4E4"/>
<rect x="260" y="31" width="23" height="11" fill="#E4E4E4"/>
<rect x="69" y="166" width="22" height="11" transform="rotate(180 69 166)" fill="#F5F5F5"/>
<rect x="115" y="166" width="11" height="11" transform="rotate(180 115 166)" fill="#E9E9E9"/>
<rect x="504" y="166" width="208" height="11" transform="rotate(180 504 166)" fill="#F5F5F5"/>
<rect x="92" y="166" width="23" height="11" transform="rotate(180 92 166)" fill="#E4E4E4"/>
<rect x="150" y="166" width="23" height="11" transform="rotate(180 150 166)" fill="#E4E4E4"/>
<rect y="59" width="11" height="53" fill="#F5F5F5"/>
<rect y="122" width="11" height="21" fill="#F5F5F5"/>
<rect x="29" y="11" width="157" height="6" fill="#CCCCCC"/>
<rect x="42" y="23" width="131" height="6" fill="#D9D9D9"/>
<rect x="42" y="52" width="131" height="6" fill="#D9D9D9"/>
<rect x="23" y="149" width="481" height="6" fill="#CCCCCC"/>
<rect x="173" y="52" width="23" height="6" transform="rotate(-90 173 52)" fill="#D9D9D9"/>
<rect x="36" y="52" width="23" height="6" transform="rotate(-90 36 52)" fill="#D9D9D9"/>
<rect x="23" y="53" width="36" height="6" transform="rotate(-90 23 53)" fill="#CCCCCC"/>
<rect x="11" y="143" width="84" height="6" transform="rotate(-90 11 143)" fill="#CCCCCC"/>
<rect x="192" y="53" width="312" height="6" fill="#D9D9D9"/>
<rect x="17" y="53" width="6" height="6" fill="#CCCCCC"/>
<rect x="504" y="59" width="6" height="6" fill="#D9D9D9"/>
<rect x="186" y="53" width="36" height="6" transform="rotate(-90 186 53)" fill="#CCCCCC"/>
<rect x="510" y="143" width="78" height="6" transform="rotate(-90 510 143)" fill="#CCCCCC"/>
<rect x="192" y="53" width="312" height="6" fill="#CCCCCC"/>
<rect x="504" y="59" width="6" height="6" fill="#CCCCCC"/>
<rect x="504" y="143" width="6" height="6" fill="#CCCCCC"/>
<path d="M55.75 43.75H54.5V45H49.5V43.75H48.25V37.5H49.5V36.25H54.5V37.5H55.75V38.75H53.25V37.5H50.75V43.75H53.25V42.5H55.75V43.75ZM65.75 45H63.25V37.5H60.75V43.75H59.5V45H57V43.75H58.25V37.5H59.5V36.25H65.75V45ZM75.75 43.75H74.5V45H69.5V43.75H68.25V37.5H69.5V36.25H74.5V37.5H75.75V43.75ZM73.25 43.75V37.5H70.75V43.75H73.25ZM85.75 43.75H84.5V45H78.25V36.25H84.5V37.5H85.75V40H84.5V41.25H85.75V43.75ZM83.25 43.75V41.25H80.75V43.75H83.25ZM83.25 40V37.5H80.75V40H83.25ZM95.75 43.75H94.5V45H89.5V43.75H88.25V37.5H89.5V36.25H94.5V37.5H95.75V43.75ZM93.25 43.75V37.5H90.75V43.75H93.25Z" fill="#868686"/>
<rect x="25" y="134" width="59" height="6" transform="rotate(-90 25 134)" fill="#9C9C9C"/>
<rect x="90" y="134" width="59" height="6" transform="rotate(-90 90 134)" fill="#9C9C9C"/>
<rect x="31" y="134" width="59" height="6" fill="#9C9C9C"/>
<rect x="31" y="69" width="59" height="6" fill="#9C9C9C"/>
<rect x="25" y="134" width="59" height="6" transform="rotate(-90 25 134)" fill="#9C9C9C"/>
<rect x="90" y="134" width="59" height="6" transform="rotate(-90 90 134)" fill="#9C9C9C"/>
<rect x="31" y="134" width="59" height="6" fill="#9C9C9C"/>
<rect x="31" y="69" width="59" height="6" fill="#9C9C9C"/>
<rect x="17" y="143" width="6" height="6" fill="#CCCCCC"/>
<rect opacity="0.6" x="31" y="75" width="59" height="59" fill="#C6C6C6"/>
<path opacity="0.6" d="M71.25 117H63.75V105.75H56.25V117H48.75V105.75H52.5V102H48.75V94.5H52.5V90.75H71.25V117ZM63.75 102V94.5H56.25V102H63.75Z" fill="white"/>
<rect x="25" y="134" width="59" height="6" transform="rotate(-90 25 134)" fill="#9C9C9C"/>
<rect x="90" y="134" width="59" height="6" transform="rotate(-90 90 134)" fill="#9C9C9C"/>
<rect x="31" y="134" width="59" height="6" fill="#9C9C9C"/>
<rect x="31" y="69" width="59" height="6" fill="#9C9C9C"/>
<rect x="25" y="134" width="59" height="6" transform="rotate(-90 25 134)" fill="#9C9C9C"/>
<rect x="90" y="134" width="59" height="6" transform="rotate(-90 90 134)" fill="#9C9C9C"/>
<rect x="31" y="134" width="59" height="6" fill="#9C9C9C"/>
<rect x="31" y="69" width="59" height="6" fill="#9C9C9C"/>
<rect x="17" y="143" width="6" height="6" fill="#CCCCCC"/>
<rect x="106" y="134" width="59" height="6" transform="rotate(-90 106 134)" fill="#9C9C9C"/>
<rect x="171" y="134" width="59" height="6" transform="rotate(-90 171 134)" fill="#9C9C9C"/>
<rect x="112" y="134" width="59" height="6" fill="#9C9C9C"/>
<rect x="112" y="69" width="59" height="6" fill="#9C9C9C"/>
<rect x="106" y="134" width="59" height="6" transform="rotate(-90 106 134)" fill="#9C9C9C"/>
<rect x="171" y="134" width="59" height="6" transform="rotate(-90 171 134)" fill="#9C9C9C"/>
<rect x="112" y="134" width="59" height="6" fill="#9C9C9C"/>
<rect x="112" y="69" width="59" height="6" fill="#9C9C9C"/>
<rect x="188" y="134" width="59" height="6" transform="rotate(-90 188 134)" fill="#9C9C9C"/>
<rect x="253" y="134" width="59" height="6" transform="rotate(-90 253 134)" fill="#9C9C9C"/>
<rect x="194" y="134" width="59" height="6" fill="#9C9C9C"/>
<rect x="194" y="69" width="59" height="6" fill="#9C9C9C"/>
<rect x="188" y="134" width="59" height="6" transform="rotate(-90 188 134)" fill="#9C9C9C"/>
<rect x="253" y="134" width="59" height="6" transform="rotate(-90 253 134)" fill="#9C9C9C"/>
<rect x="194" y="134" width="59" height="6" fill="#9C9C9C"/>
<rect x="194" y="69" width="59" height="6" fill="#9C9C9C"/>
<rect x="269" y="134" width="59" height="6" transform="rotate(-90 269 134)" fill="#9C9C9C"/>
<rect x="334" y="134" width="59" height="6" transform="rotate(-90 334 134)" fill="#9C9C9C"/>
<rect x="275" y="134" width="59" height="6" fill="#9C9C9C"/>
<rect x="275" y="69" width="59" height="6" fill="#9C9C9C"/>
<rect x="269" y="134" width="59" height="6" transform="rotate(-90 269 134)" fill="#9C9C9C"/>
<rect x="334" y="134" width="59" height="6" transform="rotate(-90 334 134)" fill="#9C9C9C"/>
<rect x="275" y="134" width="59" height="6" fill="#9C9C9C"/>
<rect x="275" y="69" width="59" height="6" fill="#9C9C9C"/>
<rect x="351" y="134" width="59" height="6" transform="rotate(-90 351 134)" fill="#9C9C9C"/>
<rect x="416" y="134" width="59" height="6" transform="rotate(-90 416 134)" fill="#9C9C9C"/>
<rect x="357" y="134" width="59" height="6" fill="#9C9C9C"/>
<rect x="357" y="69" width="59" height="6" fill="#9C9C9C"/>
<rect x="351" y="134" width="59" height="6" transform="rotate(-90 351 134)" fill="#9C9C9C"/>
<rect x="416" y="134" width="59" height="6" transform="rotate(-90 416 134)" fill="#9C9C9C"/>
<rect x="357" y="134" width="59" height="6" fill="#9C9C9C"/>
<rect x="357" y="69" width="59" height="6" fill="#9C9C9C"/>
<rect x="432" y="134" width="59" height="6" transform="rotate(-90 432 134)" fill="#9C9C9C"/>
<rect x="497" y="134" width="59" height="6" transform="rotate(-90 497 134)" fill="#9C9C9C"/>
<rect x="438" y="134" width="59" height="6" fill="#9C9C9C"/>
<rect x="438" y="69" width="59" height="6" fill="#9C9C9C"/>
<rect x="432" y="134" width="59" height="6" transform="rotate(-90 432 134)" fill="#9C9C9C"/>
<rect x="497" y="134" width="59" height="6" transform="rotate(-90 497 134)" fill="#9C9C9C"/>
<rect x="438" y="134" width="59" height="6" fill="#9C9C9C"/>
<rect x="438" y="69" width="59" height="6" fill="#9C9C9C"/>
<rect x="29" width="157" height="11" fill="#F5F5F5"/>
<rect x="12" y="17" width="11" height="11" fill="#E9E9E9"/>
<rect x="363" y="31" width="11" height="11" fill="#E9E9E9"/>
<rect x="238" y="31" width="22" height="11" fill="#F5F5F5"/>
<rect x="317" y="31" width="46" height="11" fill="#F5F5F5"/>
<rect x="192" y="31" width="11" height="11" fill="#E9E9E9"/>
<rect x="192" y="42" width="251" height="11" fill="#F5F5F5"/>
<rect x="215" y="31" width="23" height="11" fill="#E4E4E4"/>
<rect x="481" y="42" width="23" height="11" fill="#E4E4E4"/>
<rect x="260" y="31" width="23" height="11" fill="#E4E4E4"/>
<rect x="69" y="166" width="22" height="11" transform="rotate(180 69 166)" fill="#F5F5F5"/>
<rect x="115" y="166" width="11" height="11" transform="rotate(180 115 166)" fill="#E9E9E9"/>
<rect x="504" y="166" width="208" height="11" transform="rotate(180 504 166)" fill="#F5F5F5"/>
<rect x="92" y="166" width="23" height="11" transform="rotate(180 92 166)" fill="#E4E4E4"/>
<rect x="150" y="166" width="23" height="11" transform="rotate(180 150 166)" fill="#E4E4E4"/>
<rect y="59" width="11" height="53" fill="#F5F5F5"/>
<rect y="122" width="11" height="21" fill="#F5F5F5"/>
</svg>
