<svg width="516" height="166" viewBox="0 0 516 166" fill="none" xmlns="http://www.w3.org/2000/svg">
<rect x="29" y="11" width="157" height="6" fill="#CCCCCC"/>
<rect x="42" y="23" width="131" height="6" fill="#D9D9D9"/>
<rect x="42" y="52" width="131" height="6" fill="#D9D9D9"/>
<rect x="23" y="149" width="481" height="6" fill="#CCCCCC"/>
<rect x="173" y="52" width="23" height="6" transform="rotate(-90 173 52)" fill="#D9D9D9"/>
<rect x="36" y="52" width="23" height="6" transform="rotate(-90 36 52)" fill="#D9D9D9"/>
<rect x="23" y="53" width="36" height="6" transform="rotate(-90 23 53)" fill="#CCCCCC"/>
<rect x="11" y="143" width="84" height="6" transform="rotate(-90 11 143)" fill="#CCCCCC"/>
<rect x="192" y="53" width="312" height="6" fill="#D9D9D9"/>
<rect x="17" y="53" width="6" height="6" fill="#CCCCCC"/>
<rect x="504" y="59" width="6" height="6" fill="#D9D9D9"/>
<rect x="186" y="53" width="36" height="6" transform="rotate(-90 186 53)" fill="#CCCCCC"/>
<rect x="510" y="143" width="78" height="6" transform="rotate(-90 510 143)" fill="#CCCCCC"/>
<rect x="192" y="53" width="312" height="6" fill="#CCCCCC"/>
<rect x="504" y="59" width="6" height="6" fill="#CCCCCC"/>
<rect x="504" y="143" width="6" height="6" fill="#CCCCCC"/>
<rect x="17" y="143" width="6" height="6" fill="#CCCCCC"/>
<path d="M55.75 43.75H54.5V45H49.5V43.75H48.25V37.5H49.5V36.25H54.5V37.5H55.75V38.75H53.25V37.5H50.75V43.75H53.25V42.5H55.75V43.75ZM65.75 45H63.25V37.5H60.75V43.75H59.5V45H57V43.75H58.25V37.5H59.5V36.25H65.75V45ZM75.75 43.75H74.5V45H69.5V43.75H68.25V37.5H69.5V36.25H74.5V37.5H75.75V43.75ZM73.25 43.75V37.5H70.75V43.75H73.25ZM85.75 43.75H84.5V45H78.25V36.25H84.5V37.5H85.75V40H84.5V41.25H85.75V43.75ZM83.25 43.75V41.25H80.75V43.75H83.25ZM83.25 40V37.5H80.75V40H83.25ZM95.75 43.75H94.5V45H89.5V43.75H88.25V37.5H89.5V36.25H94.5V37.5H95.75V43.75ZM93.25 43.75V37.5H90.75V43.75H93.25Z" fill="#868686"/>
<path d="M166.75 46H159.25V43.5H160.5V42.25H161.75V41H163V39.75H164.25V36H161.75V38.5H159.25V36H160.5V34.75H165.5V36H166.75V39.75H165.5V41H164.25V42.25H163V43.5H161.75V44.75H166.75V46Z" fill="#868686"/>
<rect x="29" width="157" height="11" fill="#F5F5F5"/>
<rect x="12" y="17" width="11" height="11" fill="#E9E9E9"/>
<rect x="363" y="31" width="11" height="11" fill="#E9E9E9"/>
<rect x="238" y="31" width="22" height="11" fill="#F5F5F5"/>
<rect x="317" y="31" width="46" height="11" fill="#F5F5F5"/>
<rect x="192" y="31" width="11" height="11" fill="#E9E9E9"/>
<rect x="192" y="42" width="251" height="11" fill="#F5F5F5"/>
<rect x="215" y="31" width="23" height="11" fill="#E4E4E4"/>
<rect x="481" y="42" width="23" height="11" fill="#E4E4E4"/>
<rect x="260" y="31" width="23" height="11" fill="#E4E4E4"/>
<rect x="69" y="166" width="22" height="11" transform="rotate(180 69 166)" fill="#F5F5F5"/>
<rect x="115" y="166" width="11" height="11" transform="rotate(180 115 166)" fill="#E9E9E9"/>
<rect x="504" y="166" width="208" height="11" transform="rotate(180 504 166)" fill="#F5F5F5"/>
<rect x="92" y="166" width="23" height="11" transform="rotate(180 92 166)" fill="#E4E4E4"/>
<rect x="150" y="166" width="23" height="11" transform="rotate(180 150 166)" fill="#E4E4E4"/>
<rect y="59" width="11" height="53" fill="#F5F5F5"/>
<rect y="122" width="11" height="21" fill="#F5F5F5"/>
</svg>
