<svg width="78" height="50" viewBox="0 0 78 50" fill="none" xmlns="http://www.w3.org/2000/svg">
<rect width="41.5985" height="4.07828" transform="matrix(0 1 1 0 0 4.07812)" fill="#D9D9D9"/>
<rect width="41.5985" height="4.07828" transform="matrix(0 1 1 0 45.6768 4.07812)" fill="#D9D9D9"/>
<rect width="41.5985" height="4.07828" transform="matrix(1 0 0 -1 4.07829 4.07812)" fill="#D9D9D9"/>
<rect width="41.5985" height="4.07828" transform="matrix(1 0 0 -1 4.07829 49.7549)" fill="#D9D9D9"/>
<rect width="41.5985" height="4.07828" transform="matrix(0 1 1 0 0 4.07812)" fill="#5C9153"/>
<rect width="41.5985" height="4.07828" transform="matrix(0 1 1 0 73.6768 4.07812)" fill="#62A756"/>
<rect width="70" height="4" transform="matrix(1 0 0 -1 4 4)" fill="#5C9153"/>
<rect width="70" height="4" transform="matrix(1 0 0 -1 4 50)" fill="#62A756"/>
<rect width="70" height="42" transform="matrix(1 0 0 -1 4 46)" fill="#9CE58F"/>
<rect width="3.26263" height="13.8662" transform="matrix(1 0 0 -1 4.07829 45.6768)" fill="#BCF9B1"/>
<rect width="3.26263" height="3.26263" transform="matrix(1 0 0 -1 4.07829 27.7324)" fill="#7BC96E"/>
<rect width="9.78788" height="3.26263" transform="matrix(1 0 0 -1 28.548 7.34082)" fill="#7BC96E"/>
<path d="M39 46H48.7879V42.7374H39V46Z" fill="#7BC96E"/>
<path d="M70 36H74V32H70V36Z" fill="#BCF9B1"/>
<path d="M61 8H65V4H61V8Z" fill="#7BC96E"/>
<path d="M66.3359 42.7592H70.4141V38.6809H66.3359V42.7592Z" fill="#BCF9B1"/>
<rect width="4" height="4" transform="matrix(1 0 0 -1 25 42)" fill="#BCF9B1"/>
<rect width="13" height="4" transform="matrix(1 0 0 -1 47 8)" fill="#BCF9B1"/>
<path d="M70.7374 25.2852H74V22.0225H70.7374V25.2852Z" fill="#BCF9B1"/>
<path d="M66.7443 12.2349H70.8226V8.15658H66.7443V12.2349Z" fill="#BCF9B1"/>
<rect width="3.26263" height="3.26263" transform="matrix(1 0 0 -1 4.07829 7.34082)" fill="#BCF9B1"/>
<rect width="3.26263" height="9.78788" transform="matrix(1 0 0 -1 4.07829 21.207)" fill="#BCF9B1"/>
<rect width="3.26263" height="4.07828" transform="matrix(1 0 0 -1 4.07829 11.4189)" fill="#7BC96E"/>
<rect width="4.07828" height="4.07828" transform="matrix(1 0 0 -1 7.34091 42.4141)" fill="#7BC96E"/>
<path d="M69.9217 32.0781H74V27.9998H69.9217V32.0781Z" fill="#7BC96E"/>
<path d="M70.7374 17.7985H74V3.9323H70.7374V17.7985Z" fill="#BCF9B1"/>
<rect width="3.26263" height="10.6035" transform="matrix(0 1 1 0 11.4192 4.07812)" fill="#BCF9B1"/>
<path d="M56.8712 46H74V42.7374H56.8712V46Z" fill="#7BC96E"/>
<rect width="3.26263" height="10.6035" transform="matrix(0 1 1 0 7.34091 42.4141)" fill="#BCF9B1"/>
<path d="M27.625 35H15.75V32.625H13.375V20.75H15.75V18.375H22.875V13.625H27.625V35ZM22.875 32.625V20.75H18.125V32.625H22.875ZM46.625 27.875H37.125V32.625H44.25V35H34.75V32.625H32.375V20.75H34.75V18.375H44.25V20.75H46.625V27.875ZM41.875 25.5V20.75H37.125V25.5H41.875ZM65.625 35H51.375V32.625H56.125V16H51.375V13.625H60.875V32.625H65.625V35Z" fill="white"/>
</svg>
