<svg width="594" height="616" viewBox="0 0 594 616" fill="none" xmlns="http://www.w3.org/2000/svg">
<rect x="11" y="22" width="572" height="572" fill="#62A756"/>
<rect x="17" y="28" width="560" height="560" fill="#9CE58F"/>
<rect x="38" y="49" width="518" height="518" fill="#62A756"/>
<rect x="31" y="567" width="7" height="7" fill="#62A756"/>
<rect x="24" y="574" width="7" height="7" fill="#62A756"/>
<rect x="17" y="581" width="7" height="7" fill="#62A756"/>
<rect x="570" y="28" width="7" height="7" fill="#62A756"/>
<rect x="563" y="35" width="7" height="7" fill="#62A756"/>
<rect x="556" y="42" width="7" height="7" fill="#62A756"/>
<rect width="7" height="7" transform="matrix(-1 0 0 1 24 28)" fill="#62A756"/>
<rect width="7" height="7" transform="matrix(-1 0 0 1 31 35)" fill="#62A756"/>
<rect width="7" height="7" transform="matrix(-1 0 0 1 38 42)" fill="#62A756"/>
<rect width="7" height="7" transform="matrix(1 0 0 -1 570 588)" fill="#62A756"/>
<rect width="7" height="7" transform="matrix(1 0 0 -1 563 581)" fill="#62A756"/>
<rect width="7" height="7" transform="matrix(1 0 0 -1 556 574)" fill="#62A756"/>
<rect x="38" y="49" width="518" height="518" fill="white"/>
<rect x="43.4336" y="54.4336" width="507.133" height="507.133" fill="#BCF9B1"/>
<rect x="62.451" y="73.4512" width="469.098" height="469.098" fill="white"/>
<rect x="56.1118" y="542.549" width="6.33916" height="6.33916" fill="white"/>
<rect x="49.7727" y="548.888" width="6.33916" height="6.33916" fill="white"/>
<rect x="43.4336" y="555.227" width="6.33916" height="6.33916" fill="white"/>
<rect x="544.227" y="54.4336" width="6.33916" height="6.33916" fill="white"/>
<rect x="537.888" y="60.7729" width="6.33916" height="6.33916" fill="white"/>
<rect x="531.549" y="67.1118" width="6.33916" height="6.33916" fill="white"/>
<rect width="6.33916" height="6.33916" transform="matrix(-1 0 0 1 49.7727 54.4336)" fill="white"/>
<rect width="6.33916" height="6.33916" transform="matrix(-1 0 0 1 56.1118 60.7729)" fill="white"/>
<rect width="6.33916" height="6.33916" transform="matrix(-1 0 0 1 62.451 67.1118)" fill="white"/>
<rect width="6.33916" height="6.33916" transform="matrix(1 0 0 -1 544.227 561.566)" fill="white"/>
<rect width="6.33916" height="6.33916" transform="matrix(1 0 0 -1 537.888 555.227)" fill="white"/>
<rect width="6.33916" height="6.33916" transform="matrix(1 0 0 -1 531.549 548.888)" fill="white"/>
<rect x="17" y="558" width="7" height="23" fill="#BCF9B1"/>
<rect x="31" y="521" width="7" height="23" fill="#BCF9B1"/>
<rect x="24" y="481" width="7" height="23" fill="#BCF9B1"/>
<rect x="17" y="544" width="7" height="7" fill="#BCF9B1"/>
<rect x="17" y="530" width="7" height="7" fill="#BCF9B1"/>
<rect x="17" y="497" width="7" height="7" fill="#BCF9B1"/>
<rect x="24" y="448" width="7" height="7" fill="#BCF9B1"/>
<rect x="31" y="504" width="7" height="7" fill="#BCF9B1"/>
<rect x="17" y="455" width="7" height="9" fill="#BCF9B1"/>
<rect x="17" y="504" width="7" height="26" fill="#7BC96E"/>
<rect x="31" y="431" width="7" height="17" fill="#7BC96E"/>
<rect x="31" y="481" width="7" height="7" fill="#7BC96E"/>
<rect x="31" y="511" width="7" height="10" fill="#7BC96E"/>
<rect x="17" y="471" width="7" height="10" fill="#7BC96E"/>
<rect x="24" y="544" width="7" height="14" fill="#7BC96E"/>
<rect x="31" y="455" width="7" height="16" fill="#7BC96E"/>
<rect x="17" y="425" width="7" height="23" fill="#BCF9B1"/>
<rect x="31" y="388" width="7" height="23" fill="#BCF9B1"/>
<rect x="24" y="348" width="7" height="23" fill="#BCF9B1"/>
<rect x="17" y="411" width="7" height="7" fill="#BCF9B1"/>
<rect x="17" y="397" width="7" height="7" fill="#BCF9B1"/>
<rect x="17" y="364" width="7" height="7" fill="#BCF9B1"/>
<rect x="31" y="371" width="7" height="7" fill="#BCF9B1"/>
<rect x="17" y="324" width="7" height="7" fill="#BCF9B1"/>
<rect x="17" y="371" width="7" height="26" fill="#7BC96E"/>
<rect x="31" y="348" width="7" height="7" fill="#7BC96E"/>
<rect x="31" y="378" width="7" height="10" fill="#7BC96E"/>
<rect x="17" y="338" width="7" height="10" fill="#7BC96E"/>
<rect x="24" y="411" width="7" height="14" fill="#7BC96E"/>
<rect x="31" y="324" width="7" height="14" fill="#7BC96E"/>
<rect x="24" y="301" width="7" height="7" fill="#BCF9B1"/>
<rect x="17" y="308" width="7" height="9" fill="#BCF9B1"/>
<rect x="31" y="284" width="7" height="17" fill="#7BC96E"/>
<rect x="31" y="308" width="7" height="16" fill="#7BC96E"/>
<rect x="17" y="278" width="7" height="23" fill="#BCF9B1"/>
<rect x="31" y="241" width="7" height="23" fill="#BCF9B1"/>
<rect x="24" y="201" width="7" height="23" fill="#BCF9B1"/>
<rect x="17" y="264" width="7" height="7" fill="#BCF9B1"/>
<rect x="17" y="250" width="7" height="7" fill="#BCF9B1"/>
<rect x="17" y="217" width="7" height="7" fill="#BCF9B1"/>
<rect x="31" y="224" width="7" height="7" fill="#BCF9B1"/>
<rect x="17" y="177" width="7" height="7" fill="#BCF9B1"/>
<rect x="17" y="224" width="7" height="26" fill="#7BC96E"/>
<rect x="31" y="201" width="7" height="7" fill="#7BC96E"/>
<rect x="31" y="231" width="7" height="10" fill="#7BC96E"/>
<rect x="17" y="191" width="7" height="10" fill="#7BC96E"/>
<rect x="24" y="264" width="7" height="14" fill="#7BC96E"/>
<rect x="31" y="177" width="7" height="14" fill="#7BC96E"/>
<rect width="7" height="23" transform="matrix(1 0 0 -1 17 58)" fill="#BCF9B1"/>
<rect width="7" height="23" transform="matrix(1 0 0 -1 31 95)" fill="#BCF9B1"/>
<rect width="7" height="9" transform="matrix(1 0 0 -1 31 58)" fill="#BCF9B1"/>
<rect width="7" height="23" transform="matrix(1 0 0 -1 24 135)" fill="#BCF9B1"/>
<rect width="7" height="7" transform="matrix(1 0 0 -1 17 72)" fill="#BCF9B1"/>
<rect width="7" height="7" transform="matrix(1 0 0 -1 17 86)" fill="#BCF9B1"/>
<rect width="7" height="7" transform="matrix(1 0 0 -1 17 119)" fill="#BCF9B1"/>
<rect width="7" height="7" transform="matrix(1 0 0 -1 24 168)" fill="#BCF9B1"/>
<rect width="7" height="7" transform="matrix(1 0 0 -1 31 112)" fill="#BCF9B1"/>
<rect width="7" height="9" transform="matrix(1 0 0 -1 17 161)" fill="#BCF9B1"/>
<rect width="7" height="26" transform="matrix(1 0 0 -1 17 112)" fill="#7BC96E"/>
<rect width="7" height="17" transform="matrix(1 0 0 -1 31 185)" fill="#7BC96E"/>
<rect width="7" height="7" transform="matrix(1 0 0 -1 31 135)" fill="#7BC96E"/>
<rect width="7" height="10" transform="matrix(1 0 0 -1 31 105)" fill="#7BC96E"/>
<rect width="7" height="10" transform="matrix(1 0 0 -1 17 145)" fill="#7BC96E"/>
<rect width="7" height="14" transform="matrix(1 0 0 -1 24 72)" fill="#7BC96E"/>
<rect width="7" height="16" transform="matrix(1 0 0 -1 31 161)" fill="#7BC96E"/>
<rect width="7" height="23" transform="matrix(1 0 0 -1 17 191)" fill="#BCF9B1"/>
<rect width="7" height="23" transform="matrix(-1 0 0 1 577 558)" fill="#BCF9B1"/>
<rect width="7" height="23" transform="matrix(-1 0 0 1 563 521)" fill="#BCF9B1"/>
<rect width="7" height="23" transform="matrix(-1 0 0 1 570 481)" fill="#BCF9B1"/>
<rect width="7" height="7" transform="matrix(-1 0 0 1 577 544)" fill="#BCF9B1"/>
<rect width="7" height="7" transform="matrix(-1 0 0 1 577 530)" fill="#BCF9B1"/>
<rect width="7" height="7" transform="matrix(-1 0 0 1 577 497)" fill="#BCF9B1"/>
<rect width="7" height="7" transform="matrix(-1 0 0 1 570 448)" fill="#BCF9B1"/>
<rect width="7" height="7" transform="matrix(-1 0 0 1 563 504)" fill="#BCF9B1"/>
<rect width="7" height="9" transform="matrix(-1 0 0 1 577 455)" fill="#BCF9B1"/>
<rect width="7" height="26" transform="matrix(-1 0 0 1 577 504)" fill="#7BC96E"/>
<rect width="7" height="17" transform="matrix(-1 0 0 1 563 431)" fill="#7BC96E"/>
<rect width="7" height="7" transform="matrix(-1 0 0 1 563 481)" fill="#7BC96E"/>
<rect width="7" height="10" transform="matrix(-1 0 0 1 563 511)" fill="#7BC96E"/>
<rect width="7" height="10" transform="matrix(-1 0 0 1 577 471)" fill="#7BC96E"/>
<rect width="7" height="14" transform="matrix(-1 0 0 1 570 544)" fill="#7BC96E"/>
<rect width="7" height="16" transform="matrix(-1 0 0 1 563 455)" fill="#7BC96E"/>
<rect width="7" height="23" transform="matrix(-1 0 0 1 577 425)" fill="#BCF9B1"/>
<rect width="7" height="23" transform="matrix(-1 0 0 1 563 388)" fill="#BCF9B1"/>
<rect width="7" height="23" transform="matrix(-1 0 0 1 570 348)" fill="#BCF9B1"/>
<rect width="7" height="7" transform="matrix(-1 0 0 1 577 411)" fill="#BCF9B1"/>
<rect width="7" height="7" transform="matrix(-1 0 0 1 577 397)" fill="#BCF9B1"/>
<rect width="7" height="7" transform="matrix(-1 0 0 1 577 364)" fill="#BCF9B1"/>
<rect width="7" height="7" transform="matrix(-1 0 0 1 563 371)" fill="#BCF9B1"/>
<rect width="7" height="7" transform="matrix(-1 0 0 1 577 324)" fill="#BCF9B1"/>
<rect width="7" height="26" transform="matrix(-1 0 0 1 577 371)" fill="#7BC96E"/>
<rect width="7" height="7" transform="matrix(-1 0 0 1 563 348)" fill="#7BC96E"/>
<rect width="7" height="10" transform="matrix(-1 0 0 1 563 378)" fill="#7BC96E"/>
<rect width="7" height="10" transform="matrix(-1 0 0 1 577 338)" fill="#7BC96E"/>
<rect width="7" height="14" transform="matrix(-1 0 0 1 570 411)" fill="#7BC96E"/>
<rect width="7" height="14" transform="matrix(-1 0 0 1 563 324)" fill="#7BC96E"/>
<rect width="7" height="7" transform="matrix(-1 0 0 1 570 301)" fill="#BCF9B1"/>
<rect width="7" height="9" transform="matrix(-1 0 0 1 577 308)" fill="#BCF9B1"/>
<rect width="7" height="17" transform="matrix(-1 0 0 1 563 284)" fill="#7BC96E"/>
<rect width="7" height="16" transform="matrix(-1 0 0 1 563 308)" fill="#7BC96E"/>
<rect width="7" height="23" transform="matrix(-1 0 0 1 577 278)" fill="#BCF9B1"/>
<rect width="7" height="23" transform="matrix(-1 0 0 1 563 241)" fill="#BCF9B1"/>
<rect width="7" height="23" transform="matrix(-1 0 0 1 570 201)" fill="#BCF9B1"/>
<rect width="7" height="7" transform="matrix(-1 0 0 1 577 264)" fill="#BCF9B1"/>
<rect width="7" height="7" transform="matrix(-1 0 0 1 577 250)" fill="#BCF9B1"/>
<rect width="7" height="7" transform="matrix(-1 0 0 1 577 217)" fill="#BCF9B1"/>
<rect width="7" height="7" transform="matrix(-1 0 0 1 563 224)" fill="#BCF9B1"/>
<rect width="7" height="7" transform="matrix(-1 0 0 1 577 177)" fill="#BCF9B1"/>
<rect width="7" height="26" transform="matrix(-1 0 0 1 577 224)" fill="#7BC96E"/>
<rect width="7" height="7" transform="matrix(-1 0 0 1 563 201)" fill="#7BC96E"/>
<rect width="7" height="10" transform="matrix(-1 0 0 1 563 231)" fill="#7BC96E"/>
<rect width="7" height="10" transform="matrix(-1 0 0 1 577 191)" fill="#7BC96E"/>
<rect width="7" height="14" transform="matrix(-1 0 0 1 570 264)" fill="#7BC96E"/>
<rect width="7" height="14" transform="matrix(-1 0 0 1 563 177)" fill="#7BC96E"/>
<rect x="577" y="58" width="7" height="23" transform="rotate(180 577 58)" fill="#BCF9B1"/>
<rect x="563" y="95" width="7" height="23" transform="rotate(180 563 95)" fill="#BCF9B1"/>
<rect x="563" y="58" width="7" height="9" transform="rotate(180 563 58)" fill="#BCF9B1"/>
<rect x="570" y="135" width="7" height="23" transform="rotate(180 570 135)" fill="#BCF9B1"/>
<rect x="577" y="72" width="7" height="7" transform="rotate(180 577 72)" fill="#BCF9B1"/>
<rect x="577" y="86" width="7" height="7" transform="rotate(180 577 86)" fill="#BCF9B1"/>
<rect x="577" y="119" width="7" height="7" transform="rotate(180 577 119)" fill="#BCF9B1"/>
<rect x="570" y="168" width="7" height="7" transform="rotate(180 570 168)" fill="#BCF9B1"/>
<rect x="563" y="112" width="7" height="7" transform="rotate(180 563 112)" fill="#BCF9B1"/>
<rect x="577" y="161" width="7" height="9" transform="rotate(180 577 161)" fill="#BCF9B1"/>
<rect x="577" y="112" width="7" height="26" transform="rotate(180 577 112)" fill="#7BC96E"/>
<rect x="563" y="185" width="7" height="17" transform="rotate(180 563 185)" fill="#7BC96E"/>
<rect x="563" y="135" width="7" height="7" transform="rotate(180 563 135)" fill="#7BC96E"/>
<rect x="563" y="105" width="7" height="10" transform="rotate(180 563 105)" fill="#7BC96E"/>
<rect x="577" y="145" width="7" height="10" transform="rotate(180 577 145)" fill="#7BC96E"/>
<rect x="570" y="72" width="7" height="14" transform="rotate(180 570 72)" fill="#7BC96E"/>
<rect x="563" y="161" width="7" height="16" transform="rotate(180 563 161)" fill="#7BC96E"/>
<rect x="577" y="191" width="7" height="23" transform="rotate(180 577 191)" fill="#BCF9B1"/>
<rect width="7" height="23" transform="matrix(0 -1 -1 0 47 588)" fill="#BCF9B1"/>
<rect width="7" height="23" transform="matrix(0 -1 -1 0 84 574)" fill="#BCF9B1"/>
<rect width="7" height="23" transform="matrix(0 -1 -1 0 124 581)" fill="#BCF9B1"/>
<rect width="7" height="7" transform="matrix(0 -1 -1 0 61 588)" fill="#BCF9B1"/>
<rect width="7" height="7" transform="matrix(0 -1 -1 0 75 588)" fill="#BCF9B1"/>
<rect width="7" height="7" transform="matrix(0 -1 -1 0 108 588)" fill="#BCF9B1"/>
<rect width="7" height="7" transform="matrix(0 -1 -1 0 157 581)" fill="#BCF9B1"/>
<rect width="7" height="7" transform="matrix(0 -1 -1 0 101 574)" fill="#BCF9B1"/>
<rect width="7" height="9" transform="matrix(0 -1 -1 0 150 588)" fill="#BCF9B1"/>
<rect width="7" height="26" transform="matrix(0 -1 -1 0 101 588)" fill="#7BC96E"/>
<rect width="7" height="17" transform="matrix(0 -1 -1 0 174 574)" fill="#7BC96E"/>
<rect width="7" height="7" transform="matrix(0 -1 -1 0 124 574)" fill="#7BC96E"/>
<rect width="7" height="10" transform="matrix(0 -1 -1 0 94 574)" fill="#7BC96E"/>
<rect width="7" height="10" transform="matrix(0 -1 -1 0 134 588)" fill="#7BC96E"/>
<rect width="7" height="14" transform="matrix(0 -1 -1 0 61 581)" fill="#7BC96E"/>
<rect width="7" height="16" transform="matrix(0 -1 -1 0 150 574)" fill="#7BC96E"/>
<rect width="7" height="23" transform="matrix(0 -1 -1 0 180 588)" fill="#BCF9B1"/>
<rect width="7" height="23" transform="matrix(0 -1 -1 0 217 574)" fill="#BCF9B1"/>
<rect width="7" height="23" transform="matrix(0 -1 -1 0 257 581)" fill="#BCF9B1"/>
<rect width="7" height="7" transform="matrix(0 -1 -1 0 194 588)" fill="#BCF9B1"/>
<rect width="7" height="7" transform="matrix(0 -1 -1 0 208 588)" fill="#BCF9B1"/>
<rect width="7" height="7" transform="matrix(0 -1 -1 0 241 588)" fill="#BCF9B1"/>
<rect width="7" height="7" transform="matrix(0 -1 -1 0 234 574)" fill="#BCF9B1"/>
<rect width="7" height="7" transform="matrix(0 -1 -1 0 281 588)" fill="#BCF9B1"/>
<rect width="7" height="26" transform="matrix(0 -1 -1 0 234 588)" fill="#7BC96E"/>
<rect width="7" height="7" transform="matrix(0 -1 -1 0 257 574)" fill="#7BC96E"/>
<rect width="7" height="10" transform="matrix(0 -1 -1 0 227 574)" fill="#7BC96E"/>
<rect width="7" height="10" transform="matrix(0 -1 -1 0 267 588)" fill="#7BC96E"/>
<rect width="7" height="14" transform="matrix(0 -1 -1 0 194 581)" fill="#7BC96E"/>
<rect width="7" height="14" transform="matrix(0 -1 -1 0 281 574)" fill="#7BC96E"/>
<rect width="7" height="7" transform="matrix(0 -1 -1 0 304 581)" fill="#BCF9B1"/>
<rect width="7" height="9" transform="matrix(0 -1 -1 0 297 588)" fill="#BCF9B1"/>
<rect width="7" height="17" transform="matrix(0 -1 -1 0 321 574)" fill="#7BC96E"/>
<rect width="7" height="16" transform="matrix(0 -1 -1 0 297 574)" fill="#7BC96E"/>
<rect width="7" height="23" transform="matrix(0 -1 -1 0 327 588)" fill="#BCF9B1"/>
<rect width="7" height="23" transform="matrix(0 -1 -1 0 364 574)" fill="#BCF9B1"/>
<rect width="7" height="23" transform="matrix(0 -1 -1 0 404 581)" fill="#BCF9B1"/>
<rect width="7" height="7" transform="matrix(0 -1 -1 0 341 588)" fill="#BCF9B1"/>
<rect width="7" height="7" transform="matrix(0 -1 -1 0 355 588)" fill="#BCF9B1"/>
<rect width="7" height="7" transform="matrix(0 -1 -1 0 388 588)" fill="#BCF9B1"/>
<rect width="7" height="7" transform="matrix(0 -1 -1 0 381 574)" fill="#BCF9B1"/>
<rect width="7" height="7" transform="matrix(0 -1 -1 0 428 588)" fill="#BCF9B1"/>
<rect width="7" height="26" transform="matrix(0 -1 -1 0 381 588)" fill="#7BC96E"/>
<rect width="7" height="7" transform="matrix(0 -1 -1 0 404 574)" fill="#7BC96E"/>
<rect width="7" height="10" transform="matrix(0 -1 -1 0 374 574)" fill="#7BC96E"/>
<rect width="7" height="10" transform="matrix(0 -1 -1 0 414 588)" fill="#7BC96E"/>
<rect width="7" height="14" transform="matrix(0 -1 -1 0 341 581)" fill="#7BC96E"/>
<rect width="7" height="14" transform="matrix(0 -1 -1 0 428 574)" fill="#7BC96E"/>
<rect x="547" y="588" width="7" height="23" transform="rotate(-90 547 588)" fill="#BCF9B1"/>
<rect x="510" y="574" width="7" height="23" transform="rotate(-90 510 574)" fill="#BCF9B1"/>
<rect x="547" y="574" width="7" height="9" transform="rotate(-90 547 574)" fill="#BCF9B1"/>
<rect x="470" y="581" width="7" height="23" transform="rotate(-90 470 581)" fill="#BCF9B1"/>
<rect x="533" y="588" width="7" height="7" transform="rotate(-90 533 588)" fill="#BCF9B1"/>
<rect x="519" y="588" width="7" height="7" transform="rotate(-90 519 588)" fill="#BCF9B1"/>
<rect x="486" y="588" width="7" height="7" transform="rotate(-90 486 588)" fill="#BCF9B1"/>
<rect x="437" y="581" width="7" height="7" transform="rotate(-90 437 581)" fill="#BCF9B1"/>
<rect x="493" y="574" width="7" height="7" transform="rotate(-90 493 574)" fill="#BCF9B1"/>
<rect x="444" y="588" width="7" height="9" transform="rotate(-90 444 588)" fill="#BCF9B1"/>
<rect x="493" y="588" width="7" height="26" transform="rotate(-90 493 588)" fill="#7BC96E"/>
<rect x="420" y="574" width="7" height="17" transform="rotate(-90 420 574)" fill="#7BC96E"/>
<rect x="470" y="574" width="7" height="7" transform="rotate(-90 470 574)" fill="#7BC96E"/>
<rect x="500" y="574" width="7" height="10" transform="rotate(-90 500 574)" fill="#7BC96E"/>
<rect x="460" y="588" width="7" height="10" transform="rotate(-90 460 588)" fill="#7BC96E"/>
<rect x="533" y="581" width="7" height="14" transform="rotate(-90 533 581)" fill="#7BC96E"/>
<rect x="444" y="574" width="7" height="16" transform="rotate(-90 444 574)" fill="#7BC96E"/>
<rect x="414" y="588" width="7" height="23" transform="rotate(-90 414 588)" fill="#BCF9B1"/>
<rect x="47" y="28" width="7" height="23" transform="rotate(90 47 28)" fill="#BCF9B1"/>
<rect x="84" y="42" width="7" height="23" transform="rotate(90 84 42)" fill="#BCF9B1"/>
<rect x="124" y="35" width="7" height="23" transform="rotate(90 124 35)" fill="#BCF9B1"/>
<rect x="61" y="28" width="7" height="7" transform="rotate(90 61 28)" fill="#BCF9B1"/>
<rect x="75" y="28" width="7" height="7" transform="rotate(90 75 28)" fill="#BCF9B1"/>
<rect x="108" y="28" width="7" height="7" transform="rotate(90 108 28)" fill="#BCF9B1"/>
<rect x="157" y="35" width="7" height="7" transform="rotate(90 157 35)" fill="#BCF9B1"/>
<rect x="101" y="42" width="7" height="7" transform="rotate(90 101 42)" fill="#BCF9B1"/>
<rect x="150" y="28" width="7" height="9" transform="rotate(90 150 28)" fill="#BCF9B1"/>
<rect x="101" y="28" width="7" height="26" transform="rotate(90 101 28)" fill="#7BC96E"/>
<rect x="174" y="42" width="7" height="17" transform="rotate(90 174 42)" fill="#7BC96E"/>
<rect x="124" y="42" width="7" height="7" transform="rotate(90 124 42)" fill="#7BC96E"/>
<rect x="94" y="42" width="7" height="10" transform="rotate(90 94 42)" fill="#7BC96E"/>
<rect x="134" y="28" width="7" height="10" transform="rotate(90 134 28)" fill="#7BC96E"/>
<rect x="61" y="35" width="7" height="14" transform="rotate(90 61 35)" fill="#7BC96E"/>
<rect x="150" y="42" width="7" height="16" transform="rotate(90 150 42)" fill="#7BC96E"/>
<rect x="180" y="28" width="7" height="23" transform="rotate(90 180 28)" fill="#BCF9B1"/>
<rect x="217" y="42" width="7" height="23" transform="rotate(90 217 42)" fill="#BCF9B1"/>
<rect x="257" y="35" width="7" height="23" transform="rotate(90 257 35)" fill="#BCF9B1"/>
<rect x="194" y="28" width="7" height="7" transform="rotate(90 194 28)" fill="#BCF9B1"/>
<rect x="208" y="28" width="7" height="7" transform="rotate(90 208 28)" fill="#BCF9B1"/>
<rect x="241" y="28" width="7" height="7" transform="rotate(90 241 28)" fill="#BCF9B1"/>
<rect x="234" y="42" width="7" height="7" transform="rotate(90 234 42)" fill="#BCF9B1"/>
<rect x="281" y="28" width="7" height="7" transform="rotate(90 281 28)" fill="#BCF9B1"/>
<rect x="234" y="28" width="7" height="26" transform="rotate(90 234 28)" fill="#7BC96E"/>
<rect x="257" y="42" width="7" height="7" transform="rotate(90 257 42)" fill="#7BC96E"/>
<rect x="227" y="42" width="7" height="10" transform="rotate(90 227 42)" fill="#7BC96E"/>
<rect x="267" y="28" width="7" height="10" transform="rotate(90 267 28)" fill="#7BC96E"/>
<rect x="194" y="35" width="7" height="14" transform="rotate(90 194 35)" fill="#7BC96E"/>
<rect x="281" y="42" width="7" height="14" transform="rotate(90 281 42)" fill="#7BC96E"/>
<rect x="304" y="35" width="7" height="7" transform="rotate(90 304 35)" fill="#BCF9B1"/>
<rect x="297" y="28" width="7" height="9" transform="rotate(90 297 28)" fill="#BCF9B1"/>
<rect x="321" y="42" width="7" height="17" transform="rotate(90 321 42)" fill="#7BC96E"/>
<rect x="297" y="42" width="7" height="16" transform="rotate(90 297 42)" fill="#7BC96E"/>
<rect x="327" y="28" width="7" height="23" transform="rotate(90 327 28)" fill="#BCF9B1"/>
<rect x="364" y="42" width="7" height="23" transform="rotate(90 364 42)" fill="#BCF9B1"/>
<rect x="404" y="35" width="7" height="23" transform="rotate(90 404 35)" fill="#BCF9B1"/>
<rect x="341" y="28" width="7" height="7" transform="rotate(90 341 28)" fill="#BCF9B1"/>
<rect x="355" y="28" width="7" height="7" transform="rotate(90 355 28)" fill="#BCF9B1"/>
<rect x="388" y="28" width="7" height="7" transform="rotate(90 388 28)" fill="#BCF9B1"/>
<rect x="381" y="42" width="7" height="7" transform="rotate(90 381 42)" fill="#BCF9B1"/>
<rect x="428" y="28" width="7" height="7" transform="rotate(90 428 28)" fill="#BCF9B1"/>
<rect x="381" y="28" width="7" height="26" transform="rotate(90 381 28)" fill="#7BC96E"/>
<rect x="404" y="42" width="7" height="7" transform="rotate(90 404 42)" fill="#7BC96E"/>
<rect x="374" y="42" width="7" height="10" transform="rotate(90 374 42)" fill="#7BC96E"/>
<rect x="414" y="28" width="7" height="10" transform="rotate(90 414 28)" fill="#7BC96E"/>
<rect x="341" y="35" width="7" height="14" transform="rotate(90 341 35)" fill="#7BC96E"/>
<rect x="428" y="42" width="7" height="14" transform="rotate(90 428 42)" fill="#7BC96E"/>
<rect width="7" height="23" transform="matrix(0 1 1 0 547 28)" fill="#BCF9B1"/>
<rect width="7" height="23" transform="matrix(0 1 1 0 510 42)" fill="#BCF9B1"/>
<rect width="7" height="9" transform="matrix(0 1 1 0 547 42)" fill="#BCF9B1"/>
<rect width="7" height="23" transform="matrix(0 1 1 0 470 35)" fill="#BCF9B1"/>
<rect width="7" height="7" transform="matrix(0 1 1 0 533 28)" fill="#BCF9B1"/>
<rect width="7" height="7" transform="matrix(0 1 1 0 519 28)" fill="#BCF9B1"/>
<rect width="7" height="7" transform="matrix(0 1 1 0 486 28)" fill="#BCF9B1"/>
<rect width="7" height="7" transform="matrix(0 1 1 0 437 35)" fill="#BCF9B1"/>
<rect width="7" height="7" transform="matrix(0 1 1 0 493 42)" fill="#BCF9B1"/>
<rect width="7" height="9" transform="matrix(0 1 1 0 444 28)" fill="#BCF9B1"/>
<rect width="7" height="26" transform="matrix(0 1 1 0 493 28)" fill="#7BC96E"/>
<rect width="7" height="17" transform="matrix(0 1 1 0 420 42)" fill="#7BC96E"/>
<rect width="7" height="7" transform="matrix(0 1 1 0 470 42)" fill="#7BC96E"/>
<rect width="7" height="10" transform="matrix(0 1 1 0 500 42)" fill="#7BC96E"/>
<rect width="7" height="10" transform="matrix(0 1 1 0 460 28)" fill="#7BC96E"/>
<rect width="7" height="14" transform="matrix(0 1 1 0 533 35)" fill="#7BC96E"/>
<rect width="7" height="16" transform="matrix(0 1 1 0 444 42)" fill="#7BC96E"/>
<rect width="7" height="23" transform="matrix(0 1 1 0 414 28)" fill="#BCF9B1"/>
<rect width="67" height="11" transform="matrix(1 0 0 -1 274 605)" fill="#E4E4E4"/>
<rect width="11" height="11" transform="matrix(1 0 0 -1 459 605)" fill="#E4E4E4"/>
<rect width="11" height="11" transform="matrix(1 0 0 -1 352 605)" fill="#E4E4E4"/>
<rect width="11" height="11" transform="matrix(1 0 0 -1 124 616)" fill="#E4E4E4"/>
<rect width="11" height="11" transform="matrix(1 0 0 -1 472 616)" fill="#E4E4E4"/>
<rect x="583" y="55" width="11" height="11" fill="#E9E9E9"/>
<rect width="67" height="11" transform="matrix(0 -1 -1 0 594 145)" fill="#E4E4E4"/>
<rect width="84" height="11" transform="matrix(0 -1 -1 0 11 105)" fill="#F5F5F5"/>
<rect width="84" height="11" transform="matrix(1 0 0 -1 375 605)" fill="#F5F5F5"/>
<rect width="84" height="11" transform="matrix(1 0 0 -1 470 605)" fill="#F5F5F5"/>
<rect width="84" height="11" transform="matrix(1 0 0 -1 124 605)" fill="#F5F5F5"/>
<rect width="11" height="11" transform="matrix(1 0 0 -1 11 605)" fill="#F5F5F5"/>
<rect width="33" height="11" transform="matrix(1 0 0 -1 33 605)" fill="#E4E4E4"/>
<rect width="67" height="11" transform="matrix(0 -1 -1 0 594 527)" fill="#E4E4E4"/>
<rect width="11" height="11" transform="matrix(0 -1 -1 0 594 237)" fill="#E4E4E4"/>
<rect x="22" y="11" width="84" height="11" fill="#F5F5F5"/>
<rect x="179" y="11" width="84" height="11" fill="#F5F5F5"/>
<rect x="321" width="22" height="11" fill="#F5F5F5"/>
<rect x="275" y="11" width="251" height="11" fill="#F5F5F5"/>
<rect x="298" width="23" height="11" fill="#E4E4E4"/>
<rect x="343" width="23" height="11" fill="#E4E4E4"/>
<rect x="22" y="11" width="11" height="11" transform="rotate(90 22 11)" fill="#E4E4E4"/>
<rect width="11" height="11" transform="matrix(0 -1 -1 0 594 431)" fill="#E4E4E4"/>
<rect width="84" height="11" transform="matrix(0 -1 -1 0 594 408)" fill="#F5F5F5"/>
<rect width="67" height="11" transform="matrix(0 -1 -1 0 11 512)" fill="#E4E4E4"/>
<rect width="11" height="11" transform="matrix(0 -1 -1 0 11 416)" fill="#E4E4E4"/>
<rect width="84" height="11" transform="matrix(0 -1 -1 0 11 393)" fill="#F5F5F5"/>
</svg>
