<svg width="113" height="124" viewBox="0 0 113 124" fill="none" xmlns="http://www.w3.org/2000/svg">
<rect x="102" y="90" width="11" height="11" fill="#E4E4E4"/>
<rect x="16" y="92" width="59" height="6" transform="rotate(-90 16 92)" fill="#7C7C7C"/>
<rect x="81" y="92" width="59" height="6" transform="rotate(-90 81 92)" fill="#9C9C9C"/>
<rect x="22" y="92" width="59" height="6" fill="#7C7C7C"/>
<rect x="22" y="27" width="59" height="6" fill="#9C9C9C"/>
<rect x="96" y="101" width="78" height="6" transform="rotate(-90 96 101)" fill="#CCCCCC"/>
<rect y="101" width="78" height="6" transform="rotate(-90 0 101)" fill="#CCCCCC"/>
<rect x="12" y="107" width="78" height="6" fill="#CCCCCC"/>
<rect x="12" y="11" width="78" height="6" fill="#CCCCCC"/>
<rect x="90" y="17" width="6" height="6" fill="#CCCCCC"/>
<rect x="90" y="101" width="6" height="6" fill="#CCCCCC"/>
<rect x="6" y="17" width="6" height="6" fill="#CCCCCC"/>
<rect x="6" y="101" width="6" height="6" fill="#CCCCCC"/>
<rect x="22" y="33" width="59" height="59" fill="white"/>
<rect x="55" y="113" width="11" height="11" fill="#E4E4E4"/>
<rect x="67" width="23" height="11" fill="#F5F5F5"/>
<rect x="12" y="113" width="43" height="11" fill="#F5F5F5"/>
<rect x="102" y="66" width="43" height="11" transform="rotate(-90 102 66)" fill="#F5F5F5"/>
</svg>
