<svg width="479" height="465" viewBox="0 0 479 465" fill="none" xmlns="http://www.w3.org/2000/svg">
<path d="M15.7884 258.846H30.7884V340.846H15.7884V258.846Z" fill="#84CC77"/>
<path d="M15.7884 205.423H30.7884V220.423H15.7884V205.423Z" fill="#84CC77"/>
<path d="M171.451 449.128H314.451V464.128H171.451V449.128Z" fill="#BFF2B6"/>
<rect x="28.8845" y="434.211" width="143" height="15" fill="#BFF2B6"/>
<path d="M15.7884 1.06268e-05H30.7884V206H15.7884V1.06268e-05Z" fill="#BFF2B6"/>
<rect x="463.885" y="2.21143" width="15" height="432" fill="#84CC77"/>
<path d="M264.385 434.211H464.385V449.211H264.385V434.211Z" fill="#84CC77"/>
<path d="M449.385 449.211H464.385V464.211H449.385V449.211Z" fill="#7ACA6C"/>
<path d="M-0.000106268 220.211H15.9999V258.211H-0.000106268V220.211Z" fill="#BFF2B6"/>
<path d="M454.309 434.211H40.4597V431.02H454.309V434.211ZM40.4597 431.02H37.2673V427.829H40.4597V431.02ZM457.502 431.02H454.309V427.829H457.502V431.02ZM37.2673 427.829H34.0759V424.636H37.2673V427.829ZM460.693 427.829H457.502V424.636H460.693V427.829ZM34.0759 424.636H30.8845V10.7866H34.0759V424.636ZM463.885 424.636H460.693V10.7866H463.885V424.636ZM37.2673 10.7866H34.0759V7.59424H37.2673V10.7866ZM460.693 10.7866H457.502V7.59424H460.693V10.7866ZM40.4597 7.59424H37.2673V4.40283H40.4597V7.59424ZM457.502 7.59424H454.309V4.40283H457.502V7.59424ZM454.309 4.40283H40.4597V1.21143H454.309V4.40283Z" fill="#FF8FB8"/>
<path d="M454.309 431.02H40.4597V427.829H37.2673V424.636H34.0759V10.7866H37.2673V7.59424H40.4597V4.40283H454.309V7.59424H457.502V10.7866H460.693V424.636H457.502V427.829H454.309V431.02Z" fill="#FFE4EB"/>
<path d="M416.204 387.401H83.8855V384.862H81.322V382.323H78.7595V53.1001H81.322V50.561H83.8845V48.022H416.204V50.561H418.766V53.1001H421.329V382.323H418.766V384.862H416.204V387.401Z" fill="#FF8FB8"/>
<path d="M438.04 417.189H56.7283V414.249H438.04V417.189ZM56.7283 414.249H53.7878V411.308H56.7283V414.249ZM440.981 414.249H438.04V411.308H440.981V414.249ZM53.7878 411.308H50.8474V408.368H53.7878V411.308ZM443.922 411.308H440.981V408.368H443.922V411.308ZM50.8474 408.367H47.907V27.0552H50.8474V408.367ZM446.862 408.367H443.922V27.0552H446.862V408.367ZM53.7878 27.0562H50.8474V24.1147H53.7878V27.0562ZM443.922 27.0562H440.981V24.1147H443.922V27.0562ZM56.7283 24.1147H53.7878V21.1743H56.7283V24.1147ZM440.981 24.1147H438.04V21.1743H440.981V24.1147ZM438.04 21.1743H56.7283V18.2339H438.04V21.1743Z" fill="#FF8FB8"/>
<path d="M414.151 387.003H411.627V389.529H84.2068V387.003H411.626V384.478H414.151V387.003ZM84.2068 387.003H81.6814V384.478H84.2068V387.003ZM81.6814 384.478H79.157V381.954H81.6814V384.478ZM416.677 384.478H414.151V381.954H416.677V384.478ZM79.157 381.953H76.6316V54.5337H79.157V381.953ZM419.201 381.953H416.677V54.5337H419.201V381.953ZM81.6814 54.5337H79.157V52.0083H81.6814V54.5337ZM416.677 54.5337H414.151V52.0083H416.677V54.5337ZM84.2068 52.0083H81.6814V49.4839H84.2068V52.0083ZM411.627 49.4839H414.151V52.0083H411.626V49.4839H84.2068V46.9585H411.627V49.4839Z" fill="#FF8FB8"/>
<path d="M443.982 26.9966L443.966 50.3188L443.653 50.3208V374.3H443.625V383.247L443.885 383.222L443.946 406.447L443.97 408.363H440.977L440.992 411.309H438.052L438.041 414.263L56.6755 414.243L56.616 405.293L72.6511 405.311L72.6609 400.896L78.8845 400.909L78.8923 397.717L85.1179 397.73L85.1218 395.603L87.197 395.607L87.2039 392.416L91.4275 392.424L91.4343 389.55L399.936 389.549V389.211H410.943V386.725H414.552V384.229H416.988V381.656H419.463V373.897H421.382V53.6343H422.592V48.7935H425.714V46.6655H427.795V40.2817H430.917V33.8989H435.54L435.545 26.9897L443.982 26.9966Z" fill="#FFB2ED"/>
<path d="M68.1208 53.3413H63.865V72.4917H68.1208V87.3862H63.865V122.494H68.1208V137.388H63.865V149.091H68.1208V213.988H72.3757V218.244H68.1208V229.946H72.3757V244.84H68.1208V285.268H72.3757V300.163H68.1208V307.61H72.3757V311.865H68.1208V360.803H63.865V235.265H59.6091V365.059H55.3542V376.762H58.5457V391.656H54.2898V376.762H51.0984V43.7671H55.3542V153.346H59.6091V23.5532H68.1208V53.3413ZM76.6316 336.334H72.3757V321.44H76.6316V336.334ZM76.6316 201.221H72.3757V186.327H76.6316V201.221ZM74.5037 141.644H70.2478V137.388H74.5037V141.644ZM72.3757 122.494H68.1208V107.6H72.3757V122.494ZM72.3757 102.28H68.1208V87.3862H72.3757V102.28ZM76.6316 74.6196H72.3757V70.3638H76.6316V74.6196ZM72.3757 57.5972H68.1208V53.3413H72.3757V57.5972ZM57.4812 39.5112H53.2263V35.2554H57.4812V39.5112Z" fill="#FFFEFF"/>
<path d="M41.1687 69.2749H39.3953V87.0415H41.1687V100.86H39.3953V133.431H41.1687V147.25H39.3953V158.106H41.1687V218.314H42.9421V222.262H41.1687V233.12H42.9421V246.937H41.1687V284.444H42.9421V298.262H41.1687V305.171H42.9421V309.12H41.1687V354.522H39.3953V238.054H37.6228V358.47H35.8494V369.327H37.1794V383.145H35.406V369.327H34.0759V60.3921H35.8494V162.054H37.6228V41.6392H41.1687V69.2749ZM44.7156 331.821H42.9421V318.002H44.7156V331.821ZM44.7156 206.47H42.9421V192.652H44.7156V206.47ZM43.8289 151.198H42.0554V147.25H43.8289V151.198ZM42.9421 133.431H41.1687V119.613H42.9421V133.431ZM42.9421 114.678H41.1687V100.86H42.9421V114.678ZM44.7156 89.0151H42.9421V85.0679H44.7156V89.0151ZM42.9421 73.2231H41.1687V69.2749H42.9421V73.2231ZM36.7361 56.4438H34.9626V52.4956H36.7361V56.4438Z" fill="#FF8FB8"/>
<path d="M93.6228 422.864V424.636H113.437V422.864H128.847V424.636H165.174V422.864H180.585V424.636H192.693V422.864H411.749V424.636H281.856V426.41H416.151V428.183H428.26V426.853H443.671V428.626H428.26V429.956H83.7156V428.183H197.096V426.41H62.8005V422.864H93.6228ZM386.43 419.317V421.09H371.019V419.317H386.43ZM361.112 421.09V422.863H356.709V421.09H361.112ZM349.004 421.09V422.863H333.593V421.09H349.004ZM291.763 421.09V422.863H276.352V421.09H291.763ZM264.244 421.09V422.863H259.841V421.09H264.244ZM246.632 419.317V421.09H231.22V419.317H246.632ZM184.987 420.204V421.977H180.585V420.204H184.987ZM165.174 421.09V422.863H149.762V421.09H165.174ZM144.259 421.09V422.863H128.847V421.09H144.259ZM115.638 419.317V421.09H111.235V419.317H115.638ZM98.0261 421.09V422.863H93.6228V421.09H98.0261ZM79.3123 427.296V429.07H74.9099V427.296H79.3123Z" fill="#FFFEFF"/>
<path d="M414.318 11.4956V9.72217L393.398 9.72217V11.4956L377.126 11.4956V9.72217L338.771 9.72217V11.4956L322.499 11.4956V9.72217L309.714 9.72217V11.4956L238.815 11.4956V13.269H234.166V11.4956L221.381 11.4956V13.269L205.109 13.269V11.4956L160.942 11.4956V13.269L144.671 13.269V11.4956H136.535V13.269L131.885 13.269V11.4956L78.4207 11.4956V9.72217L215.569 9.72217V7.94971L73.7722 7.94971V6.17627L60.9871 6.17627V7.50635L44.7146 7.50635V5.73291L60.9871 5.73291V4.40283L424.779 4.40283V6.17627L305.064 6.17627V7.94971L446.862 7.94971V11.4956L414.318 11.4956ZM105.153 15.0425V13.269L121.426 13.269V15.0425L105.153 15.0425ZM252.762 15.0425V13.269L269.034 13.269V15.0425L252.762 15.0425ZM317.849 14.1558V12.3823L322.499 12.3823V14.1558H317.849ZM338.77 13.269V11.4956L355.043 11.4956V13.269L338.77 13.269ZM360.854 13.269V11.4956L377.126 11.4956V13.269L360.854 13.269ZM391.073 15.0425V13.269L395.722 13.269V15.0425L391.073 15.0425ZM409.67 13.269V11.4956H414.319V13.269L409.67 13.269ZM429.428 7.06299V5.28955L434.078 5.28955V7.06299L429.428 7.06299Z" fill="#FF8FB8"/>
<rect x="132.885" y="25.2114" width="4" height="15" transform="rotate(-90 132.885 25.2114)" fill="#FFFEFF"/>
<rect x="189.885" y="42.2114" width="4" height="14" transform="rotate(-90 189.885 42.2114)" fill="#FFFEFF"/>
<rect x="308.885" y="31.2114" width="4" height="15" transform="rotate(-90 308.885 31.2114)" fill="#FFFEFF"/>
<rect x="397.885" y="47.2114" width="5" height="15" transform="rotate(-90 397.885 47.2114)" fill="#FFFEFF"/>
<rect x="407.885" y="31.2114" width="4" height="15" transform="rotate(-90 407.885 31.2114)" fill="#FFFEFF"/>
<rect x="293.885" y="25.2114" width="4" height="15" transform="rotate(-90 293.885 25.2114)" fill="#FFFEFF"/>
<rect x="278.885" y="31.2114" width="4" height="81" transform="rotate(-90 278.885 31.2114)" fill="#FFFEFF"/>
<rect x="193.885" y="25.2114" width="4" height="81" transform="rotate(-90 193.885 25.2114)" fill="#FFFEFF"/>
<rect x="65.8845" y="25.2114" width="4" height="81" transform="rotate(-90 65.8845 25.2114)" fill="#FFFEFF"/>
<rect x="249.885" y="395.211" width="5" height="81" transform="rotate(-90 249.885 395.211)" fill="#FFFEFF"/>
<rect x="364.885" y="414.211" width="4" height="11" transform="rotate(-90 364.885 414.211)" fill="#FFFEFF"/>
<path d="M427.358 373.57H431.436V354.42H427.358V339.526H431.436V304.417H427.358V289.524H431.436L431.436 277.821H427.358V212.924H423.28V208.668H427.358V196.965H423.28V182.072H427.358V141.644H423.28V126.75H427.358V119.302H423.28V115.046H427.358L427.358 66.1079H431.436L431.436 191.646H435.514L435.514 61.853H439.593V50.1499H436.534V35.2554H440.612V50.1499H443.671L443.671 383.145H439.593L439.593 273.565H435.514L435.514 403.359H427.358V373.57ZM421.24 90.5776H425.319V105.472H421.24V90.5776ZM421.329 225.691H425.407V240.584H421.329V225.691ZM421.241 285.268H425.319L425.319 289.524H421.241L421.241 285.268ZM423.28 304.417H427.358V319.312H423.28V304.417ZM423.28 324.631H427.358V339.526H423.28V324.631ZM421.329 356.548H425.407V360.803H421.329V356.548ZM423.28 369.315H427.358V373.57H423.28V369.315ZM437.553 387.401H441.632V391.656H437.553V387.401Z" fill="#FFE1F3"/>
<rect x="81.8845" y="407.211" width="48" height="4" fill="#FFFEFF"/>
<rect x="181.885" y="411.211" width="48" height="3" fill="#FFFEFF"/>
<rect x="176.885" y="411.211" width="3" height="3" fill="#FFFEFF"/>
<rect x="233.885" y="389.211" width="3" height="4" fill="#FFFEFF"/>
<rect x="387.885" y="389.211" width="4" height="4" fill="#FFFEFF"/>
<rect x="443.885" y="428.211" width="3" height="3" fill="#FF8FB8"/>
<rect x="76.8845" y="411.211" width="48" height="3" fill="#FFFEFF"/>
<rect x="126.885" y="40.2114" width="48" height="4" fill="#FFFEFF"/>
<rect x="226.885" y="44.2114" width="48" height="3" fill="#FFFEFF"/>
<rect x="220.885" y="44.2114" width="4" height="3" fill="#FFFEFF"/>
<rect x="120.885" y="44.2114" width="48" height="3" fill="#FFFEFF"/>
<path d="M381.884 21.2114H428.884V24.2114H381.884V21.2114Z" fill="#FFFEFF"/>
<rect x="374.885" y="23.2114" width="48" height="4" fill="#FFFEFF"/>
<path d="M15.7884 258.846H30.7884V340.846H15.7884V258.846Z" fill="#84CC77"/>
<path d="M15.7884 205.423H30.7884V220.423H15.7884V205.423Z" fill="#84CC77"/>
<path d="M171.451 449.128H314.451V464.128H171.451V449.128Z" fill="#BFF2B6"/>
<rect x="28.8845" y="434.211" width="143" height="15" fill="#BFF2B6"/>
<path d="M15.7884 1.06268e-05H30.7884V206H15.7884V1.06268e-05Z" fill="#BFF2B6"/>
<rect x="463.885" y="2.21143" width="15" height="432" fill="#84CC77"/>
<path d="M264.385 434.211H464.385V449.211H264.385V434.211Z" fill="#84CC77"/>
<path d="M449.385 449.211H464.385V464.211H449.385V449.211Z" fill="#7ACA6C"/>
<path d="M-0.000106268 220.211H15.9999V258.211H-0.000106268V220.211Z" fill="#BFF2B6"/>
<path d="M454.309 434.211H40.4597V431.02H454.309V434.211ZM40.4597 431.02H37.2673V427.829H40.4597V431.02ZM457.502 431.02H454.309V427.829H457.502V431.02ZM37.2673 427.829H34.0759V424.636H37.2673V427.829ZM460.693 427.829H457.502V424.636H460.693V427.829ZM34.0759 424.636H30.8845V10.7866H34.0759V424.636ZM463.885 424.636H460.693V10.7866H463.885V424.636ZM37.2673 10.7866H34.0759V7.59424H37.2673V10.7866ZM460.693 10.7866H457.502V7.59424H460.693V10.7866ZM40.4597 7.59424H37.2673V4.40283H40.4597V7.59424ZM457.502 7.59424H454.309V4.40283H457.502V7.59424ZM454.309 4.40283H40.4597V1.21143H454.309V4.40283Z" fill="#FF8FB8"/>
<path d="M454.309 431.02H40.4597V427.829H37.2673V424.636H34.0759V10.7866H37.2673V7.59424H40.4597V4.40283H454.309V7.59424H457.502V10.7866H460.693V424.636H457.502V427.829H454.309V431.02Z" fill="#FFE4EB"/>
<path d="M416.204 387.401H83.8855V384.862H81.322V382.323H78.7595V53.1001H81.322V50.561H83.8845V48.022H416.204V50.561H418.766V53.1001H421.329V382.323H418.766V384.862H416.204V387.401Z" fill="#FF8FB8"/>
<path d="M438.04 417.189H56.7283V414.249H438.04V417.189ZM56.7283 414.249H53.7878V411.308H56.7283V414.249ZM440.981 414.249H438.04V411.308H440.981V414.249ZM53.7878 411.308H50.8474V408.368H53.7878V411.308ZM443.922 411.308H440.981V408.368H443.922V411.308ZM50.8474 408.367H47.907V27.0552H50.8474V408.367ZM446.862 408.367H443.922V27.0552H446.862V408.367ZM53.7878 27.0562H50.8474V24.1147H53.7878V27.0562ZM443.922 27.0562H440.981V24.1147H443.922V27.0562ZM56.7283 24.1147H53.7878V21.1743H56.7283V24.1147ZM440.981 24.1147H438.04V21.1743H440.981V24.1147ZM438.04 21.1743H56.7283V18.2339H438.04V21.1743Z" fill="#FF8FB8"/>
<path d="M414.151 387.003H411.627V389.529H84.2068V387.003H411.626V384.478H414.151V387.003ZM84.2068 387.003H81.6814V384.478H84.2068V387.003ZM81.6814 384.478H79.157V381.954H81.6814V384.478ZM416.677 384.478H414.151V381.954H416.677V384.478ZM79.157 381.953H76.6316V54.5337H79.157V381.953ZM419.201 381.953H416.677V54.5337H419.201V381.953ZM81.6814 54.5337H79.157V52.0083H81.6814V54.5337ZM416.677 54.5337H414.151V52.0083H416.677V54.5337ZM84.2068 52.0083H81.6814V49.4839H84.2068V52.0083ZM411.627 49.4839H414.151V52.0083H411.626V49.4839H84.2068V46.9585H411.627V49.4839Z" fill="#FF8FB8"/>
<path d="M443.982 26.9966L443.966 50.3188L443.653 50.3208V374.3H443.625V383.247L443.885 383.222L443.946 406.447L443.97 408.363H440.977L440.992 411.309H438.052L438.041 414.263L56.6755 414.243L56.616 405.293L72.6511 405.311L72.6609 400.896L78.8845 400.909L78.8923 397.717L85.1179 397.73L85.1218 395.603L87.197 395.607L87.2039 392.416L91.4275 392.424L91.4343 389.55L399.936 389.549V389.211H410.943V386.725H414.552V384.229H416.988V381.656H419.463V373.897H421.382V53.6343H422.592V48.7935H425.714V46.6655H427.795V40.2817H430.917V33.8989H435.54L435.545 26.9897L443.982 26.9966Z" fill="#FFB2ED"/>
<path d="M68.1208 53.3413H63.865V72.4917H68.1208V87.3862H63.865V122.494H68.1208V137.388H63.865V149.091H68.1208V213.988H72.3757V218.244H68.1208V229.946H72.3757V244.84H68.1208V285.268H72.3757V300.163H68.1208V307.61H72.3757V311.865H68.1208V360.803H63.865V235.265H59.6091V365.059H55.3542V376.762H58.5457V391.656H54.2898V376.762H51.0984V43.7671H55.3542V153.346H59.6091V23.5532H68.1208V53.3413ZM76.6316 336.334H72.3757V321.44H76.6316V336.334ZM76.6316 201.221H72.3757V186.327H76.6316V201.221ZM74.5037 141.644H70.2478V137.388H74.5037V141.644ZM72.3757 122.494H68.1208V107.6H72.3757V122.494ZM72.3757 102.28H68.1208V87.3862H72.3757V102.28ZM76.6316 74.6196H72.3757V70.3638H76.6316V74.6196ZM72.3757 57.5972H68.1208V53.3413H72.3757V57.5972ZM57.4812 39.5112H53.2263V35.2554H57.4812V39.5112Z" fill="#FFFEFF"/>
<path d="M41.1687 69.2749H39.3953V87.0415H41.1687V100.86H39.3953V133.431H41.1687V147.25H39.3953V158.106H41.1687V218.314H42.9421V222.262H41.1687V233.12H42.9421V246.937H41.1687V284.444H42.9421V298.262H41.1687V305.171H42.9421V309.12H41.1687V354.522H39.3953V238.054H37.6228V358.47H35.8494V369.327H37.1794V383.145H35.406V369.327H34.0759V60.3921H35.8494V162.054H37.6228V41.6392H41.1687V69.2749ZM44.7156 331.821H42.9421V318.002H44.7156V331.821ZM44.7156 206.47H42.9421V192.652H44.7156V206.47ZM43.8289 151.198H42.0554V147.25H43.8289V151.198ZM42.9421 133.431H41.1687V119.613H42.9421V133.431ZM42.9421 114.678H41.1687V100.86H42.9421V114.678ZM44.7156 89.0151H42.9421V85.0679H44.7156V89.0151ZM42.9421 73.2231H41.1687V69.2749H42.9421V73.2231ZM36.7361 56.4438H34.9626V52.4956H36.7361V56.4438Z" fill="#FF8FB8"/>
<path d="M93.6228 422.864V424.636H113.437V422.864H128.847V424.636H165.174V422.864H180.585V424.636H192.693V422.864H411.749V424.636H281.856V426.41H416.151V428.183H428.26V426.853H443.671V428.626H428.26V429.956H83.7156V428.183H197.096V426.41H62.8005V422.864H93.6228ZM386.43 419.317V421.09H371.019V419.317H386.43ZM361.112 421.09V422.863H356.709V421.09H361.112ZM349.004 421.09V422.863H333.593V421.09H349.004ZM291.763 421.09V422.863H276.352V421.09H291.763ZM264.244 421.09V422.863H259.841V421.09H264.244ZM246.632 419.317V421.09H231.22V419.317H246.632ZM184.987 420.204V421.977H180.585V420.204H184.987ZM165.174 421.09V422.863H149.762V421.09H165.174ZM144.259 421.09V422.863H128.847V421.09H144.259ZM115.638 419.317V421.09H111.235V419.317H115.638ZM98.0261 421.09V422.863H93.6228V421.09H98.0261ZM79.3123 427.296V429.07H74.9099V427.296H79.3123Z" fill="#FFFEFF"/>
<path d="M414.318 11.4956V9.72217L393.398 9.72217V11.4956L377.126 11.4956V9.72217L338.771 9.72217V11.4956L322.499 11.4956V9.72217L309.714 9.72217V11.4956L238.815 11.4956V13.269H234.166V11.4956L221.381 11.4956V13.269L205.109 13.269V11.4956L160.942 11.4956V13.269L144.671 13.269V11.4956H136.535V13.269L131.885 13.269V11.4956L78.4207 11.4956V9.72217L215.569 9.72217V7.94971L73.7722 7.94971V6.17627L60.9871 6.17627V7.50635L44.7146 7.50635V5.73291L60.9871 5.73291V4.40283L424.779 4.40283V6.17627L305.064 6.17627V7.94971L446.862 7.94971V11.4956L414.318 11.4956ZM105.153 15.0425V13.269L121.426 13.269V15.0425L105.153 15.0425ZM252.762 15.0425V13.269L269.034 13.269V15.0425L252.762 15.0425ZM317.849 14.1558V12.3823L322.499 12.3823V14.1558H317.849ZM338.77 13.269V11.4956L355.043 11.4956V13.269L338.77 13.269ZM360.854 13.269V11.4956L377.126 11.4956V13.269L360.854 13.269ZM391.073 15.0425V13.269L395.722 13.269V15.0425L391.073 15.0425ZM409.67 13.269V11.4956H414.319V13.269L409.67 13.269ZM429.428 7.06299V5.28955L434.078 5.28955V7.06299L429.428 7.06299Z" fill="#FF8FB8"/>
<rect x="132.885" y="25.2114" width="4" height="15" transform="rotate(-90 132.885 25.2114)" fill="#FFFEFF"/>
<rect x="189.885" y="42.2114" width="4" height="14" transform="rotate(-90 189.885 42.2114)" fill="#FFFEFF"/>
<rect x="308.885" y="31.2114" width="4" height="15" transform="rotate(-90 308.885 31.2114)" fill="#FFFEFF"/>
<rect x="397.885" y="47.2114" width="5" height="15" transform="rotate(-90 397.885 47.2114)" fill="#FFFEFF"/>
<rect x="407.885" y="31.2114" width="4" height="15" transform="rotate(-90 407.885 31.2114)" fill="#FFFEFF"/>
<rect x="293.885" y="25.2114" width="4" height="15" transform="rotate(-90 293.885 25.2114)" fill="#FFFEFF"/>
<rect x="278.885" y="31.2114" width="4" height="81" transform="rotate(-90 278.885 31.2114)" fill="#FFFEFF"/>
<rect x="193.885" y="25.2114" width="4" height="81" transform="rotate(-90 193.885 25.2114)" fill="#FFFEFF"/>
<rect x="65.8845" y="25.2114" width="4" height="81" transform="rotate(-90 65.8845 25.2114)" fill="#FFFEFF"/>
<rect x="249.885" y="395.211" width="5" height="81" transform="rotate(-90 249.885 395.211)" fill="#FFFEFF"/>
<rect x="364.885" y="414.211" width="4" height="11" transform="rotate(-90 364.885 414.211)" fill="#FFFEFF"/>
<path d="M427.358 373.57H431.436V354.42H427.358V339.526H431.436V304.417H427.358V289.524H431.436L431.436 277.821H427.358V212.924H423.28V208.668H427.358V196.965H423.28V182.072H427.358V141.644H423.28V126.75H427.358V119.302H423.28V115.046H427.358L427.358 66.1079H431.436L431.436 191.646H435.514L435.514 61.853H439.593V50.1499H436.534V35.2554H440.612V50.1499H443.671L443.671 383.145H439.593L439.593 273.565H435.514L435.514 403.359H427.358V373.57ZM421.24 90.5776H425.319V105.472H421.24V90.5776ZM421.329 225.691H425.407V240.584H421.329V225.691ZM421.241 285.268H425.319L425.319 289.524H421.241L421.241 285.268ZM423.28 304.417H427.358V319.312H423.28V304.417ZM423.28 324.631H427.358V339.526H423.28V324.631ZM421.329 356.548H425.407V360.803H421.329V356.548ZM423.28 369.315H427.358V373.57H423.28V369.315ZM437.553 387.401H441.632V391.656H437.553V387.401Z" fill="#FFE1F3"/>
<rect x="81.8845" y="407.211" width="48" height="4" fill="#FFFEFF"/>
<rect x="181.885" y="411.211" width="48" height="3" fill="#FFFEFF"/>
<rect x="176.885" y="411.211" width="3" height="3" fill="#FFFEFF"/>
<rect x="233.885" y="389.211" width="3" height="4" fill="#FFFEFF"/>
<rect x="387.885" y="389.211" width="4" height="4" fill="#FFFEFF"/>
<rect x="443.885" y="428.211" width="3" height="3" fill="#FF8FB8"/>
<rect x="76.8845" y="411.211" width="48" height="3" fill="#FFFEFF"/>
<rect x="126.885" y="40.2114" width="48" height="4" fill="#FFFEFF"/>
<rect x="226.885" y="44.2114" width="48" height="3" fill="#FFFEFF"/>
<rect x="220.885" y="44.2114" width="4" height="3" fill="#FFFEFF"/>
<rect x="120.885" y="44.2114" width="48" height="3" fill="#FFFEFF"/>
<path d="M381.884 21.2114H428.884V24.2114H381.884V21.2114Z" fill="#FFFEFF"/>
<rect x="374.885" y="23.2114" width="48" height="4" fill="#FFFEFF"/>
</svg>
