<svg width="1037" height="201" viewBox="0 0 1037 201" fill="none" xmlns="http://www.w3.org/2000/svg">
<g clip-path="url(#clip0_429_801)">
<path d="M1037 0H0V201H1037V0Z" fill="#FF5599"/>
<path d="M84 40H126V80H210V120H168V160H126V120H84V161H126V201H0V0H84V40ZM342 201H300V161H342V201ZM210 200H168V160H210V200ZM300 160H258V120H300V160ZM425 120H383V80H425V120ZM252 80H210V40H252V80ZM210 40H126V0H210V40ZM342 40H300V0H342V40Z" fill="#FF3D85"/>
<path d="M952.164 40.3984H909.746V80.7959H824.91V121.194H867.328V161.592H909.746V121.194H952.164V162.602H909.746V203H1037V0H952.164V40.3984ZM691.597 203H734.015V162.602H691.597V203ZM824.91 201.99H867.328V161.592H824.91V201.99ZM734.015 161.592H776.433V121.194H734.015V161.592ZM607.771 121.194H650.189V80.7959H607.771V121.194ZM782.492 80.7959H824.91V40.3984H782.492V80.7959ZM824.91 40.3984H909.746V0H824.91V40.3984ZM691.597 40.3984H734.015V0H691.597V40.3984Z" fill="#FF3D85"/>
</g>
<defs>
<clipPath id="clip0_429_801">
<rect width="1037" height="201" fill="white"/>
</clipPath>
</defs>
</svg>
