<svg width="908" height="201" viewBox="0 0 908 201" fill="none" xmlns="http://www.w3.org/2000/svg">
<rect width="908" height="201" fill="#FF4A8C"/>
<path d="M307.25 78.25H303.5V82H288.5V78.25H284.75V52H288.5V48.25H303.5V52H307.25V59.5H299.75V52H292.25V78.25H299.75V70.75H307.25V78.25ZM337.25 78.25H333.5V82H318.5V78.25H314.75V59.5H318.5V55.75H333.5V59.5H337.25V78.25ZM329.75 78.25V59.5H322.25V78.25H329.75ZM367.25 59.5H359.75V82H352.25V59.5H344.75V55.75H367.25V59.5ZM397.25 78.25H393.5V82H382.25V93.25H374.75V55.75H393.5V59.5H397.25V78.25ZM389.75 78.25V59.5H382.25V78.25H389.75ZM431 82H423.5V67H419.75V70.75H416V74.5H412.25V82H404.75V55.75H412.25V67H416V63.25H419.75V59.5H423.5V55.75H431V82ZM479.75 74.5H476V67H472.25V82H464.75V55.75H472.25V63.25H476V67H479.75V74.5ZM491 82H483.5V67H479.75V63.25H483.5V55.75H491V82ZM517.25 70.75H502.25V78.25H513.5V82H498.5V78.25H494.75V59.5H498.5V55.75H513.5V59.5H517.25V70.75ZM509.75 67V59.5H502.25V67H509.75ZM547.25 82H539.75V70.75H532.25V82H524.75V55.75H532.25V67H539.75V55.75H547.25V82ZM577.25 82H569.75V70.75H562.25V82H554.75V70.75H558.5V67H554.75V59.5H558.5V55.75H577.25V82ZM569.75 67V59.5H562.25V67H569.75ZM603.5 85.75H599.75V89.5H592.25V85.75H596V82H592.25V74.5H603.5V85.75ZM172.25 142H164.75V134.5H153.5V130.75H149.75V115.75H157.25V130.75H164.75V115.75H172.25V142ZM202.25 119.5H194.75V142H187.25V119.5H179.75V115.75H202.25V119.5ZM232.25 138.25H228.5V142H213.5V138.25H209.75V119.5H213.5V115.75H228.5V119.5H232.25V138.25ZM224.75 138.25V119.5H217.25V138.25H224.75ZM254.75 108.25H262.25V112H258.5V115.75H247.25V119.5H258.5V123.25H262.25V138.25H258.5V142H243.5V138.25H239.75V115.75H243.5V112H254.75V108.25ZM254.75 138.25V123.25H247.25V138.25H254.75ZM288.5 138.25H284.75V142H269.75V115.75H277.25V127H284.75V130.75H288.5V115.75H296V142H288.5V138.25ZM281 138.25V130.75H277.25V138.25H281ZM352.25 138.25H348.5V145.75H344.75V149.5H341V153.25H326V149.5H337.25V145.75H341V142H333.5V138.25H329.75V115.75H337.25V138.25H344.75V115.75H352.25V138.25ZM382.25 138.25H378.5V142H359.75V115.75H378.5V119.5H382.25V127H378.5V130.75H382.25V138.25ZM374.75 138.25V130.75H367.25V138.25H374.75ZM374.75 127V119.5H367.25V127H374.75ZM416 142H408.5V127H404.75V130.75H401V134.5H397.25V142H389.75V115.75H397.25V127H401V123.25H404.75V119.5H408.5V115.75H416V142ZM438.5 142H423.5V145.75H416V138.25H419.75V119.5H423.5V115.75H442.25V138.25H446V145.75H438.5V142ZM427.25 138.25H434.75V119.5H427.25V138.25ZM472.25 130.75H457.25V138.25H468.5V142H453.5V138.25H449.75V119.5H453.5V115.75H468.5V119.5H472.25V130.75ZM464.75 127V119.5H457.25V127H464.75ZM502.25 119.5H494.75V142H487.25V119.5H479.75V115.75H502.25V119.5ZM532.25 138.25H528.5V142H509.75V115.75H517.25V127H528.5V130.75H532.25V138.25ZM524.75 138.25V130.75H517.25V138.25H524.75ZM592.25 138.25H588.5V142H573.5V138.25H569.75V119.5H573.5V115.75H588.5V119.5H592.25V123.25H584.75V119.5H577.25V138.25H584.75V134.5H592.25V138.25ZM622.25 130.75H607.25V138.25H618.5V142H603.5V138.25H599.75V119.5H603.5V115.75H618.5V119.5H622.25V130.75ZM614.75 127V119.5H607.25V127H614.75ZM656 142H648.5V138.25H644.75V134.5H641V130.75H637.25V142H629.75V115.75H637.25V127H641V123.25H644.75V119.5H648.5V115.75H656V123.25H648.5V127H644.75V130.75H648.5V134.5H652.25V138.25H656V142ZM682.25 138.25H678.5V142H667.25V153.25H659.75V115.75H678.5V119.5H682.25V138.25ZM674.75 138.25V119.5H667.25V138.25H674.75ZM712.25 130.75H697.25V138.25H708.5V142H693.5V138.25H689.75V119.5H693.5V115.75H708.5V119.5H712.25V130.75ZM704.75 127V119.5H697.25V127H704.75ZM742.25 119.5H734.75V142H727.25V119.5H719.75V115.75H742.25V119.5ZM768.5 123.25H764.75V130.75H757.25V123.25H753.5V112H757.25V108.25H764.75V112H768.5V123.25ZM764.75 142H757.25V134.5H764.75V142Z" fill="white"/>
</svg>
