<svg width="641" height="400" viewBox="0 0 641 400" fill="none" xmlns="http://www.w3.org/2000/svg">
<rect x="2" y="11" width="628" height="367" fill="#CCCCCC"/>
<rect x="7" y="16.0273" width="618" height="356.945" fill="white"/>
<rect width="84" height="11" transform="matrix(0 -1 -1 0 641 116)" fill="#F5F5F5"/>
<rect width="84" height="11" transform="matrix(1 0 0 -1 122 11)" fill="#F5F5F5"/>
<rect width="84" height="11" transform="matrix(1 0 0 -1 541 11)" fill="#E4E4E4"/>
<rect width="84" height="11" transform="matrix(1 0 0 -1 30 389)" fill="#F5F5F5"/>
<rect width="84" height="11" transform="matrix(1 0 0 -1 420 11)" fill="#F5F5F5"/>
<rect width="11" height="11" transform="matrix(1 0 0 -1 307 11)" fill="#F5F5F5"/>
<rect width="33" height="11" transform="matrix(1 0 0 -1 329 11)" fill="#E4E4E4"/>
<rect width="84" height="11" transform="matrix(1 0 0 -1 187 389)" fill="#F5F5F5"/>
<rect y="373" width="7" height="7" fill="white"/>
<rect width="22" height="11" transform="matrix(1 0 0 -1 329 400)" fill="#F5F5F5"/>
<rect width="251" height="11" transform="matrix(1 0 0 -1 283 389)" fill="#F5F5F5"/>
<rect width="23" height="11" transform="matrix(1 0 0 -1 306 400)" fill="#E4E4E4"/>
<rect width="23" height="11" transform="matrix(1 0 0 -1 351 400)" fill="#E4E4E4"/>
<rect width="11" height="11" transform="matrix(0 -1 -1 0 30 389)" fill="#E4E4E4"/>
<rect width="67" height="11" transform="matrix(0 -1 -1 0 641 338)" fill="#E4E4E4"/>
<rect width="11" height="11" transform="matrix(0 -1 -1 0 641 242)" fill="#E4E4E4"/>
<rect width="84" height="11" transform="matrix(0 -1 -1 0 641 219)" fill="#F5F5F5"/>
</svg>
