<svg width="76" height="76" viewBox="0 0 76 76" fill="none" xmlns="http://www.w3.org/2000/svg">
<rect y="69.5774" width="63.1549" height="6.42254" transform="rotate(-90 0 69.5774)" fill="#D9D9D9"/>
<rect x="69.5775" y="69.5774" width="63.1549" height="6.42254" transform="rotate(-90 69.5775 69.5774)" fill="#D9D9D9"/>
<rect x="6.42249" y="69.5774" width="63.1549" height="6.42254" fill="#D9D9D9"/>
<rect x="6.42249" width="63.1549" height="6.42254" fill="#D9D9D9"/>
<rect y="69.5774" width="63.1549" height="6.42254" transform="rotate(-90 0 69.5774)" fill="#5C9153"/>
<rect x="69.5775" y="69.5774" width="63.1549" height="6.42254" transform="rotate(-90 69.5775 69.5774)" fill="#62A756"/>
<rect x="6.42249" y="69.5774" width="63.1549" height="6.42254" fill="#5C9153"/>
<rect x="6.42249" width="63.1549" height="6.42254" fill="#62A756"/>
<rect x="6.42249" y="6.42261" width="63.1549" height="63.1549" fill="#9CE58F"/>
<path d="M46.588 56.2817H39.088V52.5317H35.338V48.7817H31.588V45.0317H27.838V41.2817H24.088V37.5317H27.838V33.7817H31.588V30.0317H35.338V26.2817H39.088V22.5317H46.588V26.2817H42.838V30.0317H39.088V33.7817H35.338V37.5317H31.588V41.2817H35.338V45.0317H39.088V48.7817H42.838V52.5317H46.588V56.2817Z" fill="white"/>
<rect x="6.42249" y="6.42261" width="5.35211" height="21.4085" fill="#BCF9B1"/>
<rect x="6.42249" y="33.1831" width="5.35211" height="5.35211" fill="#7BC96E"/>
<rect x="43.8873" y="64.2253" width="14.9859" height="5.35211" fill="#7BC96E"/>
<rect x="64.2253" y="22.4788" width="5.35211" height="5.35211" fill="#BCF9B1"/>
<rect x="58.8733" y="11.7747" width="5.35211" height="5.35211" fill="#BCF9B1"/>
<rect x="38.5352" y="11.7747" width="5.35211" height="5.35211" fill="#BCF9B1"/>
<rect x="64.2253" y="37.4648" width="5.35211" height="5.35211" fill="#BCF9B1"/>
<rect x="58.8733" y="57.8027" width="5.35211" height="5.35211" fill="#BCF9B1"/>
<rect x="6.42249" y="64.2253" width="5.35211" height="5.35211" fill="#BCF9B1"/>
<rect x="6.42249" y="43.8872" width="5.35211" height="14.9859" fill="#BCF9B1"/>
<rect x="6.42249" y="58.8733" width="5.35211" height="5.35211" fill="#7BC96E"/>
<rect x="11.7747" y="11.7747" width="5.35211" height="5.35211" fill="#7BC96E"/>
<rect x="64.2253" y="48.1689" width="5.35211" height="21.4085" fill="#BCF9B1"/>
<rect x="17.1267" y="69.5774" width="5.35211" height="16.0563" transform="rotate(-90 17.1267 69.5774)" fill="#BCF9B1"/>
<rect x="43.8873" y="6.42261" width="25.6901" height="5.35211" fill="#7BC96E"/>
<rect x="11.7747" y="11.7747" width="5.35211" height="16.0563" transform="matrix(0 -1 1 0 0 23.5493)" fill="#BCF9B1"/>
</svg>
