<svg width="89" height="89" viewBox="0 0 89 89" fill="none" xmlns="http://www.w3.org/2000/svg">
<rect x="1.50632" y="1.86547" width="85" height="85" transform="rotate(-0.242092 1.50632 1.86547)" fill="#9CE58F" stroke="#5C9652" stroke-width="3"/>
<path d="M55.6055 48.118L40.6057 48.1814L40.6374 55.6813L51.8873 55.6338L51.9031 59.3837L36.9032 59.4471L36.8874 55.6972L33.1374 55.713L33.0582 36.9632L36.8082 36.9473L36.7923 33.1974L51.7922 33.134L51.808 36.8839L55.558 36.8681L55.6055 48.118ZM48.0898 44.3997L48.0581 36.8998L40.5581 36.9315L40.5898 44.4314L48.0898 44.3997ZM55.5263 29.3682L48.0264 29.3999L47.9947 21.8999L55.4946 21.8682L55.5263 29.3682ZM40.5264 29.4315L33.0265 29.4632L32.9948 21.9633L40.4947 21.9316L40.5264 29.4315Z" fill="white"/>
</svg>
