<svg width="76" height="76" viewBox="0 0 76 76" fill="none" xmlns="http://www.w3.org/2000/svg">
<rect y="69.5774" width="63.1549" height="6.42254" transform="rotate(-90 0 69.5774)" fill="#D9D9D9"/>
<rect x="69.5775" y="69.5774" width="63.1549" height="6.42254" transform="rotate(-90 69.5775 69.5774)" fill="#D9D9D9"/>
<rect x="6.42249" y="69.5774" width="63.1549" height="6.42254" fill="#D9D9D9"/>
<rect x="6.42249" width="63.1549" height="6.42254" fill="#D9D9D9"/>
<rect y="69.5774" width="63.1549" height="6.42254" transform="rotate(-90 0 69.5774)" fill="#5C9153"/>
<rect x="69.5775" y="69.5774" width="63.1549" height="6.42254" transform="rotate(-90 69.5775 69.5774)" fill="#62A756"/>
<rect x="6.42249" y="69.5774" width="63.1549" height="6.42254" fill="#5C9153"/>
<rect x="6.42249" width="63.1549" height="6.42254" fill="#62A756"/>
<rect x="6.42249" y="6.42261" width="63.1549" height="63.1549" fill="#9CE58F"/>
<rect x="6.42249" y="6.42261" width="5.35211" height="21.4085" fill="#BCF9B1"/>
<rect x="6.42249" y="33.1831" width="5.35211" height="5.35211" fill="#7BC96E"/>
<rect x="43.8873" y="64.2253" width="14.9859" height="5.35211" fill="#7BC96E"/>
<rect x="64.2253" y="22.4788" width="5.35211" height="5.35211" fill="#BCF9B1"/>
<rect x="58.8733" y="11.7747" width="5.35211" height="5.35211" fill="#BCF9B1"/>
<rect x="38.5352" y="11.7747" width="5.35211" height="5.35211" fill="#BCF9B1"/>
<rect x="64.2253" y="37.4648" width="5.35211" height="5.35211" fill="#BCF9B1"/>
<rect x="58.8733" y="57.8027" width="5.35211" height="5.35211" fill="#BCF9B1"/>
<rect x="6.42249" y="64.2253" width="5.35211" height="5.35211" fill="#BCF9B1"/>
<rect x="6.42249" y="43.8872" width="5.35211" height="14.9859" fill="#BCF9B1"/>
<rect x="6.42249" y="58.8733" width="5.35211" height="5.35211" fill="#7BC96E"/>
<rect x="11.7747" y="11.7747" width="5.35211" height="5.35211" fill="#7BC96E"/>
<rect x="64.2253" y="48.1689" width="5.35211" height="21.4085" fill="#BCF9B1"/>
<rect x="17.1267" y="69.5774" width="5.35211" height="16.0563" transform="rotate(-90 17.1267 69.5774)" fill="#BCF9B1"/>
<rect x="43.8873" y="6.42261" width="25.6901" height="5.35211" fill="#7BC96E"/>
<rect x="11.7747" y="11.7747" width="5.35211" height="16.0563" transform="matrix(0 -1 1 0 0 23.5493)" fill="#BCF9B1"/>
<path d="M40.1022 55.2112H32.6022V43.9612H28.8522V40.2112H25.1022V36.4612H21.3522V55.2112H13.8522V21.4612H21.3522V28.9612H25.1022V32.7112H28.8522V36.4612H32.6022V21.4612H40.1022V55.2112ZM62.6022 40.2112H58.8522V43.9612H47.6022V40.2112H43.8522V28.9612H47.6022V25.2112H58.8522V28.9612H62.6022V40.2112ZM62.6022 51.4612H43.8522V47.7112H62.6022V51.4612ZM55.1022 40.2112V28.9612H51.3522V40.2112H55.1022Z" fill="white"/>
</svg>
