<svg width="75" height="75" viewBox="0 0 75 75" fill="none" xmlns="http://www.w3.org/2000/svg">
<rect y="68.6619" width="62.3239" height="6.33803" transform="rotate(-90 0 68.6619)" fill="#D9D9D9"/>
<rect x="68.662" y="68.6619" width="62.3239" height="6.33803" transform="rotate(-90 68.662 68.6619)" fill="#D9D9D9"/>
<rect x="6.33801" y="68.6619" width="62.3239" height="6.33803" fill="#D9D9D9"/>
<rect x="6.33801" width="62.3239" height="6.33803" fill="#D9D9D9"/>
<rect y="68.6619" width="62.3239" height="6.33803" transform="rotate(-90 0 68.6619)" fill="#5C9153"/>
<rect x="68.662" y="68.6619" width="62.3239" height="6.33803" transform="rotate(-90 68.662 68.6619)" fill="#62A756"/>
<rect x="6.33801" y="68.6619" width="62.3239" height="6.33803" fill="#5C9153"/>
<rect x="6.33801" width="62.3239" height="6.33803" fill="#62A756"/>
<rect x="6.33801" y="6.33813" width="62.3239" height="62.3239" fill="#9CE58F"/>
<rect x="6.33801" y="6.33813" width="5.28169" height="21.1268" fill="#BCF9B1"/>
<rect x="6.33801" y="32.7466" width="5.28169" height="5.28169" fill="#7BC96E"/>
<rect x="43.3098" y="63.3804" width="14.7887" height="5.28169" fill="#7BC96E"/>
<rect x="63.3802" y="22.1831" width="5.28169" height="5.28169" fill="#BCF9B1"/>
<rect x="58.0986" y="11.6196" width="5.28169" height="5.28169" fill="#BCF9B1"/>
<rect x="38.0282" y="11.6196" width="5.28169" height="5.28169" fill="#BCF9B1"/>
<rect x="63.3802" y="36.9719" width="5.28169" height="5.28169" fill="#BCF9B1"/>
<rect x="58.0986" y="57.0422" width="5.28169" height="5.28169" fill="#BCF9B1"/>
<rect x="6.33801" y="63.3804" width="5.28169" height="5.28169" fill="#BCF9B1"/>
<rect x="6.33801" y="43.3098" width="5.28169" height="14.7887" fill="#BCF9B1"/>
<rect x="6.33801" y="58.0986" width="5.28169" height="5.28169" fill="#7BC96E"/>
<rect x="11.6198" y="11.6196" width="5.28169" height="5.28169" fill="#7BC96E"/>
<rect x="63.3802" y="47.5352" width="5.28169" height="21.1268" fill="#BCF9B1"/>
<rect x="16.9014" y="68.6619" width="5.28169" height="15.8451" transform="rotate(-90 16.9014 68.6619)" fill="#BCF9B1"/>
<rect x="43.3098" y="6.33813" width="25.3521" height="5.28169" fill="#7BC96E"/>
<rect x="11.6198" y="11.6196" width="5.28169" height="15.8451" transform="rotate(-90 11.6198 11.6196)" fill="#BCF9B1"/>
<path d="M53.1267 56.2253H49.3767V59.9753H38.1267V56.2253H34.3767V48.7253H30.6267V52.4753H26.8767V44.9753H30.6267V41.2253H34.3767V37.4753H38.1267V33.7253H26.8767V29.9753H23.1267V22.4753H26.8767V18.7253H38.1267V22.4753H41.8767V29.9753H45.6267V26.2253H49.3767V33.7253H45.6267V37.4753H41.8767V41.2253H38.1267V44.9753H49.3767V48.7253H53.1267V56.2253ZM41.8767 33.7253V29.9753H38.1267V33.7253H41.8767ZM34.3767 29.9753V22.4753H30.6267V29.9753H34.3767ZM45.6267 56.2253V48.7253H41.8767V56.2253H45.6267ZM38.1267 48.7253V44.9753H34.3767V48.7253H38.1267Z" fill="white"/>
</svg>
