<svg width="71" height="71" viewBox="0 0 71 71" fill="none" xmlns="http://www.w3.org/2000/svg">
<rect y="65" width="59" height="6" transform="rotate(-90 0 65)" fill="#9C9C9C"/>
<rect x="65" y="65" width="59" height="6" transform="rotate(-90 65 65)" fill="#9C9C9C"/>
<rect x="6" y="65" width="59" height="6" fill="#9C9C9C"/>
<rect x="6" width="59" height="6" fill="#9C9C9C"/>
<rect y="65" width="59" height="6" transform="rotate(-90 0 65)" fill="#9C9C9C"/>
<rect x="65" y="65" width="59" height="6" transform="rotate(-90 65 65)" fill="#9C9C9C"/>
<rect x="6" y="65" width="59" height="6" fill="#9C9C9C"/>
<rect x="6" width="59" height="6" fill="#9C9C9C"/>
<rect opacity="0.6" x="6" y="6" width="59" height="59" fill="#C6C6C6"/>
<path opacity="0.6" d="M38.75 18.25H46.25V22H42.5V25.75H31.25V29.5H42.5V33.25H46.25V48.25H42.5V52H27.5V48.25H23.75V25.75H27.5V22H38.75V18.25ZM38.75 48.25V33.25H31.25V48.25H38.75Z" fill="white"/>
<rect y="65" width="59" height="6" transform="rotate(-90 0 65)" fill="#9C9C9C"/>
<rect x="65" y="65" width="59" height="6" transform="rotate(-90 65 65)" fill="#9C9C9C"/>
<rect x="6" y="65" width="59" height="6" fill="#9C9C9C"/>
<rect x="6" width="59" height="6" fill="#9C9C9C"/>
<rect y="65" width="59" height="6" transform="rotate(-90 0 65)" fill="#9C9C9C"/>
<rect x="65" y="65" width="59" height="6" transform="rotate(-90 65 65)" fill="#9C9C9C"/>
<rect x="6" y="65" width="59" height="6" fill="#9C9C9C"/>
<rect x="6" width="59" height="6" fill="#9C9C9C"/>
</svg>
