<svg width="50" height="50" viewBox="0 0 50 50" fill="none" xmlns="http://www.w3.org/2000/svg">
<rect y="45.6768" width="41.5985" height="4.07828" transform="rotate(-90 0 45.6768)" fill="#D9D9D9"/>
<rect x="45.6768" y="45.6768" width="41.5985" height="4.07828" transform="matrix(0 -1 1 0 0 91.3535)" fill="#D9D9D9"/>
<rect x="4.07828" y="45.6768" width="41.5985" height="4.07828" fill="#D9D9D9"/>
<rect x="4.07828" width="41.5985" height="4.07828" fill="#D9D9D9"/>
<rect y="45.6768" width="41.5985" height="4.07828" transform="rotate(-90 0 45.6768)" fill="#5C9153"/>
<rect x="45.6768" y="45.6768" width="41.5985" height="4.07828" transform="matrix(0 -1 1 0 0 91.3535)" fill="#62A756"/>
<rect x="4.07828" y="45.6768" width="41.5985" height="4.07828" fill="#5C9153"/>
<rect x="4.07828" width="41.5985" height="4.07828" fill="#62A756"/>
<rect x="4.07828" y="4.07861" width="41.5985" height="41.5985" fill="#9CE58F"/>
<rect x="4.07828" y="4.07861" width="3.26263" height="13.8662" fill="#BCF9B1"/>
<rect x="4.07828" y="22.0229" width="3.26263" height="3.26263" fill="#7BC96E"/>
<rect x="28.548" y="42.4141" width="9.78788" height="3.26263" fill="#7BC96E"/>
<rect x="42.4142" y="14.6821" width="3.26263" height="3.26263" fill="#BCF9B1"/>
<rect x="38.3359" y="7.34131" width="4.07828" height="4.07828" fill="#BCF9B1"/>
<rect x="25.2853" y="7.34131" width="3.26263" height="4.07828" fill="#BCF9B1"/>
<rect x="42.4142" y="24.4697" width="3.26263" height="3.26263" fill="#BCF9B1"/>
<rect x="38.3359" y="37.5205" width="4.07828" height="4.07828" fill="#BCF9B1"/>
<rect x="4.07828" y="42.4141" width="3.26263" height="3.26263" fill="#BCF9B1"/>
<rect x="4.07828" y="28.5483" width="3.26263" height="9.78788" fill="#BCF9B1"/>
<rect x="4.07828" y="38.3359" width="3.26263" height="4.07828" fill="#7BC96E"/>
<rect x="7.34091" y="7.34131" width="4.07828" height="4.07828" fill="#7BC96E"/>
<rect x="42.4142" y="31.8105" width="3.26263" height="13.8662" fill="#BCF9B1"/>
<rect x="11.4192" y="45.6768" width="3.26263" height="10.6035" transform="rotate(-90 11.4192 45.6768)" fill="#BCF9B1"/>
<rect x="28.548" y="4.07861" width="17.1288" height="3.26263" fill="#7BC96E"/>
<rect x="7.34091" y="7.34131" width="3.26263" height="10.6035" transform="rotate(-90 7.34091 7.34131)" fill="#BCF9B1"/>
<path d="M32.5 27.5H22.5V32.5H30V35H20V32.5H17.5V20H20V17.5H30V20H32.5V27.5ZM27.5 25V20H22.5V25H27.5ZM32.5 15H27.5V10H32.5V15ZM22.5 15H17.5V10H22.5V15Z" fill="white"/>
</svg>
