<svg width="89" height="89" viewBox="0 0 89 89" fill="none" xmlns="http://www.w3.org/2000/svg">
<rect x="1.50632" y="1.86547" width="85" height="85" transform="rotate(-0.242092 1.50632 1.86547)" fill="#9CE58F" stroke="#5C9652" stroke-width="3"/>
<path d="M46.8478 25.4197L54.3478 25.388L54.3636 29.1379L50.6137 29.1538L50.6295 32.9038L39.3796 32.9513L39.3954 36.7013L50.6453 36.6537L50.6612 40.4037L54.4112 40.3878L54.4745 55.3877L50.7246 55.4036L50.7404 59.1535L35.7405 59.2169L35.7247 55.4669L31.9747 55.4828L31.8797 32.983L35.6296 32.9671L35.6138 29.2172L46.8637 29.1696L46.8478 25.4197ZM46.9746 55.4194L46.9112 40.4195L39.4113 40.4512L39.4747 55.4511L46.9746 55.4194Z" fill="white"/>
</svg>
