<svg width="71" height="72" viewBox="0 0 71 72" fill="none" xmlns="http://www.w3.org/2000/svg">
<rect y="66" width="59" height="6" transform="rotate(-90 0 66)" fill="#9C9C9C"/>
<rect x="65" y="66" width="59" height="6" transform="rotate(-90 65 66)" fill="#9C9C9C"/>
<rect x="6" y="66" width="59" height="6" fill="#9C9C9C"/>
<rect x="6" y="1" width="59" height="6" fill="#9C9C9C"/>
<rect y="66" width="59" height="6" transform="rotate(-90 0 66)" fill="#9C9C9C"/>
<rect x="65" y="66" width="59" height="6" transform="rotate(-90 65 66)" fill="#9C9C9C"/>
<rect x="6" y="66" width="59" height="6" fill="#9C9C9C"/>
<rect x="6" y="1" width="59" height="6" fill="#9C9C9C"/>
<rect opacity="0.6" x="6" y="7" width="59" height="59" fill="#C6C6C6"/>
<path opacity="0.6" d="M46.25 45.25H42.5V49H31.25V60.25H23.75V22.75H42.5V26.5H46.25V45.25ZM38.75 45.25V26.5H31.25V45.25H38.75Z" fill="white"/>
</svg>
