<svg width="50" height="50" viewBox="0 0 50 50" fill="none" xmlns="http://www.w3.org/2000/svg">
<rect y="45.6768" width="41.5985" height="4.07828" transform="rotate(-90 0 45.6768)" fill="#D9D9D9"/>
<rect x="45.6768" y="45.6768" width="41.5985" height="4.07828" transform="matrix(0 -1 1 0 0 91.3535)" fill="#D9D9D9"/>
<rect x="4.07828" y="45.6768" width="41.5985" height="4.07828" fill="#D9D9D9"/>
<rect x="4.07828" width="41.5985" height="4.07828" fill="#D9D9D9"/>
<rect y="45.6768" width="41.5985" height="4.07828" transform="rotate(-90 0 45.6768)" fill="#5C9153"/>
<rect x="45.6768" y="45.6768" width="41.5985" height="4.07828" transform="matrix(0 -1 1 0 0 91.3535)" fill="#62A756"/>
<rect x="4.07828" y="45.6768" width="41.5985" height="4.07828" fill="#5C9153"/>
<rect x="4.07828" width="41.5985" height="4.07828" fill="#62A756"/>
<rect x="4.07828" y="4.07812" width="41.5985" height="41.5985" fill="#9CE58F"/>
<rect x="4.07828" y="4.07812" width="3.26263" height="13.8662" fill="#BCF9B1"/>
<rect x="4.07828" y="22.0225" width="3.26263" height="3.26263" fill="#7BC96E"/>
<rect x="28.548" y="42.4141" width="9.78788" height="3.26263" fill="#7BC96E"/>
<rect x="42.4141" y="14.6816" width="3.26263" height="3.26263" fill="#BCF9B1"/>
<rect x="38.3358" y="7.34082" width="4.07828" height="4.07828" fill="#BCF9B1"/>
<rect x="25.2853" y="7.34082" width="3.26263" height="4.07828" fill="#BCF9B1"/>
<rect x="42.4141" y="24.4692" width="3.26263" height="3.26263" fill="#BCF9B1"/>
<rect x="38.3358" y="37.52" width="4.07828" height="4.07828" fill="#BCF9B1"/>
<rect x="4.07828" y="42.4141" width="3.26263" height="3.26263" fill="#BCF9B1"/>
<rect x="4.07828" y="28.5479" width="3.26263" height="9.78788" fill="#BCF9B1"/>
<rect x="4.07828" y="38.3354" width="3.26263" height="4.07828" fill="#7BC96E"/>
<rect x="7.34088" y="7.34082" width="4.07828" height="4.07828" fill="#7BC96E"/>
<rect x="42.4141" y="31.8105" width="3.26263" height="13.8662" fill="#BCF9B1"/>
<rect x="11.4192" y="45.6768" width="3.26263" height="10.6035" transform="rotate(-90 11.4192 45.6768)" fill="#BCF9B1"/>
<rect x="28.548" y="4.07812" width="17.1288" height="3.26263" fill="#7BC96E"/>
<rect x="7.34088" y="7.34082" width="3.26263" height="10.6035" transform="rotate(-90 7.34088 7.34082)" fill="#BCF9B1"/>
<path d="M32.5959 33.9038H27.5959V18.9038H22.5959V31.4038H20.0959V33.9038H15.0959V31.4038H17.5959V18.9038H20.0959V16.4038H32.5959V33.9038Z" fill="white"/>
</svg>
