<svg width="50" height="50" viewBox="0 0 50 50" fill="none" xmlns="http://www.w3.org/2000/svg">
<rect y="45.6768" width="41.5985" height="4.07828" transform="rotate(-90 0 45.6768)" fill="#D9D9D9"/>
<rect x="45.6768" y="45.6768" width="41.5985" height="4.07828" transform="matrix(0 -1 1 0 0 91.3535)" fill="#D9D9D9"/>
<rect x="4.07825" y="45.6768" width="41.5985" height="4.07828" fill="#D9D9D9"/>
<rect x="4.07825" width="41.5985" height="4.07828" fill="#D9D9D9"/>
<rect y="45.6768" width="41.5985" height="4.07828" transform="rotate(-90 0 45.6768)" fill="#5C9153"/>
<rect x="45.6768" y="45.6768" width="41.5985" height="4.07828" transform="matrix(0 -1 1 0 0 91.3535)" fill="#62A756"/>
<rect x="4.07825" y="45.6768" width="41.5985" height="4.07828" fill="#5C9153"/>
<rect x="4.07825" width="41.5985" height="4.07828" fill="#62A756"/>
<rect x="4.07825" y="4.07812" width="41.5985" height="41.5985" fill="#9CE58F"/>
<rect x="4.07825" y="4.07812" width="3.26263" height="13.8662" fill="#BCF9B1"/>
<rect x="4.07825" y="22.0225" width="3.26263" height="3.26263" fill="#7BC96E"/>
<rect x="28.548" y="42.4141" width="9.78788" height="3.26263" fill="#7BC96E"/>
<rect x="42.4141" y="14.6816" width="3.26263" height="3.26263" fill="#BCF9B1"/>
<rect x="38.3358" y="7.34082" width="4.07828" height="4.07828" fill="#BCF9B1"/>
<rect x="25.2853" y="7.34082" width="3.26263" height="4.07828" fill="#BCF9B1"/>
<rect x="42.4141" y="24.4692" width="3.26263" height="3.26263" fill="#BCF9B1"/>
<rect x="38.3358" y="37.52" width="4.07828" height="4.07828" fill="#BCF9B1"/>
<rect x="4.07825" y="42.4141" width="3.26263" height="3.26263" fill="#BCF9B1"/>
<rect x="4.07825" y="28.5479" width="3.26263" height="9.78788" fill="#BCF9B1"/>
<rect x="4.07825" y="38.3354" width="3.26263" height="4.07828" fill="#7BC96E"/>
<rect x="7.34088" y="7.34082" width="4.07828" height="4.07828" fill="#7BC96E"/>
<rect x="42.4141" y="31.8105" width="3.26263" height="13.8662" fill="#BCF9B1"/>
<rect x="11.4192" y="45.6768" width="3.26263" height="10.6035" transform="rotate(-90 11.4192 45.6768)" fill="#BCF9B1"/>
<rect x="28.548" y="4.07812" width="17.1288" height="3.26263" fill="#7BC96E"/>
<rect x="7.34088" y="7.34082" width="3.26263" height="10.6035" transform="rotate(-90 7.34088 7.34082)" fill="#BCF9B1"/>
<path d="M34.298 33.9038H29.298V31.4038H26.798V28.9038H24.298V26.4038H21.798V33.9038H16.798V16.4038H21.798V23.9038H24.298V21.4038H26.798V18.9038H29.298V16.4038H34.298V21.4038H29.298V23.9038H26.798V26.4038H29.298V28.9038H31.798V31.4038H34.298V33.9038Z" fill="white"/>
</svg>
