<svg width="50" height="51" viewBox="0 0 50 51" fill="none" xmlns="http://www.w3.org/2000/svg">
<rect y="46.7905" width="41.5985" height="4.07828" transform="rotate(-90 0 46.7905)" fill="#D9D9D9"/>
<rect x="45.6768" y="46.7905" width="41.5985" height="4.07828" transform="rotate(-90 45.6768 46.7905)" fill="#D9D9D9"/>
<rect x="4.07831" y="46.7905" width="41.5985" height="4.07828" fill="#D9D9D9"/>
<rect x="4.07831" y="1.11377" width="41.5985" height="4.07828" fill="#D9D9D9"/>
<rect y="46.7905" width="41.5985" height="4.07828" transform="rotate(-90 0 46.7905)" fill="#5C9153"/>
<rect x="45.6768" y="46.7905" width="41.5985" height="4.07828" transform="rotate(-90 45.6768 46.7905)" fill="#62A756"/>
<rect x="4.07831" y="46.7905" width="41.5985" height="4.07828" fill="#5C9153"/>
<rect x="4.07831" y="1.11377" width="41.5985" height="4.07828" fill="#62A756"/>
<rect x="4.07831" y="5.19189" width="41.5985" height="41.5985" fill="#9CE58F"/>
<rect x="4.07831" y="5.19189" width="3.26263" height="13.8662" fill="#BCF9B1"/>
<rect x="4.07831" y="23.1362" width="3.26263" height="3.26263" fill="#7BC96E"/>
<rect x="28.548" y="43.5278" width="9.78788" height="3.26263" fill="#7BC96E"/>
<rect x="42.4141" y="15.7954" width="3.26263" height="3.26263" fill="#BCF9B1"/>
<rect x="38.3359" y="8.45459" width="4.07828" height="4.07828" fill="#BCF9B1"/>
<rect x="25.2853" y="8.45459" width="3.26263" height="4.07828" fill="#BCF9B1"/>
<rect x="42.4141" y="25.5835" width="3.26263" height="3.26263" fill="#BCF9B1"/>
<rect x="38.3359" y="38.6338" width="4.07828" height="4.07828" fill="#BCF9B1"/>
<rect x="4.07831" y="43.5278" width="3.26263" height="3.26263" fill="#BCF9B1"/>
<rect x="4.07831" y="29.6616" width="3.26263" height="9.78788" fill="#BCF9B1"/>
<rect x="4.07831" y="39.4497" width="3.26263" height="4.07828" fill="#7BC96E"/>
<rect x="7.34088" y="8.45459" width="4.07828" height="4.07828" fill="#7BC96E"/>
<rect x="42.4141" y="32.9243" width="3.26263" height="13.8662" fill="#BCF9B1"/>
<rect x="11.4192" y="46.7905" width="3.26263" height="10.6035" transform="rotate(-90 11.4192 46.7905)" fill="#BCF9B1"/>
<rect x="28.548" y="5.19189" width="17.1288" height="3.26263" fill="#7BC96E"/>
<rect x="7.34088" y="8.45459" width="3.26263" height="10.6035" transform="rotate(-90 7.34088 8.45459)" fill="#BCF9B1"/>
<path d="M33 30.5H30.5V33H23V40.5H18V15.5H30.5V18H33V30.5ZM28 30.5V18H23V30.5H28Z" fill="white"/>
</svg>
