<svg width="71" height="71" viewBox="0 0 71 71" fill="none" xmlns="http://www.w3.org/2000/svg">
<rect y="65" width="59" height="6" transform="rotate(-90 0 65)" fill="#9C9C9C"/>
<rect x="65" y="65" width="59" height="6" transform="rotate(-90 65 65)" fill="#9C9C9C"/>
<rect x="6" y="65" width="59" height="6" fill="#9C9C9C"/>
<rect x="6" width="59" height="6" fill="#9C9C9C"/>
<rect y="65" width="59" height="6" transform="rotate(-90 0 65)" fill="#9C9C9C"/>
<rect x="65" y="65" width="59" height="6" transform="rotate(-90 65 65)" fill="#9C9C9C"/>
<rect x="6" y="65" width="59" height="6" fill="#9C9C9C"/>
<rect x="6" width="59" height="6" fill="#9C9C9C"/>
<rect opacity="0.6" x="6" y="6" width="59" height="59" fill="#C6C6C6"/>
<path opacity="0.6" d="M45.25 49H37.75V37.75H30.25V49H22.75V37.75H26.5V34H22.75V26.5H26.5V22.75H45.25V49ZM37.75 34V26.5H30.25V34H37.75Z" fill="white"/>
<rect y="65" width="59" height="6" transform="rotate(-90 0 65)" fill="#9C9C9C"/>
<rect x="65" y="65" width="59" height="6" transform="rotate(-90 65 65)" fill="#9C9C9C"/>
<rect x="6" y="65" width="59" height="6" fill="#9C9C9C"/>
<rect x="6" width="59" height="6" fill="#9C9C9C"/>
<rect y="65" width="59" height="6" transform="rotate(-90 0 65)" fill="#9C9C9C"/>
<rect x="65" y="65" width="59" height="6" transform="rotate(-90 65 65)" fill="#9C9C9C"/>
<rect x="6" y="65" width="59" height="6" fill="#9C9C9C"/>
<rect x="6" width="59" height="6" fill="#9C9C9C"/>
</svg>
