<svg width="89" height="89" viewBox="0 0 89 89" fill="none" xmlns="http://www.w3.org/2000/svg">
<rect x="1.50632" y="1.86547" width="85" height="85" transform="rotate(-0.242092 1.50632 1.86547)" fill="#9CE58F" stroke="#5C9652" stroke-width="3"/>
<path d="M55.4745 53.3877L51.7246 53.4036L51.7404 57.1535L36.7405 57.2169L36.7247 53.4669L32.9747 53.4828L32.9589 49.7328L40.4588 49.7011L40.4747 53.4511L47.9746 53.4194L47.9429 45.9195L40.443 45.9512L40.4271 42.2012L47.9271 42.1695L47.8954 34.6696L40.3954 34.7013L40.4113 38.4512L32.9114 38.4829L32.8955 34.7329L36.6455 34.7171L36.6296 30.9671L51.6295 30.9038L51.6453 34.6537L55.3953 34.6379L55.427 42.1378L51.677 42.1537L51.6929 45.9036L55.4428 45.8878L55.4745 53.3877Z" fill="white"/>
</svg>
