<svg width="71" height="72" viewBox="0 0 71 72" fill="none" xmlns="http://www.w3.org/2000/svg">
<rect y="66" width="59" height="6" transform="rotate(-90 0 66)" fill="#9C9C9C"/>
<rect x="65" y="66" width="59" height="6" transform="rotate(-90 65 66)" fill="#9C9C9C"/>
<rect x="6" y="66" width="59" height="6" fill="#9C9C9C"/>
<rect x="6" y="1" width="59" height="6" fill="#9C9C9C"/>
<rect y="66" width="59" height="6" transform="rotate(-90 0 66)" fill="#9C9C9C"/>
<rect x="65" y="66" width="59" height="6" transform="rotate(-90 65 66)" fill="#9C9C9C"/>
<rect x="6" y="66" width="59" height="6" fill="#9C9C9C"/>
<rect x="6" y="1" width="59" height="6" fill="#9C9C9C"/>
<rect opacity="0.6" x="6" y="7" width="59" height="59" fill="#C6C6C6"/>
<path opacity="0.6" d="M49 52.75H41.5V49H22.75V22.75H30.25V45.25H37.75V22.75H45.25V45.25H49V52.75Z" fill="white"/>
<rect y="66" width="59" height="6" transform="rotate(-90 0 66)" fill="#9C9C9C"/>
<rect x="65" y="66" width="59" height="6" transform="rotate(-90 65 66)" fill="#9C9C9C"/>
<rect x="6" y="66" width="59" height="6" fill="#9C9C9C"/>
<rect x="6" y="1" width="59" height="6" fill="#9C9C9C"/>
<rect y="66" width="59" height="6" transform="rotate(-90 0 66)" fill="#9C9C9C"/>
<rect x="65" y="66" width="59" height="6" transform="rotate(-90 65 66)" fill="#9C9C9C"/>
<rect x="6" y="66" width="59" height="6" fill="#9C9C9C"/>
<rect x="6" y="1" width="59" height="6" fill="#9C9C9C"/>
</svg>
