<svg width="71" height="71" viewBox="0 0 71 71" fill="none" xmlns="http://www.w3.org/2000/svg">
<rect y="65" width="59" height="6" transform="rotate(-90 0 65)" fill="#9C9C9C"/>
<rect x="65" y="65" width="59" height="6" transform="rotate(-90 65 65)" fill="#9C9C9C"/>
<rect x="6" y="65" width="59" height="6" fill="#9C9C9C"/>
<rect x="6" width="59" height="6" fill="#9C9C9C"/>
<rect y="65" width="59" height="6" transform="rotate(-90 0 65)" fill="#9C9C9C"/>
<rect x="65" y="65" width="59" height="6" transform="rotate(-90 65 65)" fill="#9C9C9C"/>
<rect x="6" y="65" width="59" height="6" fill="#9C9C9C"/>
<rect x="6" width="59" height="6" fill="#9C9C9C"/>
<rect opacity="0.6" x="6" y="6" width="59" height="59" fill="#C6C6C6"/>
<path opacity="0.6" d="M50 49H42.5V45.25H38.75V41.5H35V37.75H31.25V49H23.75V22.75H31.25V34H35V30.25H38.75V26.5H42.5V22.75H50V30.25H42.5V34H38.75V37.75H42.5V41.5H46.25V45.25H50V49Z" fill="white"/>
<rect y="65" width="59" height="6" transform="rotate(-90 0 65)" fill="#9C9C9C"/>
<rect x="65" y="65" width="59" height="6" transform="rotate(-90 65 65)" fill="#9C9C9C"/>
<rect x="6" y="65" width="59" height="6" fill="#9C9C9C"/>
<rect x="6" width="59" height="6" fill="#9C9C9C"/>
<rect y="65" width="59" height="6" transform="rotate(-90 0 65)" fill="#9C9C9C"/>
<rect x="65" y="65" width="59" height="6" transform="rotate(-90 65 65)" fill="#9C9C9C"/>
<rect x="6" y="65" width="59" height="6" fill="#9C9C9C"/>
<rect x="6" width="59" height="6" fill="#9C9C9C"/>
</svg>
