<svg width="50" height="50" viewBox="0 0 50 50" fill="none" xmlns="http://www.w3.org/2000/svg">
<rect y="45.6768" width="41.5985" height="4.07828" transform="rotate(-90 0 45.6768)" fill="#D9D9D9"/>
<rect x="45.6768" y="45.6768" width="41.5985" height="4.07828" transform="matrix(0 -1 1 0 0 91.3535)" fill="#D9D9D9"/>
<rect x="4.07831" y="45.6768" width="41.5985" height="4.07828" fill="#D9D9D9"/>
<rect x="4.07831" width="41.5985" height="4.07828" fill="#D9D9D9"/>
<rect y="45.6768" width="41.5985" height="4.07828" transform="rotate(-90 0 45.6768)" fill="#5C9153"/>
<rect x="45.6768" y="45.6768" width="41.5985" height="4.07828" transform="matrix(0 -1 1 0 0 91.3535)" fill="#62A756"/>
<rect x="4.07831" y="45.6768" width="41.5985" height="4.07828" fill="#5C9153"/>
<rect x="4.07831" width="41.5985" height="4.07828" fill="#62A756"/>
<rect x="4.07831" y="4.07861" width="41.5985" height="41.5985" fill="#9CE58F"/>
<rect x="4.07831" y="4.07861" width="3.26263" height="13.8662" fill="#BCF9B1"/>
<rect x="4.07831" y="22.0229" width="3.26263" height="3.26263" fill="#7BC96E"/>
<rect x="28.548" y="42.4141" width="9.78788" height="3.26263" fill="#7BC96E"/>
<rect x="42.4141" y="14.6821" width="3.26263" height="3.26263" fill="#BCF9B1"/>
<rect x="38.3359" y="7.34131" width="4.07828" height="4.07828" fill="#BCF9B1"/>
<rect x="25.2853" y="7.34131" width="3.26263" height="4.07828" fill="#BCF9B1"/>
<rect x="42.4141" y="24.4697" width="3.26263" height="3.26263" fill="#BCF9B1"/>
<rect x="38.3359" y="37.5205" width="4.07828" height="4.07828" fill="#BCF9B1"/>
<rect x="4.07831" y="42.4141" width="3.26263" height="3.26263" fill="#BCF9B1"/>
<rect x="4.07831" y="28.5483" width="3.26263" height="9.78788" fill="#BCF9B1"/>
<rect x="4.07831" y="38.3359" width="3.26263" height="4.07828" fill="#7BC96E"/>
<rect x="7.34088" y="7.34131" width="4.07828" height="4.07828" fill="#7BC96E"/>
<rect x="42.4141" y="31.8105" width="3.26263" height="13.8662" fill="#BCF9B1"/>
<rect x="11.4192" y="45.6768" width="3.26263" height="10.6035" transform="rotate(-90 11.4192 45.6768)" fill="#BCF9B1"/>
<rect x="28.548" y="4.07861" width="17.1288" height="3.26263" fill="#7BC96E"/>
<rect x="7.34088" y="7.34131" width="3.26263" height="10.6035" transform="rotate(-90 7.34088 7.34131)" fill="#BCF9B1"/>
<path d="M31.7904 33.9219H19.2904V31.4219H16.7904V26.4219H19.2904V23.9219H26.7904V18.9219H19.2904V16.4219H29.2904V18.9219H31.7904V33.9219ZM26.7904 31.4219V26.4219H21.7904V31.4219H26.7904Z" fill="white"/>
</svg>
