<svg width="89" height="89" viewBox="0 0 89 89" fill="none" xmlns="http://www.w3.org/2000/svg">
<rect x="1.50632" y="1.86547" width="85" height="85" transform="rotate(-0.242092 1.50632 1.86547)" fill="#9CE58F" stroke="#5C9652" stroke-width="3"/>
<path d="M57.2403 57.1218L49.7404 57.1535L49.7246 53.4036L45.9746 53.4194L45.9588 49.6694L42.2088 49.6853L42.1929 45.9353L38.443 45.9512L38.4905 57.2011L30.9906 57.2327L30.8797 30.983L38.3796 30.9513L38.4271 42.2012L42.1771 42.1853L42.1613 38.4354L45.9112 38.4195L45.8954 34.6696L49.6453 34.6537L49.6295 30.9038L57.1294 30.8721L57.1611 38.372L49.6612 38.4037L49.677 42.1537L45.9271 42.1695L45.9429 45.9195L49.6929 45.9036L49.7087 49.6536L53.4587 49.6377L53.4745 53.3877L57.2245 53.3719L57.2403 57.1218Z" fill="white"/>
</svg>
