<svg width="71" height="71" viewBox="0 0 71 71" fill="none" xmlns="http://www.w3.org/2000/svg">
<rect y="65" width="59" height="6" transform="rotate(-90 0 65)" fill="#9C9C9C"/>
<rect x="65" y="65" width="59" height="6" transform="rotate(-90 65 65)" fill="#9C9C9C"/>
<rect x="6" y="65" width="59" height="6" fill="#9C9C9C"/>
<rect x="6" width="59" height="6" fill="#9C9C9C"/>
<rect y="65" width="59" height="6" transform="rotate(-90 0 65)" fill="#9C9C9C"/>
<rect x="65" y="65" width="59" height="6" transform="rotate(-90 65 65)" fill="#9C9C9C"/>
<rect x="6" y="65" width="59" height="6" fill="#9C9C9C"/>
<rect x="6" width="59" height="6" fill="#9C9C9C"/>
<rect opacity="0.6" x="6" y="6" width="59" height="59" fill="#C6C6C6"/>
<path opacity="0.6" d="M46.25 46.25H42.5V50H23.75V23.75H42.5V27.5H46.25V35H42.5V38.75H46.25V46.25ZM38.75 46.25V38.75H31.25V46.25H38.75ZM38.75 35V27.5H31.25V35H38.75Z" fill="white"/>
<rect y="65" width="59" height="6" transform="rotate(-90 0 65)" fill="#9C9C9C"/>
<rect x="65" y="65" width="59" height="6" transform="rotate(-90 65 65)" fill="#9C9C9C"/>
<rect x="6" y="65" width="59" height="6" fill="#9C9C9C"/>
<rect x="6" width="59" height="6" fill="#9C9C9C"/>
<rect y="65" width="59" height="6" transform="rotate(-90 0 65)" fill="#9C9C9C"/>
<rect x="65" y="65" width="59" height="6" transform="rotate(-90 65 65)" fill="#9C9C9C"/>
<rect x="6" y="65" width="59" height="6" fill="#9C9C9C"/>
<rect x="6" width="59" height="6" fill="#9C9C9C"/>
<path opacity="0.6" d="M46.25 46.25H42.5V50H23.75V23.75H42.5V27.5H46.25V35H42.5V38.75H46.25V46.25ZM38.75 46.25V38.75H31.25V46.25H38.75ZM38.75 35V27.5H31.25V35H38.75Z" fill="white"/>
</svg>
