<svg width="50" height="50" viewBox="0 0 50 50" fill="none" xmlns="http://www.w3.org/2000/svg">
<rect x="3.05176e-05" y="45.6768" width="41.5985" height="4.07828" transform="rotate(-90 3.05176e-05 45.6768)" fill="#D9D9D9"/>
<rect x="45.6768" y="45.6768" width="41.5985" height="4.07828" transform="rotate(-90 45.6768 45.6768)" fill="#D9D9D9"/>
<rect x="4.07831" y="45.6768" width="41.5985" height="4.07828" fill="#D9D9D9"/>
<rect x="4.07831" width="41.5985" height="4.07828" fill="#D9D9D9"/>
<rect x="3.05176e-05" y="45.6768" width="41.5985" height="4.07828" transform="rotate(-90 3.05176e-05 45.6768)" fill="#5C9153"/>
<rect x="45.6768" y="45.6768" width="41.5985" height="4.07828" transform="rotate(-90 45.6768 45.6768)" fill="#62A756"/>
<rect x="4.07831" y="45.6768" width="41.5985" height="4.07828" fill="#5C9153"/>
<rect x="4.07831" width="41.5985" height="4.07828" fill="#62A756"/>
<rect x="4.07831" y="4.07812" width="41.5985" height="41.5985" fill="#9CE58F"/>
<rect x="4.07831" y="4.07812" width="3.26263" height="13.8662" fill="#BCF9B1"/>
<rect x="4.07831" y="22.0225" width="3.26263" height="3.26263" fill="#7BC96E"/>
<rect x="28.548" y="42.4141" width="9.78788" height="3.26263" fill="#7BC96E"/>
<rect x="42.4142" y="14.6816" width="3.26263" height="3.26263" fill="#BCF9B1"/>
<rect x="38.3359" y="7.34082" width="4.07828" height="4.07828" fill="#BCF9B1"/>
<rect x="25.2854" y="7.34082" width="3.26263" height="4.07828" fill="#BCF9B1"/>
<rect x="42.4142" y="24.4697" width="3.26263" height="3.26263" fill="#BCF9B1"/>
<rect x="38.3359" y="37.52" width="4.07828" height="4.07828" fill="#BCF9B1"/>
<rect x="4.07831" y="42.4141" width="3.26263" height="3.26263" fill="#BCF9B1"/>
<rect x="4.07831" y="28.5479" width="3.26263" height="9.78788" fill="#BCF9B1"/>
<rect x="4.07831" y="38.3359" width="3.26263" height="4.07828" fill="#7BC96E"/>
<rect x="7.34094" y="7.34082" width="4.07828" height="4.07828" fill="#7BC96E"/>
<rect x="42.4142" y="31.8105" width="3.26263" height="13.8662" fill="#BCF9B1"/>
<rect x="11.4192" y="45.6768" width="3.26263" height="10.6035" transform="rotate(-90 11.4192 45.6768)" fill="#BCF9B1"/>
<rect x="28.548" y="4.07812" width="17.1288" height="3.26263" fill="#7BC96E"/>
<rect x="7.34094" y="7.34082" width="3.26263" height="10.6035" transform="rotate(-90 7.34094 7.34082)" fill="#BCF9B1"/>
<path d="M33.5 28H31V33H28.5V35.5H26V38H16V35.5H23.5V33H26V30.5H21V28H18.5V13H23.5V28H28.5V13H33.5V28Z" fill="white"/>
</svg>
