<svg width="50" height="50" viewBox="0 0 50 50" fill="none" xmlns="http://www.w3.org/2000/svg">
<rect y="45.6768" width="41.5985" height="4.07828" transform="rotate(-90 0 45.6768)" fill="#D9D9D9"/>
<rect x="45.6768" y="45.6768" width="41.5985" height="4.07828" transform="rotate(-90 45.6768 45.6768)" fill="#D9D9D9"/>
<rect x="4.07831" y="45.6768" width="41.5985" height="4.07828" fill="#D9D9D9"/>
<rect x="4.07831" width="41.5985" height="4.07828" fill="#D9D9D9"/>
<rect y="45.6768" width="41.5985" height="4.07828" transform="rotate(-90 0 45.6768)" fill="#5C9153"/>
<rect x="45.6768" y="45.6768" width="41.5985" height="4.07828" transform="rotate(-90 45.6768 45.6768)" fill="#62A756"/>
<rect x="4.07831" y="45.6768" width="41.5985" height="4.07828" fill="#5C9153"/>
<rect x="4.07831" width="41.5985" height="4.07828" fill="#62A756"/>
<rect x="4.07831" y="4.07812" width="41.5985" height="41.5985" fill="#9CE58F"/>
<rect x="4.07831" y="4.07812" width="3.26263" height="13.8662" fill="#BCF9B1"/>
<rect x="4.07831" y="22.0229" width="3.26263" height="3.26263" fill="#7BC96E"/>
<rect x="28.548" y="42.4141" width="9.78788" height="3.26263" fill="#7BC96E"/>
<rect x="42.4142" y="14.6816" width="3.26263" height="3.26263" fill="#BCF9B1"/>
<rect x="38.3359" y="7.34082" width="4.07828" height="4.07828" fill="#BCF9B1"/>
<rect x="25.2854" y="7.34082" width="3.26263" height="4.07828" fill="#BCF9B1"/>
<rect x="42.4142" y="24.4697" width="3.26263" height="3.26263" fill="#BCF9B1"/>
<rect x="38.3359" y="37.5205" width="4.07828" height="4.07828" fill="#BCF9B1"/>
<rect x="4.07831" y="42.4141" width="3.26263" height="3.26263" fill="#BCF9B1"/>
<rect x="4.07831" y="28.5479" width="3.26263" height="9.78788" fill="#BCF9B1"/>
<rect x="4.07831" y="38.3359" width="3.26263" height="4.07828" fill="#7BC96E"/>
<rect x="7.34094" y="7.34082" width="4.07828" height="4.07828" fill="#7BC96E"/>
<rect x="42.4142" y="31.8105" width="3.26263" height="13.8662" fill="#BCF9B1"/>
<rect x="11.4192" y="45.6768" width="3.26263" height="10.6035" transform="rotate(-90 11.4192 45.6768)" fill="#BCF9B1"/>
<rect x="28.548" y="4.07812" width="17.1288" height="3.26263" fill="#7BC96E"/>
<rect x="7.34094" y="7.34082" width="3.26263" height="10.6035" transform="rotate(-90 7.34094 7.34082)" fill="#BCF9B1"/>
<path d="M32.1667 34.8511H27.1667V27.3511H22.1667V34.8511H17.1667V27.3511H19.6667V24.8511H17.1667V19.8511H19.6667V17.3511H32.1667V34.8511ZM27.1667 24.8511V19.8511H22.1667V24.8511H27.1667Z" fill="white"/>
</svg>
