<svg width="71" height="71" viewBox="0 0 71 71" fill="none" xmlns="http://www.w3.org/2000/svg">
<rect y="65" width="59" height="6" transform="rotate(-90 0 65)" fill="#9C9C9C"/>
<rect x="65" y="65" width="59" height="6" transform="rotate(-90 65 65)" fill="#9C9C9C"/>
<rect x="6" y="65" width="59" height="6" fill="#9C9C9C"/>
<rect x="6" width="59" height="6" fill="#9C9C9C"/>
<rect y="65" width="59" height="6" transform="rotate(-90 0 65)" fill="#9C9C9C"/>
<rect x="65" y="65" width="59" height="6" transform="rotate(-90 65 65)" fill="#9C9C9C"/>
<rect x="6" y="65" width="59" height="6" fill="#9C9C9C"/>
<rect x="6" width="59" height="6" fill="#9C9C9C"/>
<rect opacity="0.6" x="6" y="6" width="59" height="59" fill="#C6C6C6"/>
<path opacity="0.6" d="M47.25 49H39.75V26.5H32.25V45.25H28.5V49H21V45.25H24.75V26.5H28.5V22.75H47.25V49Z" fill="white"/>
<rect y="65" width="59" height="6" transform="rotate(-90 0 65)" fill="#9C9C9C"/>
<rect x="65" y="65" width="59" height="6" transform="rotate(-90 65 65)" fill="#9C9C9C"/>
<rect x="6" y="65" width="59" height="6" fill="#9C9C9C"/>
<rect x="6" width="59" height="6" fill="#9C9C9C"/>
<rect y="65" width="59" height="6" transform="rotate(-90 0 65)" fill="#9C9C9C"/>
<rect x="65" y="65" width="59" height="6" transform="rotate(-90 65 65)" fill="#9C9C9C"/>
<rect x="6" y="65" width="59" height="6" fill="#9C9C9C"/>
<rect x="6" width="59" height="6" fill="#9C9C9C"/>
</svg>
