<svg width="3713" height="277" viewBox="0 0 3713 277" fill="none" xmlns="http://www.w3.org/2000/svg">
<g clip-path="url(#clip0_428_488)">
<rect width="3713" height="277" fill="white"/>
<path d="M3708 277H0V0H3708V277Z" fill="#FFD9E7"/>
<rect width="1854" height="277" fill="white"/>
<rect width="1280" height="277" fill="#FFD9E7"/>
<path d="M62 184H31V153H62V184ZM279 184H248V153H279V184ZM496 184H465V153H496V184ZM713 184H682V153H713V184ZM930 184H899V153H930V184ZM1147 184H1116V153H1147V184ZM31 153H0V122H31V153ZM186 153H155V122H186V153ZM248 153H217V122H248V153ZM403 153H372V122H403V153ZM465 153H434V122H465V153ZM620 153H589V122H620V153ZM682 153H651V122H682V153ZM837 153H806V122H837V153ZM899 153H868V122H899V153ZM1054 153H1023V122H1054V153ZM1116 153H1085V122H1116V153ZM1271 153H1240V122H1271V153ZM124 124H93V93H124V124ZM341 124H310V93H341V124ZM558 124H527V93H558V124ZM775 124H744V93H775V124ZM992 124H961V93H992V124ZM1209 124H1178V93H1209V124ZM1280 93H1209V62H1178V93H1147V122H1116V93H1085V122H1054V93H992V62H961V93H930V122H899V93H868V122H837V93H775V62H744V93H713V122H682V93H651V122H620V93H558V62H527V93H496V122H465V93H434V122H403V93H341V62H310V93H279V122H248V93H217V122H186V93H124V62H93V93H62V122H31V93H0V0H1280V93Z" fill="white"/>
<g clip-path="url(#clip1_428_488)">
<rect width="620" height="277" transform="translate(1234)" fill="#FFD9E7"/>
<path d="M1296 184H1265V153H1296V184ZM1513 184H1482V153H1513V184ZM1730 184H1699V153H1730V184ZM1854 155H1823V124H1854V155ZM1265 153H1234V122H1265V153ZM1420 153H1389V122H1420V153ZM1482 153H1451V122H1482V153ZM1637 153H1606V122H1637V153ZM1699 153H1668V122H1699V153ZM1358 124H1327V93H1358V124ZM1575 124H1544V93H1575V124ZM1792 124H1761V93H1792V124ZM2514 62H1854V93H1792V62H1761V93H1730V122H1699V93H1668V122H1637V93H1575V62H1544V93H1513V122H1482V93H1451V122H1420V93H1358V62H1327V93H1296V122H1265V93H1234V0H2514V62Z" fill="white"/>
</g>
<path d="M2102 215H2071V184H2102V215ZM2257 215H2226V184H2257V215ZM2319 215H2288V184H2319V215ZM2474 215H2443V184H2474V215ZM2536 215H2505V184H2536V215ZM2691 215H2660V184H2691V215ZM2753 215H2722V184H2753V215ZM2970 215H2939V184H2970V215ZM3334 215H3303V184H3334V215ZM3489 215H3458V184H3489V215ZM3551 215H3520V184H3551V215ZM3768 215H3737V184H3768V215ZM1916 186H1885V155H1916V186ZM1978 186H1947V155H1978V186ZM2195 186H2164V155H2195V186ZM2412 186H2381V155H2412V186ZM2629 186H2598V155H2629V186ZM2846 186H2815V155H2846V186ZM3063 186H3032V155H3063V186ZM3210 186H3179V155H3210V186ZM3427 186H3396V155H3427V186ZM3861 186H3830V155H3861V186ZM3892 155H3861V124H3830V155H3801V184H3768V155H3675V217H3644V186H3613V155H3644V124H3613V155H3582V184H3551V155H3520V184H3489V155H3427V124H3396V155H3365V184H3334V155H3303V184H3272V155H3210V124H3179V155H3148V184H3125V215H3094V184H3117V155H3063V124H3032V155H3001V184H2970V155H2939V184H2908V155H2846V124H2815V155H2784V184H2753V155H2722V184H2691V155H2629V124H2598V155H2567V184H2536V155H2505V184H2474V155H2412V124H2381V155H2350V184H2319V155H2288V184H2257V155H2195V124H2164V155H2133V184H2102V155H2071V184H2040V155H1978V124H1947V155H1916V153H1885V155H1854V0H4368V62H4366V124H3892V155Z" fill="white"/>
<path d="M2010 124H2040V155H2010V124Z" fill="#FFD9E7"/>
<rect x="1979" y="93" width="31" height="31" fill="#FFD9E7"/>
<rect x="2103" y="124" width="31" height="31" fill="#FFD9E7"/>
<rect x="2258" y="93" width="31" height="31" fill="#FFD9E7"/>
<rect x="1886" y="122" width="31" height="31" fill="#FFD9E7"/>
<rect x="1886" y="93" width="31" height="31" fill="#FFD9E7"/>
<rect x="2723" y="93" width="31" height="31" fill="#FFD9E7"/>
<rect x="2630" y="93" width="31" height="31" fill="#FFD9E7"/>
<rect x="2568" y="91" width="31" height="31" fill="#FFD9E7"/>
<rect x="2878" y="124" width="31" height="31" fill="#FFD9E7"/>
<rect x="2847" y="93" width="31" height="31" fill="#FFD9E7"/>
<rect x="2909" y="124" width="31" height="31" fill="#FFD9E7"/>
<rect x="2940" y="93" width="31" height="31" fill="#FFD9E7"/>
<rect x="3002" y="124" width="31" height="31" fill="#FFD9E7"/>
<rect x="3002" y="93" width="31" height="31" fill="#FFD9E7"/>
<rect x="2227" y="124" width="31" height="31" fill="#FFD9E7"/>
<rect x="2320" y="128" width="31" height="31" fill="#FFD9E7"/>
<rect x="2413" y="93" width="31" height="31" fill="#FFD9E7"/>
<rect x="2475" y="124" width="31" height="31" fill="#FFD9E7"/>
<rect x="2692" y="124" width="31" height="31" fill="#FFD9E7"/>
<rect x="3242" y="124" width="31" height="31" fill="#FFD9E7"/>
<rect x="3211" y="93" width="31" height="31" fill="#FFD9E7"/>
<rect x="3335" y="124" width="31" height="31" fill="#FFD9E7"/>
<rect x="3490" y="93" width="31" height="31" fill="#FFD9E7"/>
<rect x="3118" y="124" width="31" height="31" fill="#FFD9E7"/>
<rect x="3118" y="93" width="31" height="31" fill="#FFD9E7"/>
<rect x="3459" y="124" width="31" height="31" fill="#FFD9E7"/>
<rect x="3552" y="128" width="31" height="31" fill="#FFD9E7"/>
<rect x="3645" y="93" width="31" height="31" fill="#FFD9E7"/>
</g>
<defs>
<clipPath id="clip0_428_488">
<rect width="3713" height="277" fill="white"/>
</clipPath>
<clipPath id="clip1_428_488">
<rect width="620" height="277" fill="white" transform="translate(1234)"/>
</clipPath>
</defs>
</svg>
