<svg width="445" height="168" viewBox="0 0 445 168" fill="none" xmlns="http://www.w3.org/2000/svg">
<rect x="7" width="431" height="4" fill="#9CE58F"/>
<rect x="7" y="160" width="431" height="8" fill="#9CE58F"/>
<rect x="7" y="31" width="431" height="4" fill="#9CE58F"/>
<rect y="6" width="7" height="154" fill="#9CE58F"/>
<rect x="438" y="7" width="7" height="153" fill="#9CE58F"/>
<rect x="7.75" y="31.75" width="429.5" height="127.5" fill="white" stroke="black" stroke-width="1.5"/>
<rect x="7" y="4" width="431" height="27" fill="#9CE58F"/>
<rect x="7.75" y="7.75" width="21.5" height="19.5" fill="white" stroke="black" stroke-width="1.5"/>
<rect x="27.75" y="7.75" width="95.5" height="19.5" fill="white" stroke="black" stroke-width="1.5"/>
<path d="M41.75 21.75H40.5V23H35.5V21.75H34.25V19.25H36.75V21.75H39.25V18H36.75V16.75H39.25V13H36.75V15.5H34.25V13H35.5V11.75H40.5V13H41.75V16.75H40.5V18H41.75V21.75ZM51.75 23H45.5V21.75H44.25V19.25H45.5V18H49.25V15.5H45.5V14.25H50.5V15.5H51.75V23ZM49.25 21.75V19.25H46.75V21.75H49.25ZM60.5 23H55.5V24.25H53V21.75H54.25V15.5H55.5V14.25H61.75V21.75H63V24.25H60.5V23ZM56.75 21.75H59.25V15.5H56.75V21.75ZM71.75 23H65.5V21.75H64.25V19.25H65.5V18H69.25V15.5H65.5V14.25H70.5V15.5H71.75V23ZM69.25 21.75V19.25H66.75V21.75H69.25ZM81.75 23H79.25V19.25H76.75V23H74.25V14.25H76.75V18H79.25V14.25H81.75V23ZM93 23H90.5V18H89.25V19.25H88V20.5H86.75V23H84.25V14.25H86.75V18H88V16.75H89.25V15.5H90.5V14.25H93V23ZM101.75 19.25H96.75V21.75H100.5V23H95.5V21.75H94.25V15.5H95.5V14.25H100.5V15.5H101.75V19.25ZM99.25 18V15.5H96.75V18H99.25Z" fill="black"/>
<path d="M116.75 23H109.25V20.5H110.5V19.25H111.75V18H113V16.75H114.25V13H111.75V15.5H109.25V13H110.5V11.75H115.5V13H116.75V16.75H115.5V18H114.25V19.25H113V20.5H111.75V21.75H116.75V23Z" fill="black"/>
<rect x="10.8181" y="10.8181" width="2.67273" height="2.67273" fill="black"/>
<rect x="13.491" y="13.491" width="2.67273" height="2.67273" fill="black"/>
<rect x="16.1636" y="16.1636" width="2.67273" height="2.67273" fill="black"/>
<rect x="18.8364" y="13.491" width="2.67273" height="2.67273" fill="black"/>
<rect x="21.509" y="10.8181" width="2.67273" height="2.67273" fill="black"/>
<rect x="13.491" y="18.8364" width="2.67273" height="2.67273" fill="black"/>
<rect x="10.8181" y="21.509" width="2.67273" height="2.67273" fill="black"/>
<rect x="21.509" y="21.509" width="2.67273" height="2.67273" fill="black"/>
<rect x="18.8364" y="18.8364" width="2.67273" height="2.67273" fill="black"/>
<rect x="125" y="8" width="21" height="1" fill="black"/>
<rect x="125" y="11" width="21" height="1" fill="black"/>
<rect x="125" y="14" width="21" height="1" fill="black"/>
<rect x="125" y="17" width="21" height="1" fill="black"/>
<rect x="125" y="20" width="21" height="1" fill="black"/>
<rect x="125" y="23" width="21" height="1" fill="black"/>
<rect x="125" y="26" width="21" height="1" fill="black"/>
</svg>
