<svg width="555" height="191" viewBox="0 0 555 191" fill="none" xmlns="http://www.w3.org/2000/svg">
<rect x="7" y="15" width="493" height="4" fill="white"/>
<rect x="7" y="161" width="496" height="15" fill="white"/>
<rect y="21" width="13" height="140" fill="white"/>
<rect x="500" y="19" width="11" height="142" fill="white"/>
<rect x="13.75" y="55.75" width="485.5" height="104.5" fill="white" stroke="#FF4A8C" stroke-width="1.5"/>
<rect x="7" y="19" width="493" height="36" fill="white"/>
<rect x="13.75" y="26.75" width="21.5" height="19.5" fill="white" stroke="#FF4A8C" stroke-width="1.5"/>
<rect x="33.75" y="26.75" width="95.5" height="19.5" fill="white" stroke="#FF4A8C" stroke-width="1.5"/>
<path d="M47.75 40.75H46.5V42H41.5V40.75H40.25V38.25H42.75V40.75H45.25V37H42.75V35.75H45.25V32H42.75V34.5H40.25V32H41.5V30.75H46.5V32H47.75V35.75H46.5V37H47.75V40.75ZM57.75 42H51.5V40.75H50.25V38.25H51.5V37H55.25V34.5H51.5V33.25H56.5V34.5H57.75V42ZM55.25 40.75V38.25H52.75V40.75H55.25ZM66.5 42H61.5V43.25H59V40.75H60.25V34.5H61.5V33.25H67.75V40.75H69V43.25H66.5V42ZM62.75 40.75H65.25V34.5H62.75V40.75ZM77.75 42H71.5V40.75H70.25V38.25H71.5V37H75.25V34.5H71.5V33.25H76.5V34.5H77.75V42ZM75.25 40.75V38.25H72.75V40.75H75.25ZM87.75 42H85.25V38.25H82.75V42H80.25V33.25H82.75V37H85.25V33.25H87.75V42ZM99 42H96.5V37H95.25V38.25H94V39.5H92.75V42H90.25V33.25H92.75V37H94V35.75H95.25V34.5H96.5V33.25H99V42ZM107.75 38.25H102.75V40.75H106.5V42H101.5V40.75H100.25V34.5H101.5V33.25H106.5V34.5H107.75V38.25ZM105.25 37V34.5H102.75V37H105.25Z" fill="#FF4A8C"/>
<path d="M122.75 40.75H121.5V42H116.5V40.75H115.25V38.25H117.75V40.75H120.25V37H117.75V35.75H120.25V32H117.75V34.5H115.25V32H116.5V30.75H121.5V32H122.75V35.75H121.5V37H122.75V40.75Z" fill="#FF4A8C"/>
<rect x="16.8182" y="29.8181" width="2.67273" height="2.67273" fill="#FF4A8C"/>
<rect x="19.491" y="32.491" width="2.67273" height="2.67273" fill="#FF4A8C"/>
<rect x="22.1635" y="35.1636" width="2.67273" height="2.67273" fill="#FF4A8C"/>
<rect x="24.8365" y="32.491" width="2.67273" height="2.67273" fill="#FF4A8C"/>
<rect x="27.509" y="29.8181" width="2.67273" height="2.67273" fill="#FF4A8C"/>
<rect x="19.491" y="37.8364" width="2.67273" height="2.67273" fill="#FF4A8C"/>
<rect x="16.8182" y="40.509" width="2.67273" height="2.67273" fill="#FF4A8C"/>
<rect x="27.509" y="40.509" width="2.67273" height="2.67273" fill="#FF4A8C"/>
<rect x="24.8365" y="37.8364" width="2.67273" height="2.67273" fill="#FF4A8C"/>
<rect x="131" y="27" width="21" height="1" fill="#FF4A8C"/>
<rect x="131" y="30" width="21" height="1" fill="#FF4A8C"/>
<rect x="131" y="33" width="21" height="1" fill="#FF4A8C"/>
<rect x="131" y="36" width="21" height="1" fill="#FF4A8C"/>
<rect x="131" y="39" width="21" height="1" fill="#FF4A8C"/>
<rect x="131" y="42" width="21" height="1" fill="#FF4A8C"/>
<rect x="131" y="45" width="21" height="1" fill="#FF4A8C"/>
<rect x="525" y="116" width="15" height="15" fill="#84CC77"/>
<rect x="291" y="176" width="15" height="15" fill="#84CC77"/>
<rect x="540" y="131" width="13" height="14" fill="#84CC77"/>
<rect x="525" y="76" width="15" height="15" fill="#84CC77"/>
<rect x="511" y="19" width="15" height="142" fill="#84CC77"/>
<rect x="306" y="176" width="143" height="15" fill="#BFF2B6"/>
<rect x="525" y="19" width="15" height="57" fill="#BFF2B6"/>
<rect x="525" y="91" width="15" height="25" fill="#BFF2B6"/>
<rect x="488" y="176" width="15" height="15" fill="#BFF2B6"/>
<rect x="526" y="131" width="14" height="14" fill="#BFF2B6"/>
<rect x="540" y="91" width="15" height="15" fill="#BFF2B6"/>
<rect y="175" width="200" height="15" fill="#84CC77"/>
<rect x="235" y="176" width="15" height="15" fill="#7ACA6C"/>
<rect x="63" width="15" height="15" fill="#84CC77"/>
<rect x="78" width="143" height="15" fill="#BFF2B6"/>
<rect x="7" width="15" height="15" fill="#7ACA6C"/>
</svg>
