<svg width="549" height="198" viewBox="0 0 549 198" fill="none" xmlns="http://www.w3.org/2000/svg">
<rect x="7" y="22" width="520" height="4" fill="#9CE58F"/>
<rect x="7" y="172" width="520" height="15" fill="#9CE58F"/>
<rect y="28" width="13" height="151" fill="#9CE58F"/>
<rect x="527" y="26" width="11" height="153" fill="#9CE58F"/>
<rect x="13.75" y="62.75" width="512.5" height="108.5" fill="white" stroke="#45893A" stroke-width="1.5"/>
<rect x="7" y="26" width="520" height="36" fill="#9CE58F"/>
<rect x="13.75" y="33.75" width="21.5" height="19.5" fill="white" stroke="#45893A" stroke-width="1.5"/>
<rect x="33.75" y="33.75" width="95.5" height="19.5" fill="white" stroke="#45893A" stroke-width="1.5"/>
<path d="M47.75 47.75H46.5V49H41.5V47.75H40.25V45.25H42.75V47.75H45.25V44H42.75V42.75H45.25V39H42.75V41.5H40.25V39H41.5V37.75H46.5V39H47.75V42.75H46.5V44H47.75V47.75ZM57.75 49H51.5V47.75H50.25V45.25H51.5V44H55.25V41.5H51.5V40.25H56.5V41.5H57.75V49ZM55.25 47.75V45.25H52.75V47.75H55.25ZM66.5 49H61.5V50.25H59V47.75H60.25V41.5H61.5V40.25H67.75V47.75H69V50.25H66.5V49ZM62.75 47.75H65.25V41.5H62.75V47.75ZM77.75 49H71.5V47.75H70.25V45.25H71.5V44H75.25V41.5H71.5V40.25H76.5V41.5H77.75V49ZM75.25 47.75V45.25H72.75V47.75H75.25ZM87.75 49H85.25V45.25H82.75V49H80.25V40.25H82.75V44H85.25V40.25H87.75V49ZM99 49H96.5V44H95.25V45.25H94V46.5H92.75V49H90.25V40.25H92.75V44H94V42.75H95.25V41.5H96.5V40.25H99V49ZM107.75 45.25H102.75V47.75H106.5V49H101.5V47.75H100.25V41.5H101.5V40.25H106.5V41.5H107.75V45.25ZM105.25 44V41.5H102.75V44H105.25Z" fill="#45893A"/>
<path d="M124 46.5H122.75V49H120.25V46.5H115.25V44H116.5V37.75H119V44H117.75V45.25H120.25V40.25H122.75V45.25H124V46.5Z" fill="#45893A"/>
<rect x="17.3182" y="37.3184" width="1.67273" height="1.67273" fill="#45893A" stroke="#45893A"/>
<rect x="19.991" y="39.9912" width="1.67273" height="1.67273" fill="#45893A" stroke="#45893A"/>
<rect x="22.6635" y="42.6636" width="1.67273" height="1.67273" fill="#45893A" stroke="#45893A"/>
<rect x="25.3365" y="39.9912" width="1.67273" height="1.67273" fill="#45893A" stroke="#45893A"/>
<rect x="28.009" y="37.3184" width="1.67273" height="1.67273" fill="#45893A" stroke="#45893A"/>
<rect x="19.991" y="45.3369" width="1.67273" height="1.67273" fill="#45893A" stroke="#45893A"/>
<rect x="17.3182" y="48.0093" width="1.67273" height="1.67273" fill="#45893A" stroke="#45893A"/>
<rect x="28.009" y="48.0093" width="1.67273" height="1.67273" fill="#45893A" stroke="#45893A"/>
<rect x="25.3365" y="45.3369" width="1.67273" height="1.67273" fill="#45893A" stroke="#45893A"/>
<rect x="131.25" y="34.25" width="20.5" height="0.5" fill="#FF4A8C" stroke="#45893A" stroke-width="0.5"/>
<rect x="131.25" y="37.25" width="20.5" height="0.5" fill="#FF4A8C" stroke="#45893A" stroke-width="0.5"/>
<rect x="131.25" y="40.25" width="20.5" height="0.5" fill="#FF4A8C" stroke="#45893A" stroke-width="0.5"/>
<rect x="131.25" y="43.25" width="20.5" height="0.5" fill="#FF4A8C" stroke="#45893A" stroke-width="0.5"/>
<rect x="131.25" y="46.25" width="20.5" height="0.5" fill="#FF4A8C" stroke="#45893A" stroke-width="0.5"/>
<rect x="131.25" y="49.25" width="20.5" height="0.5" fill="#FF4A8C" stroke="#45893A" stroke-width="0.5"/>
<rect x="131.25" y="52.25" width="20.5" height="0.5" fill="#FF4A8C" stroke="#45893A" stroke-width="0.5"/>
<rect x="196" y="187" width="11" height="11" fill="#E9E9E9"/>
<rect x="538" y="94" width="23" height="11" transform="rotate(-90 538 94)" fill="#E4E4E4"/>
<rect x="538" y="49" width="23" height="11" transform="rotate(-90 538 49)" fill="#F5F5F5"/>
<rect x="538" y="178" width="84" height="11" transform="rotate(-90 538 178)" fill="#F5F5F5"/>
<rect width="67" height="11" transform="matrix(1 0 0 -1 105 198)" fill="#E4E4E4"/>
<rect width="84" height="11" transform="matrix(1 0 0 -1 7 198)" fill="#F5F5F5"/>
<rect x="22" y="11" width="84" height="11" fill="#F5F5F5"/>
<rect x="179" y="11" width="84" height="11" fill="#F5F5F5"/>
<rect x="22" y="1" width="22" height="11" fill="#F5F5F5"/>
<rect x="276" y="11" width="251" height="11" fill="#F5F5F5"/>
<rect x="257" width="23" height="11" fill="#E4E4E4"/>
<rect x="156" y="11" width="23" height="11" fill="#E4E4E4"/>
<rect x="22" y="11" width="11" height="11" transform="rotate(90 22 11)" fill="#E4E4E4"/>
</svg>
