<svg width="687" height="329" viewBox="0 0 687 329" fill="none" xmlns="http://www.w3.org/2000/svg">
<rect x="10" y="318" width="307" height="666" transform="rotate(-90 10 318)" fill="#D9D9D9"/>
<rect x="26" y="302" width="276" height="636" transform="rotate(-90 26 302)" fill="white"/>
<rect x="78" y="329" width="11" height="11" transform="rotate(-90 78 329)" fill="#E4E4E4"/>
<rect x="148" y="329" width="11" height="11" transform="rotate(-90 148 329)" fill="#E4E4E4"/>
<rect x="676" y="167" width="11" height="11" transform="rotate(-90 676 167)" fill="#E4E4E4"/>
<rect x="676" y="22" width="11" height="11" transform="rotate(-90 676 22)" fill="#E4E4E4"/>
<rect x="687" y="167" width="151" height="11" transform="rotate(90 687 167)" fill="#F5F5F5"/>
<rect x="687" y="51" width="83" height="11" transform="rotate(90 687 51)" fill="#F5F5F5"/>
<rect x="10" y="235" width="83" height="10" transform="rotate(90 10 235)" fill="#F5F5F5"/>
<rect x="10" y="75" width="83" height="10" transform="rotate(90 10 75)" fill="#F5F5F5"/>
<rect x="78" y="329" width="78" height="11" transform="rotate(-180 78 329)" fill="#F5F5F5"/>
<rect x="148" y="329" width="11" height="11" transform="rotate(-180 148 329)" fill="#F5F5F5"/>
<rect x="595" y="329" width="11" height="11" transform="rotate(-90 595 329)" fill="#E4E4E4"/>
<rect x="665" y="329" width="11" height="11" transform="rotate(-90 665 329)" fill="#E4E4E4"/>
<rect x="522" y="329" width="83" height="11" transform="rotate(-180 522 329)" fill="#F5F5F5"/>
<rect x="665" y="329" width="11" height="11" transform="rotate(-180 665 329)" fill="#F5F5F5"/>
<rect x="146" y="11" width="11" height="11" transform="rotate(-90 146 11)" fill="#E4E4E4"/>
<rect x="52" y="11" width="11" height="11" transform="rotate(-90 52 11)" fill="#E4E4E4"/>
<rect x="146" y="11" width="83" height="11" transform="rotate(-180 146 11)" fill="#F5F5F5"/>
<rect x="315" y="11" width="11" height="11" transform="rotate(-180 315 11)" fill="#F5F5F5"/>
<rect x="590" y="11" width="11" height="11" transform="rotate(-90 590 11)" fill="#E4E4E4"/>
<rect x="660" y="11" width="11" height="11" transform="rotate(-90 660 11)" fill="#E4E4E4"/>
<rect x="590" y="11" width="83" height="11" transform="rotate(-180 590 11)" fill="#F5F5F5"/>
<rect x="660" y="11" width="11" height="11" transform="rotate(-180 660 11)" fill="#F5F5F5"/>
</svg>
