<svg width="50" height="50" viewBox="0 0 50 50" fill="none" xmlns="http://www.w3.org/2000/svg">
<rect width="41.5985" height="4.07828" transform="matrix(0 1 1 0 0 4.07812)" fill="#D9D9D9"/>
<rect width="41.5985" height="4.07828" transform="matrix(0 1 1 0 45.6768 4.07812)" fill="#D9D9D9"/>
<rect width="41.5985" height="4.07828" transform="matrix(1 0 0 -1 4.07828 4.07812)" fill="#D9D9D9"/>
<rect width="41.5985" height="4.07828" transform="matrix(1 0 0 -1 4.07828 49.7549)" fill="#D9D9D9"/>
<rect width="41.5985" height="4.07828" transform="matrix(0 1 1 0 0 4.07812)" fill="#5C9153"/>
<rect width="41.5985" height="4.07828" transform="matrix(0 1 1 0 45.6768 4.07812)" fill="#62A756"/>
<rect width="41.5985" height="4.07828" transform="matrix(1 0 0 -1 4.07828 4.07812)" fill="#5C9153"/>
<rect width="41.5985" height="4.07828" transform="matrix(1 0 0 -1 4.07828 49.7549)" fill="#62A756"/>
<rect width="41.5985" height="41.5985" transform="matrix(1 0 0 -1 4.07828 45.6768)" fill="#9CE58F"/>
<rect width="3.26263" height="13.8662" transform="matrix(1 0 0 -1 4.07828 45.6768)" fill="#BCF9B1"/>
<rect width="3.26263" height="3.26263" transform="matrix(1 0 0 -1 4.07828 27.7324)" fill="#7BC96E"/>
<rect width="9.78788" height="3.26263" transform="matrix(1 0 0 -1 28.548 7.34082)" fill="#7BC96E"/>
<rect width="3.26263" height="3.26263" transform="matrix(1 0 0 -1 42.4142 35.0732)" fill="#BCF9B1"/>
<rect width="4.07828" height="4.07828" transform="matrix(1 0 0 -1 38.3359 42.4141)" fill="#BCF9B1"/>
<rect width="3.26263" height="4.07828" transform="matrix(1 0 0 -1 25.2854 42.4141)" fill="#BCF9B1"/>
<rect width="3.26263" height="3.26263" transform="matrix(1 0 0 -1 42.4142 25.2852)" fill="#BCF9B1"/>
<rect width="4.07828" height="4.07828" transform="matrix(1 0 0 -1 38.3359 12.2349)" fill="#BCF9B1"/>
<rect width="3.26263" height="3.26263" transform="matrix(1 0 0 -1 4.07828 7.34082)" fill="#BCF9B1"/>
<rect width="3.26263" height="9.78788" transform="matrix(1 0 0 -1 4.07828 21.207)" fill="#BCF9B1"/>
<rect width="3.26263" height="4.07828" transform="matrix(1 0 0 -1 4.07828 11.4189)" fill="#7BC96E"/>
<rect width="4.07828" height="4.07828" transform="matrix(1 0 0 -1 7.34091 42.4141)" fill="#7BC96E"/>
<rect width="3.26263" height="13.8662" transform="matrix(1 0 0 -1 42.4142 17.9443)" fill="#BCF9B1"/>
<rect width="3.26263" height="10.6035" transform="matrix(0 1 1 0 11.4192 4.07812)" fill="#BCF9B1"/>
<rect width="17.1288" height="3.26263" transform="matrix(1 0 0 -1 28.548 45.6768)" fill="#7BC96E"/>
<rect width="3.26263" height="10.6035" transform="matrix(0 1 1 0 7.34091 42.4141)" fill="#BCF9B1"/>
<path d="M32.202 33.3687H29.702V35.8687H19.702V33.3687H17.202V25.8687H19.702V23.3687H17.202V15.8687H19.702V13.3687H29.702V15.8687H32.202V23.3687H29.702V25.8687H32.202V33.3687ZM27.202 23.3687V15.8687H22.202V20.8687H24.702V23.3687H27.202ZM27.202 33.3687V28.3687H24.702V25.8687H22.202V33.3687H27.202Z" fill="white"/>
</svg>
