<svg width="783" height="50" viewBox="0 0 783 50" fill="none" xmlns="http://www.w3.org/2000/svg">
<rect width="42" height="4" transform="matrix(0 1 1 0 0 4)" fill="#D9D9D9"/>
<rect width="41.5985" height="5.44625" transform="matrix(0 1 1 0 59.998 4.07861)" fill="#D9D9D9"/>
<rect width="55.5517" height="4.07828" transform="matrix(1 0 0 -1 4.44626 4.07861)" fill="#D9D9D9"/>
<rect width="55.5517" height="4.07828" transform="matrix(1 0 0 -1 4.44626 49.7554)" fill="#D9D9D9"/>
<rect width="42" height="4" transform="matrix(0 1 1 0 0 4)" fill="#5C9153"/>
<rect width="42" height="4" transform="matrix(0 1 1 0 779 4)" fill="#62A756"/>
<rect width="775" height="4" transform="matrix(1 0 0 -1 4 4)" fill="#5C9153"/>
<rect width="775" height="4" transform="matrix(1 0 0 -1 4 50)" fill="#62A756"/>
<rect width="775" height="42" transform="matrix(1 0 0 -1 4 46)" fill="#9CE58F"/>
<rect width="4.357" height="13.8662" transform="matrix(1 0 0 -1 4.44626 45.6768)" fill="#BCF9B1"/>
<rect width="4" height="4" transform="matrix(1 0 0 -1 4 28)" fill="#7BC96E"/>
<rect width="13.071" height="3.26263" transform="matrix(1 0 0 -1 37.1237 7.34131)" fill="#7BC96E"/>
<path d="M51.0816 46H64.1526V42.7374H51.0816V46Z" fill="#7BC96E"/>
<path d="M775 36H779V32H775V36Z" fill="#BCF9B1"/>
<path d="M80 8H84V4H80V8Z" fill="#7BC96E"/>
<path d="M768.317 42.913H772.317V38.913H768.317V42.913Z" fill="#BCF9B1"/>
<rect width="4" height="4" transform="matrix(1 0 0 -1 32 42)" fill="#BCF9B1"/>
<rect width="4" height="4" transform="matrix(1 0 0 -1 18 34)" fill="#BCF9B1"/>
<rect width="4" height="4" transform="matrix(1 0 0 -1 35 16)" fill="#7BC96E"/>
<rect width="4" height="4" transform="matrix(1 0 0 -1 95 12)" fill="#7BC96E"/>
<rect width="4" height="4" transform="matrix(1 0 0 -1 162 11)" fill="#7BC96E"/>
<rect width="4" height="4" transform="matrix(1 0 0 -1 221 19)" fill="#7BC96E"/>
<rect width="4" height="4" transform="matrix(1 0 0 -1 294 41)" fill="#7BC96E"/>
<rect width="4" height="4" transform="matrix(1 0 0 -1 386 10)" fill="#7BC96E"/>
<rect width="4" height="4" transform="matrix(1 0 0 -1 497.114 42)" fill="#7BC96E"/>
<rect width="4" height="4" transform="matrix(1 0 0 -1 608 35)" fill="#7BC96E"/>
<rect width="4" height="4" transform="matrix(1 0 0 -1 758.317 32.9131)" fill="#7BC96E"/>
<rect width="4" height="4" transform="matrix(1 0 0 -1 752.317 13.9131)" fill="#7BC96E"/>
<rect width="4" height="4" transform="matrix(1 0 0 -1 476 14)" fill="#7BC96E"/>
<rect width="4" height="4" transform="matrix(1 0 0 -1 236.45 12)" fill="#7BC96E"/>
<rect width="17.3605" height="4" transform="matrix(1 0 0 -1 61.765 8)" fill="#BCF9B1"/>
<path d="M776 25H779V22H776V25Z" fill="#BCF9B1"/>
<path d="M771 12.0781H776.446V7.99984H771V12.0781Z" fill="#BCF9B1"/>
<rect width="4.357" height="3.26263" transform="matrix(1 0 0 -1 4.44626 7.34131)" fill="#BCF9B1"/>
<rect width="4.357" height="9.78788" transform="matrix(1 0 0 -1 4.44626 21.207)" fill="#BCF9B1"/>
<rect width="4.357" height="4.07828" transform="matrix(1 0 0 -1 4.44626 11.4194)" fill="#7BC96E"/>
<rect width="4" height="4" transform="matrix(1 0 0 -1 9 42)" fill="#7BC96E"/>
<path d="M775 32H779V28H775V32Z" fill="#7BC96E"/>
<path d="M775 18.0001H779V4.00013H775V18.0001Z" fill="#BCF9B1"/>
<rect width="3.26263" height="14.1602" transform="matrix(0 1 1 0 14.2495 4.07861)" fill="#BCF9B1"/>
<path d="M74.9473 46.0005H97.8216V42.7379H74.9473V46.0005Z" fill="#7BC96E"/>
<rect width="3.26263" height="14.1602" transform="matrix(0 1 1 0 8.80325 42.4146)" fill="#BCF9B1"/>
<path d="M142.771 4.00049H155.842V7.26311H142.771V4.00049Z" fill="#7BC96E"/>
<rect x="124" y="8" width="4" height="4" fill="#BCF9B1"/>
<path d="M166.636 4H189.511V7.26263H166.636V4Z" fill="#7BC96E"/>
<rect x="100.492" y="7.58594" width="3.26263" height="14.1602" transform="rotate(-90 100.492 7.58594)" fill="#BCF9B1"/>
<rect width="13.071" height="3.26263" transform="matrix(1 0 0 -1 221.308 7.34131)" fill="#7BC96E"/>
<path d="M248.45 8H251.45V4H248.45V8Z" fill="#7BC96E"/>
<rect width="17.3605" height="4" transform="matrix(1 0 0 -1 245.949 8)" fill="#BCF9B1"/>
<rect width="4.357" height="3.26263" transform="matrix(1 0 0 -1 188.631 7.34131)" fill="#BCF9B1"/>
<rect width="3.26263" height="14.1602" transform="matrix(0 1 1 0 198.434 4.07861)" fill="#BCF9B1"/>
<path d="M326.955 4.00049H340.026V7.26311H326.955V4.00049Z" fill="#7BC96E"/>
<rect x="284.781" y="7" width="5.34171" height="4" fill="#BCF9B1"/>
<path d="M350.821 4H373.695V7.26263H350.821V4Z" fill="#7BC96E"/>
<rect x="284.677" y="7.58594" width="3.26263" height="14.1602" transform="rotate(-90 284.677 7.58594)" fill="#BCF9B1"/>
<rect width="13.071" height="3.26263" transform="matrix(1 0 0 -1 425.628 7.34131)" fill="#7BC96E"/>
<path d="M469 8H473V4H469V8Z" fill="#7BC96E"/>
<rect width="17.3605" height="4" transform="matrix(1 0 0 -1 450.27 8)" fill="#BCF9B1"/>
<rect width="3" height="3" transform="matrix(1 0 0 -1 393 7)" fill="#BCF9B1"/>
<rect width="3.26263" height="14.1602" transform="matrix(0 1 1 0 402.754 4.07861)" fill="#BCF9B1"/>
<path d="M531.275 4.00049H544.346V7.26311H531.275V4.00049Z" fill="#7BC96E"/>
<path d="M555.141 4H578.015V7.26263H555.141V4Z" fill="#7BC96E"/>
<rect x="488.997" y="7.58594" width="3.26263" height="14.1602" transform="rotate(-90 488.997 7.58594)" fill="#BCF9B1"/>
<rect width="13.071" height="3.26263" transform="matrix(1 0 0 -1 609.917 7.34131)" fill="#7BC96E"/>
<path d="M653 8H657V4H653V8Z" fill="#7BC96E"/>
<rect width="17.3605" height="4" transform="matrix(1 0 0 -1 634.558 8)" fill="#BCF9B1"/>
<rect width="4" height="3" transform="matrix(1 0 0 -1 577 7)" fill="#BCF9B1"/>
<rect width="3.26263" height="14.1602" transform="matrix(0 1 1 0 587.043 4.07861)" fill="#BCF9B1"/>
<rect x="549.823" y="42.6587" width="13.071" height="3.26263" fill="#7BC96E"/>
<path d="M593.265 42H626.651V46H593.265V42Z" fill="#7BC96E"/>
<rect x="574.464" y="42" width="17.3605" height="4" fill="#BCF9B1"/>
<rect x="515.114" y="43" width="4" height="3" fill="#BCF9B1"/>
<rect x="526.949" y="45.9214" width="3.26263" height="14.1602" transform="rotate(-90 526.949 45.9214)" fill="#BCF9B1"/>
<rect x="703.397" y="42.6587" width="13.071" height="3.26263" fill="#7BC96E"/>
<path d="M644.07 42.7373H657.141V45.9999H644.07V42.7373Z" fill="#7BC96E"/>
<path d="M748 42H752V46H748V42Z" fill="#7BC96E"/>
<rect x="728.038" y="42" width="17.3605" height="4" fill="#BCF9B1"/>
<rect x="671" y="43" width="3" height="3" fill="#BCF9B1"/>
<rect x="680.523" y="45.9214" width="3.26263" height="14.1602" transform="rotate(-90 680.523 45.9214)" fill="#BCF9B1"/>
<path d="M715.564 4.00049H728.635V7.26311H715.564V4.00049Z" fill="#7BC96E"/>
<rect x="698" y="8" width="4" height="4" fill="#BCF9B1"/>
<path d="M739.43 4H762.304V7.26263H739.43V4Z" fill="#7BC96E"/>
<rect x="673.286" y="7.58594" width="3.26263" height="14.1602" transform="rotate(-90 673.286 7.58594)" fill="#BCF9B1"/>
<rect x="130.499" y="42.6592" width="13.071" height="3.26263" fill="#7BC96E"/>
<path d="M174 42H178V46H174V42Z" fill="#7BC96E"/>
<rect x="155.14" y="42.0005" width="17.3605" height="4" fill="#BCF9B1"/>
<rect x="97.8216" y="42.6592" width="4.357" height="3.26263" fill="#BCF9B1"/>
<rect x="107.625" y="45.9219" width="3.26263" height="14.1602" transform="rotate(-90 107.625 45.9219)" fill="#BCF9B1"/>
<path d="M236.146 46H249.217V42.7374H236.146V46Z" fill="#7BC96E"/>
<rect width="5" height="4" transform="matrix(1 0 0 -1 217.45 42)" fill="#BCF9B1"/>
<rect width="4" height="4" transform="matrix(1 0 0 -1 138 38)" fill="#BCF9B1"/>
<rect width="4" height="4" transform="matrix(1 0 0 -1 311 11)" fill="#BCF9B1"/>
<rect width="4" height="4" transform="matrix(1 0 0 -1 428 39)" fill="#BCF9B1"/>
<rect width="4" height="4" transform="matrix(1 0 0 -1 562.202 14)" fill="#BCF9B1"/>
<rect width="4" height="4" transform="matrix(1 0 0 -1 553.202 15)" fill="#BCF9B1"/>
<rect width="4" height="4" transform="matrix(1 0 0 -1 645 41)" fill="#BCF9B1"/>
<rect width="4" height="4" transform="matrix(1 0 0 -1 685 37)" fill="#BCF9B1"/>
<rect width="4" height="4" transform="matrix(1 0 0 -1 516 8)" fill="#BCF9B1"/>
<path d="M260.012 46.0005H282.886V42.7379H260.012V46.0005Z" fill="#7BC96E"/>
<rect width="3.26263" height="14.1602" transform="matrix(0 1 1 0 193.868 42.4146)" fill="#BCF9B1"/>
<rect x="344.167" y="42.6592" width="13.071" height="3.26263" fill="#7BC96E"/>
<path d="M388 42H392V46H388V42Z" fill="#7BC96E"/>
<rect x="368.809" y="42.0005" width="17.3605" height="4" fill="#BCF9B1"/>
<rect x="311.49" y="42.6592" width="4.357" height="3.26263" fill="#BCF9B1"/>
<rect x="321.293" y="45.9219" width="3.26263" height="14.1602" transform="rotate(-90 321.293 45.9219)" fill="#BCF9B1"/>
<path d="M449.814 46H462.885V42.7374H449.814V46Z" fill="#7BC96E"/>
<rect width="4" height="4" transform="matrix(1 0 0 -1 432 46)" fill="#BCF9B1"/>
<rect width="4" height="4" transform="matrix(1 0 0 -1 504.114 46)" fill="#BCF9B1"/>
<path d="M473.68 46.0005H496.554V42.7379H473.68V46.0005Z" fill="#7BC96E"/>
<rect width="3.26263" height="14.1602" transform="matrix(0 1 1 0 407.536 42.4146)" fill="#BCF9B1"/>
</svg>
