<svg width="588" height="50" viewBox="0 0 588 50" fill="none" xmlns="http://www.w3.org/2000/svg">
<rect width="41.5985" height="4.07828" transform="matrix(0 1 1 0 7.62939e-06 4.07861)" fill="#D9D9D9"/>
<rect width="41.5985" height="4.07828" transform="matrix(0 1 1 0 45.6768 4.07861)" fill="#D9D9D9"/>
<rect width="41.5985" height="4.07828" transform="matrix(1 0 0 -1 4.07829 4.07861)" fill="#D9D9D9"/>
<rect width="41.5985" height="4.07828" transform="matrix(1 0 0 -1 4.07829 49.7554)" fill="#D9D9D9"/>
<rect width="41.5985" height="4.07828" transform="matrix(0 1 1 0 7.62939e-06 4.07861)" fill="#5C9153"/>
<rect width="41.5985" height="4.07828" transform="matrix(0 1 1 0 583 4)" fill="#62A756"/>
<rect width="579" height="4" transform="matrix(1 0 0 -1 4 4)" fill="#5C9153"/>
<rect width="579" height="4" transform="matrix(1 0 0 -1 4 50)" fill="#62A756"/>
<rect width="579" height="42" transform="matrix(1 0 0 -1 4 46)" fill="#9CE58F"/>
<rect width="3.26263" height="13.8662" transform="matrix(1 0 0 -1 4.07829 45.6768)" fill="#BCF9B1"/>
<rect width="3.26263" height="3.26263" transform="matrix(1 0 0 -1 4.07829 27.7324)" fill="#7BC96E"/>
<rect width="9.78788" height="3.26263" transform="matrix(1 0 0 -1 28.548 7.34131)" fill="#7BC96E"/>
<path d="M39 46H48.7879V42.7374H39V46Z" fill="#7BC96E"/>
<path d="M579 36.1455H583V32.1455H579V36.1455Z" fill="#BCF9B1"/>
<path d="M61 8H65V4H61V8Z" fill="#7BC96E"/>
<path d="M575 42.8266H579.078V38.7483H575V42.8266Z" fill="#BCF9B1"/>
<rect width="4" height="4" transform="matrix(1 0 0 -1 25 42)" fill="#BCF9B1"/>
<rect width="4" height="4" transform="matrix(1 0 0 -1 14 34)" fill="#BCF9B1"/>
<rect width="4" height="4" transform="matrix(1 0 0 -1 27 16)" fill="#7BC96E"/>
<rect width="4" height="4" transform="matrix(1 0 0 -1 72 12)" fill="#7BC96E"/>
<rect width="4" height="4" transform="matrix(1 0 0 -1 122 11)" fill="#7BC96E"/>
<rect width="4" height="4" transform="matrix(1 0 0 -1 165 19)" fill="#7BC96E"/>
<rect width="4" height="4" transform="matrix(1 0 0 -1 221 41)" fill="#7BC96E"/>
<rect width="4" height="4" transform="matrix(1 0 0 -1 290 10)" fill="#7BC96E"/>
<rect width="4" height="4" transform="matrix(1 0 0 -1 373 42)" fill="#7BC96E"/>
<rect width="4" height="4" transform="matrix(1 0 0 -1 456 35)" fill="#7BC96E"/>
<rect width="4" height="4" transform="matrix(1 0 0 -1 566 33)" fill="#7BC96E"/>
<rect width="4" height="4" transform="matrix(1 0 0 -1 561 14)" fill="#7BC96E"/>
<rect width="4" height="4" transform="matrix(1 0 0 -1 357 14)" fill="#7BC96E"/>
<rect width="4" height="4" transform="matrix(1 0 0 -1 185 12)" fill="#7BC96E"/>
<rect width="13" height="4" transform="matrix(1 0 0 -1 47 8)" fill="#BCF9B1"/>
<path d="M579.737 25.3525H583V22.0899H579.737V25.3525Z" fill="#BCF9B1"/>
<path d="M576 12.0781H580.078V7.99984H576V12.0781Z" fill="#BCF9B1"/>
<rect width="3.26263" height="3.26263" transform="matrix(1 0 0 -1 4.07829 7.34131)" fill="#BCF9B1"/>
<rect width="3.26263" height="9.78788" transform="matrix(1 0 0 -1 4.07829 21.207)" fill="#BCF9B1"/>
<rect width="3.26263" height="4.07828" transform="matrix(1 0 0 -1 4.07829 11.4194)" fill="#7BC96E"/>
<rect width="4.07828" height="4.07828" transform="matrix(1 0 0 -1 7.34092 42.4146)" fill="#7BC96E"/>
<path d="M578.922 32.1455H583V28.0672H578.922V32.1455Z" fill="#7BC96E"/>
<path d="M579.737 17.8663H583V4.00017H579.737V17.8663Z" fill="#BCF9B1"/>
<rect width="3.26263" height="10.6035" transform="matrix(0 1 1 0 11.4192 4.07861)" fill="#BCF9B1"/>
<path d="M56.8712 46.0005H74V42.7379H56.8712V46.0005Z" fill="#7BC96E"/>
<rect width="3.26263" height="10.6035" transform="matrix(0 1 1 0 7.34092 42.4146)" fill="#BCF9B1"/>
<path d="M107.659 4.00049H117.447V7.26311H107.659V4.00049Z" fill="#7BC96E"/>
<rect x="93.6591" y="8.00049" width="4" height="4" fill="#BCF9B1"/>
<path d="M125.53 4H142.659V7.26263H125.53V4Z" fill="#7BC96E"/>
<rect x="76" y="7.58594" width="3.26263" height="10.6035" transform="rotate(-90 76 7.58594)" fill="#BCF9B1"/>
<rect width="9.78788" height="3.26263" transform="matrix(1 0 0 -1 166.47 7.34131)" fill="#7BC96E"/>
<path d="M198.922 8H202.922V4H198.922V8Z" fill="#7BC96E"/>
<rect width="13" height="4" transform="matrix(1 0 0 -1 184.922 8)" fill="#BCF9B1"/>
<rect width="3.26263" height="3.26263" transform="matrix(1 0 0 -1 142 7.34131)" fill="#BCF9B1"/>
<rect width="3.26263" height="10.6035" transform="matrix(0 1 1 0 149.341 4.07861)" fill="#BCF9B1"/>
<path d="M245.581 4.00049H255.369V7.26311H245.581V4.00049Z" fill="#7BC96E"/>
<rect x="214" y="7" width="4" height="4" fill="#BCF9B1"/>
<path d="M263.452 4H280.581V7.26263H263.452V4Z" fill="#7BC96E"/>
<rect x="213.922" y="7.58594" width="3.26263" height="10.6035" transform="rotate(-90 213.922 7.58594)" fill="#BCF9B1"/>
<rect width="9.78788" height="3.26263" transform="matrix(1 0 0 -1 319.47 7.34131)" fill="#7BC96E"/>
<path d="M351.922 8H355.922V4H351.922V8Z" fill="#7BC96E"/>
<rect width="13" height="4" transform="matrix(1 0 0 -1 337.922 8)" fill="#BCF9B1"/>
<rect width="3.26263" height="3.26263" transform="matrix(1 0 0 -1 295 7.34131)" fill="#BCF9B1"/>
<rect width="3.26263" height="10.6035" transform="matrix(0 1 1 0 302.341 4.07861)" fill="#BCF9B1"/>
<path d="M398.581 4.00049H408.369V7.26311H398.581V4.00049Z" fill="#7BC96E"/>
<path d="M416.452 4H433.581V7.26263H416.452V4Z" fill="#7BC96E"/>
<rect x="366.922" y="7.58594" width="3.26263" height="10.6035" transform="rotate(-90 366.922 7.58594)" fill="#BCF9B1"/>
<rect width="9.78788" height="3.26263" transform="matrix(1 0 0 -1 457.47 7.34131)" fill="#7BC96E"/>
<path d="M489.922 8H493.922V4H489.922V8Z" fill="#7BC96E"/>
<rect width="13" height="4" transform="matrix(1 0 0 -1 475.922 8)" fill="#BCF9B1"/>
<rect width="3.26263" height="3.26263" transform="matrix(1 0 0 -1 433 7.34131)" fill="#BCF9B1"/>
<rect width="3.26263" height="10.6035" transform="matrix(0 1 1 0 440.341 4.07861)" fill="#BCF9B1"/>
<rect x="412.47" y="42.6587" width="9.78788" height="3.26263" fill="#7BC96E"/>
<path d="M445 42H470V46H445V42Z" fill="#7BC96E"/>
<rect x="430.922" y="42" width="13" height="4" fill="#BCF9B1"/>
<rect x="388" y="42.6587" width="3.26263" height="3.26263" fill="#BCF9B1"/>
<rect x="395.341" y="45.9214" width="3.26263" height="10.6035" transform="rotate(-90 395.341 45.9214)" fill="#BCF9B1"/>
<rect x="527.47" y="42.6587" width="9.78788" height="3.26263" fill="#7BC96E"/>
<rect x="483" y="43" width="9.78788" height="3.26263" fill="#7BC96E"/>
<path d="M559.922 42H563.922V46H559.922V42Z" fill="#7BC96E"/>
<rect x="545.922" y="42" width="13" height="4" fill="#BCF9B1"/>
<rect x="503" y="42.6587" width="3.26263" height="3.26263" fill="#BCF9B1"/>
<rect x="510.341" y="45.9214" width="3.26263" height="10.6035" transform="rotate(-90 510.341 45.9214)" fill="#BCF9B1"/>
<path d="M536.581 4.00049H546.369V7.26311H536.581V4.00049Z" fill="#7BC96E"/>
<rect x="522.581" y="8.00049" width="4" height="4" fill="#BCF9B1"/>
<path d="M554.452 4H571.581V7.26263H554.452V4Z" fill="#7BC96E"/>
<rect x="504.922" y="7.58594" width="3.26263" height="10.6035" transform="rotate(-90 504.922 7.58594)" fill="#BCF9B1"/>
<rect x="98.4697" y="42.6592" width="9.78788" height="3.26263" fill="#7BC96E"/>
<path d="M130.922 42.0005H134.922V46.0005H130.922V42.0005Z" fill="#7BC96E"/>
<rect x="116.922" y="42.0005" width="13" height="4" fill="#BCF9B1"/>
<rect x="74" y="42.6592" width="3.26263" height="3.26263" fill="#BCF9B1"/>
<rect x="81.3408" y="45.9219" width="3.26263" height="10.6035" transform="rotate(-90 81.3408 45.9219)" fill="#BCF9B1"/>
<path d="M177.581 46H187.369V42.7374H177.581V46Z" fill="#7BC96E"/>
<rect width="4" height="4" transform="matrix(1 0 0 -1 163.581 42)" fill="#BCF9B1"/>
<rect width="4" height="4" transform="matrix(1 0 0 -1 104 38)" fill="#BCF9B1"/>
<rect width="4" height="4" transform="matrix(1 0 0 -1 234 11)" fill="#BCF9B1"/>
<rect width="4" height="4" transform="matrix(1 0 0 -1 321 39)" fill="#BCF9B1"/>
<rect width="4" height="4" transform="matrix(1 0 0 -1 423 11)" fill="#BCF9B1"/>
<rect width="4" height="4" transform="matrix(1 0 0 -1 415 15)" fill="#BCF9B1"/>
<rect width="4" height="4" transform="matrix(1 0 0 -1 484 41)" fill="#BCF9B1"/>
<rect width="4" height="4" transform="matrix(1 0 0 -1 514 37)" fill="#BCF9B1"/>
<rect width="4" height="4" transform="matrix(1 0 0 -1 387 8)" fill="#BCF9B1"/>
<path d="M195.452 46.0005H212.581V42.7379H195.452V46.0005Z" fill="#7BC96E"/>
<rect width="3.26263" height="10.6035" transform="matrix(0 1 1 0 145.922 42.4146)" fill="#BCF9B1"/>
<rect x="258.47" y="42.6592" width="9.78788" height="3.26263" fill="#7BC96E"/>
<path d="M290.922 42.0005H294.922V46.0005H290.922V42.0005Z" fill="#7BC96E"/>
<rect x="276.922" y="42.0005" width="13" height="4" fill="#BCF9B1"/>
<rect x="234" y="42.6592" width="3.26263" height="3.26263" fill="#BCF9B1"/>
<rect x="241.341" y="45.9219" width="3.26263" height="10.6035" transform="rotate(-90 241.341 45.9219)" fill="#BCF9B1"/>
<path d="M337.581 46H347.369V42.7374H337.581V46Z" fill="#7BC96E"/>
<rect width="4" height="4" transform="matrix(1 0 0 -1 324 46)" fill="#BCF9B1"/>
<rect width="4" height="4" transform="matrix(1 0 0 -1 378 46)" fill="#BCF9B1"/>
<path d="M355.452 46.0005H372.581V42.7379H355.452V46.0005Z" fill="#7BC96E"/>
<rect width="3.26263" height="10.6035" transform="matrix(0 1 1 0 305.922 42.4146)" fill="#BCF9B1"/>
</svg>
