<svg width="150" height="435" viewBox="0 0 150 435" fill="none" xmlns="http://www.w3.org/2000/svg">
<rect width="105" height="435" fill="white"/>
<path d="M98 427H8V398H98V427Z" fill="#FFC7DC"/>
<rect x="8" y="322" width="90" height="28" fill="#FFC7DC"/>
<rect x="8" y="360" width="90" height="28" fill="#FFC7DC"/>
<rect x="8" y="284" width="90" height="28" fill="#FFC7DC"/>
<rect x="8" y="246" width="90" height="28" fill="#FFC7DC"/>
<rect x="8" y="206" width="90" height="29" fill="#FFC7DC"/>
<rect x="8" y="168" width="90" height="29" fill="#FFC7DC"/>
<rect x="8" y="130" width="90" height="29" fill="#FFC7DC"/>
<rect x="8" y="92" width="90" height="29" fill="#FFC7DC"/>
<rect x="8" y="54" width="90" height="29" fill="#FFC7DC"/>
<rect x="8.75" y="6.75" width="88.5" height="23.5" fill="white" stroke="#FF4A8C" stroke-width="1.5"/>
<path d="M37.5 24H35V16.5H31.25V15.25H33.75V14H35V12.75H37.5V24ZM50 22.75H48.75V24H43.75V22.75H42.5V14H43.75V12.75H48.75V14H50V22.75ZM47.5 22.75V17.75H46.25V15.25H47.5V14H45V19H46.25V21.5H45V22.75H47.5ZM60 22.75H58.75V24H53.75V22.75H52.5V14H53.75V12.75H58.75V14H60V22.75ZM57.5 22.75V17.75H56.25V15.25H57.5V14H55V19H56.25V21.5H55V22.75H57.5Z" fill="#FF4A8C"/>
<path d="M75 24H73.75V25.25H70V24H68.75V21.5H67.5V22.75H66.25V20.25H67.5V19H68.75V17.75H70V16.5H66.25V15.25H65V12.75H66.25V11.5H70V12.75H71.25V15.25H72.5V14H73.75V16.5H72.5V17.75H71.25V19H70V20.25H73.75V21.5H75V24ZM71.25 16.5V15.25H70V16.5H71.25ZM68.75 15.25V12.75H67.5V15.25H68.75ZM72.5 24V21.5H71.25V24H72.5ZM70 21.5V20.25H68.75V21.5H70Z" fill="#FF4A8C"/>
<path d="M32 67H41V59H49V67H59V59H67V67H75V59H83V67H89V75H98V83H8V75H16V67H24V59H32V67Z" fill="#FF7DAF"/>
<path d="M32 105H41V97H49V105H59V97H67V105H75V97H83V105H89V113H98V121H8V113H16V105H24V97H32V105Z" fill="#FF7DAF"/>
<path d="M32 143H41V135H49V143H59V135H67V143H75V135H83V143H89V151H98V159H8V151H16V143H24V135H32V143Z" fill="#FF7DAF"/>
<path d="M32 181H41V173H49V181H59V173H67V181H75V173H83V181H89V189H98V197H8V189H16V181H24V173H32V181Z" fill="#FF7DAF"/>
<path d="M32 219H41V211H49V219H59V211H67V219H75V211H83V219H89V227H98V235H8V227H16V219H24V211H32V219Z" fill="#FF7DAF"/>
<path d="M32 258H41V250H49V258H59V250H67V258H75V250H83V258H89V266H98V274H8V266H16V258H24V250H32V258Z" fill="#FF7DAF"/>
<path d="M32 296H41V288H49V296H59V288H67V296H75V288H83V296H89V304H98V312H8V304H16V296H24V288H32V296Z" fill="#FF7DAF"/>
<path d="M32 334H41V326H49V334H59V326H67V334H75V326H83V334H89V342H98V350H8V342H16V334H24V326H32V334Z" fill="#FF7DAF"/>
<path d="M32 373H41V365H49V373H59V365H67V373H75V365H83V373H89V381H98V389H8V381H16V373H24V365H32V373Z" fill="#FF7DAF"/>
<rect x="8" y="419" width="90" height="8" fill="#FF7DAF"/>
<rect x="16" y="411" width="8" height="8" fill="#FF7DAF"/>
<rect x="24" y="411" width="8" height="8" fill="#FF7DAF"/>
<rect x="24" y="403" width="8" height="8" fill="#FF7DAF"/>
<rect x="41" y="403" width="8" height="8" fill="#FF7DAF"/>
<rect x="59" y="403" width="8" height="8" fill="#FF7DAF"/>
<rect x="75" y="403" width="8" height="8" fill="#FF7DAF"/>
<rect x="32" y="411" width="57" height="8" fill="#FF7DAF"/>
<rect x="105" width="15" height="15" fill="#84CC77"/>
<rect x="120" y="217" width="15" height="15" fill="#84CC77"/>
<rect x="120" y="99" width="15" height="15" fill="#84CC77"/>
<rect x="135" y="202" width="15" height="15" fill="#84CC77"/>
<rect x="120" y="177" width="15" height="15" fill="#84CC77"/>
<rect x="105" y="84" width="15" height="15" fill="#84CC77"/>
<rect x="120" y="357" width="15" height="15" fill="#84CC77"/>
<rect x="120" y="372" width="15" height="15" fill="#BFF2B6"/>
<rect x="120" y="343" width="15" height="15" fill="#BFF2B6"/>
<rect x="120" y="284" width="15" height="60" fill="#BFF2B6"/>
<rect x="135" y="142" width="15" height="60" fill="#BFF2B6"/>
<rect x="120" y="114" width="15" height="64" fill="#BFF2B6"/>
<rect x="120" y="232" width="15" height="52" fill="#BFF2B6"/>
<rect x="105" y="15" width="15" height="52" fill="#BFF2B6"/>
<rect x="105" y="114" width="15" height="321" fill="#84CC77"/>
</svg>
