<svg width="651" height="438" viewBox="0 0 651 438" fill="none" xmlns="http://www.w3.org/2000/svg">
<g clip-path="url(#clip0_502_2)">
<path d="M638.954 0H12.2539V7.00224H638.954V0Z" fill="#9CE58F"/>
<path d="M639.7 424H13V438.004H639.7V424Z" fill="#9CE58F"/>
<path d="M638.954 54.2671H12.2539V61.2693H638.954V54.2671Z" fill="#9CE58F"/>
<path d="M12 11H0V424H12V11Z" fill="#9CE58F"/>
<path d="M651 12H639V424H651V12Z" fill="#9CE58F"/>
<path d="M638.25 54.75H12.75V423.25H638.25V54.75Z" fill="white" stroke="black" stroke-width="1.5"/>
<path d="M638.954 7.00244H12.2539V54.2675H638.954V7.00244Z" fill="#9CE58F"/>
<path d="M51.7668 13.0039H13.0039V48.2656H51.7668V13.0039Z" fill="white" stroke="black" stroke-width="1.5"/>
<path d="M216.319 13.0039H48.0151V48.2656H216.319V13.0039Z" fill="white" stroke="black" stroke-width="1.5"/>
<path d="M23.6165 18.9375H18.9377V23.6163H23.6165V18.9375Z" fill="black"/>
<path d="M28.2955 23.6167H23.6167V28.2955H28.2955V23.6167Z" fill="black"/>
<path d="M32.9742 28.2954H28.2954V32.9742H32.9742V28.2954Z" fill="black"/>
<path d="M37.6529 23.6167H32.9741V28.2955H37.6529V23.6167Z" fill="black"/>
<path d="M42.3316 18.9375H37.6528V23.6163H42.3316V18.9375Z" fill="black"/>
<path d="M28.2955 32.9741H23.6167V37.6529H28.2955V32.9741Z" fill="black"/>
<path d="M23.6165 37.6528H18.9377V42.3316H23.6165V37.6528Z" fill="black"/>
<path d="M42.3316 37.6528H37.6528V42.3316H42.3316V37.6528Z" fill="black"/>
<path d="M37.6529 32.9741H32.9741V37.6529H37.6529V32.9741Z" fill="black"/>
<path d="M255.582 14.0044H218.82V15.755H255.582V14.0044Z" fill="black"/>
<path d="M255.582 19.2559H218.82V21.0064H255.582V19.2559Z" fill="black"/>
<path d="M255.582 24.5078H218.82V26.2584H255.582V24.5078Z" fill="black"/>
<path d="M255.582 29.7593H218.82V31.5098H255.582V29.7593Z" fill="black"/>
<path d="M255.582 35.0112H218.82V36.7618H255.582V35.0112Z" fill="black"/>
<path d="M255.582 40.2627H218.82V42.0133H255.582V40.2627Z" fill="black"/>
<path d="M255.582 45.5146H218.82V47.2652H255.582V45.5146Z" fill="black"/>
<path d="M243.5 98H240.375V96.4375H238.812V93.3125H237.25V91.75H235.688V98H232.562V83.9375H235.688V90.1875H237.25V87.0625H238.812V85.5H240.375V83.9375H243.5V87.0625H240.375V90.1875H238.812V91.75H240.375V93.3125H241.938V96.4375H243.5V98ZM254.438 98H246.625V96.4375H245.062V93.3125H246.625V91.75H251.312V88.625H246.625V87.0625H252.875V88.625H254.438V98ZM251.312 96.4375V93.3125H248.188V96.4375H251.312ZM268.5 98H265.375V96.4375H263.812V94.875H262.25V93.3125H260.688V98H257.562V87.0625H260.688V91.75H262.25V90.1875H263.812V88.625H265.375V87.0625H268.5V90.1875H265.375V91.75H263.812V93.3125H265.375V94.875H266.938V96.4375H268.5V98ZM291.938 88.625H288.812V98H285.688V88.625H282.562V87.0625H291.938V88.625ZM304.438 93.3125H298.188V96.4375H302.875V98H296.625V96.4375H295.062V88.625H296.625V87.0625H302.875V88.625H304.438V93.3125ZM301.312 91.75V88.625H298.188V91.75H301.312ZM313.812 83.9375H316.938V85.5H315.375V87.0625H310.688V88.625H315.375V90.1875H316.938V96.4375H315.375V98H309.125V96.4375H307.562V87.0625H309.125V85.5H313.812V83.9375ZM313.812 96.4375V90.1875H310.688V96.4375H313.812ZM329.438 98H326.312V93.3125H323.188V98H320.062V93.3125H321.625V91.75H320.062V88.625H321.625V87.0625H329.438V98ZM326.312 91.75V88.625H323.188V91.75H326.312ZM354.438 96.4375H352.875V98H346.625V96.4375H345.062V94.875H348.188V96.4375H351.312V93.3125H348.188V91.75H351.312V88.625H348.188V90.1875H345.062V88.625H346.625V87.0625H352.875V88.625H354.438V91.75H352.875V93.3125H354.438V96.4375ZM366.938 96.4375H365.375V98H359.125V96.4375H357.562V88.625H359.125V87.0625H365.375V88.625H366.938V96.4375ZM363.812 96.4375V88.625H360.688V96.4375H363.812ZM379.438 96.4375H377.875V98H370.062V87.0625H377.875V88.625H379.438V91.75H377.875V93.3125H379.438V96.4375ZM376.312 96.4375V93.3125H373.188V96.4375H376.312ZM376.312 91.75V88.625H373.188V91.75H376.312ZM391.938 96.4375H390.375V99.5625H388.812V101.125H387.25V102.688H381V101.125H385.688V99.5625H387.25V98H384.125V96.4375H382.562V87.0625H385.688V96.4375H388.812V87.0625H391.938V96.4375ZM404.438 88.625H401.312V98H398.188V88.625H395.062V87.0625H404.438V88.625ZM416.938 88.625H415.375V90.1875H413.812V93.3125H410.688V90.1875H412.25V88.625H413.812V85.5H410.688V88.625H407.562V85.5H409.125V83.9375H415.375V85.5H416.938V88.625ZM413.812 98H410.688V94.875H413.812V98Z" fill="black"/>
<path d="M229.938 129.438H228.375V131H222.125V129.438H220.562V118.5H222.125V116.938H228.375V118.5H229.938V121.625H226.812V118.5H223.688V129.438H226.812V126.312H229.938V129.438ZM244 131H240.875V129.438H239.312V127.875H237.75V126.312H236.188V131H233.062V120.062H236.188V124.75H237.75V123.188H239.312V121.625H240.875V120.062H244V123.188H240.875V124.75H239.312V126.312H240.875V127.875H242.438V129.438H244V131ZM254.938 129.438H253.375V131H247.125V129.438H245.562V121.625H247.125V120.062H253.375V121.625H254.938V129.438ZM251.812 129.438V121.625H248.688V129.438H251.812ZM267.438 131H264.312V121.625H261.188V129.438H259.625V131H256.5V129.438H258.062V121.625H259.625V120.062H267.438V131ZM279.938 129.438H278.375V131H270.562V120.062H273.688V124.75H278.375V126.312H279.938V129.438ZM276.812 129.438V126.312H273.688V129.438H276.812ZM294 131H290.875V129.438H289.312V127.875H287.75V126.312H286.188V131H283.062V120.062H286.188V124.75H287.75V123.188H289.312V121.625H290.875V120.062H294V123.188H290.875V124.75H289.312V126.312H290.875V127.875H292.438V129.438H294V131ZM304.938 129.438H303.375V131H297.125V129.438H295.562V121.625H297.125V120.062H303.375V121.625H304.938V129.438ZM301.812 129.438V121.625H298.688V129.438H301.812ZM329.938 121.625H326.812V131H323.688V121.625H320.562V120.062H329.938V121.625ZM342.438 126.312H336.188V129.438H340.875V131H334.625V129.438H333.062V121.625H334.625V120.062H340.875V121.625H342.438V126.312ZM339.312 124.75V121.625H336.188V124.75H339.312ZM351.812 116.938H354.938V118.5H353.375V120.062H348.688V121.625H353.375V123.188H354.938V129.438H353.375V131H347.125V129.438H345.562V120.062H347.125V118.5H351.812V116.938ZM351.812 129.438V123.188H348.688V129.438H351.812ZM367.438 126.312H361.188V129.438H365.875V131H359.625V129.438H358.062V121.625H359.625V120.062H365.875V121.625H367.438V126.312ZM364.312 124.75V121.625H361.188V124.75H364.312ZM392.438 131H389.312V121.625H386.188V129.438H384.625V131H381.5V129.438H383.062V121.625H384.625V120.062H392.438V131ZM404.938 126.312H398.688V129.438H403.375V131H397.125V129.438H395.562V121.625H397.125V120.062H403.375V121.625H404.938V126.312ZM401.812 124.75V121.625H398.688V124.75H401.812ZM417.438 121.625H414.312V131H411.188V121.625H408.062V120.062H417.438V121.625ZM429.938 121.625H428.375V123.188H426.812V126.312H423.688V123.188H425.25V121.625H426.812V118.5H423.688V121.625H420.562V118.5H422.125V116.938H428.375V118.5H429.938V121.625ZM426.812 131H423.688V127.875H426.812V131Z" fill="black"/>
<path d="M217.938 162.438H216.375V164H210.125V162.438H208.562V151.5H210.125V149.938H216.375V151.5H217.938V154.625H214.812V151.5H211.688V162.438H214.812V159.312H217.938V162.438ZM244.5 164H241.375V162.438H239.812V160.875H238.25V159.312H236.688V164H233.562V153.062H236.688V157.75H238.25V156.188H239.812V154.625H241.375V153.062H244.5V156.188H241.375V157.75H239.812V159.312H241.375V160.875H242.938V162.438H244.5V164ZM255.438 164H247.625V162.438H246.062V159.312H247.625V157.75H252.312V154.625H247.625V153.062H253.875V154.625H255.438V164ZM252.312 162.438V159.312H249.188V162.438H252.312ZM269.5 164H266.375V162.438H264.812V160.875H263.25V159.312H261.688V164H258.562V153.062H261.688V157.75H263.25V156.188H264.812V154.625H266.375V153.062H269.5V156.188H266.375V157.75H264.812V159.312H266.375V160.875H267.938V162.438H269.5V164ZM280.438 162.438H278.875V164H272.625V162.438H271.062V154.625H272.625V153.062H278.875V154.625H280.438V162.438ZM277.312 162.438V154.625H274.188V162.438H277.312ZM294.5 164H291.375V157.75H289.812V159.312H288.25V160.875H286.688V164H283.562V153.062H286.688V157.75H288.25V156.188H289.812V154.625H291.375V153.062H294.5V164ZM292.938 149.938H291.375V151.5H285.125V149.938H283.562V146.812H286.688V149.938H289.812V146.812H292.938V149.938ZM317.938 154.625H314.812V164H311.688V154.625H308.562V153.062H317.938V154.625ZM328.875 162.438H327.312V164H321.062V153.062H324.188V157.75H327.312V159.312H328.875V153.062H332V164H328.875V162.438ZM325.75 162.438V159.312H324.188V162.438H325.75ZM355.438 164H352.312V154.625H349.188V164H346.062V153.062H355.438V164ZM367.938 164H364.812V154.625H361.688V162.438H360.125V164H357V162.438H358.562V154.625H360.125V153.062H367.938V164ZM380.438 164H372.625V162.438H371.062V159.312H372.625V157.75H377.312V154.625H372.625V153.062H378.875V154.625H380.438V164ZM377.312 162.438V159.312H374.188V162.438H377.312ZM392.938 164H389.812V159.312H386.688V164H383.562V153.062H386.688V157.75H389.812V153.062H392.938V164ZM405.438 159.312H399.188V162.438H403.875V164H397.625V162.438H396.062V154.625H397.625V153.062H403.875V154.625H405.438V159.312ZM402.312 157.75V154.625H399.188V157.75H402.312ZM417.938 154.625H414.812V164H411.688V154.625H408.562V153.062H417.938V154.625ZM428.875 162.438H427.312V164H421.062V153.062H424.188V157.75H427.312V159.312H428.875V153.062H432V164H428.875V162.438ZM425.75 162.438V159.312H424.188V162.438H425.75ZM442.938 154.625H441.375V156.188H439.812V159.312H436.688V156.188H438.25V154.625H439.812V151.5H436.688V154.625H433.562V151.5H435.125V149.938H441.375V151.5H442.938V154.625ZM439.812 164H436.688V160.875H439.812V164Z" fill="black"/>
<path d="M188.5 197H185.375V195.438H183.812V192.312H182.25V190.75H180.688V197H177.562V182.938H180.688V189.188H182.25V186.062H183.812V184.5H185.375V182.938H188.5V186.062H185.375V189.188H183.812V190.75H185.375V192.312H186.938V195.438H188.5V197ZM199.438 197H191.625V195.438H190.062V192.312H191.625V190.75H196.312V187.625H191.625V186.062H197.875V187.625H199.438V197ZM196.312 195.438V192.312H193.188V195.438H196.312ZM213.5 197H210.375V195.438H208.812V193.875H207.25V192.312H205.688V197H202.562V186.062H205.688V190.75H207.25V189.188H208.812V187.625H210.375V186.062H213.5V189.188H210.375V190.75H208.812V192.312H210.375V193.875H211.938V195.438H213.5V197ZM224.438 195.438H222.875V197H216.625V195.438H215.062V187.625H216.625V186.062H222.875V187.625H224.438V195.438ZM221.312 195.438V187.625H218.188V195.438H221.312ZM238.5 197H235.375V190.75H233.812V192.312H232.25V193.875H230.688V197H227.562V186.062H230.688V190.75H232.25V189.188H233.812V187.625H235.375V186.062H238.5V197ZM236.938 182.938H235.375V184.5H229.125V182.938H227.562V179.812H230.688V182.938H233.812V179.812H236.938V182.938ZM261.938 187.625H258.812V197H255.688V187.625H252.562V186.062H261.938V187.625ZM274.438 195.438H272.875V197H265.062V186.062H272.875V187.625H274.438V190.75H272.875V192.312H274.438V195.438ZM271.312 195.438V192.312H268.188V195.438H271.312ZM271.312 190.75V187.625H268.188V190.75H271.312ZM286.938 195.438H285.375V197H279.125V195.438H277.562V187.625H279.125V186.062H285.375V187.625H286.938V195.438ZM283.812 195.438V187.625H280.688V195.438H283.812ZM301 197H297.875V190.75H296.312V192.312H294.75V193.875H293.188V197H290.062V186.062H293.188V190.75H294.75V189.188H296.312V187.625H297.875V186.062H301V197ZM299.438 182.938H297.875V184.5H291.625V182.938H290.062V179.812H293.188V182.938H296.312V179.812H299.438V182.938ZM324.438 197H321.312V187.625H318.188V195.438H316.625V197H313.5V195.438H315.062V187.625H316.625V186.062H324.438V197ZM335.375 187.625H333.812V186.062H336.938V187.625H338.5V195.438H336.938V197H333.812V195.438H332.25V192.312H330.688V197H327.562V186.062H330.688V190.75H332.25V187.625H333.812V195.438H335.375V187.625ZM346.312 182.938H349.438V184.5H347.875V186.062H343.188V187.625H347.875V189.188H349.438V195.438H347.875V197H341.625V195.438H340.062V186.062H341.625V184.5H346.312V182.938ZM346.312 195.438V189.188H343.188V195.438H346.312ZM363.5 197H360.375V190.75H358.812V192.312H357.25V193.875H355.688V197H352.562V186.062H355.688V190.75H357.25V189.188H358.812V187.625H360.375V186.062H363.5V197ZM371.312 193.875H369.75V190.75H368.188V197H365.062V186.062H368.188V189.188H369.75V190.75H371.312V193.875ZM376 197H372.875V190.75H371.312V189.188H372.875V186.062H376V197ZM385.375 195.438H383.812V197H377.562V186.062H380.688V190.75H383.812V192.312H385.375V186.062H388.5V197H385.375V195.438ZM382.25 195.438V192.312H380.688V195.438H382.25ZM401 197H397.875V190.75H396.312V192.312H394.75V193.875H393.188V197H390.062V186.062H393.188V190.75H394.75V189.188H396.312V187.625H397.875V186.062H401V197ZM399.438 182.938H397.875V184.5H391.625V182.938H390.062V179.812H393.188V182.938H396.312V179.812H399.438V182.938ZM426 198.562H422.875V197H415.062V186.062H418.188V195.438H421.312V186.062H424.438V195.438H426V198.562ZM436.938 195.438H435.375V197H427.562V186.062H435.375V187.625H436.938V190.75H435.375V192.312H436.938V195.438ZM433.812 195.438V192.312H430.688V195.438H433.812ZM433.812 190.75V187.625H430.688V190.75H433.812ZM449.438 192.312H443.188V195.438H447.875V197H441.625V195.438H440.062V187.625H441.625V186.062H447.875V187.625H449.438V192.312ZM446.312 190.75V187.625H443.188V190.75H446.312ZM461.938 187.625H458.812V197H455.688V187.625H452.562V186.062H461.938V187.625ZM474.438 187.625H472.875V189.188H471.312V192.312H468.188V189.188H469.75V187.625H471.312V184.5H468.188V187.625H465.062V184.5H466.625V182.938H472.875V184.5H474.438V187.625ZM471.312 197H468.188V193.875H471.312V197Z" fill="black"/>
<path d="M205.938 217.5H202.812V230H199.688V217.5H196.562V215.938H205.938V217.5ZM218.438 228.438H216.875V230H209.062V219.062H216.875V220.625H218.438V223.75H216.875V225.312H218.438V228.438ZM215.312 228.438V225.312H212.188V228.438H215.312ZM215.312 223.75V220.625H212.188V223.75H215.312ZM230.938 228.438H229.375V230H223.125V228.438H221.562V220.625H223.125V219.062H229.375V220.625H230.938V228.438ZM227.812 228.438V220.625H224.688V228.438H227.812ZM245 230H241.875V223.75H240.312V225.312H238.75V226.875H237.188V230H234.062V219.062H237.188V223.75H238.75V222.188H240.312V220.625H241.875V219.062H245V230ZM243.438 215.938H241.875V217.5H235.625V215.938H234.062V212.812H237.188V215.938H240.312V212.812H243.438V215.938ZM268.438 230H265.312V220.625H262.188V228.438H260.625V230H257.5V228.438H259.062V220.625H260.625V219.062H268.438V230ZM279.375 220.625H277.812V219.062H280.938V220.625H282.5V228.438H280.938V230H277.812V228.438H276.25V225.312H274.688V230H271.562V219.062H274.688V223.75H276.25V220.625H277.812V228.438H279.375V220.625ZM290.312 215.938H293.438V217.5H291.875V219.062H287.188V220.625H291.875V222.188H293.438V228.438H291.875V230H285.625V228.438H284.062V219.062H285.625V217.5H290.312V215.938ZM290.312 228.438V222.188H287.188V228.438H290.312ZM307.5 230H304.375V223.75H302.812V225.312H301.25V226.875H299.688V230H296.562V219.062H299.688V223.75H301.25V222.188H302.812V220.625H304.375V219.062H307.5V230ZM315.312 226.875H313.75V223.75H312.188V230H309.062V219.062H312.188V222.188H313.75V223.75H315.312V226.875ZM320 230H316.875V223.75H315.312V222.188H316.875V219.062H320V230ZM329.375 228.438H327.812V230H321.562V219.062H324.688V223.75H327.812V225.312H329.375V219.062H332.5V230H329.375V228.438ZM326.25 228.438V225.312H324.688V228.438H326.25ZM345 230H341.875V223.75H340.312V225.312H338.75V226.875H337.188V230H334.062V219.062H337.188V223.75H338.75V222.188H340.312V220.625H341.875V219.062H345V230ZM343.438 215.938H341.875V217.5H335.625V215.938H334.062V212.812H337.188V215.938H340.312V212.812H343.438V215.938ZM368.438 230H365.312V225.312H362.188V230H359.062V219.062H362.188V223.75H365.312V219.062H368.438V230ZM380.938 230H373.125V228.438H371.562V225.312H373.125V223.75H377.812V220.625H373.125V219.062H379.375V220.625H380.938V230ZM377.812 228.438V225.312H374.688V228.438H377.812ZM393.438 230H390.312V220.625H387.188V230H384.062V219.062H393.438V230ZM407.5 230H404.375V223.75H402.812V225.312H401.25V226.875H399.688V230H396.562V219.062H399.688V223.75H401.25V222.188H402.812V220.625H404.375V219.062H407.5V230ZM418.438 220.625H415.312V230H412.188V220.625H409.062V219.062H418.438V220.625ZM430.938 228.438H429.375V230H423.125V228.438H421.562V220.625H423.125V219.062H429.375V220.625H430.938V228.438ZM427.812 228.438V220.625H424.688V228.438H427.812ZM445 230H441.875V228.438H440.312V226.875H438.75V225.312H437.188V230H434.062V219.062H437.188V223.75H438.75V222.188H440.312V220.625H441.875V219.062H445V222.188H441.875V223.75H440.312V225.312H441.875V226.875H443.438V228.438H445V230ZM455.938 220.625H454.375V222.188H452.812V225.312H449.688V222.188H451.25V220.625H452.812V217.5H449.688V220.625H446.562V217.5H448.125V215.938H454.375V217.5H455.938V220.625ZM452.812 230H449.688V226.875H452.812V230Z" fill="black"/>
<path d="M230.938 250.5H227.812V263H224.688V250.5H221.562V248.938H230.938V250.5ZM243.438 261.438H241.875V263H234.062V252.062H241.875V253.625H243.438V256.75H241.875V258.312H243.438V261.438ZM240.312 261.438V258.312H237.188V261.438H240.312ZM240.312 256.75V253.625H237.188V256.75H240.312ZM255.938 261.438H254.375V263H248.125V261.438H246.562V253.625H248.125V252.062H254.375V253.625H255.938V261.438ZM252.812 261.438V253.625H249.688V261.438H252.812ZM268.438 263H265.312V258.312H262.188V263H259.062V258.312H260.625V256.75H259.062V253.625H260.625V252.062H268.438V263ZM265.312 256.75V253.625H262.188V256.75H265.312ZM293.438 263H290.312V253.625H287.188V261.438H285.625V263H282.5V261.438H284.062V253.625H285.625V252.062H293.438V263ZM304.375 253.625H302.812V252.062H305.938V253.625H307.5V261.438H305.938V263H302.812V261.438H301.25V258.312H299.688V263H296.562V252.062H299.688V256.75H301.25V253.625H302.812V261.438H304.375V253.625ZM315.312 248.938H318.438V250.5H316.875V252.062H312.188V253.625H316.875V255.188H318.438V261.438H316.875V263H310.625V261.438H309.062V252.062H310.625V250.5H315.312V248.938ZM315.312 261.438V255.188H312.188V261.438H315.312ZM332.5 263H329.375V256.75H327.812V258.312H326.25V259.875H324.688V263H321.562V252.062H324.688V256.75H326.25V255.188H327.812V253.625H329.375V252.062H332.5V263ZM340.312 259.875H338.75V256.75H337.188V263H334.062V252.062H337.188V255.188H338.75V256.75H340.312V259.875ZM345 263H341.875V256.75H340.312V255.188H341.875V252.062H345V263ZM355.938 263H348.125V261.438H346.562V258.312H348.125V256.75H352.812V253.625H348.125V252.062H354.375V253.625H355.938V263ZM352.812 261.438V258.312H349.688V261.438H352.812ZM368.438 263H365.312V258.312H362.188V263H359.062V258.312H360.625V256.75H359.062V253.625H360.625V252.062H368.438V263ZM365.312 256.75V253.625H362.188V256.75H365.312ZM393.438 258.312H387.188V261.438H391.875V263H385.625V261.438H384.062V253.625H385.625V252.062H391.875V253.625H393.438V258.312ZM390.312 256.75V253.625H387.188V256.75H390.312ZM404.375 263H398.125V264.562H395V261.438H396.562V253.625H398.125V252.062H405.938V261.438H407.5V264.562H404.375V263ZM399.688 261.438H402.812V253.625H399.688V261.438ZM418.438 263H410.625V261.438H409.062V258.312H410.625V256.75H415.312V253.625H410.625V252.062H416.875V253.625H418.438V263ZM415.312 261.438V258.312H412.188V261.438H415.312ZM430.938 253.625H429.375V255.188H427.812V258.312H424.688V255.188H426.25V253.625H427.812V250.5H424.688V253.625H421.562V250.5H423.125V248.938H429.375V250.5H430.938V253.625ZM427.812 263H424.688V259.875H427.812V263Z" fill="black"/>
<path d="M249.938 296H246.812V283.5H243.688V294.438H242.125V296H239V294.438H240.562V283.5H242.125V281.938H249.938V296ZM262.438 291.312H256.188V294.438H260.875V296H254.625V294.438H253.062V286.625H254.625V285.062H260.875V286.625H262.438V291.312ZM259.312 289.75V286.625H256.188V289.75H259.312ZM274.938 286.625H271.812V296H268.688V286.625H265.562V285.062H274.938V286.625ZM287.438 294.438H285.875V296H279.625V294.438H278.062V286.625H279.625V285.062H285.875V286.625H287.438V294.438ZM284.312 294.438V286.625H281.188V294.438H284.312ZM314 296H310.875V289.75H309.312V291.312H307.75V292.875H306.188V296H303.062V285.062H306.188V289.75H307.75V288.188H309.312V286.625H310.875V285.062H314V296ZM324.938 296H321.812V286.625H318.688V294.438H317.125V296H314V294.438H315.562V286.625H317.125V285.062H324.938V296ZM339 296H335.875V289.75H334.312V291.312H332.75V292.875H331.188V296H328.062V285.062H331.188V289.75H332.75V288.188H334.312V286.625H335.875V285.062H339V296ZM362.438 294.438H360.875V296H354.625V294.438H353.062V292.875H356.188V294.438H359.312V291.312H356.188V289.75H359.312V286.625H356.188V288.188H353.062V286.625H354.625V285.062H360.875V286.625H362.438V289.75H360.875V291.312H362.438V294.438ZM376.5 296H373.375V289.75H371.812V291.312H370.25V292.875H368.688V296H365.562V285.062H368.688V289.75H370.25V288.188H371.812V286.625H373.375V285.062H376.5V296ZM384.312 292.875H382.75V289.75H381.188V296H378.062V285.062H381.188V288.188H382.75V289.75H384.312V292.875ZM389 296H385.875V289.75H384.312V288.188H385.875V285.062H389V296ZM399.938 296H392.125V294.438H390.562V291.312H392.125V289.75H396.812V286.625H392.125V285.062H398.375V286.625H399.938V296ZM396.812 294.438V291.312H393.688V294.438H396.812ZM412.438 286.625H410.875V288.188H409.312V291.312H406.188V288.188H407.75V286.625H409.312V283.5H406.188V286.625H403.062V283.5H404.625V281.938H410.875V283.5H412.438V286.625ZM409.312 296H406.188V292.875H409.312V296Z" fill="black"/>
<path d="M232.5 329H229.375V327.438H227.812V324.312H226.25V322.75H224.688V329H221.562V314.938H224.688V321.188H226.25V318.062H227.812V316.5H229.375V314.938H232.5V318.062H229.375V321.188H227.812V322.75H229.375V324.312H230.938V327.438H232.5V329ZM243.438 327.438H241.875V329H235.625V327.438H234.062V319.625H235.625V318.062H241.875V319.625H243.438V327.438ZM240.312 327.438V319.625H237.188V327.438H240.312ZM257.5 329H246.562V318.062H249.688V327.438H251.25V318.062H252.812V327.438H254.375V318.062H257.5V329ZM270 329H266.875V327.438H265.312V325.875H263.75V324.312H262.188V329H259.062V318.062H262.188V322.75H263.75V321.188H265.312V319.625H266.875V318.062H270V321.188H266.875V322.75H265.312V324.312H266.875V325.875H268.438V327.438H270V329ZM282.5 329H279.375V322.75H277.812V324.312H276.25V325.875H274.688V329H271.562V318.062H274.688V322.75H276.25V321.188H277.812V319.625H279.375V318.062H282.5V329ZM307.5 329H304.375V322.75H302.812V324.312H301.25V325.875H299.688V329H296.562V318.062H299.688V322.75H301.25V321.188H302.812V319.625H304.375V318.062H307.5V329ZM318.438 329H315.312V319.625H312.188V327.438H310.625V329H307.5V327.438H309.062V319.625H310.625V318.062H318.438V329ZM332.5 329H329.375V322.75H327.812V324.312H326.25V325.875H324.688V329H321.562V318.062H324.688V322.75H326.25V321.188H327.812V319.625H329.375V318.062H332.5V329ZM355.938 327.438H354.375V329H348.125V327.438H346.562V319.625H348.125V318.062H354.375V319.625H355.938V321.188H352.812V319.625H349.688V327.438H352.812V325.875H355.938V327.438ZM368.438 327.438H366.875V329H360.625V327.438H359.062V319.625H360.625V318.062H366.875V319.625H368.438V327.438ZM365.312 327.438V319.625H362.188V327.438H365.312ZM377.812 314.938H380.938V316.5H379.375V318.062H374.688V319.625H379.375V321.188H380.938V327.438H379.375V329H373.125V327.438H371.562V318.062H373.125V316.5H377.812V314.938ZM377.812 327.438V321.188H374.688V327.438H377.812ZM393.438 329H385.625V327.438H384.062V324.312H385.625V322.75H390.312V319.625H385.625V318.062H391.875V319.625H393.438V329ZM390.312 327.438V324.312H387.188V327.438H390.312ZM407.5 329H404.375V327.438H402.812V325.875H401.25V324.312H399.688V329H396.562V318.062H399.688V322.75H401.25V321.188H402.812V319.625H404.375V318.062H407.5V321.188H404.375V322.75H402.812V324.312H404.375V325.875H405.938V327.438H407.5V329ZM420 329H416.875V322.75H415.312V324.312H413.75V325.875H412.188V329H409.062V318.062H412.188V322.75H413.75V321.188H415.312V319.625H416.875V318.062H420V329ZM430.938 319.625H429.375V321.188H427.812V324.312H424.688V321.188H426.25V319.625H427.812V316.5H424.688V319.625H421.562V316.5H423.125V314.938H429.375V316.5H430.938V319.625ZM427.812 329H424.688V325.875H427.812V329Z" fill="black"/>
<path d="M243.938 360.438H242.375V362H236.125V360.438H234.562V349.5H236.125V347.938H242.375V349.5H243.938V352.625H240.812V349.5H237.688V360.438H240.812V357.312H243.938V360.438ZM256.438 362H253.312V352.625H250.188V360.438H248.625V362H245.5V360.438H247.062V352.625H248.625V351.062H256.438V362ZM268.938 362H261.125V360.438H259.562V357.312H261.125V355.75H265.812V352.625H261.125V351.062H267.375V352.625H268.938V362ZM265.812 360.438V357.312H262.688V360.438H265.812ZM279.875 362H273.625V363.562H270.5V360.438H272.062V352.625H273.625V351.062H281.438V360.438H283V363.562H279.875V362ZM275.188 360.438H278.312V352.625H275.188V360.438ZM295.5 362H292.375V360.438H290.812V358.875H289.25V357.312H287.688V362H284.562V351.062H287.688V355.75H289.25V354.188H290.812V352.625H292.375V351.062H295.5V354.188H292.375V355.75H290.812V357.312H292.375V358.875H293.938V360.438H295.5V362ZM306.438 360.438H304.875V362H298.625V360.438H297.062V352.625H298.625V351.062H304.875V352.625H306.438V360.438ZM303.312 360.438V352.625H300.188V360.438H303.312ZM318.938 357.312H312.688V360.438H317.375V362H311.125V360.438H309.562V352.625H311.125V351.062H317.375V352.625H318.938V357.312ZM315.812 355.75V352.625H312.688V355.75H315.812ZM343.938 362H340.812V352.625H337.688V360.438H336.125V362H333V360.438H334.562V352.625H336.125V351.062H343.938V362ZM354.875 352.625H353.312V351.062H356.438V352.625H358V360.438H356.438V362H353.312V360.438H351.75V357.312H350.188V362H347.062V351.062H350.188V355.75H351.75V352.625H353.312V360.438H354.875V352.625ZM365.812 347.938H368.938V349.5H367.375V351.062H362.688V352.625H367.375V354.188H368.938V360.438H367.375V362H361.125V360.438H359.562V351.062H361.125V349.5H365.812V347.938ZM365.812 360.438V354.188H362.688V360.438H365.812ZM383 362H379.875V355.75H378.312V357.312H376.75V358.875H375.188V362H372.062V351.062H375.188V355.75H376.75V354.188H378.312V352.625H379.875V351.062H383V362ZM395.5 362H384.562V351.062H387.688V360.438H389.25V351.062H390.812V360.438H392.375V351.062H395.5V362ZM406.438 360.438H404.875V362H397.062V351.062H400.188V355.75H404.875V357.312H406.438V360.438ZM403.312 360.438V357.312H400.188V360.438H403.312ZM418.938 352.625H417.375V354.188H415.812V357.312H412.688V354.188H414.25V352.625H415.812V349.5H412.688V352.625H409.562V349.5H411.125V347.938H417.375V349.5H418.938V352.625ZM415.812 362H412.688V358.875H415.812V362Z" fill="black"/>
<path d="M262.938 395H259.812V382.5H256.688V393.438H255.125V395H252V393.438H253.562V382.5H255.125V380.938H262.938V395ZM273.875 385.625H272.312V384.062H275.438V385.625H277V393.438H275.438V395H272.312V393.438H270.75V390.312H269.188V395H266.062V384.062H269.188V388.75H270.75V385.625H272.312V393.438H273.875V385.625ZM284.812 380.938H287.938V382.5H286.375V384.062H281.688V385.625H286.375V387.188H287.938V393.438H286.375V395H280.125V393.438H278.562V384.062H280.125V382.5H284.812V380.938ZM284.812 393.438V387.188H281.688V393.438H284.812ZM302 395H298.875V388.75H297.312V390.312H295.75V391.875H294.188V395H291.062V384.062H294.188V388.75H295.75V387.188H297.312V385.625H298.875V384.062H302V395ZM314.5 395H303.562V384.062H306.688V393.438H308.25V384.062H309.812V393.438H311.375V384.062H314.5V395ZM325.438 393.438H323.875V395H316.062V384.062H319.188V388.75H323.875V390.312H325.438V393.438ZM322.312 393.438V390.312H319.188V393.438H322.312ZM350.438 385.625H344.188V395H341.062V384.062H350.438V385.625ZM362.938 393.438H361.375V395H355.125V393.438H353.562V385.625H355.125V384.062H361.375V385.625H362.938V393.438ZM359.812 393.438V385.625H356.688V393.438H359.812ZM375.438 393.438H373.875V395H369.188V399.688H366.062V384.062H373.875V385.625H375.438V393.438ZM372.312 393.438V385.625H369.188V393.438H372.312ZM386.375 393.438H384.812V395H378.562V384.062H381.688V388.75H384.812V390.312H386.375V384.062H389.5V395H386.375V393.438ZM383.25 393.438V390.312H381.688V393.438H383.25ZM400.438 385.625H398.875V387.188H397.312V390.312H394.188V387.188H395.75V385.625H397.312V382.5H394.188V385.625H391.062V382.5H392.625V380.938H398.875V382.5H400.438V385.625ZM397.312 395H394.188V391.875H397.312V395Z" fill="black"/>
<path d="M90.125 37.125H88.25V39H78.875V22.125H88.25V24H90.125V29.625H88.25V31.5H90.125V37.125ZM86.375 37.125V31.5H82.625V37.125H86.375ZM86.375 29.625V24H82.625V29.625H86.375ZM105.125 37.125H103.25V39H95.75V37.125H93.875V27.75H95.75V25.875H103.25V27.75H105.125V37.125ZM101.375 37.125V27.75H97.625V37.125H101.375ZM120.125 39H116.375V27.75H112.625V39H108.875V25.875H120.125V39ZM135.125 37.125H133.25V39H127.625V44.625H123.875V25.875H133.25V27.75H135.125V37.125ZM131.375 37.125V27.75H127.625V37.125H131.375ZM150.125 37.125H148.25V39H140.75V37.125H138.875V27.75H140.75V25.875H148.25V27.75H150.125V37.125ZM146.375 37.125V27.75H142.625V37.125H146.375ZM165.125 37.125H163.25V39H155.75V37.125H153.875V27.75H155.75V25.875H163.25V27.75H165.125V29.625H161.375V27.75H157.625V37.125H161.375V35.25H165.125V37.125ZM178.25 37.125H176.375V39H168.875V25.875H172.625V31.5H176.375V33.375H178.25V25.875H182V39H178.25V37.125ZM174.5 37.125V33.375H172.625V37.125H174.5Z" fill="black"/>
</g>
<defs>
<clipPath id="clip0_502_2">
<rect width="651" height="438" fill="white"/>
</clipPath>
</defs>
</svg>
