<svg width="652" height="463" viewBox="0 0 652 463" fill="none" xmlns="http://www.w3.org/2000/svg">
<rect x="587" width="43" height="15" fill="#BFF2B6"/>
<rect x="278" width="43" height="15" fill="#BFF2B6"/>
<rect x="378" y="433" width="66" height="15" fill="#BFF2B6"/>
<rect x="29" y="433" width="66" height="15" fill="#BFF2B6"/>
<rect x="145" y="448" width="66" height="15" fill="#BFF2B6"/>
<rect x="141" width="66" height="15" fill="#BFF2B6"/>
<rect x="207" width="71" height="15" fill="#84CC77"/>
<rect x="453" width="15" height="15" fill="#84CC77"/>
<rect x="126" width="15" height="15" fill="#84CC77"/>
<rect x="572" width="15" height="15" fill="#84CC77"/>
<rect x="110" y="433" width="15" height="15" fill="#BFF2B6"/>
<rect x="95" y="433" width="15" height="15" fill="#84CC77"/>
<rect x="532" y="225" width="15" height="200" fill="#84CC77"/>
<rect x="145" y="433" width="233" height="15" fill="#84CC77"/>
<rect width="15" height="15" transform="matrix(1 0 0 -1 547 425)" fill="#BFF2B6"/>
<rect x="16" y="15" width="621" height="419" fill="#FF8FB8"/>
<rect x="23" y="21" width="607" height="407" fill="white"/>
<rect x="45" y="44" width="562" height="331" fill="#FF8FB8"/>
<rect x="51" y="49" width="549" height="320" fill="white"/>
<rect x="630" y="15" width="7" height="6" fill="#9CE58F"/>
<rect x="630" y="428" width="7" height="6" fill="#9CE58F"/>
<rect x="600" y="399" width="7" height="6" fill="white"/>
<rect x="600" y="43" width="7" height="6" fill="white"/>
<rect x="600" y="43" width="7" height="6" fill="white"/>
<rect x="600" y="369" width="7" height="6" fill="white"/>
<rect x="44" y="43" width="7" height="6" fill="white"/>
<rect x="44" y="369" width="7" height="6" fill="white"/>
<rect x="16" y="428" width="7" height="6" fill="#9CE58F"/>
<rect x="16" y="15" width="7" height="6" fill="#9CE58F"/>
<rect x="583" y="383" width="4" height="4" fill="#FF4A8C"/>
<rect x="579" y="383" width="4" height="4" fill="#FF4A8C"/>
<rect x="587" y="383" width="4" height="4" fill="#FF4A8C"/>
<rect x="599" y="395" width="4" height="4" fill="#FF4A8C"/>
<rect x="595" y="391" width="4" height="4" fill="#FF4A8C"/>
<rect x="591" y="387" width="4" height="4" fill="#FF4A8C"/>
<rect x="599" y="399" width="4" height="4" fill="#FF4A8C"/>
<rect x="599" y="403" width="4" height="4" fill="#FF4A8C"/>
<rect x="591" y="411" width="4" height="4" fill="#FF4A8C"/>
<rect x="595" y="407" width="4" height="4" fill="#FF4A8C"/>
<rect width="4" height="4" transform="matrix(-1 0 0 1 571 395)" fill="#FF4A8C"/>
<rect width="4" height="4" transform="matrix(-1 0 0 1 575 391)" fill="#FF4A8C"/>
<rect width="4" height="4" transform="matrix(-1 0 0 1 579 387)" fill="#FF4A8C"/>
<rect width="4" height="4" transform="matrix(-1 0 0 1 571 399)" fill="#FF4A8C"/>
<rect width="4" height="4" transform="matrix(-1 0 0 1 571 403)" fill="#FF4A8C"/>
<rect width="4" height="4" transform="matrix(-1 0 0 1 579 411)" fill="#FF4A8C"/>
<rect width="4" height="4" transform="matrix(-1 0 0 1 575 407)" fill="#FF4A8C"/>
<rect x="583" y="415" width="4" height="4" fill="#FF4A8C"/>
<rect x="579" y="415" width="4" height="4" fill="#FF4A8C"/>
<rect x="587" y="415" width="4" height="4" fill="#FF4A8C"/>
<rect x="539" y="383" width="4" height="4" fill="#FF8FB8"/>
<rect x="535" y="383" width="4" height="4" fill="#FF8FB8"/>
<rect x="543" y="383" width="4" height="4" fill="#FF8FB8"/>
<rect x="555" y="395" width="4" height="4" fill="#FF8FB8"/>
<rect x="551" y="391" width="4" height="4" fill="#FF8FB8"/>
<rect x="547" y="387" width="4" height="4" fill="#FF8FB8"/>
<rect x="555" y="399" width="4" height="4" fill="#FF8FB8"/>
<rect x="555" y="403" width="4" height="4" fill="#FF8FB8"/>
<rect x="547" y="411" width="4" height="4" fill="#FF8FB8"/>
<rect x="551" y="407" width="4" height="4" fill="#FF8FB8"/>
<rect width="4" height="4" transform="matrix(-1 0 0 1 527 395)" fill="#FF8FB8"/>
<rect width="4" height="4" transform="matrix(-1 0 0 1 531 391)" fill="#FF8FB8"/>
<rect width="4" height="4" transform="matrix(-1 0 0 1 535 387)" fill="#FF8FB8"/>
<rect width="4" height="4" transform="matrix(-1 0 0 1 527 399)" fill="#FF8FB8"/>
<rect width="4" height="4" transform="matrix(-1 0 0 1 527 403)" fill="#FF8FB8"/>
<rect width="4" height="4" transform="matrix(-1 0 0 1 535 411)" fill="#FF8FB8"/>
<rect width="4" height="4" transform="matrix(-1 0 0 1 531 407)" fill="#FF8FB8"/>
<rect x="539" y="415" width="4" height="4" fill="#FF8FB8"/>
<rect x="535" y="415" width="4" height="4" fill="#FF8FB8"/>
<rect x="543" y="415" width="4" height="4" fill="#FF8FB8"/>
<rect x="495" y="383" width="4" height="4" fill="#FFD9E7"/>
<rect x="491" y="383" width="4" height="4" fill="#FFD9E7"/>
<rect x="499" y="383" width="4" height="4" fill="#FFD9E7"/>
<rect x="511" y="395" width="4" height="4" fill="#FFD9E7"/>
<rect x="507" y="391" width="4" height="4" fill="#FFD9E7"/>
<rect x="503" y="387" width="4" height="4" fill="#FFD9E7"/>
<rect x="511" y="399" width="4" height="4" fill="#FFD9E7"/>
<rect x="511" y="403" width="4" height="4" fill="#FFD9E7"/>
<rect x="503" y="411" width="4" height="4" fill="#FFD9E7"/>
<rect x="507" y="407" width="4" height="4" fill="#FFD9E7"/>
<rect width="4" height="4" transform="matrix(-1 0 0 1 483 395)" fill="#FFD9E7"/>
<rect width="4" height="4" transform="matrix(-1 0 0 1 487 391)" fill="#FFD9E7"/>
<rect width="4" height="4" transform="matrix(-1 0 0 1 491 387)" fill="#FFD9E7"/>
<rect width="4" height="4" transform="matrix(-1 0 0 1 483 399)" fill="#FFD9E7"/>
<rect width="4" height="4" transform="matrix(-1 0 0 1 483 403)" fill="#FFD9E7"/>
<rect width="4" height="4" transform="matrix(-1 0 0 1 491 411)" fill="#FFD9E7"/>
<rect width="4" height="4" transform="matrix(-1 0 0 1 487 407)" fill="#FFD9E7"/>
<rect x="495" y="415" width="4" height="4" fill="#FFD9E7"/>
<rect x="491" y="415" width="4" height="4" fill="#FFD9E7"/>
<rect x="499" y="415" width="4" height="4" fill="#FFD9E7"/>
<rect x="535" y="387" width="12" height="28" fill="#FF8FB8"/>
<rect x="539" y="390" width="12" height="22" fill="#FF8FB8"/>
<rect x="531" y="391" width="12" height="22" fill="#FF8FB8"/>
<rect x="527" y="394" width="12" height="13" fill="#FF8FB8"/>
<rect x="543" y="394" width="12" height="13" fill="#FF8FB8"/>
<rect x="491" y="387" width="12" height="28" fill="#FFD9E7"/>
<rect x="502" y="391" width="5" height="20" fill="#FFD9E7"/>
<rect x="506" y="395" width="5" height="12" fill="#FFD9E7"/>
<rect x="487" y="391" width="5" height="20" fill="#FFD9E7"/>
<rect x="483" y="394" width="5" height="13" fill="#FFD9E7"/>
<rect x="579" y="387" width="12" height="28" fill="#FF4A8C"/>
<rect x="590" y="391" width="5" height="20" fill="#FF4A8C"/>
<rect x="594" y="395" width="5" height="12" fill="#FF4A8C"/>
<rect x="575" y="391" width="5" height="20" fill="#FF4A8C"/>
<rect x="571" y="394" width="5" height="13" fill="#FF4A8C"/>
<rect x="637" y="428" width="74" height="15" transform="rotate(-90 637 428)" fill="#BFF2B6"/>
<rect x="637" y="354" width="73" height="15" transform="rotate(-90 637 354)" fill="#84CC77"/>
<rect x="637" y="235" width="15" height="15" transform="rotate(-90 637 235)" fill="#84CC77"/>
<rect x="1" y="92" width="71" height="15" transform="rotate(-90 1 92)" fill="#84CC77"/>
<rect x="1" y="216" width="66" height="15" transform="rotate(-90 1 216)" fill="#BFF2B6"/>
<rect x="1" y="149" width="15" height="15" transform="rotate(-90 1 149)" fill="#84CC77"/>
<rect y="428" width="43" height="15" transform="rotate(-90 0 428)" fill="#BFF2B6"/>
</svg>
