<svg width="1004" height="409" viewBox="0 0 1004 409" fill="none" xmlns="http://www.w3.org/2000/svg">
<rect x="586" width="43" height="15" fill="#BFF2B6"/>
<rect x="277" width="43" height="15" fill="#BFF2B6"/>
<rect x="772" y="379" width="66" height="15" fill="#BFF2B6"/>
<rect x="22" y="379" width="66" height="15" fill="#BFF2B6"/>
<rect x="134" y="394" width="66" height="15" fill="#BFF2B6"/>
<rect x="140" width="66" height="15" fill="#BFF2B6"/>
<rect x="206" width="71" height="15" fill="#84CC77"/>
<rect x="452" width="15" height="15" fill="#84CC77"/>
<rect x="125" width="15" height="15" fill="#84CC77"/>
<rect x="885" width="43" height="15" fill="#BFF2B6"/>
<rect x="748" width="66" height="15" fill="#BFF2B6"/>
<rect x="814" width="71" height="15" fill="#84CC77"/>
<rect x="733" width="15" height="15" fill="#84CC77"/>
<rect x="571" width="15" height="15" fill="#84CC77"/>
<rect x="99" y="379" width="15" height="15" fill="#BFF2B6"/>
<rect x="84" y="379" width="15" height="15" fill="#84CC77"/>
<rect x="134" y="379" width="233" height="15" fill="#84CC77"/>
<rect x="15" y="15" width="974" height="364" fill="#FF8FB8"/>
<rect x="22" y="21" width="960" height="351" fill="white"/>
<rect x="44" y="44" width="913" height="266" fill="#FF8FB8"/>
<rect x="51" y="50" width="900" height="254" fill="white"/>
<rect x="982" y="15" width="7" height="6" fill="#9CE58F"/>
<rect x="982" y="372" width="7" height="7" fill="#9CE58F"/>
<rect x="951" y="304" width="11" height="7" fill="white"/>
<rect x="951" y="43" width="11" height="7" fill="white"/>
<rect x="44" y="44" width="7" height="6" fill="white"/>
<rect x="44" y="304" width="7" height="9" fill="white"/>
<rect x="15" y="372" width="7" height="7" fill="#9CE58F"/>
<rect x="15" y="15" width="7" height="6" fill="#9CE58F"/>
<rect x="955" y="339" width="7" height="6" fill="white"/>
<rect x="938" y="323" width="4" height="4" fill="#FF4A8C"/>
<rect x="934" y="323" width="4" height="4" fill="#FF4A8C"/>
<rect x="942" y="323" width="4" height="4" fill="#FF4A8C"/>
<rect x="954" y="335" width="4" height="4" fill="#FF4A8C"/>
<rect x="950" y="331" width="4" height="4" fill="#FF4A8C"/>
<rect x="946" y="327" width="4" height="4" fill="#FF4A8C"/>
<rect x="954" y="339" width="4" height="4" fill="#FF4A8C"/>
<rect x="954" y="343" width="4" height="4" fill="#FF4A8C"/>
<rect x="946" y="351" width="4" height="4" fill="#FF4A8C"/>
<rect x="950" y="347" width="4" height="4" fill="#FF4A8C"/>
<rect width="4" height="4" transform="matrix(-1 0 0 1 926 335)" fill="#FF4A8C"/>
<rect width="4" height="4" transform="matrix(-1 0 0 1 930 331)" fill="#FF4A8C"/>
<rect width="4" height="4" transform="matrix(-1 0 0 1 934 327)" fill="#FF4A8C"/>
<rect width="4" height="4" transform="matrix(-1 0 0 1 926 339)" fill="#FF4A8C"/>
<rect width="4" height="4" transform="matrix(-1 0 0 1 926 343)" fill="#FF4A8C"/>
<rect width="4" height="4" transform="matrix(-1 0 0 1 934 351)" fill="#FF4A8C"/>
<rect width="4" height="4" transform="matrix(-1 0 0 1 930 347)" fill="#FF4A8C"/>
<rect x="938" y="355" width="4" height="4" fill="#FF4A8C"/>
<rect x="934" y="355" width="4" height="4" fill="#FF4A8C"/>
<rect x="942" y="355" width="4" height="4" fill="#FF4A8C"/>
<rect x="894" y="323" width="4" height="4" fill="#FF8FB8"/>
<rect x="890" y="323" width="4" height="4" fill="#FF8FB8"/>
<rect x="898" y="323" width="4" height="4" fill="#FF8FB8"/>
<rect x="910" y="335" width="4" height="4" fill="#FF8FB8"/>
<rect x="906" y="331" width="4" height="4" fill="#FF8FB8"/>
<rect x="902" y="327" width="4" height="4" fill="#FF8FB8"/>
<rect x="910" y="339" width="4" height="4" fill="#FF8FB8"/>
<rect x="910" y="343" width="4" height="4" fill="#FF8FB8"/>
<rect x="902" y="351" width="4" height="4" fill="#FF8FB8"/>
<rect x="906" y="347" width="4" height="4" fill="#FF8FB8"/>
<rect width="4" height="4" transform="matrix(-1 0 0 1 882 335)" fill="#FF8FB8"/>
<rect width="4" height="4" transform="matrix(-1 0 0 1 886 331)" fill="#FF8FB8"/>
<rect width="4" height="4" transform="matrix(-1 0 0 1 890 327)" fill="#FF8FB8"/>
<rect width="4" height="4" transform="matrix(-1 0 0 1 882 339)" fill="#FF8FB8"/>
<rect width="4" height="4" transform="matrix(-1 0 0 1 882 343)" fill="#FF8FB8"/>
<rect width="4" height="4" transform="matrix(-1 0 0 1 890 351)" fill="#FF8FB8"/>
<rect width="4" height="4" transform="matrix(-1 0 0 1 886 347)" fill="#FF8FB8"/>
<rect x="894" y="355" width="4" height="4" fill="#FF8FB8"/>
<rect x="890" y="355" width="4" height="4" fill="#FF8FB8"/>
<rect x="898" y="355" width="4" height="4" fill="#FF8FB8"/>
<rect x="850" y="323" width="4" height="4" fill="#FFD9E7"/>
<rect x="846" y="323" width="4" height="4" fill="#FFD9E7"/>
<rect x="854" y="323" width="4" height="4" fill="#FFD9E7"/>
<rect x="866" y="335" width="4" height="4" fill="#FFD9E7"/>
<rect x="862" y="331" width="4" height="4" fill="#FFD9E7"/>
<rect x="858" y="327" width="4" height="4" fill="#FFD9E7"/>
<rect x="866" y="339" width="4" height="4" fill="#FFD9E7"/>
<rect x="866" y="343" width="4" height="4" fill="#FFD9E7"/>
<rect x="858" y="351" width="4" height="4" fill="#FFD9E7"/>
<rect x="862" y="347" width="4" height="4" fill="#FFD9E7"/>
<rect width="4" height="4" transform="matrix(-1 0 0 1 838 335)" fill="#FFD9E7"/>
<rect width="4" height="4" transform="matrix(-1 0 0 1 842 331)" fill="#FFD9E7"/>
<rect width="4" height="4" transform="matrix(-1 0 0 1 846 327)" fill="#FFD9E7"/>
<rect width="4" height="4" transform="matrix(-1 0 0 1 838 339)" fill="#FFD9E7"/>
<rect width="4" height="4" transform="matrix(-1 0 0 1 838 343)" fill="#FFD9E7"/>
<rect width="4" height="4" transform="matrix(-1 0 0 1 846 351)" fill="#FFD9E7"/>
<rect width="4" height="4" transform="matrix(-1 0 0 1 842 347)" fill="#FFD9E7"/>
<rect x="850" y="355" width="4" height="4" fill="#FFD9E7"/>
<rect x="846" y="355" width="4" height="4" fill="#FFD9E7"/>
<rect x="854" y="355" width="4" height="4" fill="#FFD9E7"/>
<rect x="890" y="327" width="12" height="28" fill="#FF8FB8"/>
<rect x="894" y="330" width="12" height="22" fill="#FF8FB8"/>
<rect x="886" y="331" width="12" height="22" fill="#FF8FB8"/>
<rect x="882" y="334" width="12" height="13" fill="#FF8FB8"/>
<rect x="898" y="334" width="12" height="13" fill="#FF8FB8"/>
<rect x="846" y="327" width="12" height="28" fill="#FFD9E7"/>
<rect x="857" y="331" width="5" height="20" fill="#FFD9E7"/>
<rect x="861" y="335" width="5" height="12" fill="#FFD9E7"/>
<rect x="842" y="331" width="5" height="20" fill="#FFD9E7"/>
<rect x="838" y="334" width="5" height="13" fill="#FFD9E7"/>
<rect x="934" y="327" width="12" height="28" fill="#FF4A8C"/>
<rect x="945" y="331" width="5" height="20" fill="#FF4A8C"/>
<rect x="949" y="335" width="5" height="12" fill="#FF4A8C"/>
<rect x="930" y="331" width="5" height="20" fill="#FF4A8C"/>
<rect x="926" y="334" width="5" height="13" fill="#FF4A8C"/>
<rect x="989" y="229" width="74" height="15" transform="rotate(-90 989 229)" fill="#BFF2B6"/>
<rect x="989" y="155" width="73" height="15" transform="rotate(-90 989 155)" fill="#84CC77"/>
<rect x="989" y="36" width="15" height="15" transform="rotate(-90 989 36)" fill="#84CC77"/>
<rect y="92" width="71" height="15" transform="rotate(-90 0 92)" fill="#84CC77"/>
<rect y="215" width="66" height="15" transform="rotate(-90 0 215)" fill="#BFF2B6"/>
<rect y="149" width="15" height="15" transform="rotate(-90 0 149)" fill="#84CC77"/>
<rect y="299" width="43" height="15" transform="rotate(-90 0 299)" fill="#BFF2B6"/>
</svg>
