<svg width="1463" height="77" viewBox="0 0 1463 77" fill="none" xmlns="http://www.w3.org/2000/svg">
<rect width="107.171" height="56.265" transform="matrix(-1 0 0 1 107.171 20.0947)" fill="#FF8FB8"/>
<rect width="10.7171" height="10.7171" transform="matrix(-1 0 0 1 10.717 20.0947)" fill="#FF4A8C"/>
<path d="M21.4346 20.0947V30.8115H10.7168V41.5293H21.4346V52.2461H32.1514V76.3594H0V20.0947H21.4346ZM42.8691 52.2461H32.1514V41.5293H42.8691V52.2461ZM32.1514 41.5293H21.4346V30.8115H32.1514V41.5293Z" fill="#FF4A8C"/>
<rect x="624" y="20" width="107.171" height="56.265" fill="#FF8FB8"/>
<path d="M709.737 20V30.7168H720.455V41.4346H709.737V52.1514H699.021V76.2646H731.172V20H709.737ZM688.303 52.1514H699.021V41.4346H688.303V52.1514ZM699.021 41.4346H709.737V30.7168H699.021V41.4346Z" fill="#FF4A8C"/>
<path d="M75.0205 76.3594H64.3027V65.6426H75.0205V76.3594ZM96.4541 76.3594H85.7373V65.6426H96.4541V76.3594ZM645.435 65.5479V76.2646H634.718V65.5479H645.435ZM666.869 65.5479V76.2646H656.151V65.5479H666.869ZM634.718 20V30.7168H624V41.4346H634.718V30.7168H645.435V20H656.152V42.7734H645.435V53.4912H634.718V65.5479H624V76H107V65.6426H96.4541V53.5859H85.7373V42.8682H75.0195V20.0947H85.7373V30.8115H96.4541V20.0947H107V20H634.718ZM64.3027 53.5859H53.5859V42.8691H64.3027V53.5859ZM677.586 42.7744V53.4912H666.869V42.7744H677.586ZM96.4541 41.5293H107V30.8115H96.4541V41.5293ZM64.3027 30.8115H53.5859V20.0947H64.3027V30.8115ZM677.586 20V30.7168H666.869V20H677.586Z" fill="white"/>
<rect x="198.267" y="1.3396" width="18.755" height="18.755" fill="#BFF2B6"/>
<rect y="20.1914" width="18.8516" height="198.267" transform="rotate(-90 0 20.1914)" fill="#84CC77"/>
<rect x="533.178" y="20.0947" width="20.0946" height="198.267" transform="rotate(-90 533.178 20.0947)" fill="#84CC77"/>
<rect x="1331.6" y="20.0947" width="107.171" height="56.265" fill="#FF8FB8"/>
<rect x="1428.06" y="20.0947" width="10.7171" height="10.7171" fill="#FF4A8C"/>
<path d="M1406.62 76.3594H1385.19V65.6426H1406.62V76.3594ZM1462.89 20.0947V76.3594H1406.62V52.2461H1417.34V41.5293H1428.06V30.8115H1417.34V20.0947H1462.89ZM1385.19 65.6426H1374.47V54.9258H1385.19V65.6426ZM1406.62 53.5859H1395.91V42.8691H1406.62V53.5859ZM1385.19 41.5293H1374.47V30.8115H1385.19V41.5293ZM1417.34 41.5293H1406.62V30.8115H1417.34V41.5293ZM1406.62 30.8115H1395.91V20.0947H1406.62V30.8115Z" fill="#FF4A8C"/>
<rect width="107.171" height="56.265" transform="matrix(-1 0 0 1 862.286 20)" fill="#FF8FB8"/>
<rect width="10.7171" height="10.7171" transform="matrix(-1 0 0 1 765.832 20)" fill="#FF4A8C"/>
<path d="M787.266 76.2646H808.699V65.5479H787.266V76.2646ZM731 20V76.2646H787.265V52.1514H776.548V41.4346H765.831V30.7168H776.548V20H731ZM808.699 65.5479H819.417V54.8311H808.699V65.5479ZM787.266 53.4912H797.982V42.7744H787.266V53.4912ZM808.699 41.4346H819.417V30.7168H808.699V41.4346ZM776.548 41.4346H787.265V30.7168H776.548V41.4346ZM787.266 30.7168H797.982V20H787.266V30.7168Z" fill="#FF4A8C"/>
<path d="M1353.04 76.3594H1342.32V64.3027H1353.04V76.3594ZM851.568 64.208V76.2646H840.852V64.208H851.568ZM1332 20.0947H1342.32V30.8115H1332V53.5859H1342.32V64.3027H1332V76H862V64.208H851.569V53.4912H862V30.7168H851.569V20H1332V20.0947ZM1363.76 42.8682H1353.04V53.5859H1342.32V30.8115H1353.04V20.0947H1363.76V42.8682ZM840.852 20V30.7168H851.568V53.4912H840.852V42.7734H830.135V20H840.852ZM1385.19 30.8115H1374.47V20.0947H1385.19V30.8115ZM819.417 20V30.7168H808.7V20H819.417Z" fill="white"/>
<rect x="929.712" y="1.3396" width="18.755" height="18.755" fill="#BFF2B6"/>
<rect x="731.445" y="20.1914" width="18.8516" height="198.267" transform="rotate(-90 731.445 20.1914)" fill="#84CC77"/>
<rect x="1264.62" y="20.0947" width="20.0946" height="198.267" transform="rotate(-90 1264.62 20.0947)" fill="#84CC77"/>
</svg>
