<svg width="113" height="124" viewBox="0 0 113 124" fill="none" xmlns="http://www.w3.org/2000/svg">
<rect x="16" y="92" width="59" height="6" transform="rotate(-90 16 92)" fill="#7C7C7C"/>
<rect x="81" y="92" width="59" height="6" transform="rotate(-90 81 92)" fill="#9C9C9C"/>
<rect x="22" y="92" width="59" height="6" fill="#7C7C7C"/>
<rect x="22" y="27" width="59" height="6" fill="#9C9C9C"/>
<rect x="96" y="101" width="78" height="6" transform="rotate(-90 96 101)" fill="#CCCCCC"/>
<rect y="101" width="78" height="6" transform="rotate(-90 0 101)" fill="#CCCCCC"/>
<rect x="12" y="107" width="78" height="6" fill="#CCCCCC"/>
<rect x="12" y="11" width="78" height="6" fill="#CCCCCC"/>
<rect x="90" y="17" width="6" height="6" fill="#CCCCCC"/>
<rect x="90" y="101" width="6" height="6" fill="#CCCCCC"/>
<rect x="6" y="17" width="6" height="6" fill="#CCCCCC"/>
<rect x="6" y="101" width="6" height="6" fill="#CCCCCC"/>
<rect x="22" y="33" width="59" height="59" fill="white"/>
<path d="M65.7749 41.7017H71.7026V47.8765H77.3833V77.022H71.7026V83.1968H65.7749V88.8774H36.6294V83.1968H30.7017V77.022H25.021V47.8765H30.7017V41.7017H36.6294V36.021H65.7749V41.7017Z" fill="#FF84B1"/>
<path d="M62.4937 45.8821H67.2271V50.8127H71.7642V74.0852H67.2271V79.0159H62.4937V83.553H39.2212V79.0159H34.4878V74.0852H29.9517V50.8127H34.4878V45.8821H39.2212V41.3459H62.4937V45.8821Z" fill="#FF4A8C"/>
<path d="M43.9548 73.4946H39.2214V68.7612H43.9548V73.4946ZM62.4939 73.4946H57.7605V68.7612H62.4939V73.4946ZM48.491 68.7612H43.9548V64.2241H48.491V68.7612ZM57.7605 68.7612H53.2244V64.2241H57.7605V68.7612ZM53.2244 64.2251H48.491V59.4917H53.2244V64.2251ZM48.491 59.4917H43.9548V54.9556H48.491V59.4917ZM57.7605 59.4917H53.2244V54.9556H57.7605V59.4917ZM43.9548 54.9546H39.2214V50.2212H43.9548V54.9546ZM62.4939 54.9546H57.7605V50.2212H62.4939V54.9546Z" fill="white"/>
<path d="M71.6953 41.7266V47.9268H77.374V77.1953H71.6953V83.3965H65.7695V89.1006H36.6357V83.3965H30.71V77.1953H25.0312V47.9268H30.71V41.7266H71.6953ZM65.7695 41.7256H36.6357V36.0215H65.7695V41.7256Z" fill="#76DF64"/>
<path d="M71.7559 74.2471H67.2217V79.1982H62.4902V83.7529H39.2266V79.1982H34.4941V74.2471H29.96V50.876H71.7559V74.2471ZM39.2256 50.875H34.4941V45.9238H39.2256V50.875ZM62.4902 45.9238H67.2217V50.875H39.2266V41.3691H62.4902V45.9238Z" fill="#99F189"/>
<path d="M52.1611 76.6426H47.3896V71.8486H52.1611V76.6426ZM47.3896 71.8486H42.6182V67.0547H47.3896V71.8486ZM57.0869 71.8486H52.3154V67.0547H57.0869V71.8486ZM42.6172 67.0547H37.8457V62.2617H42.6172V67.0547ZM61.8584 67.0547H57.0869V58.0859H61.8584V67.0547ZM66.6299 58.0859H61.8584V48.499H66.6299V58.0859Z" fill="white"/>
<rect x="55" y="113" width="11" height="11" fill="#E4E4E4"/>
<rect x="102" y="90" width="11" height="11" fill="#E4E4E4"/>
<rect x="67" width="23" height="11" fill="#F5F5F5"/>
<rect x="12" y="113" width="43" height="11" fill="#F5F5F5"/>
<rect x="102" y="66" width="43" height="11" transform="rotate(-90 102 66)" fill="#F5F5F5"/>
</svg>
