<svg width="479" height="465" viewBox="0 0 479 465" fill="none" xmlns="http://www.w3.org/2000/svg">
<path d="M15.7881 258.846H30.7881V340.846H15.7881V258.846Z" fill="#84CC77"/>
<path d="M15.7881 205.423H30.7881V220.423H15.7881V205.423Z" fill="#84CC77"/>
<path d="M171.451 449.128H314.451V464.128H171.451V449.128Z" fill="#BFF2B6"/>
<rect x="28.8848" y="434.211" width="143" height="15" fill="#BFF2B6"/>
<path d="M15.7881 1.06268e-05H30.7881V206H15.7881V1.06268e-05Z" fill="#BFF2B6"/>
<rect x="463.885" y="2.21143" width="15" height="432" fill="#84CC77"/>
<path d="M264.385 434.211H464.385V449.211H264.385V434.211Z" fill="#84CC77"/>
<path d="M449.385 449.211H464.385V464.211H449.385V449.211Z" fill="#7ACA6C"/>
<path d="M-0.000106268 220.211H15.9999V258.211H-0.000106268V220.211Z" fill="#BFF2B6"/>
<path d="M454.31 434.211H40.46V431.02H454.31V434.211ZM40.46 431.02H37.2676V427.829H40.46V431.02ZM457.502 431.02H454.31V427.829H457.502V431.02ZM37.2676 427.829H34.0762V424.636H37.2676V427.829ZM460.693 427.829H457.502V424.636H460.693V427.829ZM34.0762 424.636H30.8848V10.7866H34.0762V424.636ZM463.885 424.636H460.693V10.7866H463.885V424.636ZM37.2676 10.7866H34.0762V7.59424H37.2676V10.7866ZM460.693 10.7866H457.502V7.59424H460.693V10.7866ZM40.46 7.59424H37.2676V4.40283H40.46V7.59424ZM457.502 7.59424H454.31V4.40283H457.502V7.59424ZM454.31 4.40283H40.46V1.21143H454.31V4.40283Z" fill="#FF8FB8"/>
<path d="M454.31 431.02H40.46V427.829H37.2676V424.636H34.0762V10.7866H37.2676V7.59424H40.46V4.40283H454.31V7.59424H457.502V10.7866H460.693V424.636H457.502V427.829H454.31V431.02Z" fill="#FFE4EB"/>
<path d="M416.204 387.401H83.8857V384.862H81.3223V382.323H78.7598V53.1001H81.3223V50.561H83.8848V48.022H416.204V50.561H418.767V53.1001H421.329V382.323H418.767V384.862H416.204V387.401Z" fill="#FF8FB8"/>
<path d="M438.04 417.189H56.7285V414.249H438.04V417.189ZM56.7285 414.249H53.7881V411.308H56.7285V414.249ZM440.981 414.249H438.04V411.308H440.981V414.249ZM53.7881 411.308H50.8477V408.368H53.7881V411.308ZM443.922 411.308H440.981V408.368H443.922V411.308ZM50.8477 408.367H47.9072V27.0552H50.8477V408.367ZM446.862 408.367H443.922V27.0552H446.862V408.367ZM53.7881 27.0562H50.8477V24.1147H53.7881V27.0562ZM443.922 27.0562H440.981V24.1147H443.922V27.0562ZM56.7285 24.1147H53.7881V21.1743H56.7285V24.1147ZM440.981 24.1147H438.04V21.1743H440.981V24.1147ZM438.04 21.1743H56.7285V18.2339H438.04V21.1743Z" fill="#FF8FB8"/>
<path d="M414.151 387.003H411.627V389.529H84.207V387.003H411.626V384.478H414.151V387.003ZM84.207 387.003H81.6816V384.478H84.207V387.003ZM81.6816 384.478H79.1572V381.954H81.6816V384.478ZM416.677 384.478H414.151V381.954H416.677V384.478ZM79.1572 381.953H76.6318V54.5337H79.1572V381.953ZM419.201 381.953H416.677V54.5337H419.201V381.953ZM81.6816 54.5337H79.1572V52.0083H81.6816V54.5337ZM416.677 54.5337H414.151V52.0083H416.677V54.5337ZM84.207 52.0083H81.6816V49.4839H84.207V52.0083ZM411.627 49.4839H414.151V52.0083H411.626V49.4839H84.207V46.9585H411.627V49.4839Z" fill="#FF8FB8"/>
<path d="M443.982 26.9966L443.966 50.3188L443.653 50.3208V374.3H443.625V383.247L443.886 383.222L443.946 406.447L443.971 408.363H440.978L440.992 411.309H438.053L438.041 414.263L56.6758 414.243L56.6162 405.293L72.6514 405.311L72.6611 400.896L78.8848 400.909L78.8926 397.717L85.1182 397.73L85.1221 395.603L87.1973 395.607L87.2041 392.416L91.4277 392.424L91.4346 389.55L399.937 389.549V389.211H410.943V386.725H414.553V384.229H416.988V381.656H419.463V373.897H421.382V53.6343H422.592V48.7935H425.714V46.6655H427.795V40.2817H430.917V33.8989H435.54L435.545 26.9897L443.982 26.9966Z" fill="#FFB2ED"/>
<path d="M68.1211 53.3413H63.8652V72.4917H68.1211V87.3862H63.8652V122.494H68.1211V137.388H63.8652V149.091H68.1211V213.988H72.376V218.244H68.1211V229.946H72.376V244.84H68.1211V285.268H72.376V300.163H68.1211V307.61H72.376V311.865H68.1211V360.803H63.8652V235.265H59.6094V365.059H55.3545V376.762H58.5459V391.656H54.29V376.762H51.0986V43.7671H55.3545V153.346H59.6094V23.5532H68.1211V53.3413ZM76.6318 336.334H72.376V321.44H76.6318V336.334ZM76.6318 201.221H72.376V186.327H76.6318V201.221ZM74.5039 141.644H70.248V137.388H74.5039V141.644ZM72.376 122.494H68.1211V107.6H72.376V122.494ZM72.376 102.28H68.1211V87.3862H72.376V102.28ZM76.6318 74.6196H72.376V70.3638H76.6318V74.6196ZM72.376 57.5972H68.1211V53.3413H72.376V57.5972ZM57.4814 39.5112H53.2266V35.2554H57.4814V39.5112Z" fill="#FFFEFF"/>
<path d="M41.1689 69.2749H39.3955V87.0415H41.1689V100.86H39.3955V133.431H41.1689V147.25H39.3955V158.106H41.1689V218.314H42.9424V222.262H41.1689V233.12H42.9424V246.937H41.1689V284.444H42.9424V298.262H41.1689V305.171H42.9424V309.12H41.1689V354.522H39.3955V238.054H37.623V358.47H35.8496V369.327H37.1797V383.145H35.4062V369.327H34.0762V60.3921H35.8496V162.054H37.623V41.6392H41.1689V69.2749ZM44.7158 331.821H42.9424V318.002H44.7158V331.821ZM44.7158 206.47H42.9424V192.652H44.7158V206.47ZM43.8291 151.198H42.0557V147.25H43.8291V151.198ZM42.9424 133.431H41.1689V119.613H42.9424V133.431ZM42.9424 114.678H41.1689V100.86H42.9424V114.678ZM44.7158 89.0151H42.9424V85.0679H44.7158V89.0151ZM42.9424 73.2231H41.1689V69.2749H42.9424V73.2231ZM36.7363 56.4438H34.9629V52.4956H36.7363V56.4438Z" fill="#FF8FB8"/>
<path d="M93.623 422.864V424.636H113.438V422.864H128.848V424.636H165.174V422.864H180.585V424.636H192.693V422.864H411.749V424.636H281.856V426.41H416.151V428.183H428.26V426.853H443.671V428.626H428.26V429.956H83.7158V428.183H197.097V426.41H62.8008V422.864H93.623ZM386.431 419.317V421.09H371.02V419.317H386.431ZM361.112 421.09V422.863H356.709V421.09H361.112ZM349.004 421.09V422.863H333.593V421.09H349.004ZM291.764 421.09V422.863H276.353V421.09H291.764ZM264.244 421.09V422.863H259.841V421.09H264.244ZM246.632 419.317V421.09H231.221V419.317H246.632ZM184.987 420.204V421.977H180.585V420.204H184.987ZM165.174 421.09V422.863H149.763V421.09H165.174ZM144.259 421.09V422.863H128.848V421.09H144.259ZM115.639 419.317V421.09H111.235V419.317H115.639ZM98.0264 421.09V422.863H93.623V421.09H98.0264ZM79.3125 427.296V429.07H74.9102V427.296H79.3125Z" fill="#FFFEFF"/>
<path d="M414.318 11.4956V9.72217L393.398 9.72217V11.4956L377.126 11.4956V9.72217L338.771 9.72217V11.4956L322.499 11.4956V9.72217L309.714 9.72217V11.4956L238.815 11.4956V13.269H234.166V11.4956L221.381 11.4956V13.269L205.109 13.269V11.4956L160.942 11.4956V13.269L144.671 13.269V11.4956H136.535V13.269L131.886 13.269V11.4956L78.4209 11.4956V9.72217L215.569 9.72217V7.94971L73.7725 7.94971V6.17627L60.9873 6.17627V7.50635L44.7148 7.50635V5.73291L60.9873 5.73291V4.40283L424.779 4.40283V6.17627L305.064 6.17627V7.94971L446.862 7.94971V11.4956L414.318 11.4956ZM105.153 15.0425V13.269L121.426 13.269V15.0425L105.153 15.0425ZM252.763 15.0425V13.269L269.034 13.269V15.0425L252.763 15.0425ZM317.85 14.1558V12.3823L322.499 12.3823V14.1558H317.85ZM338.771 13.269V11.4956L355.043 11.4956V13.269L338.771 13.269ZM360.854 13.269V11.4956L377.126 11.4956V13.269L360.854 13.269ZM391.073 15.0425V13.269L395.723 13.269V15.0425L391.073 15.0425ZM409.67 13.269V11.4956H414.319V13.269L409.67 13.269ZM429.429 7.06299V5.28955L434.078 5.28955V7.06299L429.429 7.06299Z" fill="#FF8FB8"/>
<rect x="132.885" y="25.2114" width="4" height="15" transform="rotate(-90 132.885 25.2114)" fill="#FFFEFF"/>
<rect x="189.885" y="42.2114" width="4" height="14" transform="rotate(-90 189.885 42.2114)" fill="#FFFEFF"/>
<rect x="308.885" y="31.2114" width="4" height="15" transform="rotate(-90 308.885 31.2114)" fill="#FFFEFF"/>
<rect x="397.885" y="47.2114" width="5" height="15" transform="rotate(-90 397.885 47.2114)" fill="#FFFEFF"/>
<rect x="407.885" y="31.2114" width="4" height="15" transform="rotate(-90 407.885 31.2114)" fill="#FFFEFF"/>
<rect x="293.885" y="25.2114" width="4" height="15" transform="rotate(-90 293.885 25.2114)" fill="#FFFEFF"/>
<rect x="278.885" y="31.2114" width="4" height="81" transform="rotate(-90 278.885 31.2114)" fill="#FFFEFF"/>
<rect x="193.885" y="25.2114" width="4" height="81" transform="rotate(-90 193.885 25.2114)" fill="#FFFEFF"/>
<rect x="65.8848" y="25.2114" width="4" height="81" transform="rotate(-90 65.8848 25.2114)" fill="#FFFEFF"/>
<rect x="249.885" y="395.211" width="5" height="81" transform="rotate(-90 249.885 395.211)" fill="#FFFEFF"/>
<rect x="364.885" y="414.211" width="4" height="11" transform="rotate(-90 364.885 414.211)" fill="#FFFEFF"/>
<path d="M427.358 373.57H431.437V354.42H427.358V339.526H431.437V304.417H427.358V289.524H431.437L431.437 277.821H427.358V212.924H423.28V208.668H427.358V196.965H423.28V182.072H427.358V141.644H423.28V126.75H427.358V119.302H423.28V115.046H427.358L427.358 66.1079H431.437L431.437 191.646H435.515L435.515 61.853H439.593V50.1499H436.534V35.2554H440.612V50.1499H443.671L443.671 383.145H439.593L439.593 273.565H435.515L435.515 403.359H427.358V373.57ZM421.24 90.5776H425.319V105.472H421.24V90.5776ZM421.329 225.691H425.407V240.584H421.329V225.691ZM421.241 285.268H425.319L425.319 289.524H421.241L421.241 285.268ZM423.28 304.417H427.358V319.312H423.28V304.417ZM423.28 324.631H427.358V339.526H423.28V324.631ZM421.329 356.548H425.407V360.803H421.329V356.548ZM423.28 369.315H427.358V373.57H423.28V369.315ZM437.554 387.401H441.632V391.656H437.554V387.401Z" fill="#FFE1F3"/>
<rect x="81.8848" y="407.211" width="48" height="4" fill="#FFFEFF"/>
<rect x="181.885" y="411.211" width="48" height="3" fill="#FFFEFF"/>
<rect x="176.885" y="411.211" width="3" height="3" fill="#FFFEFF"/>
<rect x="233.885" y="389.211" width="3" height="4" fill="#FFFEFF"/>
<rect x="387.885" y="389.211" width="4" height="4" fill="#FFFEFF"/>
<rect x="443.885" y="428.211" width="3" height="3" fill="#FF8FB8"/>
<rect x="76.8848" y="411.211" width="48" height="3" fill="#FFFEFF"/>
<rect x="126.885" y="40.2114" width="48" height="4" fill="#FFFEFF"/>
<rect x="226.885" y="44.2114" width="48" height="3" fill="#FFFEFF"/>
<rect x="220.885" y="44.2114" width="4" height="3" fill="#FFFEFF"/>
<rect x="120.885" y="44.2114" width="48" height="3" fill="#FFFEFF"/>
<path d="M381.885 21.2114H428.885V24.2114H381.885V21.2114Z" fill="#FFFEFF"/>
<rect x="374.885" y="23.2114" width="48" height="4" fill="#FFFEFF"/>
<path d="M15.7881 258.846H30.7881V340.846H15.7881V258.846Z" fill="#84CC77"/>
<path d="M15.7881 205.423H30.7881V220.423H15.7881V205.423Z" fill="#84CC77"/>
<path d="M171.451 449.128H314.451V464.128H171.451V449.128Z" fill="#BFF2B6"/>
<rect x="28.8848" y="434.211" width="143" height="15" fill="#BFF2B6"/>
<path d="M15.7881 1.06268e-05H30.7881V206H15.7881V1.06268e-05Z" fill="#BFF2B6"/>
<rect x="463.885" y="2.21143" width="15" height="432" fill="#84CC77"/>
<path d="M264.385 434.211H464.385V449.211H264.385V434.211Z" fill="#84CC77"/>
<path d="M449.385 449.211H464.385V464.211H449.385V449.211Z" fill="#7ACA6C"/>
<path d="M-0.000106268 220.211H15.9999V258.211H-0.000106268V220.211Z" fill="#BFF2B6"/>
<path d="M454.31 434.211H40.46V431.02H454.31V434.211ZM40.46 431.02H37.2676V427.829H40.46V431.02ZM457.502 431.02H454.31V427.829H457.502V431.02ZM37.2676 427.829H34.0762V424.636H37.2676V427.829ZM460.693 427.829H457.502V424.636H460.693V427.829ZM34.0762 424.636H30.8848V10.7866H34.0762V424.636ZM463.885 424.636H460.693V10.7866H463.885V424.636ZM37.2676 10.7866H34.0762V7.59424H37.2676V10.7866ZM460.693 10.7866H457.502V7.59424H460.693V10.7866ZM40.46 7.59424H37.2676V4.40283H40.46V7.59424ZM457.502 7.59424H454.31V4.40283H457.502V7.59424ZM454.31 4.40283H40.46V1.21143H454.31V4.40283Z" fill="#FF8FB8"/>
<path d="M454.31 431.02H40.46V427.829H37.2676V424.636H34.0762V10.7866H37.2676V7.59424H40.46V4.40283H454.31V7.59424H457.502V10.7866H460.693V424.636H457.502V427.829H454.31V431.02Z" fill="#FFE4EB"/>
<path d="M416.204 387.401H83.8857V384.862H81.3223V382.323H78.7598V53.1001H81.3223V50.561H83.8848V48.022H416.204V50.561H418.767V53.1001H421.329V382.323H418.767V384.862H416.204V387.401Z" fill="#FF8FB8"/>
<path d="M438.04 417.189H56.7285V414.249H438.04V417.189ZM56.7285 414.249H53.7881V411.308H56.7285V414.249ZM440.981 414.249H438.04V411.308H440.981V414.249ZM53.7881 411.308H50.8477V408.368H53.7881V411.308ZM443.922 411.308H440.981V408.368H443.922V411.308ZM50.8477 408.367H47.9072V27.0552H50.8477V408.367ZM446.862 408.367H443.922V27.0552H446.862V408.367ZM53.7881 27.0562H50.8477V24.1147H53.7881V27.0562ZM443.922 27.0562H440.981V24.1147H443.922V27.0562ZM56.7285 24.1147H53.7881V21.1743H56.7285V24.1147ZM440.981 24.1147H438.04V21.1743H440.981V24.1147ZM438.04 21.1743H56.7285V18.2339H438.04V21.1743Z" fill="#FF8FB8"/>
<path d="M414.151 387.003H411.627V389.529H84.207V387.003H411.626V384.478H414.151V387.003ZM84.207 387.003H81.6816V384.478H84.207V387.003ZM81.6816 384.478H79.1572V381.954H81.6816V384.478ZM416.677 384.478H414.151V381.954H416.677V384.478ZM79.1572 381.953H76.6318V54.5337H79.1572V381.953ZM419.201 381.953H416.677V54.5337H419.201V381.953ZM81.6816 54.5337H79.1572V52.0083H81.6816V54.5337ZM416.677 54.5337H414.151V52.0083H416.677V54.5337ZM84.207 52.0083H81.6816V49.4839H84.207V52.0083ZM411.627 49.4839H414.151V52.0083H411.626V49.4839H84.207V46.9585H411.627V49.4839Z" fill="#FF8FB8"/>
<path d="M443.982 26.9966L443.966 50.3188L443.653 50.3208V374.3H443.625V383.247L443.886 383.222L443.946 406.447L443.971 408.363H440.978L440.992 411.309H438.053L438.041 414.263L56.6758 414.243L56.6162 405.293L72.6514 405.311L72.6611 400.896L78.8848 400.909L78.8926 397.717L85.1182 397.73L85.1221 395.603L87.1973 395.607L87.2041 392.416L91.4277 392.424L91.4346 389.55L399.937 389.549V389.211H410.943V386.725H414.553V384.229H416.988V381.656H419.463V373.897H421.382V53.6343H422.592V48.7935H425.714V46.6655H427.795V40.2817H430.917V33.8989H435.54L435.545 26.9897L443.982 26.9966Z" fill="#FFB2ED"/>
<path d="M68.1211 53.3413H63.8652V72.4917H68.1211V87.3862H63.8652V122.494H68.1211V137.388H63.8652V149.091H68.1211V213.988H72.376V218.244H68.1211V229.946H72.376V244.84H68.1211V285.268H72.376V300.163H68.1211V307.61H72.376V311.865H68.1211V360.803H63.8652V235.265H59.6094V365.059H55.3545V376.762H58.5459V391.656H54.29V376.762H51.0986V43.7671H55.3545V153.346H59.6094V23.5532H68.1211V53.3413ZM76.6318 336.334H72.376V321.44H76.6318V336.334ZM76.6318 201.221H72.376V186.327H76.6318V201.221ZM74.5039 141.644H70.248V137.388H74.5039V141.644ZM72.376 122.494H68.1211V107.6H72.376V122.494ZM72.376 102.28H68.1211V87.3862H72.376V102.28ZM76.6318 74.6196H72.376V70.3638H76.6318V74.6196ZM72.376 57.5972H68.1211V53.3413H72.376V57.5972ZM57.4814 39.5112H53.2266V35.2554H57.4814V39.5112Z" fill="#FFFEFF"/>
<path d="M41.1689 69.2749H39.3955V87.0415H41.1689V100.86H39.3955V133.431H41.1689V147.25H39.3955V158.106H41.1689V218.314H42.9424V222.262H41.1689V233.12H42.9424V246.937H41.1689V284.444H42.9424V298.262H41.1689V305.171H42.9424V309.12H41.1689V354.522H39.3955V238.054H37.623V358.47H35.8496V369.327H37.1797V383.145H35.4062V369.327H34.0762V60.3921H35.8496V162.054H37.623V41.6392H41.1689V69.2749ZM44.7158 331.821H42.9424V318.002H44.7158V331.821ZM44.7158 206.47H42.9424V192.652H44.7158V206.47ZM43.8291 151.198H42.0557V147.25H43.8291V151.198ZM42.9424 133.431H41.1689V119.613H42.9424V133.431ZM42.9424 114.678H41.1689V100.86H42.9424V114.678ZM44.7158 89.0151H42.9424V85.0679H44.7158V89.0151ZM42.9424 73.2231H41.1689V69.2749H42.9424V73.2231ZM36.7363 56.4438H34.9629V52.4956H36.7363V56.4438Z" fill="#FF8FB8"/>
<path d="M93.623 422.864V424.636H113.438V422.864H128.848V424.636H165.174V422.864H180.585V424.636H192.693V422.864H411.749V424.636H281.856V426.41H416.151V428.183H428.26V426.853H443.671V428.626H428.26V429.956H83.7158V428.183H197.097V426.41H62.8008V422.864H93.623ZM386.431 419.317V421.09H371.02V419.317H386.431ZM361.112 421.09V422.863H356.709V421.09H361.112ZM349.004 421.09V422.863H333.593V421.09H349.004ZM291.764 421.09V422.863H276.353V421.09H291.764ZM264.244 421.09V422.863H259.841V421.09H264.244ZM246.632 419.317V421.09H231.221V419.317H246.632ZM184.987 420.204V421.977H180.585V420.204H184.987ZM165.174 421.09V422.863H149.763V421.09H165.174ZM144.259 421.09V422.863H128.848V421.09H144.259ZM115.639 419.317V421.09H111.235V419.317H115.639ZM98.0264 421.09V422.863H93.623V421.09H98.0264ZM79.3125 427.296V429.07H74.9102V427.296H79.3125Z" fill="#FFFEFF"/>
<path d="M414.318 11.4956V9.72217L393.398 9.72217V11.4956L377.126 11.4956V9.72217L338.771 9.72217V11.4956L322.499 11.4956V9.72217L309.714 9.72217V11.4956L238.815 11.4956V13.269H234.166V11.4956L221.381 11.4956V13.269L205.109 13.269V11.4956L160.942 11.4956V13.269L144.671 13.269V11.4956H136.535V13.269L131.886 13.269V11.4956L78.4209 11.4956V9.72217L215.569 9.72217V7.94971L73.7725 7.94971V6.17627L60.9873 6.17627V7.50635L44.7148 7.50635V5.73291L60.9873 5.73291V4.40283L424.779 4.40283V6.17627L305.064 6.17627V7.94971L446.862 7.94971V11.4956L414.318 11.4956ZM105.153 15.0425V13.269L121.426 13.269V15.0425L105.153 15.0425ZM252.763 15.0425V13.269L269.034 13.269V15.0425L252.763 15.0425ZM317.85 14.1558V12.3823L322.499 12.3823V14.1558H317.85ZM338.771 13.269V11.4956L355.043 11.4956V13.269L338.771 13.269ZM360.854 13.269V11.4956L377.126 11.4956V13.269L360.854 13.269ZM391.073 15.0425V13.269L395.723 13.269V15.0425L391.073 15.0425ZM409.67 13.269V11.4956H414.319V13.269L409.67 13.269ZM429.429 7.06299V5.28955L434.078 5.28955V7.06299L429.429 7.06299Z" fill="#FF8FB8"/>
<rect x="132.885" y="25.2114" width="4" height="15" transform="rotate(-90 132.885 25.2114)" fill="#FFFEFF"/>
<rect x="189.885" y="42.2114" width="4" height="14" transform="rotate(-90 189.885 42.2114)" fill="#FFFEFF"/>
<rect x="308.885" y="31.2114" width="4" height="15" transform="rotate(-90 308.885 31.2114)" fill="#FFFEFF"/>
<rect x="397.885" y="47.2114" width="5" height="15" transform="rotate(-90 397.885 47.2114)" fill="#FFFEFF"/>
<rect x="407.885" y="31.2114" width="4" height="15" transform="rotate(-90 407.885 31.2114)" fill="#FFFEFF"/>
<rect x="293.885" y="25.2114" width="4" height="15" transform="rotate(-90 293.885 25.2114)" fill="#FFFEFF"/>
<rect x="278.885" y="31.2114" width="4" height="81" transform="rotate(-90 278.885 31.2114)" fill="#FFFEFF"/>
<rect x="193.885" y="25.2114" width="4" height="81" transform="rotate(-90 193.885 25.2114)" fill="#FFFEFF"/>
<rect x="65.8848" y="25.2114" width="4" height="81" transform="rotate(-90 65.8848 25.2114)" fill="#FFFEFF"/>
<rect x="249.885" y="395.211" width="5" height="81" transform="rotate(-90 249.885 395.211)" fill="#FFFEFF"/>
<rect x="364.885" y="414.211" width="4" height="11" transform="rotate(-90 364.885 414.211)" fill="#FFFEFF"/>
<path d="M427.358 373.57H431.437V354.42H427.358V339.526H431.437V304.417H427.358V289.524H431.437L431.437 277.821H427.358V212.924H423.28V208.668H427.358V196.965H423.28V182.072H427.358V141.644H423.28V126.75H427.358V119.302H423.28V115.046H427.358L427.358 66.1079H431.437L431.437 191.646H435.515L435.515 61.853H439.593V50.1499H436.534V35.2554H440.612V50.1499H443.671L443.671 383.145H439.593L439.593 273.565H435.515L435.515 403.359H427.358V373.57ZM421.24 90.5776H425.319V105.472H421.24V90.5776ZM421.329 225.691H425.407V240.584H421.329V225.691ZM421.241 285.268H425.319L425.319 289.524H421.241L421.241 285.268ZM423.28 304.417H427.358V319.312H423.28V304.417ZM423.28 324.631H427.358V339.526H423.28V324.631ZM421.329 356.548H425.407V360.803H421.329V356.548ZM423.28 369.315H427.358V373.57H423.28V369.315ZM437.554 387.401H441.632V391.656H437.554V387.401Z" fill="#FFE1F3"/>
<rect x="81.8848" y="407.211" width="48" height="4" fill="#FFFEFF"/>
<rect x="181.885" y="411.211" width="48" height="3" fill="#FFFEFF"/>
<rect x="176.885" y="411.211" width="3" height="3" fill="#FFFEFF"/>
<rect x="233.885" y="389.211" width="3" height="4" fill="#FFFEFF"/>
<rect x="387.885" y="389.211" width="4" height="4" fill="#FFFEFF"/>
<rect x="443.885" y="428.211" width="3" height="3" fill="#FF8FB8"/>
<rect x="76.8848" y="411.211" width="48" height="3" fill="#FFFEFF"/>
<rect x="126.885" y="40.2114" width="48" height="4" fill="#FFFEFF"/>
<rect x="226.885" y="44.2114" width="48" height="3" fill="#FFFEFF"/>
<rect x="220.885" y="44.2114" width="4" height="3" fill="#FFFEFF"/>
<rect x="120.885" y="44.2114" width="48" height="3" fill="#FFFEFF"/>
<path d="M381.885 21.2114H428.885V24.2114H381.885V21.2114Z" fill="#FFFEFF"/>
<rect x="374.885" y="23.2114" width="48" height="4" fill="#FFFEFF"/>
<path d="M15.7881 258.846H30.7881V340.846H15.7881V258.846Z" fill="#84CC77"/>
<path d="M15.7881 205.423H30.7881V220.423H15.7881V205.423Z" fill="#84CC77"/>
<path d="M171.451 449.128H314.451V464.128H171.451V449.128Z" fill="#BFF2B6"/>
<rect x="28.8848" y="434.211" width="143" height="15" fill="#BFF2B6"/>
<path d="M15.7881 1.06268e-05H30.7881V206H15.7881V1.06268e-05Z" fill="#BFF2B6"/>
<rect x="463.885" y="2.21143" width="15" height="432" fill="#84CC77"/>
<path d="M264.385 434.211H464.385V449.211H264.385V434.211Z" fill="#84CC77"/>
<path d="M449.385 449.211H464.385V464.211H449.385V449.211Z" fill="#7ACA6C"/>
<path d="M-0.000106268 220.211H15.9999V258.211H-0.000106268V220.211Z" fill="#BFF2B6"/>
<path d="M454.31 434.211H40.46V431.02H454.31V434.211ZM40.46 431.02H37.2676V427.829H40.46V431.02ZM457.502 431.02H454.31V427.829H457.502V431.02ZM37.2676 427.829H34.0762V424.636H37.2676V427.829ZM460.693 427.829H457.502V424.636H460.693V427.829ZM34.0762 424.636H30.8848V10.7866H34.0762V424.636ZM463.885 424.636H460.693V10.7866H463.885V424.636ZM37.2676 10.7866H34.0762V7.59424H37.2676V10.7866ZM460.693 10.7866H457.502V7.59424H460.693V10.7866ZM40.46 7.59424H37.2676V4.40283H40.46V7.59424ZM457.502 7.59424H454.31V4.40283H457.502V7.59424ZM454.31 4.40283H40.46V1.21143H454.31V4.40283Z" fill="#FF8FB8"/>
<path d="M454.31 431.02H40.46V427.829H37.2676V424.636H34.0762V10.7866H37.2676V7.59424H40.46V4.40283H454.31V7.59424H457.502V10.7866H460.693V424.636H457.502V427.829H454.31V431.02Z" fill="#FFE4EB"/>
<path d="M416.204 387.401H83.8857V384.862H81.3223V382.323H78.7598V53.1001H81.3223V50.561H83.8848V48.022H416.204V50.561H418.767V53.1001H421.329V382.323H418.767V384.862H416.204V387.401Z" fill="#FF8FB8"/>
<path d="M438.04 417.189H56.7285V414.249H438.04V417.189ZM56.7285 414.249H53.7881V411.308H56.7285V414.249ZM440.981 414.249H438.04V411.308H440.981V414.249ZM53.7881 411.308H50.8477V408.368H53.7881V411.308ZM443.922 411.308H440.981V408.368H443.922V411.308ZM50.8477 408.367H47.9072V27.0552H50.8477V408.367ZM446.862 408.367H443.922V27.0552H446.862V408.367ZM53.7881 27.0562H50.8477V24.1147H53.7881V27.0562ZM443.922 27.0562H440.981V24.1147H443.922V27.0562ZM56.7285 24.1147H53.7881V21.1743H56.7285V24.1147ZM440.981 24.1147H438.04V21.1743H440.981V24.1147ZM438.04 21.1743H56.7285V18.2339H438.04V21.1743Z" fill="#FF8FB8"/>
<path d="M414.151 387.003H411.627V389.529H84.207V387.003H411.626V384.478H414.151V387.003ZM84.207 387.003H81.6816V384.478H84.207V387.003ZM81.6816 384.478H79.1572V381.954H81.6816V384.478ZM416.677 384.478H414.151V381.954H416.677V384.478ZM79.1572 381.953H76.6318V54.5337H79.1572V381.953ZM419.201 381.953H416.677V54.5337H419.201V381.953ZM81.6816 54.5337H79.1572V52.0083H81.6816V54.5337ZM416.677 54.5337H414.151V52.0083H416.677V54.5337ZM84.207 52.0083H81.6816V49.4839H84.207V52.0083ZM411.627 49.4839H414.151V52.0083H411.626V49.4839H84.207V46.9585H411.627V49.4839Z" fill="#FF8FB8"/>
<path d="M443.982 26.9966L443.966 50.3188L443.653 50.3208V374.3H443.625V383.247L443.886 383.222L443.946 406.447L443.971 408.363H440.978L440.992 411.309H438.053L438.041 414.263L56.6758 414.243L56.6162 405.293L72.6514 405.311L72.6611 400.896L78.8848 400.909L78.8926 397.717L85.1182 397.73L85.1221 395.603L87.1973 395.607L87.2041 392.416L91.4277 392.424L91.4346 389.55L399.937 389.549V389.211H410.943V386.725H414.553V384.229H416.988V381.656H419.463V373.897H421.382V53.6343H422.592V48.7935H425.714V46.6655H427.795V40.2817H430.917V33.8989H435.54L435.545 26.9897L443.982 26.9966Z" fill="#FFB2ED"/>
<path d="M68.1211 53.3413H63.8652V72.4917H68.1211V87.3862H63.8652V122.494H68.1211V137.388H63.8652V149.091H68.1211V213.988H72.376V218.244H68.1211V229.946H72.376V244.84H68.1211V285.268H72.376V300.163H68.1211V307.61H72.376V311.865H68.1211V360.803H63.8652V235.265H59.6094V365.059H55.3545V376.762H58.5459V391.656H54.29V376.762H51.0986V43.7671H55.3545V153.346H59.6094V23.5532H68.1211V53.3413ZM76.6318 336.334H72.376V321.44H76.6318V336.334ZM76.6318 201.221H72.376V186.327H76.6318V201.221ZM74.5039 141.644H70.248V137.388H74.5039V141.644ZM72.376 122.494H68.1211V107.6H72.376V122.494ZM72.376 102.28H68.1211V87.3862H72.376V102.28ZM76.6318 74.6196H72.376V70.3638H76.6318V74.6196ZM72.376 57.5972H68.1211V53.3413H72.376V57.5972ZM57.4814 39.5112H53.2266V35.2554H57.4814V39.5112Z" fill="#FFFEFF"/>
<path d="M41.1689 69.2749H39.3955V87.0415H41.1689V100.86H39.3955V133.431H41.1689V147.25H39.3955V158.106H41.1689V218.314H42.9424V222.262H41.1689V233.12H42.9424V246.937H41.1689V284.444H42.9424V298.262H41.1689V305.171H42.9424V309.12H41.1689V354.522H39.3955V238.054H37.623V358.47H35.8496V369.327H37.1797V383.145H35.4062V369.327H34.0762V60.3921H35.8496V162.054H37.623V41.6392H41.1689V69.2749ZM44.7158 331.821H42.9424V318.002H44.7158V331.821ZM44.7158 206.47H42.9424V192.652H44.7158V206.47ZM43.8291 151.198H42.0557V147.25H43.8291V151.198ZM42.9424 133.431H41.1689V119.613H42.9424V133.431ZM42.9424 114.678H41.1689V100.86H42.9424V114.678ZM44.7158 89.0151H42.9424V85.0679H44.7158V89.0151ZM42.9424 73.2231H41.1689V69.2749H42.9424V73.2231ZM36.7363 56.4438H34.9629V52.4956H36.7363V56.4438Z" fill="#FF8FB8"/>
<path d="M93.623 422.864V424.636H113.438V422.864H128.848V424.636H165.174V422.864H180.585V424.636H192.693V422.864H411.749V424.636H281.856V426.41H416.151V428.183H428.26V426.853H443.671V428.626H428.26V429.956H83.7158V428.183H197.097V426.41H62.8008V422.864H93.623ZM386.431 419.317V421.09H371.02V419.317H386.431ZM361.112 421.09V422.863H356.709V421.09H361.112ZM349.004 421.09V422.863H333.593V421.09H349.004ZM291.764 421.09V422.863H276.353V421.09H291.764ZM264.244 421.09V422.863H259.841V421.09H264.244ZM246.632 419.317V421.09H231.221V419.317H246.632ZM184.987 420.204V421.977H180.585V420.204H184.987ZM165.174 421.09V422.863H149.763V421.09H165.174ZM144.259 421.09V422.863H128.848V421.09H144.259ZM115.639 419.317V421.09H111.235V419.317H115.639ZM98.0264 421.09V422.863H93.623V421.09H98.0264ZM79.3125 427.296V429.07H74.9102V427.296H79.3125Z" fill="#FFFEFF"/>
<path d="M414.318 11.4956V9.72217L393.398 9.72217V11.4956L377.126 11.4956V9.72217L338.771 9.72217V11.4956L322.499 11.4956V9.72217L309.714 9.72217V11.4956L238.815 11.4956V13.269H234.166V11.4956L221.381 11.4956V13.269L205.109 13.269V11.4956L160.942 11.4956V13.269L144.671 13.269V11.4956H136.535V13.269L131.886 13.269V11.4956L78.4209 11.4956V9.72217L215.569 9.72217V7.94971L73.7725 7.94971V6.17627L60.9873 6.17627V7.50635L44.7148 7.50635V5.73291L60.9873 5.73291V4.40283L424.779 4.40283V6.17627L305.064 6.17627V7.94971L446.862 7.94971V11.4956L414.318 11.4956ZM105.153 15.0425V13.269L121.426 13.269V15.0425L105.153 15.0425ZM252.763 15.0425V13.269L269.034 13.269V15.0425L252.763 15.0425ZM317.85 14.1558V12.3823L322.499 12.3823V14.1558H317.85ZM338.771 13.269V11.4956L355.043 11.4956V13.269L338.771 13.269ZM360.854 13.269V11.4956L377.126 11.4956V13.269L360.854 13.269ZM391.073 15.0425V13.269L395.723 13.269V15.0425L391.073 15.0425ZM409.67 13.269V11.4956H414.319V13.269L409.67 13.269ZM429.429 7.06299V5.28955L434.078 5.28955V7.06299L429.429 7.06299Z" fill="#FF8FB8"/>
<rect x="132.885" y="25.2114" width="4" height="15" transform="rotate(-90 132.885 25.2114)" fill="#FFFEFF"/>
<rect x="189.885" y="42.2114" width="4" height="14" transform="rotate(-90 189.885 42.2114)" fill="#FFFEFF"/>
<rect x="308.885" y="31.2114" width="4" height="15" transform="rotate(-90 308.885 31.2114)" fill="#FFFEFF"/>
<rect x="397.885" y="47.2114" width="5" height="15" transform="rotate(-90 397.885 47.2114)" fill="#FFFEFF"/>
<rect x="407.885" y="31.2114" width="4" height="15" transform="rotate(-90 407.885 31.2114)" fill="#FFFEFF"/>
<rect x="293.885" y="25.2114" width="4" height="15" transform="rotate(-90 293.885 25.2114)" fill="#FFFEFF"/>
<rect x="278.885" y="31.2114" width="4" height="81" transform="rotate(-90 278.885 31.2114)" fill="#FFFEFF"/>
<rect x="193.885" y="25.2114" width="4" height="81" transform="rotate(-90 193.885 25.2114)" fill="#FFFEFF"/>
<rect x="65.8848" y="25.2114" width="4" height="81" transform="rotate(-90 65.8848 25.2114)" fill="#FFFEFF"/>
<rect x="249.885" y="395.211" width="5" height="81" transform="rotate(-90 249.885 395.211)" fill="#FFFEFF"/>
<rect x="364.885" y="414.211" width="4" height="11" transform="rotate(-90 364.885 414.211)" fill="#FFFEFF"/>
<path d="M427.358 373.57H431.437V354.42H427.358V339.526H431.437V304.417H427.358V289.524H431.437L431.437 277.821H427.358V212.924H423.28V208.668H427.358V196.965H423.28V182.072H427.358V141.644H423.28V126.75H427.358V119.302H423.28V115.046H427.358L427.358 66.1079H431.437L431.437 191.646H435.515L435.515 61.853H439.593V50.1499H436.534V35.2554H440.612V50.1499H443.671L443.671 383.145H439.593L439.593 273.565H435.515L435.515 403.359H427.358V373.57ZM421.24 90.5776H425.319V105.472H421.24V90.5776ZM421.329 225.691H425.407V240.584H421.329V225.691ZM421.241 285.268H425.319L425.319 289.524H421.241L421.241 285.268ZM423.28 304.417H427.358V319.312H423.28V304.417ZM423.28 324.631H427.358V339.526H423.28V324.631ZM421.329 356.548H425.407V360.803H421.329V356.548ZM423.28 369.315H427.358V373.57H423.28V369.315ZM437.554 387.401H441.632V391.656H437.554V387.401Z" fill="#FFE1F3"/>
<rect x="81.8848" y="407.211" width="48" height="4" fill="#FFFEFF"/>
<rect x="181.885" y="411.211" width="48" height="3" fill="#FFFEFF"/>
<rect x="176.885" y="411.211" width="3" height="3" fill="#FFFEFF"/>
<rect x="233.885" y="389.211" width="3" height="4" fill="#FFFEFF"/>
<rect x="387.885" y="389.211" width="4" height="4" fill="#FFFEFF"/>
<rect x="443.885" y="428.211" width="3" height="3" fill="#FF8FB8"/>
<rect x="76.8848" y="411.211" width="48" height="3" fill="#FFFEFF"/>
<rect x="126.885" y="40.2114" width="48" height="4" fill="#FFFEFF"/>
<rect x="226.885" y="44.2114" width="48" height="3" fill="#FFFEFF"/>
<rect x="220.885" y="44.2114" width="4" height="3" fill="#FFFEFF"/>
<rect x="120.885" y="44.2114" width="48" height="3" fill="#FFFEFF"/>
<path d="M381.885 21.2114H428.885V24.2114H381.885V21.2114Z" fill="#FFFEFF"/>
<rect x="374.885" y="23.2114" width="48" height="4" fill="#FFFEFF"/>
<path d="M15.7881 258.846H30.7881V340.846H15.7881V258.846Z" fill="#84CC77"/>
<path d="M15.7881 205.423H30.7881V220.423H15.7881V205.423Z" fill="#84CC77"/>
<path d="M171.451 449.128H314.451V464.128H171.451V449.128Z" fill="#BFF2B6"/>
<rect x="28.8848" y="434.211" width="143" height="15" fill="#BFF2B6"/>
<path d="M15.7881 1.06268e-05H30.7881V206H15.7881V1.06268e-05Z" fill="#BFF2B6"/>
<rect x="463.885" y="2.21143" width="15" height="432" fill="#84CC77"/>
<path d="M264.385 434.211H464.385V449.211H264.385V434.211Z" fill="#84CC77"/>
<path d="M449.385 449.211H464.385V464.211H449.385V449.211Z" fill="#7ACA6C"/>
<path d="M-0.000106268 220.211H15.9999V258.211H-0.000106268V220.211Z" fill="#BFF2B6"/>
<path d="M454.31 434.211H40.46V431.02H454.31V434.211ZM40.46 431.02H37.2676V427.829H40.46V431.02ZM457.502 431.02H454.31V427.829H457.502V431.02ZM37.2676 427.829H34.0762V424.636H37.2676V427.829ZM460.693 427.829H457.502V424.636H460.693V427.829ZM34.0762 424.636H30.8848V10.7866H34.0762V424.636ZM463.885 424.636H460.693V10.7866H463.885V424.636ZM37.2676 10.7866H34.0762V7.59424H37.2676V10.7866ZM460.693 10.7866H457.502V7.59424H460.693V10.7866ZM40.46 7.59424H37.2676V4.40283H40.46V7.59424ZM457.502 7.59424H454.31V4.40283H457.502V7.59424ZM454.31 4.40283H40.46V1.21143H454.31V4.40283Z" fill="#FF8FB8"/>
<path d="M454.31 431.02H40.46V427.829H37.2676V424.636H34.0762V10.7866H37.2676V7.59424H40.46V4.40283H454.31V7.59424H457.502V10.7866H460.693V424.636H457.502V427.829H454.31V431.02Z" fill="#FFE4EB"/>
<path d="M416.204 387.401H83.8857V384.862H81.3223V382.323H78.7598V53.1001H81.3223V50.561H83.8848V48.022H416.204V50.561H418.767V53.1001H421.329V382.323H418.767V384.862H416.204V387.401Z" fill="white"/>
<path d="M438.04 417.189H56.7285V414.249H438.04V417.189ZM56.7285 414.249H53.7881V411.308H56.7285V414.249ZM440.981 414.249H438.04V411.308H440.981V414.249ZM53.7881 411.308H50.8477V408.368H53.7881V411.308ZM443.922 411.308H440.981V408.368H443.922V411.308ZM50.8477 408.367H47.9072V27.0552H50.8477V408.367ZM446.862 408.367H443.922V27.0552H446.862V408.367ZM53.7881 27.0562H50.8477V24.1147H53.7881V27.0562ZM443.922 27.0562H440.981V24.1147H443.922V27.0562ZM56.7285 24.1147H53.7881V21.1743H56.7285V24.1147ZM440.981 24.1147H438.04V21.1743H440.981V24.1147ZM438.04 21.1743H56.7285V18.2339H438.04V21.1743Z" fill="#FF8FB8"/>
<path d="M414.151 387.003H411.627V389.529H84.207V387.003H411.626V384.478H414.151V387.003ZM84.207 387.003H81.6816V384.478H84.207V387.003ZM81.6816 384.478H79.1572V381.954H81.6816V384.478ZM416.677 384.478H414.151V381.954H416.677V384.478ZM79.1572 381.953H76.6318V54.5337H79.1572V381.953ZM419.201 381.953H416.677V54.5337H419.201V381.953ZM81.6816 54.5337H79.1572V52.0083H81.6816V54.5337ZM416.677 54.5337H414.151V52.0083H416.677V54.5337ZM84.207 52.0083H81.6816V49.4839H84.207V52.0083ZM411.627 49.4839H414.151V52.0083H411.626V49.4839H84.207V46.9585H411.627V49.4839Z" fill="#FF8FB8"/>
<path d="M443.982 26.9966L443.966 50.3188L443.653 50.3208V374.3H443.625V383.247L443.886 383.222L443.946 406.447L443.971 408.363H440.978L440.992 411.309H438.053L438.041 414.263L56.6758 414.243L56.6162 405.293L72.6514 405.311L72.6611 400.896L78.8848 400.909L78.8926 397.717L85.1182 397.73L85.1221 395.603L87.1973 395.607L87.2041 392.416L91.4277 392.424L91.4346 389.55L399.937 389.549V389.211H410.943V386.725H414.553V384.229H416.988V381.656H419.463V373.897H421.382V53.6343H422.592V48.7935H425.714V46.6655H427.795V40.2817H430.917V33.8989H435.54L435.545 26.9897L443.982 26.9966Z" fill="#FFB2ED"/>
<path d="M68.1211 53.3413H63.8652V72.4917H68.1211V87.3862H63.8652V122.494H68.1211V137.388H63.8652V149.091H68.1211V213.988H72.376V218.244H68.1211V229.946H72.376V244.84H68.1211V285.268H72.376V300.163H68.1211V307.61H72.376V311.865H68.1211V360.803H63.8652V235.265H59.6094V365.059H55.3545V376.762H58.5459V391.656H54.29V376.762H51.0986V43.7671H55.3545V153.346H59.6094V23.5532H68.1211V53.3413ZM76.6318 336.334H72.376V321.44H76.6318V336.334ZM76.6318 201.221H72.376V186.327H76.6318V201.221ZM74.5039 141.644H70.248V137.388H74.5039V141.644ZM72.376 122.494H68.1211V107.6H72.376V122.494ZM72.376 102.28H68.1211V87.3862H72.376V102.28ZM76.6318 74.6196H72.376V70.3638H76.6318V74.6196ZM72.376 57.5972H68.1211V53.3413H72.376V57.5972ZM57.4814 39.5112H53.2266V35.2554H57.4814V39.5112Z" fill="#FFFEFF"/>
<path d="M41.1689 69.2749H39.3955V87.0415H41.1689V100.86H39.3955V133.431H41.1689V147.25H39.3955V158.106H41.1689V218.314H42.9424V222.262H41.1689V233.12H42.9424V246.937H41.1689V284.444H42.9424V298.262H41.1689V305.171H42.9424V309.12H41.1689V354.522H39.3955V238.054H37.623V358.47H35.8496V369.327H37.1797V383.145H35.4062V369.327H34.0762V60.3921H35.8496V162.054H37.623V41.6392H41.1689V69.2749ZM44.7158 331.821H42.9424V318.002H44.7158V331.821ZM44.7158 206.47H42.9424V192.652H44.7158V206.47ZM43.8291 151.198H42.0557V147.25H43.8291V151.198ZM42.9424 133.431H41.1689V119.613H42.9424V133.431ZM42.9424 114.678H41.1689V100.86H42.9424V114.678ZM44.7158 89.0151H42.9424V85.0679H44.7158V89.0151ZM42.9424 73.2231H41.1689V69.2749H42.9424V73.2231ZM36.7363 56.4438H34.9629V52.4956H36.7363V56.4438Z" fill="#FF8FB8"/>
<path d="M93.623 422.864V424.636H113.438V422.864H128.848V424.636H165.174V422.864H180.585V424.636H192.693V422.864H411.749V424.636H281.856V426.41H416.151V428.183H428.26V426.853H443.671V428.626H428.26V429.956H83.7158V428.183H197.097V426.41H62.8008V422.864H93.623ZM386.431 419.317V421.09H371.02V419.317H386.431ZM361.112 421.09V422.863H356.709V421.09H361.112ZM349.004 421.09V422.863H333.593V421.09H349.004ZM291.764 421.09V422.863H276.353V421.09H291.764ZM264.244 421.09V422.863H259.841V421.09H264.244ZM246.632 419.317V421.09H231.221V419.317H246.632ZM184.987 420.204V421.977H180.585V420.204H184.987ZM165.174 421.09V422.863H149.763V421.09H165.174ZM144.259 421.09V422.863H128.848V421.09H144.259ZM115.639 419.317V421.09H111.235V419.317H115.639ZM98.0264 421.09V422.863H93.623V421.09H98.0264ZM79.3125 427.296V429.07H74.9102V427.296H79.3125Z" fill="#FFFEFF"/>
<path d="M414.318 11.4956V9.72217L393.398 9.72217V11.4956L377.126 11.4956V9.72217L338.771 9.72217V11.4956L322.499 11.4956V9.72217L309.714 9.72217V11.4956L238.815 11.4956V13.269H234.166V11.4956L221.381 11.4956V13.269L205.109 13.269V11.4956L160.942 11.4956V13.269L144.671 13.269V11.4956H136.535V13.269L131.886 13.269V11.4956L78.4209 11.4956V9.72217L215.569 9.72217V7.94971L73.7725 7.94971V6.17627L60.9873 6.17627V7.50635L44.7148 7.50635V5.73291L60.9873 5.73291V4.40283L424.779 4.40283V6.17627L305.064 6.17627V7.94971L446.862 7.94971V11.4956L414.318 11.4956ZM105.153 15.0425V13.269L121.426 13.269V15.0425L105.153 15.0425ZM252.763 15.0425V13.269L269.034 13.269V15.0425L252.763 15.0425ZM317.85 14.1558V12.3823L322.499 12.3823V14.1558H317.85ZM338.771 13.269V11.4956L355.043 11.4956V13.269L338.771 13.269ZM360.854 13.269V11.4956L377.126 11.4956V13.269L360.854 13.269ZM391.073 15.0425V13.269L395.723 13.269V15.0425L391.073 15.0425ZM409.67 13.269V11.4956H414.319V13.269L409.67 13.269ZM429.429 7.06299V5.28955L434.078 5.28955V7.06299L429.429 7.06299Z" fill="#FF8FB8"/>
<rect x="132.885" y="25.2114" width="4" height="15" transform="rotate(-90 132.885 25.2114)" fill="#FFFEFF"/>
<rect x="189.885" y="42.2114" width="4" height="14" transform="rotate(-90 189.885 42.2114)" fill="#FFFEFF"/>
<rect x="308.885" y="31.2114" width="4" height="15" transform="rotate(-90 308.885 31.2114)" fill="#FFFEFF"/>
<rect x="397.885" y="47.2114" width="5" height="15" transform="rotate(-90 397.885 47.2114)" fill="#FFFEFF"/>
<rect x="407.885" y="31.2114" width="4" height="15" transform="rotate(-90 407.885 31.2114)" fill="#FFFEFF"/>
<rect x="293.885" y="25.2114" width="4" height="15" transform="rotate(-90 293.885 25.2114)" fill="#FFFEFF"/>
<rect x="278.885" y="31.2114" width="4" height="81" transform="rotate(-90 278.885 31.2114)" fill="#FFFEFF"/>
<rect x="193.885" y="25.2114" width="4" height="81" transform="rotate(-90 193.885 25.2114)" fill="#FFFEFF"/>
<rect x="65.8848" y="25.2114" width="4" height="81" transform="rotate(-90 65.8848 25.2114)" fill="#FFFEFF"/>
<rect x="249.885" y="395.211" width="5" height="81" transform="rotate(-90 249.885 395.211)" fill="#FFFEFF"/>
<rect x="364.885" y="414.211" width="4" height="11" transform="rotate(-90 364.885 414.211)" fill="#FFFEFF"/>
<path d="M427.358 373.57H431.437V354.42H427.358V339.526H431.437V304.417H427.358V289.524H431.437L431.437 277.821H427.358V212.924H423.28V208.668H427.358V196.965H423.28V182.072H427.358V141.644H423.28V126.75H427.358V119.302H423.28V115.046H427.358L427.358 66.1079H431.437L431.437 191.646H435.515L435.515 61.853H439.593V50.1499H436.534V35.2554H440.612V50.1499H443.671L443.671 383.145H439.593L439.593 273.565H435.515L435.515 403.359H427.358V373.57ZM421.24 90.5776H425.319V105.472H421.24V90.5776ZM421.329 225.691H425.407V240.584H421.329V225.691ZM421.241 285.268H425.319L425.319 289.524H421.241L421.241 285.268ZM423.28 304.417H427.358V319.312H423.28V304.417ZM423.28 324.631H427.358V339.526H423.28V324.631ZM421.329 356.548H425.407V360.803H421.329V356.548ZM423.28 369.315H427.358V373.57H423.28V369.315ZM437.554 387.401H441.632V391.656H437.554V387.401Z" fill="#FFE1F3"/>
<rect x="81.8848" y="407.211" width="48" height="4" fill="#FFFEFF"/>
<rect x="181.885" y="411.211" width="48" height="3" fill="#FFFEFF"/>
<rect x="176.885" y="411.211" width="3" height="3" fill="#FFFEFF"/>
<rect x="233.885" y="389.211" width="3" height="4" fill="#FFFEFF"/>
<rect x="387.885" y="389.211" width="4" height="4" fill="#FFFEFF"/>
<rect x="443.885" y="428.211" width="3" height="3" fill="#FF8FB8"/>
<rect x="76.8848" y="411.211" width="48" height="3" fill="#FFFEFF"/>
<rect x="126.885" y="40.2114" width="48" height="4" fill="#FFFEFF"/>
<rect x="226.885" y="44.2114" width="48" height="3" fill="#FFFEFF"/>
<rect x="220.885" y="44.2114" width="4" height="3" fill="#FFFEFF"/>
<rect x="120.885" y="44.2114" width="48" height="3" fill="#FFFEFF"/>
<path d="M381.885 21.2114H428.885V24.2114H381.885V21.2114Z" fill="#FFFEFF"/>
<rect x="374.885" y="23.2114" width="48" height="4" fill="#FFFEFF"/>
<path d="M321.635 111.804H351.691V143.112H380.495V290.888H351.691V322.196H321.635V351H173.859V322.196H143.804V290.888H115V143.112H143.804V111.804H173.859V83H321.635V111.804Z" fill="#76DF64"/>
<path d="M305 133H329V158H352V276H329V301H305V324H187V301H163V276H140V158H163V133H187V110H305V133Z" fill="#99F189"/>
<path d="M252.609 288.097H228.406V263.893H252.609V288.097ZM228.406 263.893H204.203V239.689H228.406V263.893ZM277.594 263.893H253.391V239.689H277.594V263.893ZM204.203 239.689H180V215.486H204.203V239.689ZM301.797 239.689H277.594V194.406H301.797V239.689ZM326 194.406H301.797V146H326V194.406Z" fill="white"/>
</svg>
