<svg width="513" height="88" viewBox="0 0 513 88" fill="none" xmlns="http://www.w3.org/2000/svg">
<rect x="1.5" y="1.5" width="85" height="85" stroke="#919191" stroke-width="3"/>
<rect x="86.5" y="1.5" width="85" height="85" stroke="#919191" stroke-width="3"/>
<rect x="171.5" y="1.5" width="85" height="85" stroke="#919191" stroke-width="3"/>
<rect x="256.5" y="1.5" width="85" height="85" stroke="#919191" stroke-width="3"/>
<rect x="341.5" y="1.5" width="85" height="85" stroke="#919191" stroke-width="3"/>
<rect x="426.5" y="1.5" width="85" height="85" stroke="#919191" stroke-width="3"/>
<path d="M47.75 23.25H55.25V27H51.5V30.75H40.25V34.5H51.5V38.25H55.25V53.25H51.5V57H36.5V53.25H32.75V30.75H36.5V27H47.75V23.25ZM47.75 53.25V38.25H40.25V53.25H47.75Z" fill="#DEDEDE"/>
<path d="M140.25 45.75H125.25V53.25H136.5V57H121.5V53.25H117.75V34.5H121.5V30.75H136.5V34.5H140.25V45.75ZM132.75 42V34.5H125.25V42H132.75Z" fill="#DEDEDE"/>
<path d="M225.25 53.25H221.5V57H210.25V68.25H202.75V30.75H221.5V34.5H225.25V53.25ZM217.75 53.25V34.5H210.25V53.25H217.75Z" fill="#DEDEDE"/>
<path d="M310.25 45.75H295.25V53.25H306.5V57H291.5V53.25H287.75V34.5H291.5V30.75H306.5V34.5H310.25V45.75ZM302.75 42V34.5H295.25V42H302.75ZM310.25 27H302.75V19.5H310.25V27ZM295.25 27H287.75V19.5H295.25V27Z" fill="#DEDEDE"/>
<path d="M395.25 53.25H391.5V57H376.5V53.25H372.75V49.5H380.25V53.25H387.75V45.75H380.25V42H387.75V34.5H380.25V38.25H372.75V34.5H376.5V30.75H391.5V34.5H395.25V42H391.5V45.75H395.25V53.25Z" fill="#DEDEDE"/>
<path d="M480.25 57H461.5V53.25H457.75V45.75H461.5V42H472.75V34.5H461.5V30.75H476.5V34.5H480.25V57ZM472.75 53.25V45.75H465.25V53.25H472.75Z" fill="#DEDEDE"/>
</svg>
