<svg width="513" height="88" viewBox="0 0 513 88" fill="none" xmlns="http://www.w3.org/2000/svg">
<rect x="1.5" y="1.5" width="85" height="85" stroke="#919191" stroke-width="3"/>
<rect x="86.5" y="1.5" width="85" height="85" stroke="#919191" stroke-width="3"/>
<rect x="171.5" y="1.5" width="85" height="85" stroke="#919191" stroke-width="3"/>
<rect x="256.5" y="1.5" width="85" height="85" stroke="#919191" stroke-width="3"/>
<rect x="341.5" y="1.5" width="85" height="85" stroke="#919191" stroke-width="3"/>
<rect x="426.5" y="1.5" width="85" height="85" stroke="#919191" stroke-width="3"/>
<path d="M55.25 57H47.75V45.75H40.25V57H32.75V45.75H36.5V42H32.75V34.5H36.5V30.75H55.25V57ZM47.75 42V34.5H40.25V42H47.75Z" fill="#DEDEDE"/>
<path d="M132.75 23.25H140.25V27H136.5V30.75H125.25V34.5H136.5V38.25H140.25V53.25H136.5V57H121.5V53.25H117.75V30.75H121.5V27H132.75V23.25ZM132.75 53.25V38.25H125.25V53.25H132.75Z" fill="#DEDEDE"/>
<path d="M225.25 57H217.75V34.5H210.25V53.25H206.5V57H199V53.25H202.75V34.5H206.5V30.75H225.25V57Z" fill="#DEDEDE"/>
<path d="M310.25 53.25H306.5V57H291.5V53.25H287.75V34.5H291.5V30.75H306.5V34.5H310.25V53.25ZM302.75 53.25V34.5H295.25V53.25H302.75Z" fill="#DEDEDE"/>
<path d="M399 57H391.5V53.25H387.75V49.5H384V45.75H380.25V57H372.75V30.75H380.25V42H384V38.25H387.75V34.5H391.5V30.75H399V38.25H391.5V42H387.75V45.75H391.5V49.5H395.25V53.25H399V57Z" fill="#DEDEDE"/>
<path d="M480.25 53.25H476.5V57H461.5V53.25H457.75V34.5H461.5V30.75H476.5V34.5H480.25V53.25ZM472.75 53.25V34.5H465.25V53.25H472.75Z" fill="#DEDEDE"/>
</svg>
