<svg width="513" height="88" viewBox="0 0 513 88" fill="none" xmlns="http://www.w3.org/2000/svg">
<rect x="1.5" y="1.5" width="85" height="85" stroke="#919191" stroke-width="3"/>
<rect x="86.5" y="1.5" width="85" height="85" stroke="#919191" stroke-width="3"/>
<rect x="171.5" y="1.5" width="85" height="85" stroke="#919191" stroke-width="3"/>
<rect x="256.5" y="1.5" width="85" height="85" stroke="#919191" stroke-width="3"/>
<rect x="341.5" y="1.5" width="85" height="85" stroke="#919191" stroke-width="3"/>
<rect x="426.5" y="1.5" width="85" height="85" stroke="#919191" stroke-width="3"/>
<path d="M59 60.75H51.5V57H32.75V30.75H40.25V53.25H47.75V30.75H55.25V53.25H59V60.75Z" fill="#DEDEDE"/>
<path d="M140.25 53.25H136.5V57H117.75V30.75H136.5V34.5H140.25V42H136.5V45.75H140.25V53.25ZM132.75 53.25V45.75H125.25V53.25H132.75ZM132.75 42V34.5H125.25V42H132.75Z" fill="#DEDEDE"/>
<path d="M225.25 45.75H210.25V53.25H221.5V57H206.5V53.25H202.75V34.5H206.5V30.75H221.5V34.5H225.25V45.75ZM217.75 42V34.5H210.25V42H217.75Z" fill="#DEDEDE"/>
<path d="M310.25 34.5H302.75V57H295.25V34.5H287.75V30.75H310.25V34.5Z" fill="#DEDEDE"/>
<path d="M395.25 53.25H391.5V57H376.5V53.25H372.75V34.5H376.5V30.75H391.5V34.5H395.25V53.25ZM387.75 53.25V34.5H380.25V53.25H387.75Z" fill="#DEDEDE"/>
<path d="M484 57H476.5V53.25H472.75V49.5H469V45.75H465.25V57H457.75V30.75H465.25V42H469V38.25H472.75V34.5H476.5V30.75H484V38.25H476.5V42H472.75V45.75H476.5V49.5H480.25V53.25H484V57Z" fill="#DEDEDE"/>
</svg>
